<?xml version="1.0" encoding="utf-8"?>
<!-- Generator: Adobe Illustrator 19.0.0, SVG Export Plug-In . SVG Version: 6.00 Build 0)  -->
<svg version="1.1" id="Layer_1" xmlns="http://www.w3.org/2000/svg" xmlns:xlink="http://www.w3.org/1999/xlink" x="0px" y="0px"
	 viewBox="-353 283.3 135 30" style="enable-background:new -353 283.3 135 30;" xml:space="preserve">
<style type="text/css">
	.st0{fill:#FFFFFF;}
</style>
<g>
	<path class="st0" d="M-292.3,307.6c-1.2,0-2.1-0.1-2.9-0.4c-0.7-0.2-1.3-0.6-1.8-1c-0.4-0.4-0.7-0.9-0.9-1.6
		c-0.2-0.6-0.2-1.3-0.2-2.1v-18l4.1-0.7v17.9c0,0.4,0,0.7,0.1,1c0.1,0.3,0.2,0.5,0.3,0.7c0.2,0.2,0.4,0.4,0.7,0.5
		c0.3,0.1,0.7,0.2,1.2,0.2L-292.3,307.6z"/>
	<path class="st0" d="M-275.5,302.9c0,0.8,0.2,1.4,1,1.4c0.5,0,1-0.2,1.4-0.4l0.2,3c-0.7,0.3-1.9,0.6-3.1,0.6c-1.6,0-2.6-0.7-3-2.1
		c-1,1.1-2.6,2-4.5,2c-4,0-6.7-3.1-6.7-7.4c0-4.3,2.7-7.4,6.7-7.4c1.9,0,3.3,0.5,4.3,1.5V293h3.8v9.9H-275.5z M-279.3,297.4
		c-0.7-0.7-1.9-1.3-3.2-1.3c-2.4,0-3.9,1.6-3.9,4.1c0,2.4,1.5,4,3.9,4c1.3,0,2.4-0.6,3.2-1.3V297.4z"/>
	<path class="st0" d="M-319.7,307.6c-1.2,0-2.1-0.1-2.9-0.4c-0.7-0.2-1.3-0.6-1.7-1c-0.4-0.4-0.7-0.9-0.9-1.6
		c-0.2-0.6-0.2-1.3-0.2-2.1v-18l4.1-0.7v17.9c0,0.4,0,0.7,0.1,1c0.1,0.3,0.2,0.5,0.3,0.7c0.2,0.2,0.4,0.4,0.7,0.5
		c0.3,0.1,0.7,0.2,1.2,0.2L-319.7,307.6z"/>
	<path class="st0" d="M-302.9,302.9c0,0.8,0.2,1.4,1,1.4c0.5,0,1-0.2,1.4-0.4l0.2,3c-0.7,0.3-1.9,0.6-3.1,0.6c-1.6,0-2.6-0.7-3-2.1
		c-1,1.1-2.6,2-4.5,2c-4,0-6.7-3.1-6.7-7.4c0-4.3,2.7-7.4,6.7-7.4c1.9,0,3.3,0.5,4.3,1.5V293h3.8v9.9H-302.9z M-306.8,297.4
		c-0.7-0.7-1.9-1.3-3.2-1.3c-2.4,0-3.9,1.6-3.9,4.1c0,2.4,1.5,4,3.9,4c1.3,0,2.4-0.6,3.2-1.3V297.4z"/>
	<path class="st0" d="M-346.9,307.6c-1.2,0-2.1-0.1-2.9-0.4c-0.7-0.2-1.3-0.6-1.7-1s-0.7-0.9-0.9-1.6c-0.2-0.6-0.2-1.3-0.2-2.1v-18
		l4.1-0.7v17.9c0,0.4,0,0.7,0.1,1c0.1,0.3,0.2,0.5,0.3,0.7c0.2,0.2,0.4,0.4,0.7,0.5c0.3,0.1,0.7,0.2,1.2,0.2L-346.9,307.6z"/>
	<path class="st0" d="M-330.1,302.9c0,0.8,0.2,1.4,1,1.4c0.5,0,1-0.2,1.4-0.4l0.2,3c-0.7,0.3-1.9,0.6-3.1,0.6c-1.6,0-2.6-0.7-3-2.1
		c-1,1.1-2.6,2-4.5,2c-4,0-6.7-3.1-6.7-7.4c0-4.3,2.7-7.4,6.7-7.4c1.9,0,3.3,0.5,4.3,1.5V293h3.8v9.9H-330.1z M-333.9,297.4
		c-0.7-0.7-1.9-1.3-3.2-1.3c-2.4,0-3.9,1.6-3.9,4.1c0,2.4,1.5,4,3.9,4c1.3,0,2.4-0.6,3.2-1.3V297.4z"/>
	<path class="st0" d="M-262.5,299.1c-0.4,1.4-0.8,2.8-1.2,4.1c-0.4,1.4-0.8,2.7-1.3,4.1h-3.2c-0.3-0.8-0.7-1.7-1.1-2.7
		c-0.4-1.1-0.8-2.2-1.2-3.5c-0.4-1.2-0.8-2.6-1.3-4c-0.4-1.4-0.8-2.8-1.2-4.2h4.3c0.1,0.7,0.3,1.4,0.5,2.1c0.2,0.8,0.4,1.6,0.6,2.4
		c0.2,0.8,0.4,1.6,0.6,2.5c0.2,0.8,0.4,1.6,0.6,2.4c0.2-0.8,0.5-1.6,0.7-2.5c0.2-0.8,0.4-1.7,0.7-2.5c0.2-0.8,0.4-1.6,0.6-2.3
		c0.2-0.8,0.4-1.5,0.5-2.1h3c0.1,0.7,0.3,1.4,0.5,2.1c0.2,0.8,0.4,1.5,0.6,2.3c0.2,0.8,0.4,1.6,0.6,2.5c0.2,0.8,0.4,1.7,0.7,2.5
		c0.2-0.8,0.4-1.6,0.7-2.4c0.2-0.8,0.4-1.7,0.6-2.5c0.2-0.8,0.4-1.6,0.5-2.4c0.2-0.8,0.3-1.5,0.5-2.1h4.2c-0.4,1.4-0.8,2.8-1.2,4.2
		c-0.4,1.4-0.8,2.7-1.3,4c-0.4,1.2-0.8,2.4-1.2,3.5c-0.4,1.1-0.8,2-1.1,2.7h-3.2c-0.5-1.4-0.9-2.8-1.3-4.1
		C-261.8,301.8-262.2,300.5-262.5,299.1z"/>
	<path class="st0" d="M-236.8,302.9c0,0.8,0.2,1.4,1,1.4c0.5,0,1-0.2,1.4-0.4l0.2,3c-0.7,0.3-1.9,0.6-3.1,0.6c-1.6,0-2.6-0.7-3-2.1
		c-1,1.1-2.6,2-4.5,2c-4,0-6.7-3.1-6.7-7.4c0-4.3,2.7-7.4,6.7-7.4c1.9,0,3.3,0.5,4.3,1.5V293h3.8v9.9H-236.8z M-240.6,297.4
		c-0.7-0.7-1.9-1.3-3.2-1.3c-2.4,0-3.9,1.6-3.9,4.1c0,2.4,1.5,4,3.9,4c1.3,0,2.4-0.6,3.2-1.3V297.4z"/>
	<path class="st0" d="M-230,293l3.9,10.1l3.8-10.1h3.9l-5.9,14.4c-1.4,3.6-2.9,5.3-6.1,5.3c-1.3,0-2.6-0.5-3.3-1l0.6-3.1
		c0.7,0.4,1.7,0.8,2.7,0.8c1.3,0,1.8-0.6,2.4-1.8l0.3-0.7l-6.5-13.9C-234.2,293-230,293-230,293z"/>
	<g>
		<path id="XMLID_136_" class="st0" d="M-249.9,311.9c-0.3,0-0.4,0.1-0.4,0.4s0.1,0.4,0.4,0.4c0.2,0,0.4-0.1,0.4-0.4
			C-249.5,312.1-249.6,311.9-249.9,311.9z"/>
		<path id="XMLID_135_" class="st0" d="M-247.5,310.7c0.3,0,0.5,0.2,0.5,0.5l0.6-0.1c-0.1-0.6-0.5-0.9-1.1-0.9
			c-0.8,0-1.3,0.6-1.3,1.3c0,0.8,0.5,1.3,1.4,1.3c0.4,0,0.8-0.1,1.1-0.3l-0.3-0.5c-0.2,0.1-0.4,0.2-0.7,0.2c-0.5,0-0.8-0.3-0.8-0.8
			C-248.1,311-247.9,310.7-247.5,310.7z"/>
		<path class="st0" d="M-244.4,310.1c-0.8,0-1.4,0.6-1.4,1.3c0,0.8,0.6,1.3,1.4,1.3c0.8,0,1.4-0.6,1.4-1.3
			C-243,310.6-243.6,310.1-244.4,310.1z M-244.4,312.1c-0.4,0-0.7-0.3-0.7-0.7s0.3-0.7,0.7-0.7s0.7,0.3,0.7,0.7
			C-243.7,311.8-244,312.1-244.4,312.1z"/>
		<path id="XMLID_132_" class="st0" d="M-238.1,311.1c0-0.4-0.2-1-0.9-1c-0.4,0-0.7,0.1-0.9,0.4l-0.1,0.1l-0.1-0.1
			c-0.1-0.3-0.4-0.4-0.8-0.4c-0.3,0-0.6,0.1-0.8,0.3l-0.1,0.1v-0.4h-0.7v2.5h0.7V311c0.1-0.2,0.3-0.3,0.5-0.3c0.3,0,0.5,0.2,0.5,0.6
			v1.3h0.7V311c0.1-0.2,0.3-0.3,0.5-0.3c0.3,0,0.5,0.2,0.5,0.5v1.4h0.7L-238.1,311.1L-238.1,311.1z"/>
	</g>
</g>
</svg>
