<?xml version="1.0" encoding="utf-8"?>
<!-- Generator: Adobe Illustrator 19.0.0, SVG Export Plug-In . SVG Version: 6.00 Build 0)  -->
<svg version="1.1" id="Layer_1" xmlns="http://www.w3.org/2000/svg" xmlns:xlink="http://www.w3.org/1999/xlink" x="0px" y="0px"
	 viewBox="0 0 96 22" style="enable-background:new 0 0 96 22;" xml:space="preserve">
<style type="text/css">
	.st0{fill:#FFFFFF;}
</style>
<g>
	<path class="st0" d="M43.2,17.6c-0.8,0-1.5-0.1-2-0.3c-0.5-0.2-0.9-0.4-1.2-0.7c-0.3-0.3-0.5-0.7-0.6-1.1c-0.1-0.4-0.2-0.9-0.2-1.5
		V1.2L42,0.7v12.8c0,0.3,0,0.5,0.1,0.7c0,0.2,0.1,0.4,0.2,0.5c0.1,0.1,0.3,0.3,0.5,0.3c0.2,0.1,0.5,0.2,0.8,0.2L43.2,17.6z"/>
	<path class="st0" d="M55.1,14.3c0,0.6,0.2,1,0.7,1c0.4,0,0.7-0.1,1-0.3l0.1,2.2c-0.5,0.2-1.3,0.4-2.2,0.4c-1.1,0-1.9-0.5-2.2-1.5
		c-0.7,0.8-1.8,1.5-3.2,1.5c-2.8,0-4.8-2.2-4.8-5.2c0-3.1,1.9-5.3,4.8-5.3c1.3,0,2.4,0.4,3,1V7.3h2.7V14.3z M52.4,10.4
		c-0.5-0.5-1.4-0.9-2.3-0.9c-1.7,0-2.8,1.2-2.8,2.9c0,1.7,1.1,2.9,2.8,2.9c0.9,0,1.7-0.4,2.3-0.9V10.4z"/>
	<path class="st0" d="M23.7,17.6c-0.8,0-1.5-0.1-2-0.3c-0.5-0.2-0.9-0.4-1.2-0.7c-0.3-0.3-0.5-0.7-0.6-1.1c-0.1-0.4-0.2-0.9-0.2-1.5
		V1.2l2.9-0.5v12.8c0,0.3,0,0.5,0.1,0.7c0,0.2,0.1,0.4,0.2,0.5c0.1,0.1,0.3,0.3,0.5,0.3c0.2,0.1,0.5,0.2,0.8,0.2L23.7,17.6z"/>
	<path class="st0" d="M35.6,14.3c0,0.6,0.2,1,0.7,1c0.4,0,0.7-0.1,1-0.3l0.1,2.2c-0.5,0.2-1.3,0.4-2.2,0.4c-1.1,0-1.9-0.5-2.2-1.5
		c-0.7,0.8-1.8,1.5-3.2,1.5c-2.8,0-4.8-2.2-4.8-5.2c0-3.1,1.9-5.3,4.8-5.3c1.3,0,2.4,0.4,3,1V7.3h2.7V14.3z M32.9,10.4
		c-0.5-0.5-1.4-0.9-2.3-0.9c-1.7,0-2.8,1.2-2.8,2.9c0,1.7,1.1,2.9,2.8,2.9c0.9,0,1.7-0.4,2.3-0.9V10.4z"/>
	<path class="st0" d="M4.4,17.6c-0.8,0-1.5-0.1-2.1-0.3c-0.5-0.2-0.9-0.4-1.2-0.7c-0.3-0.3-0.5-0.7-0.6-1.1
		c-0.1-0.4-0.2-0.9-0.2-1.5V1.2l2.9-0.5v12.8c0,0.3,0,0.5,0.1,0.7c0,0.2,0.1,0.4,0.2,0.5c0.1,0.1,0.3,0.3,0.5,0.3
		c0.2,0.1,0.5,0.2,0.8,0.2L4.4,17.6z"/>
	<path class="st0" d="M16.3,14.3c0,0.6,0.2,1,0.7,1c0.4,0,0.7-0.1,1-0.3l0.1,2.2c-0.5,0.2-1.3,0.4-2.2,0.4c-1.1,0-1.9-0.5-2.2-1.5
		c-0.7,0.8-1.8,1.5-3.2,1.5c-2.8,0-4.8-2.2-4.8-5.2c0-3.1,1.9-5.3,4.8-5.3c1.3,0,2.4,0.4,3,1V7.3h2.7V14.3z M13.6,10.4
		c-0.5-0.5-1.4-0.9-2.3-0.9c-1.7,0-2.8,1.2-2.8,2.9c0,1.7,1.1,2.9,2.8,2.9c0.9,0,1.7-0.4,2.3-0.9V10.4z"/>
	<path class="st0" d="M64.3,11.6c-0.3,1-0.5,2-0.8,2.9c-0.3,1-0.6,1.9-0.9,2.9h-2.3c-0.2-0.5-0.5-1.2-0.8-1.9
		c-0.3-0.8-0.6-1.6-0.8-2.5c-0.3-0.9-0.6-1.8-0.9-2.8c-0.3-1-0.6-2-0.9-3H60c0.1,0.5,0.2,1,0.3,1.5c0.1,0.6,0.3,1.1,0.4,1.7
		c0.1,0.6,0.3,1.2,0.4,1.8c0.1,0.6,0.3,1.2,0.5,1.7c0.2-0.6,0.3-1.2,0.5-1.8c0.2-0.6,0.3-1.2,0.5-1.8c0.1-0.6,0.3-1.1,0.4-1.7
		c0.1-0.5,0.3-1,0.4-1.5h2.1c0.1,0.5,0.2,1,0.4,1.5c0.1,0.5,0.3,1.1,0.4,1.7c0.1,0.6,0.3,1.2,0.4,1.8c0.2,0.6,0.3,1.2,0.5,1.8
		c0.2-0.5,0.3-1.1,0.5-1.7c0.2-0.6,0.3-1.2,0.4-1.8c0.1-0.6,0.3-1.2,0.4-1.7c0.1-0.5,0.2-1.1,0.3-1.5h3c-0.3,1-0.6,2-0.9,3
		c-0.3,1-0.6,1.9-0.9,2.8c-0.3,0.9-0.6,1.7-0.9,2.5c-0.3,0.8-0.5,1.4-0.8,1.9h-2.3c-0.3-1-0.6-2-1-2.9
		C64.9,13.5,64.6,12.5,64.3,11.6z"/>
	<path class="st0" d="M82.6,14.3c0,0.6,0.2,1,0.7,1c0.4,0,0.7-0.1,1-0.3l0.1,2.2c-0.5,0.2-1.3,0.4-2.2,0.4c-1.1,0-1.9-0.5-2.2-1.5
		c-0.7,0.8-1.8,1.5-3.2,1.5c-2.8,0-4.8-2.2-4.8-5.2c0-3.1,1.9-5.3,4.8-5.3c1.3,0,2.4,0.4,3,1V7.3h2.7V14.3z M79.9,10.4
		c-0.5-0.5-1.4-0.9-2.3-0.9c-1.7,0-2.8,1.2-2.8,2.9c0,1.7,1.1,2.9,2.8,2.9c0.9,0,1.7-0.4,2.3-0.9V10.4z"/>
	<path class="st0" d="M87.5,7.3l2.8,7.2L93,7.3h2.7l-4.2,10.3c-1,2.5-2,3.8-4.3,3.8c-0.9,0-1.8-0.4-2.3-0.7l0.4-2.2
		c0.5,0.3,1.2,0.6,1.9,0.6c0.9,0,1.3-0.4,1.7-1.3l0.2-0.5l-4.6-9.9H87.5z"/>
	<g>
		<path id="XMLID_122_" class="st0" d="M73.3,20.7c-0.2,0-0.3,0.1-0.3,0.3c0,0.2,0.1,0.3,0.3,0.3c0.1,0,0.3-0.1,0.3-0.3
			C73.6,20.8,73.5,20.7,73.3,20.7z"/>
		<path id="XMLID_121_" class="st0" d="M75,19.8c0.2,0,0.3,0.1,0.4,0.3l0.4-0.1c0-0.4-0.3-0.7-0.8-0.7c-0.6,0-1,0.4-1,1
			c0,0.6,0.4,0.9,1,0.9c0.3,0,0.5-0.1,0.7-0.2l-0.2-0.4c-0.1,0.1-0.3,0.2-0.5,0.2c-0.3,0-0.5-0.2-0.5-0.5C74.6,20,74.7,19.8,75,19.8
			z"/>
		<path class="st0" d="M77.2,19.4c-0.6,0-1,0.4-1,1c0,0.5,0.4,0.9,1,0.9c0.6,0,1-0.4,1-0.9C78.2,19.8,77.8,19.4,77.2,19.4z
			 M77.2,20.8c-0.3,0-0.5-0.2-0.5-0.5c0-0.3,0.2-0.5,0.5-0.5c0.3,0,0.5,0.2,0.5,0.5C77.7,20.6,77.5,20.8,77.2,20.8z"/>
		<path id="XMLID_118_" class="st0" d="M81.7,20.1c0-0.3-0.1-0.7-0.6-0.7c-0.3,0-0.5,0.1-0.6,0.3l-0.1,0.1l0-0.1
			c-0.1-0.2-0.3-0.3-0.5-0.3c-0.2,0-0.4,0.1-0.5,0.2l-0.1,0.1v-0.3h-0.5v1.8h0.5l0-1.1c0.1-0.2,0.2-0.2,0.4-0.2
			c0.2,0,0.4,0.2,0.4,0.4v0.9h0.5l0-1.1c0.1-0.1,0.2-0.2,0.4-0.2c0.2,0,0.3,0.1,0.4,0.4v1h0.5L81.7,20.1L81.7,20.1z"/>
	</g>
</g>
</svg>
