<?xml version="1.0" encoding="utf-8"?>
<!-- Generator: Adobe Illustrator 19.0.0, SVG Export Plug-In . SVG Version: 6.00 Build 0)  -->
<svg version="1.1" id="Layer_1" xmlns="http://www.w3.org/2000/svg" xmlns:xlink="http://www.w3.org/1999/xlink" x="0px" y="0px"
	 viewBox="0 0 155 22" style="enable-background:new 0 0 155 22;" xml:space="preserve">
<style type="text/css">
	.st0{fill:#909295;}
</style>
<g>
	<path class="st0" d="M37.6,3.6c-2.3,0-4,0.7-5.2,2c-1.2,1.3-1.8,3.1-1.8,5.4c0,1.1,0.1,2.1,0.4,3c0.3,0.9,0.7,1.7,1.3,2.3
		c0.6,0.6,1.3,1.2,2.1,1.5c0.8,0.4,1.8,0.5,3,0.5c0.7,0,1.3,0,1.8-0.1c0.5,0,0.9-0.1,1.2-0.2v-7.3h4v9.8c-0.6,0.2-1.5,0.4-2.8,0.6
		c-1.3,0.2-2.8,0.4-4.6,0.4c-1.6,0-3.1-0.2-4.4-0.7c-1.3-0.5-2.4-1.2-3.4-2.1c-0.9-0.9-1.6-2-2.2-3.3c-0.5-1.3-0.8-2.8-0.8-4.5
		c0-1.7,0.3-3.2,0.8-4.5c0.6-1.3,1.3-2.4,2.3-3.3c1-0.9,2.1-1.6,3.4-2.1c1.3-0.5,2.7-0.7,4.2-0.7c1,0,1.9,0.1,2.7,0.2
		C40.8,0.7,41.4,0.8,42,1c0.6,0.2,1,0.3,1.4,0.5c0.4,0.2,0.6,0.3,0.8,0.4l-1.2,3c-0.6-0.4-1.4-0.6-2.4-0.9
		C39.7,3.8,38.7,3.6,37.6,3.6z"/>
	<path class="st0" d="M53.2,7.9c0.3-0.2,0.8-0.4,1.4-0.6C55.3,7.1,56,7,56.8,7c1.1,0,2,0.2,2.8,0.5c0.8,0.4,1.5,0.8,2.1,1.5
		c0.6,0.6,1,1.4,1.3,2.3c0.3,0.9,0.4,1.8,0.4,2.9c0,1.1-0.2,2.1-0.5,3c-0.3,0.9-0.8,1.6-1.5,2.3c-0.6,0.6-1.4,1.1-2.3,1.4
		c-0.9,0.3-1.9,0.5-3,0.5c-1.2,0-2.3-0.1-3.2-0.2c-0.9-0.2-1.7-0.3-2.3-0.5V1l2.6-0.4V7.9z M53.2,18.9c0.3,0.1,0.6,0.1,1.1,0.2
		c0.5,0.1,1.1,0.1,1.8,0.1c1.4,0,2.5-0.4,3.4-1.3c0.8-0.9,1.3-2.1,1.3-3.7c0-0.7-0.1-1.4-0.2-2c-0.2-0.6-0.4-1.1-0.7-1.6
		c-0.3-0.4-0.8-0.8-1.3-1.1c-0.5-0.3-1.2-0.4-1.9-0.4c-0.7,0-1.4,0.1-2,0.3c-0.6,0.2-1.1,0.5-1.4,0.7V18.9z"/>
	<path class="st0" d="M65.7,14.2c0-1.2,0.2-2.3,0.6-3.2c0.4-0.9,0.9-1.7,1.5-2.3c0.6-0.6,1.3-1,2.1-1.3C70.6,7.1,71.5,7,72.3,7
		c2,0,3.5,0.6,4.5,1.7c1,1.2,1.6,2.9,1.6,5.3c0,0.1,0,0.2,0,0.4c0,0.2,0,0.3,0,0.5h-10c0.1,1.4,0.6,2.5,1.3,3.2
		c0.8,0.7,2,1.1,3.6,1.1c0.9,0,1.7-0.1,2.3-0.2c0.6-0.2,1.1-0.3,1.4-0.4l0.4,2.1c-0.3,0.2-0.9,0.3-1.7,0.5c-0.8,0.2-1.7,0.3-2.7,0.3
		c-1.3,0-2.4-0.2-3.3-0.5c-0.9-0.4-1.7-0.9-2.3-1.5c-0.6-0.6-1-1.4-1.3-2.3C65.8,16.2,65.7,15.2,65.7,14.2z M75.7,12.8
		c0-1.1-0.3-2-0.9-2.7C74.2,9.4,73.4,9,72.3,9c-0.6,0-1.1,0.1-1.6,0.3c-0.5,0.2-0.8,0.5-1.2,0.9c-0.3,0.3-0.6,0.8-0.7,1.2
		c-0.2,0.5-0.3,0.9-0.4,1.4H75.7z"/>
	<path class="st0" d="M90.8,1l2.6-0.4v20.1c-0.6,0.2-1.4,0.3-2.3,0.5c-0.9,0.2-2,0.2-3.2,0.2c-1.1,0-2.1-0.2-3-0.5
		c-0.9-0.3-1.7-0.8-2.3-1.4c-0.6-0.6-1.1-1.4-1.5-2.3c-0.3-0.9-0.5-1.9-0.5-3c0-1.1,0.1-2,0.4-2.9c0.3-0.9,0.7-1.6,1.3-2.3
		c0.6-0.6,1.3-1.1,2.1-1.5C85.1,7.2,86,7,87.1,7c0.8,0,1.6,0.1,2.2,0.3c0.6,0.2,1.1,0.4,1.4,0.6V1z M90.8,10.2
		C90.4,10,90,9.7,89.4,9.5c-0.6-0.2-1.3-0.3-2-0.3c-0.7,0-1.4,0.1-1.9,0.4c-0.5,0.3-1,0.6-1.3,1.1c-0.3,0.5-0.6,1-0.7,1.6
		c-0.1,0.6-0.2,1.3-0.2,2c0,1.6,0.4,2.8,1.3,3.7c0.8,0.9,2,1.3,3.4,1.3c0.7,0,1.3,0,1.8-0.1c0.5-0.1,0.8-0.1,1.1-0.2V10.2z"/>
	<path class="st0" d="M99.7,7.9c0.3-0.2,0.8-0.4,1.4-0.6c0.6-0.2,1.4-0.3,2.2-0.3c1,0,2,0.2,2.8,0.5c0.8,0.4,1.5,0.8,2.1,1.5
		c0.6,0.6,1,1.4,1.3,2.3c0.3,0.9,0.4,1.8,0.4,2.9c0,1.1-0.2,2.1-0.5,3c-0.3,0.9-0.8,1.6-1.5,2.3c-0.6,0.6-1.4,1.1-2.3,1.4
		c-0.9,0.3-1.9,0.5-3,0.5c-1.2,0-2.3-0.1-3.2-0.2c-0.9-0.2-1.7-0.3-2.3-0.5V1l2.6-0.4V7.9z M99.7,18.9c0.3,0.1,0.6,0.1,1.1,0.2
		c0.5,0.1,1.1,0.1,1.8,0.1c1.4,0,2.5-0.4,3.4-1.3c0.8-0.9,1.3-2.1,1.3-3.7c0-0.7-0.1-1.4-0.2-2c-0.2-0.6-0.4-1.1-0.7-1.6
		c-0.3-0.4-0.8-0.8-1.3-1.1c-0.5-0.3-1.2-0.4-1.9-0.4c-0.7,0-1.4,0.1-2,0.3c-0.6,0.2-1.1,0.5-1.4,0.7V18.9z"/>
	<path class="st0" d="M117.8,7c1,0,1.9,0.1,2.7,0.4c0.7,0.3,1.3,0.6,1.7,1.1c0.4,0.5,0.8,1,0.9,1.7c0.2,0.6,0.3,1.4,0.3,2.1v8.6
		c-0.2,0-0.5,0.1-0.9,0.1c-0.4,0.1-0.9,0.1-1.4,0.2c-0.5,0.1-1.1,0.1-1.6,0.1c-0.6,0-1.2,0.1-1.8,0.1c-0.8,0-1.6-0.1-2.3-0.2
		c-0.7-0.2-1.3-0.4-1.8-0.8c-0.5-0.3-0.9-0.8-1.2-1.4c-0.3-0.6-0.4-1.2-0.4-2c0-0.8,0.2-1.4,0.5-2c0.3-0.5,0.8-1,1.3-1.3
		c0.6-0.3,1.2-0.6,2-0.7c0.7-0.2,1.5-0.2,2.4-0.2c0.3,0,0.5,0,0.8,0c0.3,0,0.5,0.1,0.8,0.1c0.2,0,0.5,0.1,0.7,0.1
		c0.2,0,0.3,0.1,0.4,0.1v-0.7c0-0.4-0.1-0.8-0.1-1.2c-0.1-0.4-0.3-0.8-0.5-1.1c-0.2-0.3-0.6-0.6-1-0.7c-0.4-0.2-1-0.3-1.6-0.3
		c-0.9,0-1.6,0.1-2.3,0.2c-0.6,0.1-1.1,0.2-1.4,0.4l-0.3-2c0.3-0.1,0.9-0.3,1.7-0.4C116,7,116.9,7,117.8,7z M118,19.3
		c0.6,0,1.2,0,1.6,0c0.5,0,0.9-0.1,1.2-0.1V15c-0.2-0.1-0.5-0.2-0.9-0.2c-0.4-0.1-0.9-0.1-1.5-0.1c-0.4,0-0.8,0-1.2,0.1
		c-0.4,0.1-0.8,0.2-1.2,0.3c-0.4,0.2-0.7,0.4-0.9,0.7c-0.2,0.3-0.4,0.7-0.4,1.1c0,0.9,0.3,1.5,0.9,1.8C116.2,19.1,117,19.3,118,19.3
		z"/>
	<path class="st0" d="M126.5,7.7c0.6-0.1,1.4-0.3,2.4-0.4c1-0.2,2.1-0.2,3.4-0.2c1.2,0,2.1,0.2,2.9,0.5c0.8,0.3,1.4,0.7,1.8,1.3
		c0.5,0.6,0.8,1.2,1,2c0.2,0.8,0.3,1.6,0.3,2.6V21h-2.6v-7.2c0-0.8-0.1-1.6-0.2-2.2c-0.1-0.6-0.3-1.1-0.6-1.5
		c-0.3-0.4-0.7-0.6-1.1-0.8c-0.5-0.2-1.1-0.3-1.7-0.3c-0.3,0-0.6,0-0.9,0c-0.3,0-0.6,0-0.9,0.1c-0.3,0-0.5,0.1-0.7,0.1
		c-0.2,0-0.4,0.1-0.5,0.1V21h-2.6V7.7z"/>
	<path class="st0" d="M147.3,13.5c0.6,0.4,1.2,0.9,1.8,1.5c0.6,0.6,1.2,1.2,1.9,1.9c0.6,0.7,1.2,1.4,1.7,2.1c0.5,0.7,1,1.4,1.4,2
		h-3.1c-0.4-0.6-0.8-1.2-1.4-1.9c-0.5-0.6-1.1-1.3-1.6-1.8c-0.6-0.6-1.1-1.1-1.7-1.6c-0.6-0.5-1.1-0.9-1.7-1.2V21H142V1l2.6-0.4
		v12.5c0.5-0.4,0.9-0.9,1.5-1.4c0.5-0.5,1.1-1,1.6-1.6c0.5-0.5,1-1,1.5-1.5c0.5-0.5,0.9-0.9,1.2-1.3h3.1c-0.4,0.4-0.9,0.9-1.4,1.5
		c-0.5,0.5-1,1.1-1.6,1.6c-0.5,0.5-1.1,1.1-1.6,1.6C148.3,12.5,147.7,13,147.3,13.5z"/>
	<path id="XMLID_27_" class="st0" d="M19.5,0.5H19c-0.5,0.7-1,1.7-1.6,2.7c-0.6,1.1-1.2,2.2-1.8,3.4c-0.6,1.2-1.2,2.4-1.8,3.6
		c-0.6,1.2-1.1,2.4-1.6,3.4c-0.5-1-1-2.2-1.6-3.4C10.1,9,9.6,7.8,9,6.7C8.4,5.5,7.8,4.3,7.2,3.3c-0.6-1.1-1.1-2-1.6-2.7H5H1v20.7h4
		V6.8c0-0.2,0-0.3,0-0.5c0.2,0.4,0.5,1,0.8,1.6c0.3,0.6,0.7,1.3,1,2c0.4,0.7,0.7,1.5,1.1,2.3C8.3,13,8.7,13.7,9,14.5
		c0.4,0.7,0.7,1.4,1,2.1c0.3,0.6,0.6,1.2,0.8,1.6h3c0.2-0.5,0.5-1,0.8-1.6c0.3-0.6,0.6-1.3,1-2.1c0.4-0.7,0.7-1.5,1.1-2.3
		c0.4-0.8,0.7-1.5,1.1-2.3c0.4-0.7,0.7-1.4,1-2c0.3-0.6,0.5-1.1,0.8-1.5v14.8h4V0.5H19.5z"/>
</g>
</svg>
