<?xml version="1.0" encoding="utf-8"?>
<!-- Generator: Adobe Illustrator 19.0.0, SVG Export Plug-In . SVG Version: 6.00 Build 0)  -->
<svg version="1.1" id="Layer_1" xmlns="http://www.w3.org/2000/svg" xmlns:xlink="http://www.w3.org/1999/xlink" x="0px" y="0px"
	 viewBox="0 0 270 57" style="enable-background:new 0 0 270 57;" xml:space="preserve">
<style type="text/css">
	.st0{fill:#909295;}
</style>
<g>
	<g>
		<g>
			<path class="st0" d="M82.6,9.7H93c2.9,0,5.1,0.8,6.7,2.3c1.3,1.3,2,3,2,5.2v0.1c0,1.9-0.5,3.4-1.4,4.5c-0.9,1.2-2.1,2-3.5,2.6
				l5.6,8.2h-5.9l-4.9-7.3h-0.1h-3.9v7.3h-5V9.7z M92.7,20.8c1.2,0,2.2-0.3,2.9-0.9c0.7-0.6,1-1.4,1-2.3v-0.1c0-1.1-0.4-1.9-1-2.4
				c-0.7-0.5-1.7-0.8-2.9-0.8h-5v6.6H92.7z"/>
			<path class="st0" d="M134.6,33c-1.8,0-3.4-0.3-4.9-0.9c-1.5-0.6-2.8-1.5-3.8-2.5c-1.1-1.1-1.9-2.3-2.5-3.7
				c-0.6-1.4-0.9-3-0.9-4.6v-0.1c0-1.6,0.3-3.2,0.9-4.6c0.6-1.4,1.5-2.7,2.5-3.8c1.1-1.1,2.4-1.9,3.9-2.5c1.5-0.6,3.1-0.9,4.9-0.9
				c1.8,0,3.4,0.3,4.9,0.9c1.5,0.6,2.8,1.5,3.8,2.5c1.1,1.1,1.9,2.3,2.5,3.7c0.6,1.4,0.9,3,0.9,4.6v0.1c0,1.6-0.3,3.2-0.9,4.6
				c-0.6,1.4-1.5,2.7-2.5,3.8c-1.1,1.1-2.4,1.9-3.8,2.5C138,32.6,136.3,33,134.6,33z M134.6,28.3c1,0,1.9-0.2,2.8-0.6
				c0.8-0.4,1.6-0.9,2.2-1.5c0.6-0.7,1.1-1.4,1.4-2.3c0.3-0.9,0.5-1.8,0.5-2.8v-0.1c0-1-0.2-1.9-0.5-2.8c-0.3-0.9-0.8-1.6-1.4-2.3
				c-0.6-0.6-1.4-1.2-2.2-1.5c-0.8-0.4-1.8-0.6-2.8-0.6c-1,0-2,0.2-2.8,0.6c-0.8,0.4-1.6,0.9-2.2,1.5c-0.6,0.7-1.1,1.4-1.4,2.3
				c-0.3,0.9-0.5,1.8-0.5,2.8v0.1c0,1,0.2,1.9,0.5,2.8c0.3,0.9,0.8,1.6,1.4,2.3c0.6,0.7,1.3,1.2,2.2,1.6
				C132.7,28.1,133.6,28.3,134.6,28.3z"/>
			<path class="st0" d="M150.2,9.7h5.4l6,9.7l6-9.7h5.4v22.8h-5V17.7l-6.4,9.8h-0.1l-6.4-9.7v14.8h-5V9.7z"/>
			<path class="st0" d="M185,9.7h8.9c1.8,0,3.4,0.3,4.9,0.9c1.5,0.6,2.8,1.4,3.9,2.4c1.1,1,1.9,2.2,2.5,3.6c0.6,1.4,0.9,2.9,0.9,4.5
				v0.1c0,1.6-0.3,3.1-0.9,4.5c-0.6,1.4-1.4,2.6-2.5,3.6c-1.1,1-2.4,1.8-3.9,2.4c-1.5,0.6-3.1,0.9-4.9,0.9H185V9.7z M193.9,28
				c1,0,2-0.2,2.8-0.5c0.8-0.3,1.6-0.8,2.2-1.4c0.6-0.6,1.1-1.3,1.4-2.2c0.3-0.8,0.5-1.8,0.5-2.8v-0.1c0-1-0.2-1.9-0.5-2.8
				c-0.3-0.9-0.8-1.6-1.4-2.2c-0.6-0.6-1.3-1.1-2.2-1.4c-0.9-0.3-1.8-0.5-2.8-0.5h-3.9V28H193.9z"/>
			<path class="st0" d="M208.9,9.7h17.2v4.5h-12.2v4.6h10.8v4.5h-10.8v4.8h12.4v4.5h-17.4V9.7z"/>
			<path class="st0" d="M237,9.6h4.6l9.8,23h-5.3l-2.1-5.1h-9.7l-2.1,5.1h-5.1L237,9.6z M242.3,23l-3-7.4l-3,7.4H242.3z"/>
			<path class="st0" d="M253.3,9.7h5V28h11.4v4.5h-16.4V9.7z"/>
		</g>
		<g>
			<path class="st0" d="M83.2,50.6v-9.5h3.1c1.2,0,1.9,0,2.3,0.1c0.5,0.1,1,0.5,1.4,0.9c0.4,0.5,0.5,1.1,0.5,1.8
				c0,0.6-0.1,1.1-0.3,1.5c-0.2,0.4-0.5,0.7-0.8,0.9c-0.3,0.2-0.7,0.4-1,0.5c-0.5,0.1-1.1,0.1-2,0.1h-1.3v3.6H83.2z M85.1,42.7v2.7
				h1c0.8,0,1.3,0,1.5-0.1c0.3-0.1,0.5-0.3,0.6-0.5c0.1-0.2,0.2-0.5,0.2-0.7c0-0.3-0.1-0.6-0.3-0.9c-0.2-0.2-0.5-0.4-0.8-0.4
				c-0.2,0-0.7-0.1-1.4-0.1H85.1z"/>
			<path class="st0" d="M95.8,43.7v1.5h-1.2V48c0,0.6,0,0.9,0,1c0,0.1,0.1,0.2,0.2,0.2c0.1,0.1,0.2,0.1,0.3,0.1
				c0.2,0,0.4-0.1,0.7-0.2l0.2,1.4c-0.4,0.2-0.9,0.3-1.4,0.3c-0.3,0-0.6-0.1-0.9-0.2c-0.3-0.1-0.5-0.2-0.6-0.4
				c-0.1-0.2-0.2-0.4-0.3-0.7c0-0.2-0.1-0.6-0.1-1.3v-3h-0.8v-1.5h0.8v-1.4l1.8-1.1v2.4H95.8z"/>
			<path class="st0" d="M101.7,48.4l1.8,0.3c-0.2,0.7-0.6,1.2-1.1,1.5c-0.5,0.3-1.1,0.5-1.9,0.5c-1.2,0-2.1-0.4-2.7-1.2
				c-0.4-0.6-0.7-1.4-0.7-2.4c0-1.1,0.3-2,0.9-2.7c0.6-0.6,1.3-1,2.3-1c1,0,1.8,0.3,2.4,1c0.6,0.7,0.9,1.7,0.9,3.1h-4.6
				c0,0.5,0.2,1,0.4,1.3c0.3,0.3,0.6,0.5,1,0.5c0.3,0,0.5-0.1,0.7-0.2C101.5,49,101.6,48.8,101.7,48.4z M101.8,46.6
				c0-0.5-0.1-0.9-0.4-1.2c-0.3-0.3-0.6-0.4-0.9-0.4c-0.4,0-0.7,0.1-1,0.4c-0.3,0.3-0.4,0.7-0.4,1.2H101.8z"/>
			<path class="st0" d="M105.8,50.6v-9.4h1.9V49h4.8v1.6H105.8z"/>
			<path class="st0" d="M115.7,50.6v-7.9h-2.8v-1.6h7.5v1.6h-2.8v7.9H115.7z"/>
			<path class="st0" d="M122.3,41.1h3.5c0.8,0,1.4,0.1,1.8,0.2c0.6,0.2,1,0.5,1.4,0.9c0.4,0.4,0.7,0.9,0.9,1.5
				c0.2,0.6,0.3,1.4,0.3,2.2c0,0.8-0.1,1.4-0.3,2c-0.2,0.7-0.6,1.2-1,1.7c-0.3,0.3-0.8,0.6-1.3,0.8c-0.4,0.1-1,0.2-1.7,0.2h-3.6
				V41.1z M124.2,42.7V49h1.4c0.5,0,0.9,0,1.2-0.1c0.3-0.1,0.6-0.2,0.8-0.4c0.2-0.2,0.4-0.5,0.5-0.9c0.1-0.4,0.2-1,0.2-1.7
				c0-0.7-0.1-1.3-0.2-1.7c-0.1-0.4-0.3-0.7-0.5-0.9c-0.2-0.2-0.5-0.4-0.9-0.4c-0.3-0.1-0.8-0.1-1.6-0.1H124.2z"/>
		</g>
		<path id="XMLID_3_" class="st0" d="M37,0L4.5,32.5c-5.6,5.6-5.6,14.7,0,20.2c5.6,5.6,14.7,5.6,20.2,0l32.5-32.5L37,0z"/>
		<path id="XMLID_2_" class="st0" d="M16.8,20.3l32.5,32.5c5.6,5.6,14.7,5.6,20.2,0c5.6-5.6,5.6-14.7,0-20.2L37,0L16.8,20.3z"/>
	</g>
	<path id="XMLID_1_" class="st0" d="M126.8,20.1L126.8,20.1L126.8,20.1l-4.3,0.1c0,0.3,0.1,0.6,0.1,0.9v0.1c0,1-0.2,1.9-0.5,2.8
		c-0.3,0.9-0.8,1.6-1.4,2.3c-0.6,0.7-1.3,1.2-2.2,1.5c-0.8,0.4-1.8,0.6-2.8,0.6c-1,0-1.9-0.2-2.8-0.6c-0.8-0.4-1.6-0.9-2.2-1.6
		c-0.6-0.7-1.1-1.4-1.4-2.3c-0.3-0.9-0.5-1.8-0.5-2.8v-0.1c0-1,0.2-1.9,0.5-2.8c0.3-0.9,0.8-1.6,1.4-2.3c0.6-0.7,1.3-1.2,2.2-1.5
		c0.8-0.4,1.8-0.6,2.8-0.6c1,0,1.9,0.2,2.8,0.6c0.8,0.4,1.6,0.9,2.2,1.5c0.5,0.5,0.8,1.1,1.2,1.7c0.2-0.8,0.4-1.5,0.7-2.2
		c0.5-1.1,1.1-2.1,1.8-3c-1-1-2.3-1.8-3.7-2.4c-1.5-0.6-3.1-0.9-4.9-0.9c-1.8,0-3.4,0.3-4.9,0.9c-1.5,0.6-2.8,1.5-3.9,2.5
		c-1.1,1.1-1.9,2.3-2.5,3.8c-0.6,1.4-0.9,3-0.9,4.6v0.1c0,1.6,0.3,3.2,0.9,4.6c0.6,1.4,1.4,2.7,2.5,3.7c1.1,1.1,2.4,1.9,3.8,2.5
		c1.5,0.6,3.1,0.9,4.9,0.9c1.8,0,3.4-0.3,4.9-0.9c1.5-0.6,2.8-1.5,3.9-2.5c1.1-1.1,1.9-2.3,2.5-3.8c0.6-1.4,0.9-3,0.9-4.6v-0.1
		c0-1.3-0.2-2.5-0.5-3.6C126.9,18.3,126.8,19.2,126.8,20.1z"/>
</g>
</svg>
