<?xml version="1.0" encoding="utf-8"?>
<!-- Generator: Adobe Illustrator 19.0.0, SVG Export Plug-In . SVG Version: 6.00 Build 0)  -->
<svg version="1.1" id="Layer_1" xmlns="http://www.w3.org/2000/svg" xmlns:xlink="http://www.w3.org/1999/xlink" x="0px" y="0px"
	 viewBox="0 0 110 15" style="enable-background:new 0 0 110 15;" xml:space="preserve">
<style type="text/css">
	.st0{fill:#FFFFFF;}
</style>
<g>
	<path class="st0" d="M26.7,2.3c-1.6,0-2.9,0.5-3.7,1.4c-0.9,0.9-1.3,2.2-1.3,3.9c0,0.8,0.1,1.5,0.3,2.1c0.2,0.6,0.5,1.2,0.9,1.7
		c0.4,0.5,0.9,0.8,1.5,1.1c0.6,0.3,1.3,0.4,2.1,0.4c0.5,0,0.9,0,1.3-0.1c0.4,0,0.7-0.1,0.9-0.1V7.4h2.9v7c-0.4,0.1-1.1,0.3-2,0.5
		c-0.9,0.2-2,0.2-3.2,0.2c-1.1,0-2.2-0.2-3.1-0.5c-0.9-0.3-1.7-0.8-2.4-1.5c-0.7-0.6-1.2-1.4-1.5-2.4c-0.4-0.9-0.5-2-0.5-3.2
		c0-1.2,0.2-2.3,0.6-3.2c0.4-0.9,0.9-1.7,1.6-2.4c0.7-0.6,1.5-1.1,2.5-1.5c0.9-0.3,1.9-0.5,3-0.5c0.7,0,1.4,0,1.9,0.1
		c0.6,0.1,1.1,0.2,1.5,0.3c0.4,0.1,0.7,0.2,1,0.4C31,0.9,31.2,1,31.3,1l-0.9,2.2c-0.5-0.3-1-0.5-1.7-0.6C28.1,2.4,27.4,2.3,26.7,2.3
		z"/>
	<path class="st0" d="M37.7,5.3c0.2-0.1,0.6-0.3,1-0.4c0.5-0.1,1-0.2,1.6-0.2c0.7,0,1.4,0.1,2,0.4c0.6,0.2,1.1,0.6,1.5,1.1
		c0.4,0.5,0.7,1,0.9,1.6C44.9,8.3,45,9,45,9.7c0,0.8-0.1,1.5-0.4,2.1c-0.2,0.6-0.6,1.2-1,1.6c-0.5,0.4-1,0.8-1.6,1
		c-0.6,0.2-1.4,0.4-2.2,0.4c-0.9,0-1.6-0.1-2.3-0.2c-0.7-0.1-1.2-0.2-1.6-0.3v-14l1.9-0.3V5.3z M37.7,13.1c0.2,0,0.4,0.1,0.8,0.1
		c0.3,0,0.8,0.1,1.3,0.1c1,0,1.8-0.3,2.4-0.9c0.6-0.6,0.9-1.5,0.9-2.6c0-0.5-0.1-1-0.2-1.4c-0.1-0.4-0.3-0.8-0.5-1.1
		c-0.2-0.3-0.6-0.6-0.9-0.8c-0.4-0.2-0.8-0.3-1.4-0.3c-0.5,0-1,0.1-1.4,0.2c-0.4,0.2-0.8,0.3-1,0.5V13.1z"/>
	<path class="st0" d="M46.6,9.8c0-0.9,0.1-1.6,0.4-2.3c0.3-0.6,0.6-1.2,1.1-1.6c0.4-0.4,0.9-0.7,1.5-1c0.6-0.2,1.2-0.3,1.8-0.3
		c1.4,0,2.5,0.4,3.2,1.2c0.7,0.8,1.1,2.1,1.1,3.7c0,0.1,0,0.2,0,0.3c0,0.1,0,0.2,0,0.3h-7.1c0.1,1,0.4,1.8,0.9,2.3
		c0.5,0.5,1.4,0.8,2.6,0.8c0.7,0,1.2-0.1,1.6-0.2c0.4-0.1,0.8-0.2,1-0.3l0.3,1.5c-0.2,0.1-0.6,0.2-1.2,0.4c-0.6,0.1-1.2,0.2-1.9,0.2
		c-0.9,0-1.7-0.1-2.3-0.4c-0.7-0.3-1.2-0.6-1.6-1.1c-0.4-0.5-0.7-1-0.9-1.6C46.7,11.2,46.6,10.5,46.6,9.8z M53.7,8.8
		c0-0.8-0.2-1.4-0.6-1.9c-0.4-0.5-1-0.8-1.8-0.8c-0.4,0-0.8,0.1-1.1,0.2c-0.3,0.2-0.6,0.4-0.8,0.6c-0.2,0.2-0.4,0.5-0.5,0.9
		c-0.1,0.3-0.2,0.7-0.3,1H53.7z"/>
	<path class="st0" d="M64.4,0.4l1.9-0.3v14.3c-0.4,0.1-1,0.2-1.6,0.3c-0.7,0.1-1.4,0.2-2.3,0.2c-0.8,0-1.5-0.1-2.2-0.4
		c-0.6-0.2-1.2-0.6-1.6-1c-0.5-0.4-0.8-1-1-1.6c-0.2-0.6-0.4-1.3-0.4-2.1c0-0.8,0.1-1.4,0.3-2.1c0.2-0.6,0.5-1.2,0.9-1.6
		c0.4-0.5,0.9-0.8,1.5-1.1c0.6-0.2,1.2-0.4,2-0.4c0.6,0,1.1,0.1,1.6,0.2c0.5,0.2,0.8,0.3,1,0.4V0.4z M64.4,6.9
		c-0.2-0.2-0.6-0.3-1-0.5C63,6.3,62.6,6.2,62,6.2c-0.5,0-1,0.1-1.4,0.3c-0.4,0.2-0.7,0.4-0.9,0.8c-0.2,0.3-0.4,0.7-0.5,1.1
		c-0.1,0.4-0.2,0.9-0.2,1.4c0,1.1,0.3,2,0.9,2.6c0.6,0.6,1.4,0.9,2.4,0.9c0.5,0,0.9,0,1.3-0.1c0.3,0,0.6-0.1,0.8-0.1V6.9z"/>
	<path class="st0" d="M70.8,5.3c0.2-0.1,0.6-0.3,1-0.4c0.5-0.1,1-0.2,1.6-0.2c0.7,0,1.4,0.1,2,0.4c0.6,0.2,1.1,0.6,1.5,1.1
		c0.4,0.5,0.7,1,0.9,1.6C78,8.3,78.1,9,78.1,9.7c0,0.8-0.1,1.5-0.4,2.1c-0.2,0.6-0.6,1.2-1,1.6c-0.5,0.4-1,0.8-1.6,1
		c-0.6,0.2-1.4,0.4-2.2,0.4c-0.9,0-1.6-0.1-2.3-0.2c-0.7-0.1-1.2-0.2-1.6-0.3v-14l1.9-0.3V5.3z M70.8,13.1c0.2,0,0.5,0.1,0.8,0.1
		c0.3,0,0.8,0.1,1.3,0.1c1,0,1.8-0.3,2.4-0.9c0.6-0.6,0.9-1.5,0.9-2.6c0-0.5-0.1-1-0.2-1.4c-0.1-0.4-0.3-0.8-0.5-1.1
		c-0.2-0.3-0.5-0.6-0.9-0.8c-0.4-0.2-0.8-0.3-1.4-0.3c-0.5,0-1,0.1-1.4,0.2c-0.4,0.2-0.8,0.3-1,0.5V13.1z"/>
	<path class="st0" d="M83.6,4.6c0.7,0,1.4,0.1,1.9,0.3c0.5,0.2,0.9,0.4,1.2,0.8c0.3,0.3,0.5,0.7,0.7,1.2c0.1,0.5,0.2,1,0.2,1.5v6.1
		c-0.2,0-0.4,0.1-0.7,0.1c-0.3,0-0.6,0.1-1,0.1c-0.4,0-0.7,0.1-1.2,0.1c-0.4,0-0.8,0-1.2,0c-0.6,0-1.1-0.1-1.6-0.2
		c-0.5-0.1-0.9-0.3-1.3-0.5c-0.4-0.2-0.6-0.6-0.8-1c-0.2-0.4-0.3-0.9-0.3-1.4c0-0.5,0.1-1,0.4-1.4c0.2-0.4,0.5-0.7,0.9-0.9
		c0.4-0.2,0.9-0.4,1.4-0.5c0.5-0.1,1.1-0.2,1.7-0.2c0.2,0,0.4,0,0.6,0c0.2,0,0.4,0,0.6,0.1c0.2,0,0.3,0.1,0.5,0.1
		c0.1,0,0.2,0,0.3,0.1V8.5c0-0.3,0-0.6-0.1-0.9c-0.1-0.3-0.2-0.5-0.4-0.8c-0.2-0.2-0.4-0.4-0.7-0.5c-0.3-0.1-0.7-0.2-1.2-0.2
		c-0.6,0-1.1,0-1.6,0.1c-0.5,0.1-0.8,0.2-1,0.3l-0.2-1.4c0.2-0.1,0.6-0.2,1.2-0.3C82.4,4.7,83,4.6,83.6,4.6z M83.8,13.4
		c0.4,0,0.8,0,1.2,0c0.3,0,0.6-0.1,0.9-0.1v-2.9c-0.1-0.1-0.3-0.1-0.7-0.2c-0.3,0-0.7-0.1-1.1-0.1c-0.3,0-0.6,0-0.9,0.1
		c-0.3,0-0.6,0.1-0.9,0.2c-0.3,0.1-0.5,0.3-0.6,0.5c-0.2,0.2-0.3,0.5-0.3,0.8c0,0.6,0.2,1.1,0.6,1.3C82.5,13.3,83.1,13.4,83.8,13.4z
		"/>
	<path class="st0" d="M89.8,5.1c0.4-0.1,1-0.2,1.7-0.3c0.7-0.1,1.5-0.2,2.4-0.2c0.8,0,1.5,0.1,2.1,0.3c0.5,0.2,1,0.5,1.3,0.9
		c0.3,0.4,0.6,0.9,0.7,1.4c0.1,0.6,0.2,1.2,0.2,1.8v5.5h-1.9V9.5c0-0.6,0-1.1-0.1-1.5c-0.1-0.4-0.2-0.8-0.4-1
		c-0.2-0.3-0.5-0.5-0.8-0.6c-0.3-0.1-0.7-0.2-1.2-0.2c-0.2,0-0.4,0-0.6,0c-0.2,0-0.4,0-0.6,0c-0.2,0-0.4,0-0.5,0.1
		c-0.2,0-0.3,0-0.3,0.1v8.2h-1.9V5.1z"/>
	<path class="st0" d="M104.6,9.3c0.4,0.3,0.8,0.6,1.3,1.1c0.4,0.4,0.9,0.9,1.3,1.4c0.4,0.5,0.8,1,1.2,1.5c0.4,0.5,0.7,1,1,1.4h-2.2
		c-0.3-0.4-0.6-0.9-1-1.3c-0.4-0.5-0.7-0.9-1.1-1.3c-0.4-0.4-0.8-0.8-1.2-1.2c-0.4-0.4-0.8-0.6-1.2-0.9v4.7h-1.9V0.4l1.9-0.3V9
		c0.3-0.3,0.7-0.6,1.1-1c0.4-0.4,0.8-0.7,1.1-1.1c0.4-0.4,0.7-0.7,1.1-1.1c0.3-0.3,0.6-0.6,0.9-0.9h2.2c-0.3,0.3-0.6,0.7-1,1
		c-0.4,0.4-0.7,0.8-1.1,1.1c-0.4,0.4-0.8,0.8-1.2,1.1C105.3,8.6,105,8.9,104.6,9.3z"/>
	<path id="XMLID_1_" class="st0" d="M13.7,0.1h-0.3c-0.3,0.5-0.7,1.2-1.1,1.9c-0.4,0.8-0.8,1.6-1.2,2.4C10.6,5.3,10.2,6.1,9.8,7
		C9.4,7.8,9,8.7,8.7,9.4C8.3,8.7,7.9,7.8,7.5,7C7.1,6.1,6.7,5.3,6.3,4.4C5.8,3.6,5.4,2.8,5,2S4.2,0.6,3.9,0.1H3.4H0.6v14.7h2.8V4.5
		c0-0.1,0-0.2,0-0.3C3.6,4.5,3.8,4.8,4,5.3c0.2,0.5,0.5,0.9,0.7,1.5C5,7.3,5.3,7.8,5.5,8.3C5.8,8.9,6.1,9.4,6.3,10
		c0.2,0.5,0.5,1,0.7,1.5c0.2,0.5,0.4,0.9,0.5,1.2h2.1c0.2-0.3,0.3-0.7,0.5-1.2c0.2-0.5,0.4-0.9,0.7-1.5c0.2-0.5,0.5-1.1,0.8-1.6
		c0.3-0.6,0.5-1.1,0.8-1.6c0.3-0.5,0.5-1,0.7-1.5c0.2-0.4,0.4-0.8,0.5-1.1v10.5h2.8V0.1H13.7z"/>
</g>
</svg>
