<?xml version="1.0" encoding="utf-8"?>
<!-- Generator: Adobe Illustrator 19.0.0, SVG Export Plug-In . SVG Version: 6.00 Build 0)  -->
<svg version="1.1" id="Layer_1" xmlns="http://www.w3.org/2000/svg" xmlns:xlink="http://www.w3.org/1999/xlink" x="0px" y="0px"
	 viewBox="0 0 85 24" style="enable-background:new 0 0 85 24;" xml:space="preserve">
<style type="text/css">
	.st0{fill-rule:evenodd;clip-rule:evenodd;fill:#FFFFFF;}
</style>
<g>
	<path class="st0" d="M84.9,15.2c0,0.2-0.1,0.4-0.1,0.6c0,0.2,0,0.5-0.1,0.7c-0.1,0.6-0.3,0.8-0.9,0.9c-0.3,0.1-0.7,0.1-1,0.1
		c-0.9-0.1-1.7-1-1.7-1.8c0-0.8,0.1-1.6,0.2-2.4c0-0.4,0.1-0.7,0.1-1.1c0-0.2-0.1-0.3-0.2-0.4c-0.2,0-0.4-0.1-0.6,0
		c-0.1,0-0.2,0.1-0.3,0.2c-0.1,0.3-0.2,0.6-0.3,0.9c-0.2,0.9-0.4,1.9-0.6,2.9c-0.1,0.4-0.3,0.8-0.6,1c-0.3,0.3-0.7,0.6-1.1,0.7
		c-0.6,0.2-1.2,0.2-1.9,0.1c-0.6-0.1-1-0.4-1.3-0.9c0,0,0,0,0-0.1c-0.1-0.2-0.2-0.2-0.4-0.1c-0.4,0.3-0.9,0.6-1.4,0.8
		c-0.3,0.1-0.6,0.2-0.8,0.2c-0.4,0-0.8,0-1.2-0.1c-0.9-0.3-1.4-0.9-1.8-1.7c0-0.1-0.1-0.1-0.1-0.2c0,0,0,0,0,0c0,0.2,0,0.4,0,0.6
		c0,0.2,0,0.5-0.1,0.7c-0.1,0.4-0.4,0.6-0.8,0.7c-0.5,0.1-1,0.1-1.5,0c-0.5-0.1-0.8-0.4-1.2-0.7c-0.4-0.4-0.6-0.9-0.6-1.5
		c0-0.6,0.1-1.2,0.2-1.8c0-0.4,0.1-0.8,0.1-1.2c0-0.1,0-0.2,0-0.3c-0.1-0.3-0.3-0.4-0.6-0.4c-0.3,0-0.6,0.2-0.8,0.4
		c-0.5,0.5-0.8,1.1-1,1.8c-0.3,0.8-0.5,1.7-0.7,2.6c-0.1,0.3-0.2,0.6-0.3,0.8c-0.1,0.2-0.2,0.3-0.4,0.3c-0.6,0-1.1,0-1.7,0
		c-0.1,0-0.2,0-0.2-0.2c0-0.4,0-0.9,0-1.3c0-0.3,0.1-0.6,0.1-0.9c0.1-0.9,0.3-1.7,0.3-2.6c0-0.1,0-0.2,0-0.2c0-0.4-0.5-0.6-0.8-0.5
		c-0.4,0.2-0.7,0.5-0.9,0.8c-0.5,0.6-0.8,1.3-1,2c-0.3,0.8-0.4,1.7-0.5,2.5c0,0.4-0.1,0.5-0.5,0.5c-0.6,0-1.2,0-1.8,0
		c-0.1,0-0.2,0-0.2-0.2c0-0.2,0-0.4,0-0.6c0,0,0,0,0,0c-0.3,0.5-0.8,0.8-1.4,0.8c-0.6,0.1-1.2,0-1.7-0.4c-0.2-0.2-0.4-0.4-0.5-0.6
		c-0.1-0.2-0.2-0.2-0.3-0.1c-0.5,0.3-0.9,0.6-1.5,0.8c-0.2,0.1-0.5,0.1-0.8,0.1c-0.5,0-1,0-1.4-0.2c-0.2-0.1-0.5-0.3-0.7-0.4
		c0,0.1,0,0.2,0.1,0.3c0,0.1,0,0.2-0.1,0.2c-0.3,0.2-0.6,0.4-1,0.4c-0.3,0-0.6,0-0.9,0c-0.6-0.1-1.1-0.4-1.5-0.8
		c-0.7-0.6-1.2-1.3-1.8-2c-0.6-0.9-1.3-1.8-1.9-2.6c-0.1-0.1-0.1-0.2-0.2-0.2c0,0-0.1,0-0.2,0c0,0,0,0.1-0.1,0.1
		c-0.1,0.8-0.2,1.6-0.2,2.4c-0.1,0.9-0.2,1.8-0.3,2.8c0,0.1,0,0.1-0.1,0.1c-0.8,0-1.6,0-2.4,0c-0.2,0-0.2,0-0.2-0.3
		c0-0.1,0-0.3,0-0.4c0,0,0,0,0,0C35,16.9,34.9,17,34.9,17c-0.3,0.4-0.7,0.5-1.1,0.6c-0.6,0.1-1.1,0-1.6-0.3
		c-0.3-0.2-0.5-0.4-0.7-0.6c0,0-0.1-0.1-0.1-0.1c-0.1-0.1-0.1-0.1-0.2,0c-0.4,0.3-0.9,0.6-1.3,0.8c-0.3,0.1-0.7,0.2-1,0.2
		c-0.4,0-0.8,0-1.2-0.2c-0.8-0.3-1.3-0.9-1.7-1.6c0,0,0-0.1-0.1-0.1c0,0.1,0,0.2,0,0.3c0,0.6-0.3,1.1-0.9,1.3
		c-0.2,0.1-0.4,0.1-0.5,0.2c-0.3,0.1-0.5,0.4-0.5,0.7c-0.1,1.2-0.2,2.3-0.4,3.5c-0.1,0.8-0.4,1.5-0.8,2.2c-0.1,0.1-0.1,0.1-0.2,0.1
		c-0.5,0-1.1,0-1.6,0c-0.2,0-0.3-0.1-0.3-0.2c-0.1-0.2-0.1-0.3-0.1-0.5c0-0.4,0-0.9,0-1.3c0-0.2,0.1-0.4,0.2-0.6
		c0.5-0.7,0.7-1.6,0.8-2.4c0.2-1.2,0.3-2.4,0.5-3.6c0.2-1.5,0.3-3,0.5-4.5c0-0.2,0-0.5,0.1-0.7c0-0.2,0-0.4-0.2-0.5
		c-0.1-0.1-0.2-0.2-0.4-0.3c-0.1-0.1-0.1-0.2-0.1-0.3c0.1-0.2,0.2-0.3,0.5-0.3c0.8,0,1.7,0,2.5,0c0.2,0,0.2,0,0.1,0.2
		c-0.1,1-0.2,2-0.3,3c-0.1,0.7-0.1,1.5-0.2,2.2c0,0.2,0,0.5,0,0.7c0,0.1,0,0.1,0.1,0.1c0.4,0,0.7-0.2,1-0.3c0,0,0.1-0.1,0.1-0.2
		c0-0.7,0.1-1.4,0.3-2c0.5-1.3,1.3-2.4,2.5-3.1c0.6-0.4,1.3-0.6,2-0.5c0.3,0,0.6,0.2,0.9,0.2c0.2,0.1,0.3,0.1,0.5,0.2
		c0.2,0.1,0.2,0,0.3-0.1c0.1-0.2,0.2-0.2,0.3-0.2c0.6,0,1.1,0,1.7,0c0.2,0,0.4,0,0.5,0.2c0.1,0.1,0.1,0.1,0.1,0.2
		c-0.3,1.6-0.6,3.2-0.8,4.8c0,0.3,0,0.5,0,0.8c0,0.1,0.1,0.2,0.2,0.2c0.2,0.1,0.5,0.1,0.7,0c0.2-0.1,0.3-0.2,0.5,0
		c0-0.2,0-0.4,0.1-0.6c0.1-0.9,0.2-1.8,0.3-2.7c0.1-1,0.2-2,0.3-3C36,7.9,36.1,7,36.2,6.1c0.1-0.6,0.1-1.3,0.2-1.9
		C36.4,4,36.5,4,36.6,4c0.7,0,1.4,0,2.1,0C39,4,39.1,4.1,39,4.3c-0.1,0.5-0.1,1-0.2,1.6c-0.1,0.9-0.2,1.7-0.3,2.6
		c0,0.3-0.1,0.7-0.1,1c0,0.1,0,0.1,0.1,0.2c0.1-0.1,0.1-0.1,0.2-0.1c0.9-0.9,1.7-1.9,2.6-2.8c0.6-0.7,1.2-1.3,1.8-2
		c0.2-0.3,0.5-0.5,0.7-0.7c0.1-0.1,0.3-0.2,0.5-0.2c0.8,0,1.6,0,2.4,0c0.1,0,0.1,0,0.2,0C46.9,4,46.8,4,46.8,4.1
		c-1.9,2.2-3.8,4.5-5.7,6.7c-0.1,0.1-0.1,0.2,0,0.3c0.8,1.2,1.6,2.5,2.6,3.6c0.1,0.1,0.3,0.3,0.4,0.4c0.1,0.1,0.3,0.1,0.5,0.1
		c0-0.2-0.1-0.3-0.1-0.5c-0.1-2.1,0.6-3.9,2.2-5.2c0.6-0.5,1.3-0.8,2.2-0.9c0.4,0,0.9,0.1,1.3,0.3c0.2,0.1,0.4,0.2,0.5,0.2
		c0.2,0.1,0.2,0,0.3-0.1c0.1-0.2,0.2-0.2,0.3-0.2c0.6,0,1.1,0,1.7,0c0.2,0,0.4,0,0.5,0.2c0.1,0.1,0.1,0.1,0.1,0.2
		c-0.3,1.6-0.6,3.2-0.8,4.7c0,0.3,0,0.6,0,0.8c0,0.1,0.1,0.2,0.2,0.2c0.2,0.1,0.5,0.1,0.7,0c0.2-0.1,0.3-0.1,0.5,0
		c0-0.2,0-0.3,0-0.4c0.1-0.9,0.2-1.8,0.3-2.6c0.1-0.5,0.1-1.1,0.1-1.6c0-0.3,0-0.6,0.1-0.9c0.1-0.4,0.2-0.4,0.5-0.4
		c0.6,0,1.2,0,1.8,0c0.1,0,0.2,0,0.2,0.2c0,0.3,0,0.7,0,1c0,0,0,0.1,0,0.2c0.1-0.1,0.2-0.1,0.2-0.2c0.2-0.2,0.5-0.5,0.7-0.7
		c0.4-0.4,0.9-0.7,1.5-0.8c1-0.2,1.9,0.2,2.4,1.1c0.1,0.1,0.1,0.2,0.2,0.3c0.1,0.1,0.1,0.1,0.2,0c0.1-0.1,0.3-0.2,0.4-0.3
		c0.4-0.4,0.7-0.7,1.1-1c0.3-0.2,0.6-0.3,0.9-0.3c0.2,0,0.3,0,0.5,0c0.9-0.1,1.8,0.5,2,1.6c0,0.2,0.1,0.4,0.1,0.6
		c0.1,0.7-0.1,1.3-0.2,2c-0.1,0.6,0,1.2,0,1.8c0,0.4,0.3,0.5,0.7,0.4c0.2,0,0.3-0.1,0.5-0.2c0,0,0-0.1,0-0.1c-0.1-0.8,0-1.6,0.3-2.4
		c0.5-1.4,1.3-2.6,2.7-3.3c0.7-0.4,1.5-0.6,2.3-0.3C74,8.8,74.2,8.9,74.5,9c0.1,0,0.1,0.1,0.2,0.1c0.2,0.1,0.2,0,0.3-0.1
		c0.1-0.2,0.2-0.2,0.3-0.2c0.6,0,1.1,0,1.7,0c0.2,0,0.3,0.1,0.5,0.1c0.1,0,0.2,0.1,0.1,0.3c-0.1,0.7-0.3,1.5-0.4,2.2
		c-0.1,0.8-0.3,1.7-0.4,2.5c0,0.2,0,0.5,0,0.7c0,0.2,0.1,0.3,0.3,0.3c0,0,0.1,0,0.1,0c0.3,0,0.4,0,0.5-0.3c0.2-0.9,0.4-1.8,0.7-2.7
		c0.1-0.2,0-0.4-0.1-0.6c-0.4-0.7-0.4-1.4-0.2-2.2c0.2-0.6,0.5-0.8,1.1-0.8c0.2,0,0.5,0,0.7,0c0.3,0,0.5,0.2,0.6,0.6
		c0.1,0.5,0.1,0.5,0.5,0.5c0.4,0,0.8,0,1.3,0c0.5,0,1-0.1,1.5-0.2c0.1,0,0.1,0,0.2,0c0.2,0,0.3,0,0.2,0.3c-0.1,0.5-0.1,0.9-0.2,1.4
		c-0.2,1.1-0.3,2.3-0.5,3.4c0,0.1,0,0.3,0,0.4c0,0.1,0.1,0.2,0.2,0.2c0.2,0.1,0.5,0,0.7-0.1c0.1-0.1,0.3-0.1,0.5-0.1
		C84.9,15,84.9,15.1,84.9,15.2z M50.3,12.2c0-0.1-0.1-0.3-0.1-0.5c-0.2-0.5-0.6-0.7-1.1-0.5c-0.2,0.1-0.4,0.2-0.5,0.3
		c-0.6,0.5-1,1.2-1.2,2c-0.1,0.3,0,0.6,0.1,0.9c0.2,0.4,0.5,0.6,0.9,0.6c0.3,0,0.5-0.1,0.7-0.3c0.4-0.3,0.7-0.8,0.9-1.3
		C50.1,13.1,50.2,12.7,50.3,12.2z M31.3,12.2c0-0.1-0.1-0.3-0.1-0.5c-0.2-0.5-0.6-0.7-1.1-0.5c-0.2,0.1-0.4,0.2-0.5,0.3
		c-0.6,0.5-1,1.2-1.2,2c-0.1,0.3,0,0.6,0.1,1c0.2,0.4,0.5,0.6,1,0.5c0.3,0,0.5-0.2,0.8-0.4c0.4-0.4,0.7-0.8,0.9-1.3
		C31.2,13,31.3,12.7,31.3,12.2z M74.2,12.2c0-0.1,0-0.2,0-0.3c-0.1-0.5-0.5-0.8-1-0.8c-0.2,0-0.5,0.1-0.7,0.3
		c-0.7,0.5-1.1,1.2-1.3,2.1c-0.1,0.3-0.1,0.7,0.1,1c0.2,0.4,0.5,0.6,0.9,0.6c0.3,0,0.6-0.1,0.8-0.4c0.4-0.4,0.7-0.9,0.9-1.4
		C74.1,12.9,74.2,12.6,74.2,12.2z"/>
	<path id="XMLID_43_" class="st0" d="M23.5,0.1c0,0,0.1,0.1,0.1,0.1c1.5,1.5,2.9,2.9,4.4,4.4c0.6,0.6,0.7,1.5,0.1,2.2
		c-0.6,0.7-1.7,0.8-2.4,0.1c-0.7-0.7-1.4-1.4-2.1-2.1c0,0-0.1-0.1-0.1-0.1c0,0-0.1,0.1-0.1,0.1c-0.7,0.7-1.5,1.5-2.2,2.2
		c-0.9,0.9-2.4,0.5-2.7-0.7c-0.2-0.6,0-1.1,0.4-1.6c1.5-1.5,3-3,4.5-4.5C23.4,0.2,23.5,0.2,23.5,0.1C23.5,0.1,23.5,0.1,23.5,0.1z"/>
	<path id="XMLID_42_" class="st0" d="M4.5,13.1c0,0.2-0.1,0.4-0.1,0.7c-0.2,1.2-0.3,2.4-0.5,3.6c0,0.1-0.1,0.2-0.2,0.2
		c-0.6,0-1.3,0-1.9,0c-0.1,0-0.1,0-0.2,0c-0.2,0-0.4-0.1-0.3-0.3c0.1-1.1,0.2-2.2,0.4-3.3c0.1-1.2,0.3-2.5,0.4-3.7
		C2.2,9.4,2.3,8.7,2.4,8c0-0.1,0.1-0.3,0.1-0.4c0,0,0.1-0.1,0.1-0.1c0.7,0,1.4,0,2.2,0c0.1,0,0.1,0.1,0.1,0.1c0,0.8,0,1.5,0,2.3
		c0,0.2,0,0.2,0.2,0.2c0.3,0,0.6,0,0.9,0c0.8-0.2,1.4-0.7,1.7-1.5C8,8.1,7.8,7.7,7.5,7.3C7,6.8,6.4,6.6,5.8,6.6c-0.6,0-1.2,0-1.8,0
		C3.4,6.7,2.8,6.8,2.2,7C1.6,7.1,0.9,7.3,0.3,7.5c-0.1,0-0.2,0-0.2,0.1c0-0.3,0-0.6,0-0.9c0-0.2,0-0.3,0-0.5c0-0.2,0-0.4,0-0.7
		C0.2,5.1,0.5,4.7,1,4.5c0.4-0.2,0.9-0.3,1.4-0.4C3.3,4,4.1,4,5,4c1.1,0,2.1,0.1,3.1,0.6C8.8,4.9,9.4,5.4,9.9,6
		c0.4,0.6,0.7,1.2,0.7,1.9c0,0.4,0,0.9,0,1.3c-0.1,0.7-0.4,1.2-0.9,1.7c-0.4,0.4-0.9,0.7-1.3,1.1c-0.2,0.1-0.3,0.2-0.5,0.4
		c-0.1,0.1-0.1,0.1-0.1,0.2c0.4,0.7,0.8,1.3,1.4,1.8c0.5,0.5,1.1,0.6,1.8,0.5c0.3-0.1,0.5,0.1,0.4,0.4c-0.1,0.4-0.1,0.8-0.1,1.1
		c0,0.2,0,0.3-0.1,0.5c-0.1,0.3-0.3,0.6-0.6,0.7c-0.7,0.3-1.4,0.3-2.1-0.1c-0.7-0.4-1.2-0.9-1.6-1.5c-0.6-0.7-1.1-1.4-1.7-2.2
		c-0.2-0.2-0.4-0.4-0.5-0.6C4.6,13.2,4.6,13.2,4.5,13.1z"/>
	<path class="st0" d="M19.3,17.6c-0.8,0-1.4-0.3-1.9-1c0,0,0,0-0.1-0.1c-0.1-0.1-0.1-0.1-0.2,0c-0.3,0.2-0.6,0.4-1,0.6
		c-0.5,0.3-1,0.4-1.6,0.4c-0.4,0-0.8-0.1-1.2-0.2c-1.1-0.5-1.7-1.4-1.8-2.5c-0.2-2,0.5-3.6,1.9-5c0.6-0.6,1.3-1,2.2-1.1
		c0.5-0.1,1,0,1.5,0.2c0.2,0.1,0.4,0.2,0.6,0.2c0.2,0.1,0.3,0.1,0.4-0.1c0.1-0.1,0.1-0.1,0.3-0.1c0.6,0,1.1,0,1.7,0
		c0.1,0,0.2,0,0.2,0c0.1,0,0.2,0.1,0.3,0.1C20.6,9,20.7,9,20.6,9.2c-0.3,1.6-0.5,3.1-0.8,4.7c0,0.3,0,0.6,0,0.9
		c0,0.1,0.1,0.2,0.2,0.3c0.3,0.1,0.5,0.1,0.7,0c0.2-0.1,0.4-0.1,0.6,0.1c0,0,0.1,0.1,0.1,0.1c-0.1,0.4-0.2,0.9-0.3,1.3
		c-0.2,0.7-0.7,1-1.3,1.1C19.6,17.6,19.4,17.6,19.3,17.6z M17.3,12.3c0-0.3-0.1-0.5-0.2-0.8c-0.2-0.3-0.6-0.5-0.9-0.4
		c-0.2,0.1-0.4,0.1-0.5,0.2c-0.7,0.5-1.1,1.2-1.3,2.1c-0.1,0.3-0.1,0.7,0.1,1c0.2,0.4,0.5,0.6,0.9,0.5c0.3,0,0.5-0.1,0.8-0.3
		c0.5-0.4,0.8-0.9,1-1.4C17.1,13,17.2,12.6,17.3,12.3z"/>
</g>
</svg>
