<?xml version="1.0" encoding="utf-8"?>
<!-- Generator: Adobe Illustrator 19.0.0, SVG Export Plug-In . SVG Version: 6.00 Build 0)  -->
<svg version="1.1" id="Layer_1" xmlns="http://www.w3.org/2000/svg" xmlns:xlink="http://www.w3.org/1999/xlink" x="0px" y="0px"
	 viewBox="0 0 165 35" style="enable-background:new 0 0 165 35;" xml:space="preserve">
<style type="text/css">
	.st0{fill:#909295;}
</style>
<g>
	<g id="XMLID_436_">
		<g id="XMLID_438_">
			<g id="XMLID_457_">
				<path id="XMLID_473_" class="st0" d="M50.5,6h6.4c1.8,0,3.1,0.5,4.1,1.4c0.8,0.8,1.2,1.9,1.2,3.2v0c0,1.1-0.3,2.1-0.8,2.8
					c-0.6,0.7-1.3,1.2-2.2,1.6l3.4,5H59l-3-4.5h0h-2.4V20h-3.1V6z M56.7,12.8c0.8,0,1.3-0.2,1.7-0.5c0.4-0.4,0.6-0.8,0.6-1.4v0
					c0-0.7-0.2-1.2-0.6-1.5c-0.4-0.3-1-0.5-1.8-0.5h-3v4H56.7z"/>
				<path id="XMLID_470_" class="st0" d="M82.2,20.2c-1.1,0-2.1-0.2-3-0.6c-0.9-0.4-1.7-0.9-2.3-1.5c-0.7-0.6-1.2-1.4-1.5-2.3
					C75,15,74.9,14,74.9,13v0c0-1,0.2-1.9,0.6-2.8c0.4-0.9,0.9-1.6,1.5-2.3c0.7-0.7,1.4-1.2,2.4-1.6c0.9-0.4,1.9-0.6,3-0.6
					c1.1,0,2.1,0.2,3,0.6c0.9,0.4,1.7,0.9,2.3,1.5c0.7,0.6,1.2,1.4,1.5,2.3c0.4,0.9,0.5,1.8,0.5,2.8v0c0,1-0.2,1.9-0.6,2.8
					c-0.4,0.9-0.9,1.6-1.5,2.3c-0.7,0.7-1.4,1.2-2.4,1.6C84.3,20,83.3,20.2,82.2,20.2z M82.3,17.4c0.6,0,1.2-0.1,1.7-0.3
					c0.5-0.2,1-0.5,1.3-0.9c0.4-0.4,0.6-0.9,0.9-1.4c0.2-0.5,0.3-1.1,0.3-1.7v0c0-0.6-0.1-1.2-0.3-1.7c-0.2-0.5-0.5-1-0.9-1.4
					c-0.4-0.4-0.8-0.7-1.3-0.9c-0.5-0.2-1.1-0.3-1.7-0.3c-0.6,0-1.2,0.1-1.7,0.3c-0.5,0.2-1,0.5-1.3,0.9c-0.4,0.4-0.7,0.9-0.9,1.4
					c-0.2,0.5-0.3,1.1-0.3,1.7v0c0,0.6,0.1,1.2,0.3,1.7c0.2,0.5,0.5,1,0.9,1.4c0.4,0.4,0.8,0.7,1.3,0.9
					C81.1,17.3,81.7,17.4,82.3,17.4z"/>
				<path id="XMLID_468_" class="st0" d="M91.8,6h3.3l3.7,5.9l3.7-5.9h3.3V20h-3v-9.1l-3.9,6h-0.1l-3.9-5.9v9h-3V6z"/>
				<path id="XMLID_465_" class="st0" d="M113,6h5.4c1.1,0,2.1,0.2,3,0.5c0.9,0.4,1.7,0.8,2.4,1.5c0.7,0.6,1.2,1.4,1.5,2.2
					c0.4,0.8,0.5,1.8,0.5,2.7v0c0,1-0.2,1.9-0.5,2.7c-0.4,0.9-0.9,1.6-1.5,2.2c-0.7,0.6-1.4,1.1-2.4,1.5c-0.9,0.4-1.9,0.5-3,0.5H113
					V6z M118.5,17.2c0.6,0,1.2-0.1,1.7-0.3c0.5-0.2,1-0.5,1.3-0.9c0.4-0.4,0.6-0.8,0.9-1.3c0.2-0.5,0.3-1.1,0.3-1.7v0
					c0-0.6-0.1-1.2-0.3-1.7c-0.2-0.5-0.5-1-0.9-1.3c-0.4-0.4-0.8-0.7-1.3-0.9c-0.5-0.2-1.1-0.3-1.7-0.3h-2.4v8.4H118.5z"/>
				<path id="XMLID_463_" class="st0" d="M127.6,6h10.5v2.7h-7.5v2.8h6.6v2.7h-6.6v2.9h7.6V20h-10.6V6z"/>
				<path id="XMLID_460_" class="st0" d="M144.8,5.9h2.8l6,14h-3.2l-1.3-3.1h-5.9l-1.3,3.1h-3.1L144.8,5.9z M148,14.1l-1.9-4.5
					l-1.9,4.5H148z"/>
				<path id="XMLID_458_" class="st0" d="M154.7,6h3.1v11.2h7V20h-10V6z"/>
			</g>
			<g id="XMLID_441_">
				<path id="XMLID_454_" class="st0" d="M50.9,31v-5.8h1.9c0.7,0,1.2,0,1.4,0.1c0.3,0.1,0.6,0.3,0.8,0.6c0.2,0.3,0.3,0.7,0.3,1.1
					c0,0.4-0.1,0.7-0.2,0.9c-0.1,0.2-0.3,0.4-0.5,0.6c-0.2,0.1-0.4,0.2-0.6,0.3c-0.3,0.1-0.7,0.1-1.2,0.1H52V31H50.9z M52,26.2v1.6
					h0.6c0.5,0,0.8,0,0.9-0.1c0.2-0.1,0.3-0.2,0.4-0.3c0.1-0.1,0.1-0.3,0.1-0.4c0-0.2-0.1-0.4-0.2-0.5c-0.1-0.1-0.3-0.2-0.5-0.3
					c-0.1,0-0.4,0-0.8,0H52z"/>
				<path id="XMLID_452_" class="st0" d="M58.6,26.8v0.9h-0.8v1.7c0,0.3,0,0.5,0,0.6c0,0.1,0,0.1,0.1,0.1c0.1,0,0.1,0.1,0.2,0.1
					c0.1,0,0.2,0,0.4-0.1l0.1,0.9c-0.3,0.1-0.5,0.2-0.9,0.2c-0.2,0-0.4,0-0.5-0.1c-0.2-0.1-0.3-0.2-0.4-0.3
					c-0.1-0.1-0.1-0.2-0.2-0.4c0-0.1,0-0.4,0-0.8v-1.8h-0.5v-0.9h0.5V26l1.1-0.6v1.5H58.6z"/>
				<path id="XMLID_449_" class="st0" d="M62.2,29.7l1.1,0.2c-0.1,0.4-0.4,0.7-0.7,0.9c-0.3,0.2-0.7,0.3-1.2,0.3
					c-0.7,0-1.3-0.2-1.6-0.7c-0.3-0.4-0.4-0.9-0.4-1.4c0-0.7,0.2-1.2,0.5-1.6c0.4-0.4,0.8-0.6,1.4-0.6c0.6,0,1.1,0.2,1.5,0.6
					c0.4,0.4,0.5,1,0.5,1.9h-2.8c0,0.3,0.1,0.6,0.3,0.8c0.2,0.2,0.4,0.3,0.6,0.3c0.2,0,0.3,0,0.4-0.1C62,30,62.1,29.9,62.2,29.7z
					 M62.2,28.5c0-0.3-0.1-0.6-0.2-0.7c-0.2-0.2-0.3-0.3-0.6-0.3c-0.2,0-0.4,0.1-0.6,0.3c-0.2,0.2-0.2,0.4-0.2,0.7H62.2z"/>
				<path id="XMLID_447_" class="st0" d="M64.7,31v-5.7h1.2V30h2.9v1H64.7z"/>
				<path id="XMLID_445_" class="st0" d="M70.7,31v-4.8H69v-1h4.6v1h-1.7V31H70.7z"/>
				<path id="XMLID_442_" class="st0" d="M74.7,25.2h2.1c0.5,0,0.8,0,1.1,0.1c0.3,0.1,0.6,0.3,0.9,0.5c0.2,0.3,0.4,0.6,0.5,0.9
					c0.1,0.4,0.2,0.8,0.2,1.4c0,0.5-0.1,0.9-0.2,1.2c-0.1,0.4-0.4,0.8-0.6,1c-0.2,0.2-0.5,0.4-0.8,0.5c-0.3,0.1-0.6,0.1-1,0.1h-2.2
					V25.2z M75.9,26.2V30h0.9c0.3,0,0.6,0,0.7-0.1c0.2,0,0.3-0.1,0.5-0.2c0.1-0.1,0.2-0.3,0.3-0.6c0.1-0.3,0.1-0.6,0.1-1.1
					c0-0.4,0-0.8-0.1-1c-0.1-0.2-0.2-0.4-0.3-0.6c-0.1-0.1-0.3-0.2-0.5-0.3c-0.2,0-0.5-0.1-1-0.1H75.9z"/>
			</g>
			<path id="XMLID_440_" class="st0" d="M22.7,0.1L2.8,20c-3.4,3.4-3.4,8.9,0,12.4c3.4,3.4,8.9,3.4,12.4,0L35,12.5L22.7,0.1z"/>
			<path id="XMLID_439_" class="st0" d="M10.3,12.5l19.9,19.9c3.4,3.4,8.9,3.4,12.4,0c3.4-3.4,3.4-8.9,0-12.4L22.7,0.1L10.3,12.5z"
				/>
		</g>
		<path id="XMLID_437_" class="st0" d="M77.5,12.4L77.5,12.4L77.5,12.4l-2.6,0c0,0.2,0,0.4,0,0.6v0c0,0.6-0.1,1.2-0.3,1.7
			c-0.2,0.5-0.5,1-0.9,1.4c-0.4,0.4-0.8,0.7-1.3,0.9c-0.5,0.2-1.1,0.3-1.7,0.3c-0.6,0-1.2-0.1-1.7-0.3c-0.5-0.2-1-0.5-1.3-0.9
			c-0.4-0.4-0.7-0.9-0.9-1.4c-0.2-0.5-0.3-1.1-0.3-1.7v0c0-0.6,0.1-1.2,0.3-1.7c0.2-0.5,0.5-1,0.9-1.4C68,9.5,68.5,9.2,69,9
			c0.5-0.2,1.1-0.3,1.7-0.3c0.6,0,1.2,0.1,1.7,0.3c0.5,0.2,1,0.5,1.3,0.9c0.3,0.3,0.5,0.7,0.7,1.1c0.1-0.5,0.2-0.9,0.4-1.3
			c0.3-0.7,0.7-1.3,1.1-1.8c-0.6-0.6-1.4-1.1-2.3-1.5c-0.9-0.4-1.9-0.6-3-0.6c-1.1,0-2.1,0.2-3,0.6c-0.9,0.4-1.7,0.9-2.4,1.6
			c-0.7,0.7-1.2,1.4-1.5,2.3c-0.4,0.9-0.6,1.8-0.6,2.8v0c0,1,0.2,1.9,0.5,2.8c0.4,0.9,0.9,1.6,1.5,2.3c0.7,0.6,1.4,1.2,2.3,1.5
			c0.9,0.4,1.9,0.6,3,0.6c1.1,0,2.1-0.2,3-0.6c0.9-0.4,1.7-0.9,2.4-1.6c0.7-0.7,1.2-1.4,1.5-2.3c0.4-0.9,0.6-1.8,0.6-2.8v0
			c0-0.8-0.1-1.5-0.3-2.2C77.6,11.3,77.5,11.8,77.5,12.4z"/>
	</g>
</g>
</svg>
