<?xml version="1.0" encoding="utf-8"?>
<!-- Generator: Adobe Illustrator 19.0.0, SVG Export Plug-In . SVG Version: 6.00 Build 0)  -->
<svg version="1.1" id="Layer_1" xmlns="http://www.w3.org/2000/svg" xmlns:xlink="http://www.w3.org/1999/xlink" x="0px" y="0px"
	 viewBox="-158 231 176 24" style="enable-background:new -158 231 176 24;" xml:space="preserve">
<style type="text/css">
	.st0{fill:#909295;}
</style>
<g id="XMLID_132_">
	<path id="XMLID_161_" class="st0" d="M-139.9,241.6v7.6c0,0.4-0.2,0.6-0.6,0.6h-1.8c-0.4,0-0.6-0.2-0.6-0.6v-7.4
		c0-1.8-0.8-2.8-2.2-2.8c-1.4,0-2.2,1-2.2,2.8v7.4c0,0.4-0.2,0.6-0.6,0.6h-1.7c-0.4,0-0.6-0.2-0.6-0.6v-7.4
		c-0.1-1.8-0.8-2.8-2.3-2.8c-1.4,0-2.1,1-2.1,2.8v7.4c0,0.4-0.2,0.6-0.6,0.6h-1.8c-0.4,0-0.6-0.2-0.6-0.6v-7.6c0-3.4,1.8-5.2,5-5.2
		c1.7,0,3,0.5,3.8,1.6h0.1c0.8-1,2.1-1.6,3.8-1.6C-141.7,236.4-139.9,238.4-139.9,241.6z"/>
	<path id="XMLID_160_" class="st0" d="M-127.2,236.8c0.4,0,0.6,0.2,0.6,0.6v12.4c0,3.1-2,5.1-5.5,5.1c-1.8,0-3.3-0.5-4.5-1.4
		c-0.3-0.3-0.3-0.5-0.1-0.9l0.7-1.1c0.2-0.4,0.5-0.4,0.9-0.1c0.9,0.6,1.8,1,2.9,1c1.7,0,2.6-0.9,2.6-2.6v-0.8h-0.1
		c-0.7,0.7-1.6,1.1-2.9,1.1c-3,0-4.7-1.8-4.7-5.2v-7.4c0-0.4,0.2-0.6,0.6-0.6h1.8c0.4,0,0.6,0.2,0.6,0.6v7.1c0,1.9,0.8,2.8,2.3,2.8
		s2.3-0.9,2.3-2.8v-7.1c0-0.4,0.2-0.6,0.6-0.6h1.9V236.8z"/>
	<path id="XMLID_159_" class="st0" d="M-113.1,241.6v7.6c0,0.4-0.2,0.6-0.6,0.6h-1.8c-0.4,0-0.6-0.2-0.6-0.6v-7.4
		c0-1.8-0.8-2.8-2.3-2.8s-2.3,0.9-2.3,2.8v7.4c0,0.4-0.2,0.6-0.6,0.6h-1.8c-0.4,0-0.6-0.2-0.6-0.6v-17.5c0-0.4,0.2-0.6,0.6-0.6h1.8
		c0.4,0,0.6,0.2,0.6,0.6v5.7h0.1c0.6-0.6,1.6-1,2.9-1C-114.7,236.4-113.1,238.4-113.1,241.6z"/>
	<path id="XMLID_156_" class="st0" d="M-75,244.1c0,0.4-0.2,0.6-0.6,0.6h-7v-0.2c0,2.2,0.9,3.1,2.9,3.1c0.9,0,1.8-0.3,2.5-0.9
		c0.4-0.3,0.6-0.3,0.9,0.1l0.8,1.1c0.2,0.3,0.2,0.6-0.1,0.9c-1.1,1-2.5,1.5-4.2,1.5c-3.9,0-5.8-1.8-5.8-5.5v-3
		c0-3.4,1.9-5.3,5.3-5.3s5.3,1.9,5.3,5.3L-75,244.1L-75,244.1z M-77.9,242.4v-0.4c0-2-0.8-3-2.4-3c-1.6,0-2.4,1-2.4,2.9v0.4
		L-77.9,242.4L-77.9,242.4z"/>
	<path id="XMLID_153_" class="st0" d="M-12.8,244.1c0,0.4-0.2,0.6-0.6,0.6h-7v-0.2c0,2.2,0.9,3.1,2.9,3.1c0.9,0,1.8-0.3,2.5-0.9
		c0.4-0.3,0.6-0.3,0.9,0.1l0.8,1.1c0.2,0.3,0.2,0.6-0.1,0.9c-1.1,1-2.5,1.5-4.1,1.5c-3.9,0-5.8-1.8-5.8-5.5v-3
		c0-3.4,1.9-5.3,5.3-5.3c3.4,0,5.3,1.9,5.3,5.3L-12.8,244.1L-12.8,244.1z M-15.7,242.4v-0.4c0-1.9-0.8-2.9-2.3-2.9
		c-1.6,0-2.4,1-2.4,2.9v0.4H-15.7z"/>
	<path id="XMLID_152_" class="st0" d="M-53.8,231.6c0.9,0,1.5,0.6,1.5,1.5c0,0.9-0.6,1.5-1.5,1.5s-1.5-0.6-1.5-1.5
		C-55.3,232.2-54.7,231.6-53.8,231.6z"/>
	<path id="XMLID_151_" class="st0" d="M-54.7,249.9c-0.4,0-0.6-0.2-0.6-0.6v-12.2c0-0.4,0.2-0.6,0.6-0.6h1.8c0.4,0,0.6,0.2,0.6,0.6
		v12.2c0,0.4-0.2,0.6-0.6,0.6H-54.7z"/>
	<path id="XMLID_150_" class="st0" d="M-42.2,241.9c0-1.9-0.8-2.8-2.3-2.8s-2.3,0.9-2.3,2.8v7.4c0,0.4-0.2,0.6-0.6,0.6h-1.8
		c-0.4,0-0.6-0.2-0.6-0.6v-7.6c0-3.4,1.9-5.2,5.3-5.2s5.3,1.8,5.3,5.2v7.6c0,0.4-0.2,0.6-0.6,0.6h-1.8c-0.4,0-0.6-0.2-0.6-0.6V241.9
		z"/>
	<path id="XMLID_147_" class="st0" d="M-26.5,231.1c0.4,0,0.6,0.2,0.6,0.6v13.2c0,3.4-1.9,5.3-5.4,5.3c-3.5,0-5.4-1.9-5.4-5.3v-3.2
		c0-3.4,1.7-5.3,4.9-5.3c1.3,0,2.2,0.4,2.9,1.1h0.1v-5.8c0-0.4,0.2-0.6,0.6-0.6C-28.2,231.1-26.5,231.1-26.5,231.1z M-28.9,241.9
		c0-1.9-0.8-2.9-2.4-2.9s-2.4,1-2.4,2.9v2.7c0,1.9,0.8,2.9,2.4,2.9s2.4-1,2.4-2.9V241.9z"/>
	<path id="XMLID_146_" class="st0" d="M-10.3,241.8c0-3.5,1.6-5.2,4.8-5.2c1.2,0,2.3,0.3,3.1,0.8c0.3,0.2,0.4,0.5,0.2,0.9l-0.6,1.1
		c-0.2,0.4-0.4,0.4-0.9,0.2c-0.5-0.3-1-0.4-1.5-0.4c-1.4,0-2.1,0.8-2.1,2.5v7.6c0,0.4-0.2,0.6-0.6,0.6h-1.8c-0.4,0-0.6-0.2-0.6-0.6
		L-10.3,241.8L-10.3,241.8z"/>
	<path id="XMLID_145_" class="st0" d="M-3.5,249.1c0-0.5,0.4-0.8,0.9-0.8s0.9,0.4,0.9,0.8c0,0.5-0.4,0.9-0.9,0.9
		S-3.5,249.6-3.5,249.1z"/>
	<path id="XMLID_144_" class="st0" d="M3.3,248.9c0.1,0.1,0.1,0.3,0,0.4c-0.5,0.4-1,0.6-1.7,0.6c-1.6,0-2.5-0.9-2.5-2.5v-1.2
		c0-1.6,0.9-2.5,2.4-2.5c0.7,0,1.2,0.2,1.6,0.5c0.1,0.1,0.2,0.2,0,0.4l-0.3,0.5c-0.1,0.1-0.2,0.1-0.4,0c-0.2-0.2-0.5-0.2-0.8-0.2
		c-0.8,0-1.2,0.5-1.2,1.4v1c0,0.9,0.4,1.4,1.2,1.4c0.3,0,0.6-0.1,0.9-0.3c0.2-0.1,0.3-0.1,0.4,0L3.3,248.9z"/>
	<path id="XMLID_141_" class="st0" d="M8.7,246.1v1.4c0,1.5-0.9,2.4-2.4,2.4c-1.6,0-2.4-0.8-2.4-2.4v-1.4c0-1.5,0.8-2.4,2.4-2.4
		S8.7,244.6,8.7,246.1z M7.4,246.2c0-0.9-0.3-1.3-1.1-1.3c-0.7,0-1.1,0.4-1.1,1.3v1.2c0,0.9,0.4,1.3,1.1,1.3c0.7,0,1.1-0.4,1.1-1.3
		V246.2z"/>
	<path id="XMLID_140_" class="st0" d="M17.6,246.1v3.3c0,0.2-0.1,0.3-0.3,0.3h-0.8c-0.2,0-0.3-0.1-0.3-0.3v-3.3c0-0.8-0.3-1.2-1-1.2
		c-0.6,0-1,0.4-1,1.2v3.3c0,0.2-0.1,0.3-0.3,0.3h-0.8c-0.2,0-0.3-0.1-0.3-0.3v-3.3c0-0.8-0.3-1.2-1-1.2c-0.6,0-0.9,0.4-0.9,1.2v3.3
		c0,0.2-0.1,0.3-0.3,0.3H10c-0.2,0-0.3-0.1-0.3-0.3v-3.3c0-1.5,0.8-2.3,2.2-2.3c0.8,0,1.3,0.2,1.7,0.7l0,0c0.4-0.5,0.9-0.7,1.7-0.7
		C16.8,243.8,17.6,244.6,17.6,246.1z"/>
	<path id="XMLID_139_" class="st0" d="M-111.8,253.6L-111.8,253.6c0.6,0.5,1.6,0.4,2.1-0.3l1.3-1.7c0.5-0.6,0.4-1.6-0.3-2.1
		c-0.6-0.5-1.6-0.4-2.1,0.3l-1.2,1.7C-112.5,252.2-112.4,253.1-111.8,253.6z"/>
	<path id="XMLID_136_" class="st0" d="M-110.6,243.9c0.5,3.8,3.9,6.4,7.7,6c3.8-0.5,6.4-3.9,6-7.7c-0.5-3.8-3.9-6.4-7.7-6
		C-108.4,236.8-111,240.2-110.6,243.9z M-107.6,243.6c-0.3-2.1,1.2-4,3.3-4.3c2.1-0.3,4,1.2,4.3,3.3c0.3,2.1-1.2,4-3.3,4.3
		C-105.4,247.1-107.3,245.8-107.6,243.6z"/>
	<path id="XMLID_135_" class="st0" d="M-67.3,247.1c0.4,0,0.7,0.2,0.7,0.7v1.4c0,0.4-0.2,0.7-0.7,0.7h-0.6c-2.9,0-4.4-1.5-4.4-4.7
		v-13.4c0-0.4,0.2-0.7,0.7-0.7h1.9c0.4,0,0.7,0.2,0.7,0.7v13.4C-69,246.6-68.5,247.1-67.3,247.1z"/>
	<path id="XMLID_134_" class="st0" d="M-87.3,248.9l-0.4-1.2c-0.1-0.4-0.4-0.5-0.8-0.4c-0.4,0.1-0.8,0.2-1.1,0.2c-1.3,0-2-0.7-2-2.1
		v-6.4h2.6c0.4,0,0.6-0.2,0.6-0.6v-1.3c0-0.4-0.2-0.6-0.6-0.6h-2.6v-2.7c0-0.4-0.2-0.6-0.6-0.6H-94c-0.4,0-0.6,0.2-0.6,0.6v1.5v1.2
		v2.5v1v5.4c0,3.1,1.6,4.7,4.7,4.7c0.9,0,1.7-0.1,2.3-0.4C-87.3,249.6-87.2,249.4-87.3,248.9z"/>
	<path id="XMLID_133_" class="st0" d="M-57.1,231.6c-0.8-0.3-1.7-0.5-2.8-0.5c-3.1,0-4.8,1.8-4.8,5.1v0.6v2.6v1.3v8.6
		c0,0.4,0.2,0.6,0.6,0.6h1.8c0.4,0,0.6-0.2,0.6-0.6v-10.1h3.4c0.4,0,0.6-0.2,0.6-0.6v-1.4c0-0.4-0.2-0.6-0.6-0.6h-3.4v-0.5
		c0-1.5,0.7-2.4,2-2.4c0.5,0,1,0.1,1.4,0.3s0.6,0.1,0.8-0.3l0.6-1.3C-56.6,232.1-56.7,231.9-57.1,231.6z"/>
</g>
</svg>
