<?xml version="1.0" encoding="utf-8"?>
<!-- Generator: Adobe Illustrator 19.0.0, SVG Export Plug-In . SVG Version: 6.00 Build 0)  -->
<svg version="1.1" id="Layer_1" xmlns="http://www.w3.org/2000/svg" xmlns:xlink="http://www.w3.org/1999/xlink" x="0px" y="0px"
	 viewBox="0 0 184 15" style="enable-background:new 0 0 184 15;" xml:space="preserve">
<style type="text/css">
	.st0{fill:#FFFFFF;}
</style>
<g>
	<path class="st0" d="M0.1,7.5L0.1,7.5c0-2.5,1.8-4.5,4.4-4.5c1.6,0,2.5,0.5,3.4,1.3l-1,1.1C6.2,4.9,5.5,4.5,4.5,4.5
		c-1.6,0-2.8,1.3-2.8,3v0c0,1.7,1.2,3,2.8,3c1.1,0,1.7-0.4,2.5-1.1l1,1C7,11.3,6,11.9,4.4,11.9C1.9,11.9,0.1,10,0.1,7.5z"/>
	<path class="st0" d="M10.1,7.5L10.1,7.5c0-2.4,1.9-4.5,4.5-4.5c2.6,0,4.5,2,4.5,4.4v0c0,2.4-1.9,4.4-4.5,4.4S10.1,9.9,10.1,7.5z
		 M17.5,7.5L17.5,7.5c0-1.7-1.2-3.1-2.9-3.1c-1.7,0-2.9,1.4-2.9,3v0c0,1.7,1.2,3,2.9,3C16.3,10.5,17.5,9.2,17.5,7.5z"/>
	<path class="st0" d="M22.1,3.2h3.8c1.1,0,1.9,0.3,2.5,0.9c0.5,0.5,0.7,1.1,0.7,1.9v0c0,1.4-0.8,2.3-2,2.6l2.3,3.2h-1.8l-2.1-3h-1.9
		v3h-1.5V3.2z M25.8,7.5c1.1,0,1.8-0.6,1.8-1.4v0c0-0.9-0.7-1.4-1.8-1.4h-2.2v2.9H25.8z"/>
	<path class="st0" d="M32.2,3.2h3.4c2,0,3.3,1.1,3.3,2.9v0C38.8,8,37.3,9,35.4,9h-1.7v2.8h-1.5V3.2z M35.5,7.7
		c1.1,0,1.8-0.6,1.8-1.5v0c0-1-0.7-1.5-1.8-1.5h-1.8v3.1H35.5z"/>
	<path class="st0" d="M41.2,7.5L41.2,7.5c0-2.4,1.9-4.5,4.5-4.5c2.6,0,4.5,2,4.5,4.4v0c0,2.4-1.9,4.4-4.5,4.4
		C43.1,11.9,41.2,9.9,41.2,7.5z M48.6,7.5L48.6,7.5c0-1.7-1.2-3.1-2.9-3.1c-1.7,0-2.9,1.4-2.9,3v0c0,1.7,1.2,3,2.9,3
		C47.4,10.5,48.6,9.2,48.6,7.5z"/>
	<path class="st0" d="M53.2,3.2h3.8c1.1,0,1.9,0.3,2.5,0.9c0.5,0.5,0.7,1.1,0.7,1.9v0c0,1.4-0.8,2.3-2,2.6l2.3,3.2h-1.8l-2.1-3h-1.9
		v3h-1.5V3.2z M56.9,7.5c1.1,0,1.8-0.6,1.8-1.4v0c0-0.9-0.7-1.4-1.8-1.4h-2.2v2.9H56.9z"/>
	<path class="st0" d="M66.3,3.2h1.4l3.8,8.6h-1.6l-0.9-2.1H65l-0.9,2.1h-1.5L66.3,3.2z M68.5,8.4L67,5l-1.5,3.4H68.5z"/>
	<path class="st0" d="M75.2,4.6h-2.7V3.2h7v1.4h-2.7v7.2h-1.5V4.6z"/>
	<path class="st0" d="M82.3,3.2h6.4v1.3h-4.8v2.2h4.3v1.3h-4.3v2.3h4.9v1.3h-6.4V3.2z"/>
	<path class="st0" d="M96.6,3.2h3.8c1.1,0,1.9,0.3,2.5,0.9c0.5,0.5,0.7,1.1,0.7,1.9v0c0,1.4-0.8,2.3-2,2.6l2.3,3.2h-1.8l-2.1-3h-1.9
		v3h-1.5V3.2z M100.3,7.5c1.1,0,1.8-0.6,1.8-1.4v0c0-0.9-0.7-1.4-1.8-1.4h-2.2v2.9H100.3z"/>
	<path class="st0" d="M106.3,7.5L106.3,7.5c0-2.4,1.9-4.5,4.5-4.5c2.6,0,4.5,2,4.5,4.4v0c0,2.4-1.9,4.4-4.5,4.4
		C108.1,11.9,106.3,9.9,106.3,7.5z M113.7,7.5L113.7,7.5c0-1.7-1.2-3.1-2.9-3.1c-1.7,0-2.9,1.4-2.9,3v0c0,1.7,1.2,3,2.9,3
		C112.5,10.5,113.7,9.2,113.7,7.5z"/>
	<path class="st0" d="M117.9,7.5L117.9,7.5c0-2.4,1.9-4.5,4.5-4.5c2.6,0,4.5,2,4.5,4.4v0c0,2.4-1.9,4.4-4.5,4.4
		C119.8,11.9,117.9,9.9,117.9,7.5z M125.3,7.5L125.3,7.5c0-1.7-1.2-3.1-2.9-3.1c-1.7,0-2.9,1.4-2.9,3v0c0,1.7,1.2,3,2.9,3
		C124.1,10.5,125.3,9.2,125.3,7.5z"/>
	<path class="st0" d="M129.9,3.2h1.6l2.6,4.1l2.6-4.1h1.6v8.6h-1.5V5.6l-2.7,4h-0.1l-2.7-4v6.1h-1.5V3.2z"/>
	<path class="st0" d="M146.6,3.2h3.3c2.7,0,4.6,1.8,4.6,4.3v0c0,2.4-1.9,4.3-4.6,4.3h-3.3V3.2z M148.5,4.9v5.2h1.5
		c1.5,0,2.6-1,2.6-2.6v0c0-1.5-1-2.6-2.6-2.6H148.5z"/>
	<path class="st0" d="M157.4,3.2h6.5v1.7h-4.6v1.7h4v1.7h-4v1.8h4.7v1.7h-6.5V3.2z"/>
	<path class="st0" d="M169.8,3.2h1.7l3.7,8.6h-2l-0.8-1.9h-3.6l-0.8,1.9h-1.9L169.8,3.2z M171.8,8.2l-1.1-2.8l-1.1,2.8H171.8z"/>
	<path class="st0" d="M177.7,3.2h1.9v6.9h4.3v1.7h-6.2V3.2z"/>
</g>
</svg>
