<?xml version="1.0" encoding="utf-8"?>
<!-- Generator: Adobe Illustrator 19.0.0, SVG Export Plug-In . SVG Version: 6.00 Build 0)  -->
<svg version="1.1" id="Layer_1" xmlns="http://www.w3.org/2000/svg" xmlns:xlink="http://www.w3.org/1999/xlink" x="0px" y="0px"
	 viewBox="-343 287.3 155 22" style="enable-background:new -343 287.3 155 22;" xml:space="preserve">
<style type="text/css">
	.st0{fill:#FFFFFF;}
</style>
<g>
	<path class="st0" d="M-305.4,290.9c-2.3,0-4,0.7-5.2,2c-1.2,1.3-1.8,3.1-1.8,5.4c0,1.1,0.1,2.1,0.4,3s0.7,1.7,1.3,2.3
		c0.6,0.6,1.3,1.2,2.1,1.5c0.8,0.4,1.8,0.5,3,0.5c0.7,0,1.3,0,1.8-0.1c0.5,0,0.9-0.1,1.2-0.2V298h4v9.8c-0.6,0.2-1.5,0.4-2.8,0.6
		c-1.3,0.2-2.8,0.4-4.6,0.4c-1.6,0-3.1-0.2-4.4-0.7c-1.3-0.5-2.4-1.2-3.4-2.1c-0.9-0.9-1.6-2-2.2-3.3c-0.5-1.3-0.8-2.8-0.8-4.5
		c0-1.7,0.3-3.2,0.8-4.5c0.6-1.3,1.3-2.4,2.3-3.3s2.1-1.6,3.4-2.1c1.3-0.5,2.7-0.7,4.2-0.7c1,0,1.9,0.1,2.7,0.2
		c1.2,0.2,1.8,0.3,2.4,0.5s1,0.3,1.4,0.5s0.6,0.3,0.8,0.4l-1.2,3c-0.6-0.4-1.4-0.6-2.4-0.9C-303.3,291.1-304.3,290.9-305.4,290.9z"
		/>
	<path class="st0" d="M-289.8,295.2c0.3-0.2,0.8-0.4,1.4-0.6c0.7-0.2,1.4-0.3,2.2-0.3c1.1,0,2,0.2,2.8,0.5c0.8,0.4,1.5,0.8,2.1,1.5
		c0.6,0.6,1,1.4,1.3,2.3c0.3,0.9,0.4,1.8,0.4,2.9c0,1.1-0.2,2.1-0.5,3c-0.3,0.9-0.8,1.6-1.5,2.3c-0.6,0.6-1.4,1.1-2.3,1.4
		c-0.9,0.3-1.9,0.5-3,0.5c-1.2,0-2.3-0.1-3.2-0.2c-0.9-0.2-1.7-0.3-2.3-0.5v-19.7l2.6-0.4C-289.8,287.9-289.8,295.2-289.8,295.2z
		 M-289.8,306.2c0.3,0.1,0.6,0.1,1.1,0.2s1.1,0.1,1.8,0.1c1.4,0,2.5-0.4,3.4-1.3c0.8-0.9,1.3-2.1,1.3-3.7c0-0.7-0.1-1.4-0.2-2
		c-0.2-0.6-0.4-1.1-0.7-1.6c-0.3-0.4-0.8-0.8-1.3-1.1s-1.2-0.4-1.9-0.4c-0.7,0-1.4,0.1-2,0.3c-0.6,0.2-1.1,0.5-1.4,0.7L-289.8,306.2
		L-289.8,306.2z"/>
	<path class="st0" d="M-277.3,301.5c0-1.2,0.2-2.3,0.6-3.2c0.4-0.9,0.9-1.7,1.5-2.3c0.6-0.6,1.3-1,2.1-1.3c0.7-0.3,1.6-0.4,2.4-0.4
		c2,0,3.5,0.6,4.5,1.7c1,1.2,1.6,2.9,1.6,5.3c0,0.1,0,0.2,0,0.4c0,0.2,0,0.3,0,0.5h-10c0.1,1.4,0.6,2.5,1.3,3.2
		c0.8,0.7,2,1.1,3.6,1.1c0.9,0,1.7-0.1,2.3-0.2c0.6-0.2,1.1-0.3,1.4-0.4l0.4,2.1c-0.3,0.2-0.9,0.3-1.7,0.5c-0.8,0.2-1.7,0.3-2.7,0.3
		c-1.3,0-2.4-0.2-3.3-0.5c-0.9-0.4-1.7-0.9-2.3-1.5c-0.6-0.6-1-1.4-1.3-2.3C-277.2,303.5-277.3,302.5-277.3,301.5z M-267.3,300.1
		c0-1.1-0.3-2-0.9-2.7c-0.6-0.7-1.4-1.1-2.5-1.1c-0.6,0-1.1,0.1-1.6,0.3c-0.5,0.2-0.8,0.5-1.2,0.9c-0.3,0.3-0.6,0.8-0.7,1.2
		c-0.2,0.5-0.3,0.9-0.4,1.4C-274.6,300.1-267.3,300.1-267.3,300.1z"/>
	<path class="st0" d="M-252.2,288.3l2.6-0.4V308c-0.6,0.2-1.4,0.3-2.3,0.5c-0.9,0.2-2,0.2-3.2,0.2c-1.1,0-2.1-0.2-3-0.5
		c-0.9-0.3-1.7-0.8-2.3-1.4s-1.1-1.4-1.5-2.3c-0.3-0.9-0.5-1.9-0.5-3s0.1-2,0.4-2.9c0.3-0.9,0.7-1.6,1.3-2.3
		c0.6-0.6,1.3-1.1,2.1-1.5c0.7-0.3,1.6-0.5,2.7-0.5c0.8,0,1.6,0.1,2.2,0.3c0.6,0.2,1.1,0.4,1.4,0.6v-6.9H-252.2z M-252.2,297.5
		c-0.4-0.2-0.8-0.5-1.4-0.7c-0.6-0.2-1.3-0.3-2-0.3c-0.7,0-1.4,0.1-1.9,0.4c-0.5,0.3-1,0.6-1.3,1.1c-0.3,0.5-0.6,1-0.7,1.6
		c-0.1,0.6-0.2,1.3-0.2,2c0,1.6,0.4,2.8,1.3,3.7c0.8,0.9,2,1.3,3.4,1.3c0.7,0,1.3,0,1.8-0.1c0.5-0.1,0.8-0.1,1.1-0.2v-8.8H-252.2z"
		/>
	<path class="st0" d="M-243.3,295.2c0.3-0.2,0.8-0.4,1.4-0.6c0.6-0.2,1.4-0.3,2.2-0.3c1,0,2,0.2,2.8,0.5c0.8,0.4,1.5,0.8,2.1,1.5
		c0.6,0.6,1,1.4,1.3,2.3c0.3,0.9,0.4,1.8,0.4,2.9c0,1.1-0.2,2.1-0.5,3c-0.3,0.9-0.8,1.6-1.5,2.3c-0.6,0.6-1.4,1.1-2.3,1.4
		c-0.9,0.3-1.9,0.5-3,0.5c-1.2,0-2.3-0.1-3.2-0.2c-0.9-0.2-1.7-0.3-2.3-0.5v-19.7l2.6-0.4V295.2z M-243.3,306.2
		c0.3,0.1,0.6,0.1,1.1,0.2s1.1,0.1,1.8,0.1c1.4,0,2.5-0.4,3.4-1.3c0.8-0.9,1.3-2.1,1.3-3.7c0-0.7-0.1-1.4-0.2-2
		c-0.2-0.6-0.4-1.1-0.7-1.6c-0.3-0.4-0.8-0.8-1.3-1.1s-1.2-0.4-1.9-0.4c-0.7,0-1.4,0.1-2,0.3c-0.6,0.2-1.1,0.5-1.4,0.7v8.8H-243.3z"
		/>
	<path class="st0" d="M-225.2,294.3c1,0,1.9,0.1,2.7,0.4c0.7,0.3,1.3,0.6,1.7,1.1c0.4,0.5,0.8,1,0.9,1.7c0.2,0.6,0.3,1.4,0.3,2.1
		v8.6c-0.2,0-0.5,0.1-0.9,0.1c-0.4,0.1-0.9,0.1-1.4,0.2c-0.5,0.1-1.1,0.1-1.6,0.1c-0.6,0-1.2,0.1-1.8,0.1c-0.8,0-1.6-0.1-2.3-0.2
		c-0.7-0.2-1.3-0.4-1.8-0.8c-0.5-0.3-0.9-0.8-1.2-1.4c-0.3-0.6-0.4-1.2-0.4-2s0.2-1.4,0.5-2c0.3-0.5,0.8-1,1.3-1.3
		c0.6-0.3,1.2-0.6,2-0.7c0.7-0.2,1.5-0.2,2.4-0.2c0.3,0,0.5,0,0.8,0s0.5,0.1,0.8,0.1c0.2,0,0.5,0.1,0.7,0.1s0.3,0.1,0.4,0.1v-0.7
		c0-0.4-0.1-0.8-0.1-1.2c-0.1-0.4-0.3-0.8-0.5-1.1s-0.6-0.6-1-0.7c-0.4-0.2-1-0.3-1.6-0.3c-0.9,0-1.6,0.1-2.3,0.2
		c-0.6,0.1-1.1,0.2-1.4,0.4l-0.3-2c0.3-0.1,0.9-0.3,1.7-0.4C-227,294.3-226.1,294.3-225.2,294.3z M-225,306.6c0.6,0,1.2,0,1.6,0
		c0.5,0,0.9-0.1,1.2-0.1v-4.2c-0.2-0.1-0.5-0.2-0.9-0.2c-0.4-0.1-0.9-0.1-1.5-0.1c-0.4,0-0.8,0-1.2,0.1c-0.4,0.1-0.8,0.2-1.2,0.3
		c-0.4,0.2-0.7,0.4-0.9,0.7c-0.2,0.3-0.4,0.7-0.4,1.1c0,0.9,0.3,1.5,0.9,1.8C-226.8,306.4-226,306.6-225,306.6z"/>
	<path class="st0" d="M-216.5,295c0.6-0.1,1.4-0.3,2.4-0.4c1-0.2,2.1-0.2,3.4-0.2c1.2,0,2.1,0.2,2.9,0.5c0.8,0.3,1.4,0.7,1.8,1.3
		c0.5,0.6,0.8,1.2,1,2c0.2,0.8,0.3,1.6,0.3,2.6v7.5h-2.6v-7.2c0-0.8-0.1-1.6-0.2-2.2c-0.1-0.6-0.3-1.1-0.6-1.5s-0.7-0.6-1.1-0.8
		c-0.5-0.2-1.1-0.3-1.7-0.3c-0.3,0-0.6,0-0.9,0c-0.3,0-0.6,0-0.9,0.1c-0.3,0-0.5,0.1-0.7,0.1s-0.4,0.1-0.5,0.1v11.7h-2.6
		C-216.5,308.3-216.5,295-216.5,295z"/>
	<path class="st0" d="M-195.7,300.8c0.6,0.4,1.2,0.9,1.8,1.5s1.2,1.2,1.9,1.9c0.6,0.7,1.2,1.4,1.7,2.1s1,1.4,1.4,2h-3.1
		c-0.4-0.6-0.8-1.2-1.4-1.9c-0.5-0.6-1.1-1.3-1.6-1.8c-0.6-0.6-1.1-1.1-1.7-1.6c-0.6-0.5-1.1-0.9-1.7-1.2v6.5h-2.6v-20l2.6-0.4v12.5
		c0.5-0.4,0.9-0.9,1.5-1.4c0.5-0.5,1.1-1,1.6-1.6c0.5-0.5,1-1,1.5-1.5s0.9-0.9,1.2-1.3h3.1c-0.4,0.4-0.9,0.9-1.4,1.5
		c-0.5,0.5-1,1.1-1.6,1.6c-0.5,0.5-1.1,1.1-1.6,1.6C-194.7,299.8-195.3,300.3-195.7,300.8z"/>
	<path id="XMLID_27_" class="st0" d="M-323.5,287.8h-0.5c-0.5,0.7-1,1.7-1.6,2.7c-0.6,1.1-1.2,2.2-1.8,3.4c-0.6,1.2-1.2,2.4-1.8,3.6
		c-0.6,1.2-1.1,2.4-1.6,3.4c-0.5-1-1-2.2-1.6-3.4c-0.5-1.2-1-2.4-1.6-3.5c-0.6-1.2-1.2-2.4-1.8-3.4c-0.6-1.1-1.1-2-1.6-2.7h-0.6h-4
		v20.7h4v-14.5c0-0.2,0-0.3,0-0.5c0.2,0.4,0.5,1,0.8,1.6c0.3,0.6,0.7,1.3,1,2c0.4,0.7,0.7,1.5,1.1,2.3c0.4,0.8,0.8,1.5,1.1,2.3
		c0.4,0.7,0.7,1.4,1,2.1c0.3,0.6,0.6,1.2,0.8,1.6h3c0.2-0.5,0.5-1,0.8-1.6c0.3-0.6,0.6-1.3,1-2.1c0.4-0.7,0.7-1.5,1.1-2.3
		c0.4-0.8,0.7-1.5,1.1-2.3c0.4-0.7,0.7-1.4,1-2c0.3-0.6,0.5-1.1,0.8-1.5v14.8h4v-20.7H-323.5z"/>
</g>
</svg>
