<?xml version="1.0" encoding="utf-8"?>
<!-- Generator: Adobe Illustrator 19.0.0, SVG Export Plug-In . SVG Version: 6.00 Build 0)  -->
<svg version="1.1" id="Layer_1" xmlns="http://www.w3.org/2000/svg" xmlns:xlink="http://www.w3.org/1999/xlink" x="0px" y="0px"
	 viewBox="-332 286.3 176 24" style="enable-background:new -332 286.3 176 24;" xml:space="preserve">
<style type="text/css">
	.st0{fill:#FFFFFF;}
</style>
<g id="XMLID_132_">
	<path id="XMLID_161_" class="st0" d="M-313.9,296.9v7.6c0,0.4-0.2,0.6-0.6,0.6h-1.8c-0.4,0-0.6-0.2-0.6-0.6v-7.4
		c0-1.8-0.8-2.8-2.2-2.8s-2.2,1-2.2,2.8v7.4c0,0.4-0.2,0.6-0.6,0.6h-1.7c-0.4,0-0.6-0.2-0.6-0.6v-7.4c-0.1-1.8-0.8-2.8-2.3-2.8
		c-1.4,0-2.1,1-2.1,2.8v7.4c0,0.4-0.2,0.6-0.6,0.6h-1.8c-0.4,0-0.6-0.2-0.6-0.6v-7.6c0-3.4,1.8-5.2,5-5.2c1.7,0,3,0.5,3.8,1.6h0.1
		c0.8-1,2.1-1.6,3.8-1.6C-315.7,291.7-313.9,293.7-313.9,296.9z"/>
	<path id="XMLID_160_" class="st0" d="M-301.2,292.1c0.4,0,0.6,0.2,0.6,0.6v12.4c0,3.1-2,5.1-5.5,5.1c-1.8,0-3.3-0.5-4.5-1.4
		c-0.3-0.3-0.3-0.5-0.1-0.9l0.7-1.1c0.2-0.4,0.5-0.4,0.9-0.1c0.9,0.6,1.8,1,2.9,1c1.7,0,2.6-0.9,2.6-2.6v-0.8h-0.1
		c-0.7,0.7-1.6,1.1-2.9,1.1c-3,0-4.7-1.8-4.7-5.2v-7.4c0-0.4,0.2-0.6,0.6-0.6h1.8c0.4,0,0.6,0.2,0.6,0.6v7.1c0,1.9,0.8,2.8,2.3,2.8
		s2.3-0.9,2.3-2.8v-7.1c0-0.4,0.2-0.6,0.6-0.6h1.9C-301.2,292.2-301.2,292.1-301.2,292.1z"/>
	<path id="XMLID_159_" class="st0" d="M-287.1,296.9v7.6c0,0.4-0.2,0.6-0.6,0.6h-1.8c-0.4,0-0.6-0.2-0.6-0.6v-7.4
		c0-1.8-0.8-2.8-2.3-2.8s-2.3,0.9-2.3,2.8v7.4c0,0.4-0.2,0.6-0.6,0.6h-1.8c-0.4,0-0.6-0.2-0.6-0.6V287c0-0.4,0.2-0.6,0.6-0.6h1.8
		c0.4,0,0.6,0.2,0.6,0.6v5.7h0.1c0.6-0.6,1.6-1,2.9-1C-288.7,291.7-287.1,293.7-287.1,296.9z"/>
	<path id="XMLID_156_" class="st0" d="M-249,299.4c0,0.4-0.2,0.6-0.6,0.6h-7v-0.2c0,2.2,0.9,3.1,2.9,3.1c0.9,0,1.8-0.3,2.5-0.9
		c0.4-0.3,0.6-0.3,0.9,0.1l0.8,1.1c0.2,0.3,0.2,0.6-0.1,0.9c-1.1,1-2.5,1.5-4.2,1.5c-3.9,0-5.8-1.8-5.8-5.5v-3
		c0-3.4,1.9-5.3,5.3-5.3s5.3,1.9,5.3,5.3L-249,299.4L-249,299.4z M-251.9,297.7v-0.4c0-2-0.8-3-2.4-3c-1.6,0-2.4,1-2.4,2.9v0.4
		L-251.9,297.7L-251.9,297.7z"/>
	<path id="XMLID_153_" class="st0" d="M-186.8,299.4c0,0.4-0.2,0.6-0.6,0.6h-7v-0.2c0,2.2,0.9,3.1,2.9,3.1c0.9,0,1.8-0.3,2.5-0.9
		c0.4-0.3,0.6-0.3,0.9,0.1l0.8,1.1c0.2,0.3,0.2,0.6-0.1,0.9c-1.1,1-2.5,1.5-4.1,1.5c-3.9,0-5.8-1.8-5.8-5.5v-3
		c0-3.4,1.9-5.3,5.3-5.3s5.3,1.9,5.3,5.3L-186.8,299.4L-186.8,299.4z M-189.7,297.7v-0.4c0-1.9-0.8-2.9-2.3-2.9
		c-1.6,0-2.4,1-2.4,2.9v0.4H-189.7z"/>
	<path id="XMLID_152_" class="st0" d="M-227.8,286.9c0.9,0,1.5,0.6,1.5,1.5s-0.6,1.5-1.5,1.5c-0.9,0-1.5-0.6-1.5-1.5
		C-229.3,287.5-228.7,286.9-227.8,286.9z"/>
	<path id="XMLID_151_" class="st0" d="M-228.7,305.2c-0.4,0-0.6-0.2-0.6-0.6v-12.2c0-0.4,0.2-0.6,0.6-0.6h1.8c0.4,0,0.6,0.2,0.6,0.6
		v12.2c0,0.4-0.2,0.6-0.6,0.6H-228.7z"/>
	<path id="XMLID_150_" class="st0" d="M-216.2,297.2c0-1.9-0.8-2.8-2.3-2.8s-2.3,0.9-2.3,2.8v7.4c0,0.4-0.2,0.6-0.6,0.6h-1.8
		c-0.4,0-0.6-0.2-0.6-0.6V297c0-3.4,1.9-5.2,5.3-5.2c3.4,0,5.3,1.8,5.3,5.2v7.6c0,0.4-0.2,0.6-0.6,0.6h-1.8c-0.4,0-0.6-0.2-0.6-0.6
		C-216.2,304.6-216.2,297.2-216.2,297.2z"/>
	<path id="XMLID_147_" class="st0" d="M-200.5,286.4c0.4,0,0.6,0.2,0.6,0.6v13.2c0,3.4-1.9,5.3-5.4,5.3s-5.4-1.9-5.4-5.3V297
		c0-3.4,1.7-5.3,4.9-5.3c1.3,0,2.2,0.4,2.9,1.1h0.1V287c0-0.4,0.2-0.6,0.6-0.6H-200.5z M-202.9,297.2c0-1.9-0.8-2.9-2.4-2.9
		c-1.6,0-2.4,1-2.4,2.9v2.7c0,1.9,0.8,2.9,2.4,2.9c1.6,0,2.4-1,2.4-2.9C-202.9,299.9-202.9,297.2-202.9,297.2z"/>
	<path id="XMLID_146_" class="st0" d="M-184.3,297.1c0-3.5,1.6-5.2,4.8-5.2c1.2,0,2.3,0.3,3.1,0.8c0.3,0.2,0.4,0.5,0.2,0.9l-0.6,1.1
		c-0.2,0.4-0.4,0.4-0.9,0.2c-0.5-0.3-1-0.4-1.5-0.4c-1.4,0-2.1,0.8-2.1,2.5v7.6c0,0.4-0.2,0.6-0.6,0.6h-1.8c-0.4,0-0.6-0.2-0.6-0.6
		V297.1L-184.3,297.1z"/>
	<path id="XMLID_145_" class="st0" d="M-177.5,304.4c0-0.5,0.4-0.8,0.9-0.8s0.9,0.4,0.9,0.8c0,0.5-0.4,0.9-0.9,0.9
		S-177.5,304.9-177.5,304.4z"/>
	<path id="XMLID_144_" class="st0" d="M-170.7,304.2c0.1,0.1,0.1,0.3,0,0.4c-0.5,0.4-1,0.6-1.7,0.6c-1.6,0-2.5-0.9-2.5-2.5v-1.2
		c0-1.6,0.9-2.5,2.4-2.5c0.7,0,1.2,0.2,1.6,0.5c0.1,0.1,0.2,0.2,0,0.4l-0.3,0.5c-0.1,0.1-0.2,0.1-0.4,0c-0.2-0.2-0.5-0.2-0.8-0.2
		c-0.8,0-1.2,0.5-1.2,1.4v1c0,0.9,0.4,1.4,1.2,1.4c0.3,0,0.6-0.1,0.9-0.3c0.2-0.1,0.3-0.1,0.4,0L-170.7,304.2z"/>
	<path id="XMLID_141_" class="st0" d="M-165.3,301.4v1.4c0,1.5-0.9,2.4-2.4,2.4c-1.6,0-2.4-0.8-2.4-2.4v-1.4c0-1.5,0.8-2.4,2.4-2.4
		S-165.3,299.9-165.3,301.4z M-166.6,301.5c0-0.9-0.3-1.3-1.1-1.3c-0.7,0-1.1,0.4-1.1,1.3v1.2c0,0.9,0.4,1.3,1.1,1.3
		s1.1-0.4,1.1-1.3V301.5z"/>
	<path id="XMLID_140_" class="st0" d="M-156.4,301.4v3.3c0,0.2-0.1,0.3-0.3,0.3h-0.8c-0.2,0-0.3-0.1-0.3-0.3v-3.3
		c0-0.8-0.3-1.2-1-1.2c-0.6,0-1,0.4-1,1.2v3.3c0,0.2-0.1,0.3-0.3,0.3h-0.8c-0.2,0-0.3-0.1-0.3-0.3v-3.3c0-0.8-0.3-1.2-1-1.2
		c-0.6,0-0.9,0.4-0.9,1.2v3.3c0,0.2-0.1,0.3-0.3,0.3h-0.6c-0.2,0-0.3-0.1-0.3-0.3v-3.3c0-1.5,0.8-2.3,2.2-2.3c0.8,0,1.3,0.2,1.7,0.7
		l0,0c0.4-0.5,0.9-0.7,1.7-0.7C-157.2,299.1-156.4,299.9-156.4,301.4z"/>
	<path id="XMLID_139_" class="st0" d="M-285.8,308.9L-285.8,308.9c0.6,0.5,1.6,0.4,2.1-0.3l1.3-1.7c0.5-0.6,0.4-1.6-0.3-2.1
		c-0.6-0.5-1.6-0.4-2.1,0.3l-1.2,1.7C-286.5,307.5-286.4,308.4-285.8,308.9z"/>
	<path id="XMLID_136_" class="st0" d="M-284.6,299.2c0.5,3.8,3.9,6.4,7.7,6c3.8-0.5,6.4-3.9,6-7.7c-0.5-3.8-3.9-6.4-7.7-6
		C-282.4,292.1-285,295.5-284.6,299.2z M-281.6,298.9c-0.3-2.1,1.2-4,3.3-4.3c2.1-0.3,4,1.2,4.3,3.3c0.3,2.1-1.2,4-3.3,4.3
		C-279.4,302.4-281.3,301.1-281.6,298.9z"/>
	<path id="XMLID_135_" class="st0" d="M-241.3,302.4c0.4,0,0.7,0.2,0.7,0.7v1.4c0,0.4-0.2,0.7-0.7,0.7h-0.6c-2.9,0-4.4-1.5-4.4-4.7
		v-13.4c0-0.4,0.2-0.7,0.7-0.7h1.9c0.4,0,0.7,0.2,0.7,0.7v13.4C-243,301.9-242.5,302.4-241.3,302.4z"/>
	<path id="XMLID_134_" class="st0" d="M-261.3,304.2l-0.4-1.2c-0.1-0.4-0.4-0.5-0.8-0.4c-0.4,0.1-0.8,0.2-1.1,0.2
		c-1.3,0-2-0.7-2-2.1v-6.4h2.6c0.4,0,0.6-0.2,0.6-0.6v-1.3c0-0.4-0.2-0.6-0.6-0.6h-2.6v-2.7c0-0.4-0.2-0.6-0.6-0.6h-1.8
		c-0.4,0-0.6,0.2-0.6,0.6v1.5v1.2v2.5v1v5.4c0,3.1,1.6,4.7,4.7,4.7c0.9,0,1.7-0.1,2.3-0.4C-261.3,304.9-261.2,304.7-261.3,304.2z"/>
	<path id="XMLID_133_" class="st0" d="M-231.1,286.9c-0.8-0.3-1.7-0.5-2.8-0.5c-3.1,0-4.8,1.8-4.8,5.1v0.6v2.6v1.3v8.6
		c0,0.4,0.2,0.6,0.6,0.6h1.8c0.4,0,0.6-0.2,0.6-0.6v-10.1h3.4c0.4,0,0.6-0.2,0.6-0.6v-1.4c0-0.4-0.2-0.6-0.6-0.6h-3.4v-0.5
		c0-1.5,0.7-2.4,2-2.4c0.5,0,1,0.1,1.4,0.3c0.4,0.2,0.6,0.1,0.8-0.3l0.6-1.3C-230.6,287.4-230.7,287.2-231.1,286.9z"/>
</g>
</svg>
