<?xml version="1.0" encoding="utf-8"?>
<!-- Generator: Adobe Illustrator 19.0.0, SVG Export Plug-In . SVG Version: 6.00 Build 0)  -->
<svg version="1.1" id="Layer_1" xmlns="http://www.w3.org/2000/svg" xmlns:xlink="http://www.w3.org/1999/xlink" x="0px" y="0px"
	 viewBox="0 0 164 36" style="enable-background:new 0 0 164 36;" xml:space="preserve">
<style type="text/css">
	.st0{fill:#29A6DE;}
	.st1{fill:#FFFFFF;}
</style>
<g>
	<path class="st0" d="M51.3,4.9c-3.1,0-5.5,0.9-7.2,2.7c-1.7,1.8-2.5,4.3-2.5,7.5c0,1.5,0.2,2.9,0.6,4.1c0.4,1.3,1,2.3,1.8,3.2
		c0.8,0.9,1.7,1.6,2.9,2.1c1.2,0.5,2.5,0.7,4.1,0.7c1,0,1.8,0,2.5-0.1c0.7-0.1,1.3-0.2,1.7-0.3V14.8h5.5v13.5
		c-0.8,0.3-2.1,0.6-3.9,0.9c-1.8,0.3-3.9,0.5-6.3,0.5c-2.2,0-4.2-0.3-6-1c-1.8-0.6-3.4-1.6-4.6-2.8c-1.3-1.2-2.3-2.8-3-4.6
		c-0.7-1.8-1.1-3.9-1.1-6.2c0-2.3,0.4-4.4,1.2-6.2c0.8-1.8,1.8-3.3,3.2-4.6C41.5,3,43.1,2,44.9,1.4c1.8-0.6,3.8-1,5.8-1
		c1.4,0,2.7,0.1,3.8,0.3c1.1,0.2,2,0.4,2.8,0.6c0.8,0.2,1.4,0.4,2,0.7c0.5,0.2,0.9,0.4,1.1,0.5l-1.7,4.2c-0.9-0.5-2-0.9-3.3-1.2
		C54.1,5.1,52.7,4.9,51.3,4.9z"/>
	<path id="XMLID_9_" class="st0" d="M26.3,0.6h-0.7c-0.6,1-1.4,2.3-2.2,3.8c-0.8,1.5-1.6,3-2.4,4.7c-0.8,1.6-1.6,3.3-2.4,5
		c-0.8,1.7-1.5,3.2-2.2,4.7c-0.7-1.4-1.4-3-2.2-4.7c-0.8-1.7-1.6-3.3-2.4-5C11,7.4,10.2,5.8,9.4,4.4C8.6,2.9,7.9,1.6,7.3,0.6H6.3
		H0.9v28.5h5.4V9.2c0-0.2,0-0.4,0.1-0.7c0.3,0.6,0.7,1.3,1.1,2.2c0.4,0.9,0.9,1.8,1.4,2.8c0.5,1,1,2,1.5,3.1c0.5,1.1,1,2.1,1.5,3.1
		c0.5,1,0.9,2,1.3,2.9c0.4,0.9,0.8,1.6,1.1,2.3h4.1c0.3-0.6,0.6-1.4,1.1-2.2c0.4-0.9,0.9-1.8,1.3-2.8c0.5-1,1-2.1,1.5-3.1
		c0.5-1.1,1-2.1,1.5-3.1c0.5-1,1-1.9,1.4-2.8c0.4-0.8,0.7-1.5,1.1-2v20.4h5.5V0.6H26.3z"/>
	<g>
		<path class="st1" d="M83.2,26.9c-0.3,0.2-0.9,0.4-1.8,0.7c-0.9,0.3-1.9,0.5-3.1,0.5c-1.2,0-2.4-0.2-3.4-0.5
			c-1.1-0.4-2-0.9-2.8-1.7c-0.8-0.8-1.4-1.7-1.9-2.8c-0.5-1.1-0.7-2.5-0.7-4.1c0-1.4,0.2-2.6,0.7-3.8c0.4-1.1,1.1-2.1,1.9-3
			c0.8-0.8,1.9-1.5,3.1-2c1.2-0.5,2.6-0.7,4.1-0.7c1.7,0,3.2,0.1,4.4,0.3c1.3,0.2,2.3,0.4,3.2,0.6v16.8c0,2.9-0.8,5-2.4,6.3
			c-1.6,1.3-4,2-7.3,2c-1.3,0-2.5-0.1-3.6-0.3c-1.1-0.2-2.1-0.4-2.9-0.7l0.7-2.9c0.7,0.3,1.6,0.5,2.7,0.7c1,0.2,2.1,0.3,3.3,0.3
			c2.1,0,3.7-0.4,4.6-1.2c0.9-0.8,1.4-2.1,1.4-3.8V26.9z M83.1,12.9c-0.4-0.1-0.8-0.2-1.5-0.3c-0.6-0.1-1.4-0.1-2.5-0.1
			c-1.9,0-3.4,0.6-4.5,1.8c-1,1.2-1.6,2.8-1.6,4.7c0,1.1,0.1,2,0.4,2.8c0.3,0.8,0.7,1.4,1.2,1.9c0.5,0.5,1.1,0.9,1.7,1.1
			c0.7,0.2,1.3,0.4,2,0.4c1,0,1.8-0.1,2.6-0.4c0.8-0.3,1.4-0.5,1.9-0.9V12.9z"/>
		<path class="st1" d="M98.5,9.8c0.3,0,0.7,0,1.1,0.1c0.4,0,0.8,0.1,1.2,0.1c0.4,0.1,0.7,0.1,1.1,0.2c0.3,0.1,0.6,0.1,0.7,0.2
			l-0.6,2.9c-0.3-0.1-0.8-0.2-1.4-0.3c-0.7-0.1-1.5-0.2-2.5-0.2c-0.7,0-1.3,0.1-2,0.2c-0.7,0.1-1.1,0.2-1.3,0.3v15.8H91V11
			c0.9-0.3,1.9-0.6,3.2-0.8C95.4,10,96.9,9.8,98.5,9.8z"/>
		<path class="st1" d="M121.9,19.4c0,1.5-0.2,2.9-0.7,4.1c-0.5,1.2-1.1,2.2-2,3.1c-0.8,0.9-1.8,1.5-3,2c-1.2,0.5-2.4,0.7-3.8,0.7
			c-1.4,0-2.6-0.2-3.8-0.7c-1.2-0.5-2.2-1.1-3-2c-0.8-0.9-1.5-1.9-2-3.1c-0.5-1.2-0.7-2.6-0.7-4.1c0-1.5,0.2-2.8,0.7-4
			c0.5-1.2,1.1-2.3,2-3.1c0.8-0.9,1.8-1.5,3-2c1.2-0.5,2.4-0.7,3.8-0.7c1.4,0,2.6,0.2,3.8,0.7c1.2,0.5,2.2,1.1,3,2
			c0.8,0.9,1.5,1.9,2,3.1C121.6,16.6,121.9,17.9,121.9,19.4z M118.1,19.4c0-2.1-0.5-3.8-1.5-5.1c-1-1.2-2.4-1.9-4.2-1.9
			c-1.8,0-3.2,0.6-4.2,1.9c-1,1.2-1.5,2.9-1.5,5.1c0,2.1,0.5,3.8,1.5,5.1c1,1.2,2.4,1.9,4.2,1.9c1.8,0,3.2-0.6,4.2-1.9
			C117.6,23.2,118.1,21.5,118.1,19.4z"/>
		<path class="st1" d="M141.1,28.2c-0.8,0.2-1.9,0.4-3.3,0.6c-1.4,0.2-2.9,0.3-4.7,0.3c-1.6,0-2.9-0.2-3.9-0.6
			c-1.1-0.4-1.9-1-2.6-1.8c-0.6-0.8-1.1-1.7-1.4-2.7c-0.3-1.1-0.4-2.2-0.4-3.5V10h3.6v9.9c0,2.3,0.4,3.9,1.2,4.9
			c0.8,1,2.1,1.5,3.9,1.5c0.4,0,0.8,0,1.2,0c0.4,0,0.8-0.1,1.2-0.1c0.4,0,0.7-0.1,1-0.1c0.3,0,0.5-0.1,0.6-0.1V10h3.6V28.2z"/>
		<path class="st1" d="M163.1,19.4c0,1.4-0.2,2.7-0.6,3.9c-0.4,1.2-1,2.2-1.8,3.1c-0.8,0.9-1.7,1.5-2.9,2c-1.1,0.5-2.4,0.7-3.9,0.7
			c-1.2,0-2.2-0.1-3.1-0.4c-0.9-0.3-1.6-0.6-2-0.8v7.5h-3.6v-25c0.9-0.2,1.9-0.4,3.2-0.6c1.3-0.2,2.8-0.3,4.4-0.3
			c1.6,0,3,0.2,4.2,0.7c1.2,0.5,2.3,1.1,3.2,2c0.9,0.8,1.6,1.9,2,3.1C162.9,16.5,163.1,17.9,163.1,19.4z M159.4,19.4
			c0-2.2-0.6-3.9-1.7-5.1c-1.2-1.2-2.7-1.8-4.7-1.8c-1.1,0-1.9,0-2.5,0.1c-0.6,0.1-1.1,0.2-1.5,0.3v11.9c0.4,0.3,1.1,0.7,1.9,1
			c0.8,0.3,1.7,0.5,2.7,0.5c1,0,1.9-0.2,2.7-0.5c0.7-0.4,1.3-0.8,1.8-1.4c0.5-0.6,0.8-1.3,1-2.2C159.3,21.3,159.4,20.4,159.4,19.4z"
			/>
	</g>
</g>
</svg>
