<?xml version="1.0" encoding="utf-8"?>
<!-- Generator: Adobe Illustrator 19.0.0, SVG Export Plug-In . SVG Version: 6.00 Build 0)  -->
<svg version="1.1" id="Layer_1" xmlns="http://www.w3.org/2000/svg" xmlns:xlink="http://www.w3.org/1999/xlink" x="0px" y="0px"
	 viewBox="-360 281.3 120 34" style="enable-background:new -360 281.3 120 34;" xml:space="preserve">
<style type="text/css">
	.st0{fill:#FFFFFF;}
</style>
<g>
	<path class="st0" d="M-240.3,302.8c-0.1,0.3-0.1,0.6-0.2,0.8c-0.1,0.3-0.1,0.7-0.1,1c-0.1,0.8-0.5,1.2-1.3,1.3
		c-0.5,0.1-1,0.1-1.4,0.1c-1.3-0.1-2.4-1.4-2.4-2.6c0-1.1,0.2-2.2,0.3-3.3c0.1-0.5,0.1-1,0.2-1.5c0-0.2-0.1-0.5-0.3-0.5
		c-0.3-0.1-0.6-0.1-0.9-0.1c-0.1,0-0.3,0.2-0.4,0.3c-0.2,0.4-0.3,0.8-0.4,1.2c-0.3,1.3-0.6,2.7-0.9,4c-0.1,0.6-0.4,1.1-0.9,1.4
		c-0.5,0.4-1,0.8-1.6,1c-0.9,0.3-1.7,0.4-2.6,0.2c-0.8-0.1-1.4-0.6-1.8-1.2c0,0,0-0.1-0.1-0.1c-0.2-0.3-0.2-0.3-0.5-0.1
		c-0.6,0.4-1.3,0.8-2,1.1c-0.4,0.1-0.8,0.2-1.2,0.2c-0.6,0-1.1,0-1.7-0.2c-1.2-0.4-2-1.2-2.6-2.4c0-0.1-0.1-0.2-0.1-0.2s0,0-0.1,0
		c0,0.3,0,0.5,0,0.8c0,0.3-0.1,0.6-0.1,0.9c-0.1,0.5-0.5,0.9-1.1,1c-0.7,0.2-1.4,0.2-2.1,0.1c-0.7-0.1-1.2-0.5-1.6-1
		c-0.5-0.6-0.8-1.3-0.8-2.1c0-0.9,0.2-1.7,0.2-2.6c0.1-0.6,0.1-1.1,0.1-1.7c0-0.2,0-0.3,0-0.5c-0.1-0.4-0.4-0.6-0.8-0.6
		c-0.5,0-0.8,0.2-1.1,0.6c-0.7,0.7-1.1,1.6-1.4,2.5c-0.4,1.2-0.7,2.4-1,3.6c-0.1,0.4-0.2,0.8-0.4,1.2c-0.1,0.3-0.3,0.4-0.6,0.4
		c-0.8,0-1.6,0-2.3,0c-0.2,0-0.2-0.1-0.2-0.2c0-0.6,0-1.2,0-1.8c0-0.4,0.1-0.9,0.2-1.3c0.2-1.2,0.4-2.4,0.4-3.7c0-0.1,0-0.2,0-0.3
		c0-0.6-0.7-0.8-1.1-0.7c-0.5,0.2-0.9,0.6-1.3,1.1c-0.7,0.8-1.1,1.8-1.5,2.8c-0.4,1.2-0.6,2.3-0.7,3.5c0,0.6-0.2,0.7-0.7,0.7
		c-0.8,0-1.7,0-2.5,0c-0.2,0-0.2,0-0.2-0.2c0-0.3,0-0.5,0-0.8l0,0c-0.4,0.8-1.1,1.1-2,1.2c-0.9,0.1-1.7,0-2.4-0.6
		c-0.3-0.2-0.5-0.5-0.7-0.8c-0.2-0.3-0.2-0.3-0.5-0.1c-0.6,0.5-1.3,0.9-2.1,1.1c-0.3,0.1-0.7,0.2-1.1,0.2c-0.7,0-1.4,0-2-0.3
		c-0.3-0.2-0.7-0.4-1-0.5c0,0.1,0.1,0.3,0.1,0.4c0,0.1,0,0.2-0.1,0.3c-0.4,0.3-0.8,0.5-1.4,0.5c-0.4,0-0.8,0-1.2,0
		c-0.8-0.1-1.5-0.6-2.2-1.1c-1-0.8-1.8-1.8-2.5-2.8c-0.9-1.2-1.8-2.5-2.7-3.7c-0.1-0.1-0.2-0.2-0.3-0.3s-0.2-0.1-0.3-0.1
		c0,0-0.1,0.1-0.1,0.2c-0.1,1.1-0.2,2.3-0.3,3.4c-0.1,1.3-0.3,2.6-0.4,3.9c0,0.1-0.1,0.2-0.2,0.2c-1.1,0-2.2,0-3.3,0
		c-0.3,0-0.3-0.1-0.3-0.4c0-0.2,0-0.4,0.1-0.6c0,0,0,0,0-0.1c-0.1,0.1-0.2,0.3-0.3,0.4c-0.4,0.5-1,0.7-1.6,0.8
		c-0.8,0.1-1.5,0-2.2-0.4c-0.4-0.2-0.7-0.5-0.9-0.9c0-0.1-0.1-0.1-0.1-0.2c-0.1-0.1-0.2-0.2-0.3,0c-0.6,0.4-1.2,0.8-1.9,1.1
		c-0.5,0.2-0.9,0.3-1.4,0.3c-0.6,0-1.2,0-1.7-0.2c-1.1-0.4-1.9-1.2-2.4-2.2c0-0.1-0.1-0.1-0.1-0.2c0,0.1,0,0.2,0,0.4
		c0,0.9-0.4,1.5-1.3,1.8c-0.3,0.1-0.5,0.2-0.8,0.3c-0.4,0.2-0.7,0.5-0.7,1c-0.2,1.6-0.3,3.3-0.6,4.9c-0.1,1.1-0.5,2.1-1.1,3
		c-0.1,0.1-0.2,0.2-0.3,0.2c-0.8,0-1.5,0-2.3,0c-0.2,0-0.4-0.1-0.5-0.3c-0.1-0.2-0.2-0.5-0.2-0.7c0-0.6,0-1.3,0-1.9
		c0-0.3,0.1-0.6,0.3-0.8c0.7-1,1-2.2,1.2-3.4c0.2-1.7,0.5-3.4,0.7-5.1c0.2-2.1,0.5-4.2,0.7-6.3c0-0.3,0.1-0.7,0.1-1
		c0-0.3-0.1-0.5-0.3-0.7c-0.2-0.1-0.3-0.2-0.5-0.4c-0.2-0.1-0.2-0.3-0.1-0.4c0.1-0.3,0.3-0.5,0.6-0.5c1.2,0,2.4,0,3.6,0
		c0.2,0,0.2,0,0.2,0.2c-0.1,1.4-0.3,2.8-0.4,4.2c-0.1,1-0.2,2.1-0.3,3.1c0,0.3,0,0.6,0,1c0,0.1,0.1,0.1,0.2,0.1
		c0.5-0.1,1-0.2,1.4-0.5c0.1,0,0.1-0.2,0.1-0.2c0-1,0.1-1.9,0.5-2.8c0.7-1.9,1.8-3.4,3.5-4.4c0.9-0.5,1.8-0.8,2.8-0.7
		c0.4,0.1,0.8,0.2,1.2,0.3c0.3,0.1,0.5,0.2,0.7,0.3c0.2,0.1,0.3,0.1,0.4-0.2c0.1-0.2,0.3-0.2,0.5-0.2c0.8,0,1.6,0,2.4,0
		c0.3,0,0.5,0.1,0.7,0.2c0.3,0.2,0.3,0.3,0.3,0.4c-0.4,2.2-0.8,4.5-1.1,6.7c-0.1,0.4,0,0.8,0,1.2c0,0.2,0.1,0.3,0.3,0.3
		c0.3,0.1,0.6,0.1,1,0c0.2-0.1,0.5-0.2,0.7,0c0-0.3,0.1-0.5,0.1-0.8c0.1-1.2,0.3-2.5,0.4-3.7c0.1-1.4,0.3-2.8,0.4-4.2
		c0.1-1.3,0.3-2.5,0.4-3.8c0.1-0.9,0.2-1.8,0.3-2.7c0-0.2,0.1-0.2,0.3-0.2c1,0,2,0,3,0c0.3,0,0.5,0.2,0.4,0.5
		c-0.1,0.7-0.2,1.4-0.3,2.1c-0.1,1.2-0.3,2.5-0.4,3.7c0,0.5-0.1,0.9-0.1,1.4c0,0.1,0,0.2,0.1,0.3c0.1-0.1,0.2-0.1,0.2-0.2
		c1.2-1.3,2.4-2.6,3.7-3.9c0.8-0.9,1.6-1.9,2.5-2.8c0.3-0.4,0.7-0.7,1-1c0.2-0.2,0.5-0.3,0.7-0.3c1.1,0,2.2,0,3.4,0
		c0.1,0,0.1,0,0.3,0c-0.1,0.1-0.2,0.2-0.2,0.3c-2.7,3.1-5.3,6.3-8,9.4c-0.1,0.1-0.1,0.2,0,0.4c1.2,1.7,2.3,3.5,3.6,5.1
		c0.2,0.2,0.4,0.4,0.6,0.6c0.2,0.1,0.4,0.2,0.7,0.2c0-0.2-0.1-0.5-0.1-0.7c-0.2-3,0.9-5.4,3.2-7.3c0.9-0.7,1.9-1.1,3-1.2
		c0.6,0,1.2,0.1,1.8,0.4c0.3,0.1,0.5,0.2,0.8,0.3c0.2,0.1,0.3,0.1,0.4-0.2c0.1-0.2,0.2-0.2,0.5-0.2c0.8,0,1.6,0,2.4,0
		c0.3,0,0.5,0.1,0.7,0.2c0.1,0.1,0.2,0.2,0.1,0.3c-0.4,2.2-0.8,4.4-1.1,6.7c-0.1,0.4,0,0.8,0,1.2c0,0.2,0.1,0.3,0.3,0.3
		c0.3,0.1,0.7,0.1,1,0c0.2-0.1,0.4-0.2,0.7,0c0-0.2,0-0.4,0.1-0.6c0.2-1.2,0.3-2.5,0.5-3.7c0.1-0.7,0.1-1.5,0.1-2.3
		c0-0.4,0.1-0.9,0.1-1.3c0.1-0.5,0.2-0.6,0.7-0.6c0.8,0,1.7,0,2.5,0c0.2,0,0.3,0,0.3,0.2c0,0.5,0,1,0,1.4c0,0.1,0,0.1,0,0.3
		c0.1-0.1,0.2-0.2,0.3-0.3c0.3-0.3,0.7-0.7,1-1c0.6-0.5,1.3-0.9,2.1-1.1c1.4-0.2,2.6,0.3,3.3,1.6c0.1,0.1,0.2,0.3,0.2,0.4
		c0.1,0.2,0.2,0.2,0.3,0.1c0.2-0.1,0.4-0.3,0.6-0.5c0.5-0.5,1-1,1.6-1.4c0.4-0.3,0.9-0.4,1.3-0.4c0.2,0,0.4,0,0.6,0
		c1.2-0.1,2.5,0.7,2.8,2.2c-0.1,0.3-0.1,0.6-0.1,0.9c0.1,1-0.1,1.9-0.2,2.8c-0.1,0.9-0.1,1.7,0,2.6c0,0.5,0.4,0.7,1,0.6
		c0.3-0.1,0.5-0.2,0.7-0.3c0,0,0.1-0.1,0.1-0.2c-0.1-1.1,0-2.2,0.4-3.3c0.7-2,1.8-3.6,3.7-4.7c1-0.5,2.1-0.8,3.2-0.4
		c0.4,0.1,0.7,0.3,1.1,0.4c0.1,0,0.2,0.1,0.3,0.1c0.3,0.1,0.3,0.1,0.4-0.2c0.1-0.2,0.3-0.2,0.5-0.2c0.8,0,1.6,0,2.4,0
		c0.2,0,0.5,0.1,0.7,0.2c0.2,0.1,0.2,0.2,0.2,0.4c-0.2,1-0.4,2.1-0.5,3.1c-0.2,1.2-0.4,2.4-0.6,3.6c-0.1,0.3,0,0.7,0,1
		c0,0.3,0.1,0.4,0.4,0.4c0.1,0,0.1,0,0.2,0c0.5,0.1,0.6,0,0.7-0.4c0.3-1.2,0.6-2.5,0.9-3.7c0.1-0.3,0-0.6-0.1-0.9
		c-0.6-1-0.5-2-0.2-3c0.2-0.8,0.7-1.1,1.5-1.1c0.3,0,0.7,0,1,0c0.5,0,0.8,0.3,0.8,0.8c0.1,0.6,0.1,0.7,0.7,0.7c0.6,0,1.2,0,1.8,0
		c0.7,0,1.4-0.1,2.1-0.2c0.1,0,0.2,0,0.3,0c0.3,0,0.4,0,0.3,0.4c-0.1,0.6-0.2,1.3-0.3,1.9c-0.2,1.6-0.4,3.2-0.7,4.8
		c0,0.2,0,0.4,0,0.6s0.1,0.3,0.3,0.3c0.3,0.1,0.7,0.1,1-0.1c0.2-0.1,0.4-0.1,0.6-0.1C-240.3,302.5-240.3,302.7-240.3,302.8z
		 M-289.1,298.6c0-0.2-0.1-0.4-0.2-0.7c-0.3-0.7-0.9-1-1.6-0.7c-0.3,0.1-0.5,0.3-0.8,0.5c-0.9,0.8-1.4,1.7-1.6,2.9
		c-0.1,0.4-0.1,0.9,0.1,1.3c0.2,0.6,0.7,0.9,1.3,0.8c0.4,0,0.7-0.2,1-0.4c0.6-0.5,1-1.1,1.3-1.8
		C-289.3,299.8-289.1,299.3-289.1,298.6z M-315.7,298.6c0-0.2-0.1-0.5-0.2-0.7c-0.3-0.7-0.9-0.9-1.5-0.7c-0.3,0.1-0.5,0.3-0.8,0.4
		c-0.9,0.8-1.4,1.7-1.7,2.9c-0.1,0.5-0.1,0.9,0.1,1.3c0.3,0.6,0.7,0.8,1.3,0.7c0.4-0.1,0.8-0.2,1.1-0.5c0.6-0.5,0.9-1.1,1.2-1.8
		C-315.9,299.7-315.8,299.2-315.7,298.6z M-255.4,298.6c0-0.1,0-0.3-0.1-0.4c-0.2-0.7-0.7-1.2-1.4-1.1c-0.3,0-0.7,0.2-0.9,0.4
		c-0.9,0.8-1.5,1.7-1.8,2.9c-0.1,0.5-0.1,0.9,0.1,1.4c0.2,0.5,0.7,0.8,1.2,0.8c0.4,0,0.8-0.2,1.2-0.5c0.6-0.5,1-1.2,1.3-2
		C-255.5,299.6-255.4,299.2-255.4,298.6z"/>
	<path id="XMLID_108_" class="st0" d="M-326.7,281.6c0.1,0.1,0.1,0.1,0.2,0.2c2,2,4.1,4.1,6.1,6.1c0.9,0.9,0.9,2.1,0.2,3.1
		c-0.8,1-2.4,1.1-3.3,0.2c-1-1-2-2-3-3c-0.1-0.1-0.1-0.1-0.2-0.2c-0.1,0.1-0.1,0.1-0.2,0.2c-1,1-2.1,2.1-3.1,3.1
		c-1.2,1.2-3.3,0.7-3.8-1c-0.2-0.8,0-1.6,0.6-2.2c2.1-2.1,4.2-4.2,6.3-6.3C-326.8,281.7-326.7,281.7-326.7,281.6L-326.7,281.6z"/>
	<path id="XMLID_107_" class="st0" d="M-353.5,299.8c0,0.3-0.1,0.6-0.1,0.9c-0.2,1.7-0.4,3.4-0.6,5.1c0,0.2-0.1,0.2-0.2,0.2
		c-0.9,0-1.8,0-2.7,0c-0.1,0-0.2,0-0.2,0c-0.3,0-0.5-0.2-0.5-0.5c0.2-1.6,0.3-3.1,0.5-4.7c0.2-1.7,0.4-3.5,0.6-5.2
		c0.1-1,0.2-1.9,0.4-2.9c0-0.2,0.1-0.4,0.2-0.6c0-0.1,0.1-0.1,0.2-0.1c1,0,2,0,3,0c0.2,0,0.2,0.1,0.2,0.2c0,1.1,0,2.1,0,3.2
		c0,0.3,0,0.3,0.3,0.3c0.4,0,0.9,0,1.3-0.1c1.1-0.3,1.9-1,2.4-2c0.3-0.7,0.1-1.3-0.4-1.9c-0.6-0.7-1.5-1-2.4-1c-0.8,0-1.7-0.1-2.5,0
		c-1,0.1-1.8,0.3-2.7,0.5c-0.9,0.2-1.8,0.5-2.7,0.8c-0.1,0-0.2,0.1-0.3,0.1c0-0.4,0-0.8,0-1.2c0-0.2,0-0.4,0.1-0.7
		c0-0.3,0-0.6,0.1-0.9c0.1-0.7,0.5-1.3,1.1-1.6c0.6-0.3,1.3-0.5,2-0.5c1.2-0.2,2.4-0.1,3.7-0.2c1.5-0.1,3,0.2,4.4,0.9
		c1,0.5,1.9,1.1,2.6,1.9c0.6,0.8,1,1.6,0.9,2.7c0,0.6,0,1.2-0.1,1.9c-0.1,0.9-0.6,1.7-1.3,2.4c-0.5,0.5-1.2,1-1.8,1.5
		c-0.2,0.2-0.4,0.3-0.6,0.5c-0.1,0.1-0.2,0.2-0.1,0.3c0.6,1,1.2,1.8,2,2.6c0.7,0.7,1.6,0.8,2.5,0.6c0.5-0.1,0.7,0.1,0.5,0.5
		c-0.1,0.5-0.1,1.1-0.2,1.6c0,0.2,0,0.4-0.1,0.7c-0.1,0.5-0.4,0.8-0.8,1c-1,0.4-2,0.4-3-0.1c-0.9-0.5-1.7-1.3-2.3-2.1
		c-0.8-1-1.6-2-2.4-3c-0.2-0.3-0.5-0.6-0.8-0.8C-353.2,300-353.3,299.9-353.5,299.8z"/>
	<path class="st0" d="M-332.6,306.2c-1.2,0-2-0.5-2.7-1.4l-0.1-0.1c-0.1-0.1-0.2-0.2-0.3-0.1c-0.4,0.3-0.9,0.6-1.3,0.8
		c-0.7,0.4-1.5,0.6-2.3,0.5c-0.6,0-1.2-0.1-1.7-0.4c-1.5-0.7-2.4-1.9-2.5-3.6c-0.3-2.8,0.7-5.1,2.7-7c0.9-0.8,1.9-1.4,3.1-1.6
		c0.7-0.1,1.4,0,2.1,0.3c0.3,0.1,0.5,0.2,0.8,0.3c0.3,0.1,0.4,0.1,0.5-0.2c0.1-0.2,0.2-0.2,0.4-0.2c0.8,0,1.6,0,2.4,0
		c0.1,0,0.2,0,0.3,0c0.1,0,0.3,0.1,0.4,0.1c0.2,0.1,0.2,0.2,0.2,0.4c-0.4,2.2-0.8,4.4-1.1,6.6c-0.1,0.4,0,0.8,0,1.2
		c0,0.2,0.1,0.3,0.3,0.4c0.4,0.1,0.7,0.1,1-0.1c0.3-0.2,0.6-0.1,0.8,0.2c0,0,0.1,0.1,0.1,0.2c-0.1,0.6-0.2,1.3-0.4,1.9
		c-0.3,0.9-1,1.4-1.9,1.5C-332.2,306.2-332.4,306.2-332.6,306.2z M-335.5,298.7c0-0.4-0.1-0.8-0.3-1.1c-0.3-0.5-0.8-0.7-1.3-0.5
		c-0.3,0.1-0.5,0.2-0.7,0.3c-1,0.7-1.5,1.7-1.8,2.9c-0.1,0.5-0.1,1,0.1,1.4c0.2,0.5,0.7,0.8,1.2,0.8c0.4,0,0.8-0.2,1.1-0.4
		c0.7-0.5,1.1-1.2,1.4-2C-335.7,299.7-335.5,299.2-335.5,298.7z"/>
</g>
</svg>
