<?xml version="1.0" encoding="utf-8"?>
<!-- Generator: Adobe Illustrator 19.0.0, SVG Export Plug-In . SVG Version: 6.00 Build 0)  -->
<svg version="1.1" id="Layer_1" xmlns="http://www.w3.org/2000/svg" xmlns:xlink="http://www.w3.org/1999/xlink" x="0px" y="0px"
	 viewBox="-338 280.3 165 35" style="enable-background:new -338 280.3 165 35;" xml:space="preserve">
<style type="text/css">
	.st0{fill:#FFFFFF;}
</style>
<g>
	<g id="XMLID_436_">
		<g id="XMLID_438_">
			<g id="XMLID_457_">
				<path id="XMLID_473_" class="st0" d="M-287.5,286.3h6.4c1.8,0,3.1,0.5,4.1,1.4c0.8,0.8,1.2,1.9,1.2,3.2l0,0
					c0,1.1-0.3,2.1-0.8,2.8c-0.6,0.7-1.3,1.2-2.2,1.6l3.4,5h-3.6l-3-4.5l0,0h-2.4v4.5h-3.1V286.3z M-281.3,293.1
					c0.8,0,1.3-0.2,1.7-0.5c0.4-0.4,0.6-0.8,0.6-1.4l0,0c0-0.7-0.2-1.2-0.6-1.5c-0.4-0.3-1-0.5-1.8-0.5h-3v4h3.1V293.1z"/>
				<path id="XMLID_470_" class="st0" d="M-255.8,300.5c-1.1,0-2.1-0.2-3-0.6c-0.9-0.4-1.7-0.9-2.3-1.5c-0.7-0.6-1.2-1.4-1.5-2.3
					c-0.4-0.8-0.5-1.8-0.5-2.8l0,0c0-1,0.2-1.9,0.6-2.8c0.4-0.9,0.9-1.6,1.5-2.3c0.7-0.7,1.4-1.2,2.4-1.6c0.9-0.4,1.9-0.6,3-0.6
					s2.1,0.2,3,0.6c0.9,0.4,1.7,0.9,2.3,1.5c0.7,0.6,1.2,1.4,1.5,2.3c0.4,0.9,0.5,1.8,0.5,2.8l0,0c0,1-0.2,1.9-0.6,2.8
					c-0.4,0.9-0.9,1.6-1.5,2.3c-0.7,0.7-1.4,1.2-2.4,1.6C-253.7,300.3-254.7,300.5-255.8,300.5z M-255.7,297.7
					c0.6,0,1.2-0.1,1.7-0.3c0.5-0.2,1-0.5,1.3-0.9c0.4-0.4,0.6-0.9,0.9-1.4c0.2-0.5,0.3-1.1,0.3-1.7l0,0c0-0.6-0.1-1.2-0.3-1.7
					c-0.2-0.5-0.5-1-0.9-1.4s-0.8-0.7-1.3-0.9s-1.1-0.3-1.7-0.3s-1.2,0.1-1.7,0.3s-1,0.5-1.3,0.9c-0.4,0.4-0.7,0.9-0.9,1.4
					c-0.2,0.5-0.3,1.1-0.3,1.7l0,0c0,0.6,0.1,1.2,0.3,1.7c0.2,0.5,0.5,1,0.9,1.4c0.4,0.4,0.8,0.7,1.3,0.9
					C-256.9,297.6-256.3,297.7-255.7,297.7z"/>
				<path id="XMLID_468_" class="st0" d="M-246.2,286.3h3.3l3.7,5.9l3.7-5.9h3.3v14h-3v-9.1l-3.9,6h-0.1l-3.9-5.9v9h-3L-246.2,286.3
					L-246.2,286.3z"/>
				<path id="XMLID_465_" class="st0" d="M-225,286.3h5.4c1.1,0,2.1,0.2,3,0.5c0.9,0.4,1.7,0.8,2.4,1.5c0.7,0.6,1.2,1.4,1.5,2.2
					c0.4,0.8,0.5,1.8,0.5,2.7l0,0c0,1-0.2,1.9-0.5,2.7c-0.4,0.9-0.9,1.6-1.5,2.2c-0.7,0.6-1.4,1.1-2.4,1.5c-0.9,0.4-1.9,0.5-3,0.5
					h-5.4V286.3z M-219.5,297.5c0.6,0,1.2-0.1,1.7-0.3c0.5-0.2,1-0.5,1.3-0.9c0.4-0.4,0.6-0.8,0.9-1.3c0.2-0.5,0.3-1.1,0.3-1.7l0,0
					c0-0.6-0.1-1.2-0.3-1.7c-0.2-0.5-0.5-1-0.9-1.3c-0.4-0.4-0.8-0.7-1.3-0.9s-1.1-0.3-1.7-0.3h-2.4v8.4H-219.5z"/>
				<path id="XMLID_463_" class="st0" d="M-210.4,286.3h10.5v2.7h-7.5v2.8h6.6v2.7h-6.6v2.9h7.6v2.9h-10.6V286.3L-210.4,286.3z"/>
				<path id="XMLID_460_" class="st0" d="M-193.2,286.2h2.8l6,14h-3.2l-1.3-3.1h-5.9l-1.3,3.1h-3.1L-193.2,286.2z M-190,294.4
					l-1.9-4.5l-1.9,4.5H-190z"/>
				<path id="XMLID_458_" class="st0" d="M-183.3,286.3h3.1v11.2h7v2.8h-10v-14H-183.3z"/>
			</g>
			<g id="XMLID_441_">
				<path id="XMLID_454_" class="st0" d="M-287.1,311.3v-5.8h1.9c0.7,0,1.2,0,1.4,0.1c0.3,0.1,0.6,0.3,0.8,0.6
					c0.2,0.3,0.3,0.7,0.3,1.1s-0.1,0.7-0.2,0.9c-0.1,0.2-0.3,0.4-0.5,0.6c-0.2,0.1-0.4,0.2-0.6,0.3c-0.3,0.1-0.7,0.1-1.2,0.1h-0.8
					v2.1H-287.1z M-286,306.5v1.6h0.6c0.5,0,0.8,0,0.9-0.1c0.2-0.1,0.3-0.2,0.4-0.3s0.1-0.3,0.1-0.4c0-0.2-0.1-0.4-0.2-0.5
					c-0.1-0.1-0.3-0.2-0.5-0.3c-0.1,0-0.4,0-0.8,0C-285.5,306.5-286,306.5-286,306.5z"/>
				<path id="XMLID_452_" class="st0" d="M-279.4,307.1v0.9h-0.8v1.7c0,0.3,0,0.5,0,0.6s0,0.1,0.1,0.1s0.1,0.1,0.2,0.1
					s0.2,0,0.4-0.1l0.1,0.9c-0.3,0.1-0.5,0.2-0.9,0.2c-0.2,0-0.4,0-0.5-0.1c-0.2-0.1-0.3-0.2-0.4-0.3c-0.1-0.1-0.1-0.2-0.2-0.4
					c0-0.1,0-0.4,0-0.8v-1.8h-0.5v-0.9h0.5v-0.9l1.1-0.6v1.5h0.9V307.1z"/>
				<path id="XMLID_449_" class="st0" d="M-275.8,310l1.1,0.2c-0.1,0.4-0.4,0.7-0.7,0.9c-0.3,0.2-0.7,0.3-1.2,0.3
					c-0.7,0-1.3-0.2-1.6-0.7c-0.3-0.4-0.4-0.9-0.4-1.4c0-0.7,0.2-1.2,0.5-1.6c0.4-0.4,0.8-0.6,1.4-0.6c0.6,0,1.1,0.2,1.5,0.6
					c0.4,0.4,0.5,1,0.5,1.9h-2.8c0,0.3,0.1,0.6,0.3,0.8c0.2,0.2,0.4,0.3,0.6,0.3c0.2,0,0.3,0,0.4-0.1
					C-276,310.3-275.9,310.2-275.8,310z M-275.8,308.8c0-0.3-0.1-0.6-0.2-0.7c-0.2-0.2-0.3-0.3-0.6-0.3c-0.2,0-0.4,0.1-0.6,0.3
					c-0.2,0.2-0.2,0.4-0.2,0.7H-275.8z"/>
				<path id="XMLID_447_" class="st0" d="M-273.3,311.3v-5.7h1.2v4.7h2.9v1H-273.3z"/>
				<path id="XMLID_445_" class="st0" d="M-267.3,311.3v-4.8h-1.7v-1h4.6v1h-1.7v4.8H-267.3z"/>
				<path id="XMLID_442_" class="st0" d="M-263.3,305.5h2.1c0.5,0,0.8,0,1.1,0.1c0.3,0.1,0.6,0.3,0.9,0.5c0.2,0.3,0.4,0.6,0.5,0.9
					c0.1,0.4,0.2,0.8,0.2,1.4c0,0.5-0.1,0.9-0.2,1.2c-0.1,0.4-0.4,0.8-0.6,1c-0.2,0.2-0.5,0.4-0.8,0.5c-0.3,0.1-0.6,0.1-1,0.1h-2.2
					V305.5z M-262.1,306.5v3.8h0.9c0.3,0,0.6,0,0.7-0.1c0.2,0,0.3-0.1,0.5-0.2c0.1-0.1,0.2-0.3,0.3-0.6c0.1-0.3,0.1-0.6,0.1-1.1
					c0-0.4,0-0.8-0.1-1c-0.1-0.2-0.2-0.4-0.3-0.6c-0.1-0.1-0.3-0.2-0.5-0.3c-0.2,0-0.5-0.1-1-0.1h-0.6V306.5z"/>
			</g>
			<path id="XMLID_440_" class="st0" d="M-315.3,280.4l-19.9,19.9c-3.4,3.4-3.4,8.9,0,12.4c3.4,3.4,8.9,3.4,12.4,0l19.8-19.9
				L-315.3,280.4z"/>
			<path id="XMLID_439_" class="st0" d="M-327.7,292.8l19.9,19.9c3.4,3.4,8.9,3.4,12.4,0c3.4-3.4,3.4-8.9,0-12.4l-19.9-19.9
				L-327.7,292.8z"/>
		</g>
		<path id="XMLID_437_" class="st0" d="M-260.5,292.7L-260.5,292.7L-260.5,292.7h-2.6c0,0.2,0,0.4,0,0.6l0,0c0,0.6-0.1,1.2-0.3,1.7
			c-0.2,0.5-0.5,1-0.9,1.4c-0.4,0.4-0.8,0.7-1.3,0.9s-1.1,0.3-1.7,0.3c-0.6,0-1.2-0.1-1.7-0.3s-1-0.5-1.3-0.9
			c-0.4-0.4-0.7-0.9-0.9-1.4c-0.2-0.5-0.3-1.1-0.3-1.7l0,0c0-0.6,0.1-1.2,0.3-1.7s0.5-1,0.9-1.4c0.3-0.4,0.8-0.7,1.3-0.9
			s1.1-0.3,1.7-0.3c0.6,0,1.2,0.1,1.7,0.3s1,0.5,1.3,0.9c0.3,0.3,0.5,0.7,0.7,1.1c0.1-0.5,0.2-0.9,0.4-1.3c0.3-0.7,0.7-1.3,1.1-1.8
			c-0.6-0.6-1.4-1.1-2.3-1.5c-0.9-0.4-1.9-0.6-3-0.6c-1.1,0-2.1,0.2-3,0.6c-0.9,0.4-1.7,0.9-2.4,1.6c-0.7,0.7-1.2,1.4-1.5,2.3
			c-0.4,0.9-0.6,1.8-0.6,2.8l0,0c0,1,0.2,1.9,0.5,2.8c0.4,0.9,0.9,1.6,1.5,2.3c0.7,0.6,1.4,1.2,2.3,1.5c0.9,0.4,1.9,0.6,3,0.6
			s2.1-0.2,3-0.6c0.9-0.4,1.7-0.9,2.4-1.6c0.7-0.7,1.2-1.4,1.5-2.3c0.4-0.9,0.6-1.8,0.6-2.8l0,0c0-0.8-0.1-1.5-0.3-2.2
			C-260.4,291.6-260.5,292.1-260.5,292.7z"/>
	</g>
</g>
</svg>
