<?xml version="1.0" encoding="utf-8"?>
<!-- Generator: Adobe Illustrator 19.0.0, SVG Export Plug-In . SVG Version: 6.00 Build 0)  -->
<svg version="1.1" id="Layer_1" xmlns="http://www.w3.org/2000/svg" xmlns:xlink="http://www.w3.org/1999/xlink" x="0px" y="0px"
	 viewBox="0 0 212 12" style="enable-background:new 0 0 212 12;" xml:space="preserve">
<style type="text/css">
	.st0{fill:#909295;}
</style>
<g>
	<path class="st0" d="M0.1,6L0.1,6c0-2.8,2.1-5.1,5.1-5.1c1.8,0,2.9,0.6,3.9,1.5L7.9,3.7C7.1,3,6.3,2.5,5.2,2.5C3.3,2.5,1.9,4,1.9,6
		v0c0,1.9,1.4,3.5,3.3,3.5c1.2,0,2-0.5,2.8-1.3l1.1,1.1c-1,1.1-2.2,1.7-4,1.7C2.2,11.1,0.1,8.9,0.1,6z"/>
	<path class="st0" d="M11.6,6L11.6,6c0-2.8,2.1-5.1,5.2-5.1c3,0,5.2,2.3,5.2,5.1v0c0,2.8-2.1,5.1-5.2,5.1C13.7,11.1,11.6,8.8,11.6,6
		z M20.1,6L20.1,6c0-1.9-1.4-3.5-3.4-3.5c-2,0-3.3,1.6-3.3,3.5v0c0,1.9,1.4,3.5,3.4,3.5C18.8,9.5,20.1,7.9,20.1,6z"/>
	<path class="st0" d="M25.5,1.1h4.4c1.2,0,2.2,0.4,2.9,1c0.5,0.5,0.8,1.3,0.8,2.1v0c0,1.6-1,2.6-2.3,3l2.7,3.7h-2.1l-2.4-3.4h-2.2
		v3.4h-1.7V1.1z M29.8,6c1.2,0,2-0.6,2-1.7v0c0-1.1-0.8-1.6-2-1.6h-2.5V6H29.8z"/>
	<path class="st0" d="M37.1,1.1H41c2.3,0,3.8,1.3,3.8,3.3v0c0,2.2-1.8,3.4-4,3.4h-2v3.2h-1.7V1.1z M40.8,6.2c1.3,0,2.1-0.7,2.1-1.8
		v0c0-1.2-0.8-1.8-2.1-1.8h-2v3.6H40.8z"/>
	<path class="st0" d="M47.5,6L47.5,6c0-2.8,2.1-5.1,5.2-5.1c3,0,5.2,2.3,5.2,5.1v0c0,2.8-2.1,5.1-5.2,5.1S47.5,8.8,47.5,6z M56,6
		L56,6c0-1.9-1.4-3.5-3.4-3.5c-2,0-3.3,1.6-3.3,3.5v0c0,1.9,1.4,3.5,3.4,3.5C54.6,9.5,56,7.9,56,6z"/>
	<path class="st0" d="M61.3,1.1h4.4c1.2,0,2.2,0.4,2.8,1c0.5,0.5,0.8,1.3,0.8,2.1v0c0,1.6-1,2.6-2.3,3l2.7,3.7h-2.1l-2.4-3.4h-2.2
		v3.4h-1.7V1.1z M65.6,6c1.2,0,2-0.6,2-1.7v0c0-1.1-0.8-1.6-2-1.6h-2.5V6H65.6z"/>
	<path class="st0" d="M76.4,1h1.6l4.3,9.9h-1.8l-1-2.4h-4.7l-1,2.4h-1.8L76.4,1z M78.9,7l-1.7-4l-1.7,4H78.9z"/>
	<path class="st0" d="M86.7,2.7h-3.1V1.1h8v1.6h-3.1v8.3h-1.8V2.7z"/>
	<path class="st0" d="M94.8,1.1h7.3v1.5h-5.6v2.6h5v1.6h-5v2.7h5.7v1.5h-7.4V1.1z"/>
	<path class="st0" d="M111.3,1.1h4.4c1.2,0,2.2,0.4,2.9,1c0.5,0.5,0.8,1.3,0.8,2.1v0c0,1.6-1,2.6-2.3,3l2.7,3.7h-2.1l-2.4-3.4H113
		v3.4h-1.7V1.1z M115.6,6c1.2,0,2-0.6,2-1.7v0c0-1.1-0.8-1.6-2-1.6H113V6H115.6z"/>
	<path class="st0" d="M122.5,6L122.5,6c0-2.8,2.1-5.1,5.2-5.1s5.2,2.3,5.2,5.1v0c0,2.8-2.1,5.1-5.2,5.1
		C124.6,11.1,122.5,8.8,122.5,6z M131,6L131,6c0-1.9-1.4-3.5-3.4-3.5c-2,0-3.3,1.6-3.3,3.5v0c0,1.9,1.4,3.5,3.4,3.5
		C129.6,9.5,131,7.9,131,6z"/>
	<path class="st0" d="M135.9,6L135.9,6c0-2.8,2.1-5.1,5.2-5.1c3,0,5.2,2.3,5.2,5.1v0c0,2.8-2.1,5.1-5.2,5.1
		C138,11.1,135.9,8.8,135.9,6z M144.4,6L144.4,6c0-1.9-1.4-3.5-3.4-3.5c-2,0-3.3,1.6-3.3,3.5v0c0,1.9,1.4,3.5,3.4,3.5
		C143,9.5,144.4,7.9,144.4,6z"/>
	<path class="st0" d="M149.7,1.1h1.8l3,4.7l3-4.7h1.9v9.9h-1.7V3.9l-3.1,4.7h-0.1l-3.1-4.6v7.1h-1.7V1.1z"/>
	<path class="st0" d="M168.9,1.1h3.9c3.1,0,5.2,2.1,5.2,4.9v0c0,2.8-2.1,4.9-5.2,4.9h-3.9V1.1z M171.1,3v6h1.7c1.8,0,3-1.2,3-3v0
		c0-1.8-1.2-3-3-3H171.1z"/>
	<path class="st0" d="M181.4,1.1h7.5V3h-5.3v2h4.7v1.9h-4.7V9h5.4v1.9h-7.5V1.1z"/>
	<path class="st0" d="M195.6,1h2l4.2,9.9h-2.3l-0.9-2.2h-4.2l-0.9,2.2h-2.2L195.6,1z M197.9,6.8l-1.3-3.2l-1.3,3.2H197.9z"/>
	<path class="st0" d="M204.8,1.1h2.2V9h4.9v2h-7.1V1.1z"/>
</g>
</svg>
