<?xml version="1.0" encoding="utf-8"?>
<!-- Generator: Adobe Illustrator 19.0.0, SVG Export Plug-In . SVG Version: 6.00 Build 0)  -->
<svg version="1.1" id="Layer_1" xmlns="http://www.w3.org/2000/svg" xmlns:xlink="http://www.w3.org/1999/xlink" x="0px" y="0px"
	 viewBox="0 0 135 30" style="enable-background:new 0 0 135 30;" xml:space="preserve">
<style type="text/css">
	.st0{fill:#909295;}
</style>
<g>
	<path class="st0" d="M60.7,24.3c-1.2,0-2.1-0.1-2.9-0.4c-0.7-0.2-1.3-0.6-1.8-1c-0.4-0.4-0.7-0.9-0.9-1.6c-0.2-0.6-0.2-1.3-0.2-2.1
		V1.2l4.1-0.7v17.9c0,0.4,0,0.7,0.1,1c0.1,0.3,0.2,0.5,0.3,0.7c0.2,0.2,0.4,0.4,0.7,0.5c0.3,0.1,0.7,0.2,1.2,0.2L60.7,24.3z"/>
	<path class="st0" d="M77.5,19.6c0,0.8,0.2,1.4,1,1.4c0.5,0,1-0.2,1.4-0.4l0.2,3c-0.7,0.3-1.9,0.6-3.1,0.6c-1.6,0-2.6-0.7-3-2.1
		c-1,1.1-2.6,2-4.5,2c-4,0-6.7-3.1-6.7-7.4c0-4.3,2.7-7.4,6.7-7.4c1.9,0,3.3,0.5,4.3,1.5V9.7h3.8V19.6z M73.7,14.1
		c-0.7-0.7-1.9-1.3-3.2-1.3c-2.4,0-3.9,1.6-3.9,4.1c0,2.4,1.5,4,3.9,4c1.3,0,2.4-0.6,3.2-1.3V14.1z"/>
	<path class="st0" d="M33.3,24.3c-1.2,0-2.1-0.1-2.9-0.4c-0.7-0.2-1.3-0.6-1.7-1c-0.4-0.4-0.7-0.9-0.9-1.6c-0.2-0.6-0.2-1.3-0.2-2.1
		V1.2l4.1-0.7v17.9c0,0.4,0,0.7,0.1,1c0.1,0.3,0.2,0.5,0.3,0.7c0.2,0.2,0.4,0.4,0.7,0.5c0.3,0.1,0.7,0.2,1.2,0.2L33.3,24.3z"/>
	<path class="st0" d="M50.1,19.6c0,0.8,0.2,1.4,1,1.4c0.5,0,1-0.2,1.4-0.4l0.2,3c-0.7,0.3-1.9,0.6-3.1,0.6c-1.6,0-2.6-0.7-3-2.1
		c-1,1.1-2.6,2-4.5,2c-4,0-6.7-3.1-6.7-7.4c0-4.3,2.7-7.4,6.7-7.4c1.9,0,3.3,0.5,4.3,1.5V9.7h3.8V19.6z M46.2,14.1
		c-0.7-0.7-1.9-1.3-3.2-1.3c-2.4,0-3.9,1.6-3.9,4.1c0,2.4,1.5,4,3.9,4c1.3,0,2.4-0.6,3.2-1.3V14.1z"/>
	<path class="st0" d="M6.1,24.3c-1.2,0-2.1-0.1-2.9-0.4c-0.7-0.2-1.3-0.6-1.7-1c-0.4-0.4-0.7-0.9-0.9-1.6c-0.2-0.6-0.2-1.3-0.2-2.1
		V1.2l4.1-0.7v17.9c0,0.4,0,0.7,0.1,1c0.1,0.3,0.2,0.5,0.3,0.7c0.2,0.2,0.4,0.4,0.7,0.5c0.3,0.1,0.7,0.2,1.2,0.2L6.1,24.3z"/>
	<path class="st0" d="M22.9,19.6c0,0.8,0.2,1.4,1,1.4c0.5,0,1-0.2,1.4-0.4l0.2,3c-0.7,0.3-1.9,0.6-3.1,0.6c-1.6,0-2.6-0.7-3-2.1
		c-1,1.1-2.6,2-4.5,2c-4,0-6.7-3.1-6.7-7.4c0-4.3,2.7-7.4,6.7-7.4c1.9,0,3.3,0.5,4.3,1.5V9.7h3.8V19.6z M19.1,14.1
		c-0.7-0.7-1.9-1.3-3.2-1.3c-2.4,0-3.9,1.6-3.9,4.1c0,2.4,1.5,4,3.9,4c1.3,0,2.4-0.6,3.2-1.3V14.1z"/>
	<path class="st0" d="M90.5,15.8c-0.4,1.4-0.8,2.8-1.2,4.1c-0.4,1.4-0.8,2.7-1.3,4.1h-3.2c-0.3-0.8-0.7-1.7-1.1-2.7
		c-0.4-1.1-0.8-2.2-1.2-3.5c-0.4-1.2-0.8-2.6-1.3-4c-0.4-1.4-0.8-2.8-1.2-4.2h4.3c0.1,0.7,0.3,1.4,0.5,2.1c0.2,0.8,0.4,1.6,0.6,2.4
		c0.2,0.8,0.4,1.6,0.6,2.5c0.2,0.8,0.4,1.6,0.6,2.4c0.2-0.8,0.5-1.6,0.7-2.5c0.2-0.8,0.4-1.7,0.7-2.5c0.2-0.8,0.4-1.6,0.6-2.3
		c0.2-0.8,0.4-1.5,0.5-2.1h3c0.1,0.7,0.3,1.4,0.5,2.1c0.2,0.8,0.4,1.5,0.6,2.3c0.2,0.8,0.4,1.6,0.6,2.5c0.2,0.8,0.4,1.7,0.7,2.5
		c0.2-0.8,0.4-1.6,0.7-2.4c0.2-0.8,0.4-1.7,0.6-2.5c0.2-0.8,0.4-1.6,0.5-2.4c0.2-0.8,0.3-1.5,0.5-2.1h4.2c-0.4,1.4-0.8,2.8-1.2,4.2
		c-0.4,1.4-0.8,2.7-1.3,4c-0.4,1.2-0.8,2.4-1.2,3.5c-0.4,1.1-0.8,2-1.1,2.7H93c-0.5-1.4-0.9-2.8-1.3-4.1
		C91.2,18.5,90.8,17.2,90.5,15.8z"/>
	<path class="st0" d="M116.2,19.6c0,0.8,0.2,1.4,1,1.4c0.5,0,1-0.2,1.4-0.4l0.2,3c-0.7,0.3-1.9,0.6-3.1,0.6c-1.6,0-2.6-0.7-3-2.1
		c-1,1.1-2.6,2-4.5,2c-4,0-6.7-3.1-6.7-7.4c0-4.3,2.7-7.4,6.7-7.4c1.9,0,3.3,0.5,4.3,1.5V9.7h3.8V19.6z M112.4,14.1
		c-0.7-0.7-1.9-1.3-3.2-1.3c-2.4,0-3.9,1.6-3.9,4.1c0,2.4,1.5,4,3.9,4c1.3,0,2.4-0.6,3.2-1.3V14.1z"/>
	<path class="st0" d="M123,9.7l3.9,10.1l3.8-10.1h3.9l-5.9,14.4c-1.4,3.6-2.9,5.3-6.1,5.3c-1.3,0-2.6-0.5-3.3-1l0.6-3.1
		c0.7,0.4,1.7,0.8,2.7,0.8c1.3,0,1.8-0.6,2.4-1.8l0.3-0.7l-6.5-13.9H123z"/>
	<g>
		<path id="XMLID_136_" class="st0" d="M103.1,28.6c-0.3,0-0.4,0.1-0.4,0.4c0,0.3,0.1,0.4,0.4,0.4c0.2,0,0.4-0.1,0.4-0.4
			C103.5,28.8,103.4,28.6,103.1,28.6z"/>
		<path id="XMLID_135_" class="st0" d="M105.5,27.4c0.3,0,0.5,0.2,0.5,0.5l0.6-0.1c-0.1-0.6-0.5-0.9-1.1-0.9c-0.8,0-1.3,0.6-1.3,1.3
			c0,0.8,0.5,1.3,1.4,1.3c0.4,0,0.8-0.1,1.1-0.3l-0.3-0.5c-0.2,0.1-0.4,0.2-0.7,0.2c-0.5,0-0.8-0.3-0.8-0.8
			C104.9,27.7,105.1,27.4,105.5,27.4z"/>
		<path class="st0" d="M108.6,26.8c-0.8,0-1.4,0.6-1.4,1.3c0,0.8,0.6,1.3,1.4,1.3c0.8,0,1.4-0.6,1.4-1.3
			C110,27.3,109.4,26.8,108.6,26.8z M108.6,28.8c-0.4,0-0.7-0.3-0.7-0.7c0-0.4,0.3-0.7,0.7-0.7c0.4,0,0.7,0.3,0.7,0.7
			C109.3,28.5,109,28.8,108.6,28.8z"/>
		<path id="XMLID_132_" class="st0" d="M114.9,27.8c0-0.4-0.2-1-0.9-1c-0.4,0-0.7,0.1-0.9,0.4l-0.1,0.1l-0.1-0.1
			c-0.1-0.3-0.4-0.4-0.8-0.4c-0.3,0-0.6,0.1-0.8,0.3l-0.1,0.1v-0.4h-0.7v2.5h0.7l0-1.6c0.1-0.2,0.3-0.3,0.5-0.3
			c0.3,0,0.5,0.2,0.5,0.6v1.3h0.7l0-1.6c0.1-0.2,0.3-0.3,0.5-0.3c0.3,0,0.5,0.2,0.5,0.5v1.4h0.7L114.9,27.8L114.9,27.8z"/>
	</g>
</g>
</svg>
