<?xml version="1.0" encoding="utf-8"?>
<!-- Generator: Adobe Illustrator 19.0.0, SVG Export Plug-In . SVG Version: 6.00 Build 0)  -->
<svg version="1.1" id="Layer_1" xmlns="http://www.w3.org/2000/svg" xmlns:xlink="http://www.w3.org/1999/xlink" x="0px" y="0px"
	 viewBox="12 -5 117 25" style="enable-background:new 12 -5 117 25;" xml:space="preserve">
<style type="text/css">
	.st0{fill:#FFFFFF;}
</style>
<g>
	<g>
		<g>
			<g>
				<path class="st0" d="M47.7-0.7h4.5c1.3,0,2.2,0.3,2.9,1C55.7,0.9,56,1.7,56,2.6v0c0,0.8-0.2,1.5-0.6,2c-0.4,0.5-0.9,0.9-1.5,1.1
					l2.4,3.5h-2.5l-2.1-3.2h0h-1.7v3.2h-2.2V-0.7z M52.1,4.2c0.5,0,1-0.1,1.2-0.4c0.3-0.3,0.4-0.6,0.4-1v0c0-0.5-0.2-0.8-0.5-1.1
					c-0.3-0.2-0.7-0.4-1.3-0.4h-2.2v2.8H52.1z"/>
				<path class="st0" d="M70.3,9.4c-0.8,0-1.5-0.1-2.1-0.4c-0.6-0.3-1.2-0.6-1.7-1.1c-0.5-0.5-0.8-1-1.1-1.6c-0.3-0.6-0.4-1.3-0.4-2
					v0c0-0.7,0.1-1.4,0.4-2c0.3-0.6,0.6-1.2,1.1-1.6c0.5-0.5,1-0.8,1.7-1.1c0.6-0.3,1.4-0.4,2.1-0.4c0.8,0,1.5,0.1,2.1,0.4
					c0.6,0.3,1.2,0.6,1.7,1.1c0.5,0.5,0.8,1,1.1,1.6c0.3,0.6,0.4,1.3,0.4,2v0c0,0.7-0.1,1.4-0.4,2c-0.3,0.6-0.6,1.2-1.1,1.6
					c-0.5,0.5-1,0.8-1.7,1.1C71.8,9.3,71.1,9.4,70.3,9.4z M70.3,7.4c0.4,0,0.8-0.1,1.2-0.2c0.4-0.2,0.7-0.4,0.9-0.7
					c0.3-0.3,0.5-0.6,0.6-1c0.1-0.4,0.2-0.8,0.2-1.2v0c0-0.4-0.1-0.8-0.2-1.2c-0.1-0.4-0.4-0.7-0.6-1c-0.3-0.3-0.6-0.5-1-0.7
					c-0.4-0.2-0.8-0.2-1.2-0.2c-0.4,0-0.8,0.1-1.2,0.2c-0.4,0.2-0.7,0.4-0.9,0.7c-0.3,0.3-0.5,0.6-0.6,1c-0.1,0.4-0.2,0.8-0.2,1.2v0
					c0,0.4,0.1,0.8,0.2,1.2c0.1,0.4,0.4,0.7,0.6,1c0.3,0.3,0.6,0.5,1,0.7C69.5,7.3,69.9,7.4,70.3,7.4z"/>
				<path class="st0" d="M77.1-0.7h2.4L82,3.5l2.6-4.2H87v9.9h-2.2V2.8L82.1,7H82l-2.8-4.2v6.4h-2.2V-0.7z"/>
				<path class="st0" d="M92.2-0.7h3.9c0.8,0,1.5,0.1,2.1,0.4c0.6,0.3,1.2,0.6,1.7,1c0.5,0.4,0.8,1,1.1,1.6c0.3,0.6,0.4,1.2,0.4,1.9
					v0c0,0.7-0.1,1.4-0.4,2c-0.3,0.6-0.6,1.1-1.1,1.6c-0.5,0.4-1,0.8-1.7,1c-0.6,0.3-1.4,0.4-2.1,0.4h-3.9V-0.7z M96.1,7.3
					c0.4,0,0.9-0.1,1.2-0.2c0.4-0.1,0.7-0.3,0.9-0.6c0.3-0.3,0.5-0.6,0.6-0.9c0.1-0.4,0.2-0.8,0.2-1.2v0c0-0.4-0.1-0.8-0.2-1.2
					c-0.1-0.4-0.3-0.7-0.6-0.9c-0.3-0.3-0.6-0.5-0.9-0.6c-0.4-0.1-0.8-0.2-1.2-0.2h-1.7v6H96.1z"/>
				<path class="st0" d="M102.6-0.7h7.5v1.9h-5.3v2h4.7v1.9h-4.7v2.1h5.4v1.9h-7.5V-0.7z"/>
				<path class="st0" d="M114.8-0.7h2l4.3,10h-2.3L117.9,7h-4.2l-0.9,2.2h-2.2L114.8-0.7z M117.1,5.1l-1.3-3.2l-1.3,3.2H117.1z"/>
				<path class="st0" d="M121.9-0.7h2.2v8h4.9v2h-7.1V-0.7z"/>
			</g>
			<g>
				<path class="st0" d="M48,17.1V13h1.3c0.5,0,0.8,0,1,0.1c0.2,0.1,0.4,0.2,0.6,0.4c0.2,0.2,0.2,0.5,0.2,0.8c0,0.3,0,0.5-0.1,0.6
					c-0.1,0.2-0.2,0.3-0.4,0.4c-0.1,0.1-0.3,0.2-0.4,0.2c-0.2,0-0.5,0.1-0.9,0.1h-0.5v1.6H48z M48.8,13.7v1.2h0.5
					c0.3,0,0.5,0,0.7-0.1c0.1,0,0.2-0.1,0.3-0.2c0.1-0.1,0.1-0.2,0.1-0.3c0-0.1,0-0.3-0.1-0.4c-0.1-0.1-0.2-0.2-0.3-0.2
					c-0.1,0-0.3,0-0.6,0H48.8z"/>
				<path class="st0" d="M53.5,14.1v0.6h-0.5v1.2c0,0.2,0,0.4,0,0.4c0,0,0,0.1,0.1,0.1c0,0,0.1,0,0.1,0c0.1,0,0.2,0,0.3-0.1l0.1,0.6
					c-0.2,0.1-0.4,0.1-0.6,0.1c-0.1,0-0.3,0-0.4-0.1c-0.1,0-0.2-0.1-0.3-0.2c-0.1-0.1-0.1-0.2-0.1-0.3c0-0.1,0-0.3,0-0.6v-1.3h-0.4
					v-0.6h0.4v-0.6l0.8-0.5v1.1H53.5z"/>
				<path class="st0" d="M56,16.1l0.8,0.1c-0.1,0.3-0.3,0.5-0.5,0.7c-0.2,0.2-0.5,0.2-0.8,0.2c-0.5,0-0.9-0.2-1.1-0.5
					c-0.2-0.3-0.3-0.6-0.3-1c0-0.5,0.1-0.9,0.4-1.2c0.3-0.3,0.6-0.4,1-0.4c0.4,0,0.8,0.1,1.1,0.4c0.3,0.3,0.4,0.7,0.4,1.3h-2
					c0,0.2,0.1,0.4,0.2,0.5c0.1,0.1,0.3,0.2,0.5,0.2c0.1,0,0.2,0,0.3-0.1C55.9,16.4,56,16.3,56,16.1z M56.1,15.4
					c0-0.2-0.1-0.4-0.2-0.5c-0.1-0.1-0.2-0.2-0.4-0.2c-0.2,0-0.3,0.1-0.4,0.2c-0.1,0.1-0.2,0.3-0.2,0.5H56.1z"/>
				<path class="st0" d="M57.8,17.1V13h0.8v3.4h2.1v0.7H57.8z"/>
				<path class="st0" d="M62.1,17.1v-3.4h-1.2V13h3.3v0.7h-1.2v3.4H62.1z"/>
				<path class="st0" d="M65,13h1.5c0.3,0,0.6,0,0.8,0.1c0.2,0.1,0.4,0.2,0.6,0.4c0.2,0.2,0.3,0.4,0.4,0.7c0.1,0.3,0.1,0.6,0.1,1
					c0,0.3,0,0.6-0.1,0.9c-0.1,0.3-0.3,0.5-0.4,0.7c-0.1,0.1-0.3,0.3-0.6,0.3c-0.2,0.1-0.4,0.1-0.7,0.1H65V13z M65.8,13.7v2.7h0.6
					c0.2,0,0.4,0,0.5,0c0.1,0,0.2-0.1,0.3-0.2c0.1-0.1,0.2-0.2,0.2-0.4c0.1-0.2,0.1-0.4,0.1-0.8c0-0.3,0-0.6-0.1-0.7
					c-0.1-0.2-0.1-0.3-0.2-0.4c-0.1-0.1-0.2-0.2-0.4-0.2c-0.1,0-0.3,0-0.7,0H65.8z"/>
			</g>
			<path class="st0" d="M28-4.9L13.8,9.3c-2.4,2.4-2.4,6.4,0,8.8c2.4,2.4,6.4,2.4,8.8,0L36.7,3.9L28-4.9z"/>
			<path class="st0" d="M19.2,3.9L33.3,18c2.4,2.4,6.4,2.4,8.8,0c2.4-2.4,2.4-6.4,0-8.8L28-4.9L19.2,3.9z"/>
		</g>
		<path class="st0" d="M66.9,3.9L66.9,3.9L66.9,3.9l-1.9,0c0,0.1,0,0.3,0,0.4v0c0,0.4-0.1,0.8-0.2,1.2c-0.2,0.4-0.4,0.7-0.6,1
			C64,6.8,63.7,7,63.3,7.2c-0.4,0.2-0.8,0.2-1.2,0.2c-0.4,0-0.8-0.1-1.2-0.2c-0.4-0.2-0.7-0.4-1-0.7c-0.3-0.3-0.5-0.6-0.6-1
			c-0.1-0.4-0.2-0.8-0.2-1.2v0c0-0.4,0.1-0.8,0.2-1.2c0.1-0.4,0.4-0.7,0.6-1c0.3-0.3,0.6-0.5,0.9-0.7c0.4-0.2,0.8-0.2,1.2-0.2
			c0.4,0,0.8,0.1,1.2,0.2c0.4,0.2,0.7,0.4,1,0.7c0.2,0.2,0.4,0.5,0.5,0.7c0.1-0.3,0.2-0.6,0.3-0.9c0.2-0.5,0.5-0.9,0.8-1.3
			c-0.5-0.4-1-0.8-1.6-1c-0.6-0.3-1.3-0.4-2.1-0.4c-0.8,0-1.5,0.1-2.1,0.4c-0.6,0.3-1.2,0.6-1.7,1.1c-0.5,0.5-0.8,1-1.1,1.6
			c-0.3,0.6-0.4,1.3-0.4,2v0c0,0.7,0.1,1.4,0.4,2c0.3,0.6,0.6,1.2,1.1,1.6c0.5,0.5,1,0.8,1.7,1.1c0.6,0.3,1.3,0.4,2.1,0.4
			c0.8,0,1.5-0.1,2.1-0.4c0.6-0.3,1.2-0.6,1.7-1.1c0.5-0.5,0.8-1,1.1-1.6c0.3-0.6,0.4-1.3,0.4-2v0c0-0.6-0.1-1.1-0.2-1.6
			C67,3.1,66.9,3.5,66.9,3.9z"/>
	</g>
</g>
</svg>
