<?xml version="1.0" encoding="utf-8"?>
<!-- Generator: Adobe Illustrator 19.0.0, SVG Export Plug-In . SVG Version: 6.00 Build 0)  -->
<svg version="1.1" id="Layer_1" xmlns="http://www.w3.org/2000/svg" xmlns:xlink="http://www.w3.org/1999/xlink" x="0px" y="0px"
	 viewBox="0 0 125 17" style="enable-background:new 0 0 125 17;" xml:space="preserve">
<style type="text/css">
	.st0{fill:#FFFFFF;}
</style>
<g>
	<path id="XMLID_115_" class="st0" d="M12.8,7.5v5.4c0,0.3-0.2,0.5-0.5,0.5h-1.2c-0.3,0-0.5-0.2-0.5-0.5V7.6c0-1.3-0.5-2-1.5-2
		c-1,0-1.5,0.7-1.5,2v5.3c0,0.3-0.2,0.5-0.5,0.5H5.9c-0.3,0-0.5-0.2-0.5-0.5V7.6c0-1.3-0.5-2-1.6-2c-1,0-1.5,0.7-1.5,2v5.3
		c0,0.3-0.2,0.5-0.5,0.5H0.6c-0.3,0-0.5-0.2-0.5-0.5V7.5c0-2.4,1.2-3.7,3.5-3.7c1.2,0,2.1,0.4,2.7,1.1h0C7.1,4.2,8,3.8,9.2,3.8
		C11.5,3.8,12.8,5.1,12.8,7.5z"/>
	<path id="XMLID_114_" class="st0" d="M21.9,4c0.3,0,0.5,0.2,0.5,0.5v8.9c0,2.2-1.4,3.6-3.9,3.6c-1.3,0-2.4-0.3-3.2-1
		c-0.2-0.2-0.2-0.4-0.1-0.6l0.5-0.8c0.2-0.3,0.4-0.3,0.6-0.1c0.6,0.5,1.3,0.7,2,0.7c1.2,0,1.8-0.6,1.8-1.8v-0.6h0
		c-0.5,0.5-1.1,0.8-2,0.8c-2.1,0-3.3-1.3-3.3-3.7V4.5c0-0.3,0.2-0.5,0.5-0.5h1.2c0.3,0,0.5,0.2,0.5,0.5v5.1c0,1.3,0.5,2,1.6,2
		c1.1,0,1.6-0.7,1.6-2V4.5c0-0.3,0.2-0.5,0.5-0.5H21.9z"/>
	<path id="XMLID_113_" class="st0" d="M31.9,7.5v5.4c0,0.3-0.2,0.5-0.5,0.5h-1.2c-0.3,0-0.5-0.2-0.5-0.5V7.7c0-1.3-0.5-2-1.6-2
		c-1.1,0-1.6,0.7-1.6,2v5.3c0,0.3-0.2,0.5-0.5,0.5h-1.2c-0.3,0-0.5-0.2-0.5-0.5V0.5c0-0.3,0.2-0.5,0.5-0.5H26c0.3,0,0.5,0.2,0.5,0.5
		v4.1h0c0.5-0.5,1.1-0.8,2.1-0.8C30.7,3.8,31.9,5.1,31.9,7.5z"/>
	<path class="st0" d="M58.9,9.2c0,0.3-0.2,0.5-0.5,0.5h-5V9.5c0,1.6,0.6,2.2,2.1,2.2c0.7,0,1.2-0.2,1.8-0.7c0.3-0.2,0.5-0.2,0.6,0.1
		l0.5,0.8c0.2,0.2,0.1,0.4-0.1,0.6c-0.8,0.7-1.8,1.1-3,1.1c-2.8,0-4.1-1.3-4.1-3.9V7.6c0-2.4,1.3-3.8,3.8-3.8s3.8,1.3,3.8,3.8V9.2z
		 M56.9,8V7.7c0-1.4-0.6-2.1-1.7-2.1c-1.1,0-1.7,0.7-1.7,2.1V8H56.9z"/>
	<path class="st0" d="M103.2,9.2c0,0.3-0.2,0.5-0.5,0.5h-5V9.5c0,1.6,0.6,2.2,2.1,2.2c0.7,0,1.2-0.2,1.8-0.7
		c0.3-0.2,0.5-0.2,0.6,0.1l0.5,0.8c0.2,0.2,0.1,0.4-0.1,0.6c-0.8,0.7-1.8,1.1-3,1.1c-2.8,0-4.1-1.3-4.1-3.9V7.6
		c0-2.4,1.3-3.8,3.8-3.8c2.4,0,3.8,1.3,3.8,3.8V9.2z M101.2,8V7.7c0-1.4-0.6-2.1-1.7-2.1c-1.1,0-1.7,0.7-1.7,2.1V8H101.2z"/>
	<path id="XMLID_108_" class="st0" d="M74,0.4c0.6,0,1.1,0.5,1.1,1.1c0,0.7-0.4,1.1-1.1,1.1c-0.7,0-1.1-0.4-1.1-1.1
		C72.9,0.9,73.4,0.4,74,0.4z"/>
	<path id="XMLID_107_" class="st0" d="M73.4,13.4c-0.3,0-0.5-0.2-0.5-0.5V4.3c0-0.3,0.2-0.5,0.5-0.5h1.2c0.3,0,0.5,0.2,0.5,0.5v8.6
		c0,0.3-0.2,0.5-0.5,0.5H73.4z"/>
	<path id="XMLID_106_" class="st0" d="M82.3,7.7c0-1.3-0.5-2-1.6-2c-1.1,0-1.6,0.7-1.6,2v5.3c0,0.3-0.2,0.5-0.5,0.5h-1.2
		c-0.3,0-0.5-0.2-0.5-0.5V7.5c0-2.4,1.3-3.7,3.8-3.7c2.4,0,3.8,1.3,3.8,3.7v5.4c0,0.3-0.2,0.5-0.5,0.5h-1.2c-0.3,0-0.5-0.2-0.5-0.5
		V7.7z"/>
	<path class="st0" d="M93.4,0c0.3,0,0.5,0.2,0.5,0.5v9.4c0,2.4-1.4,3.8-3.8,3.8c-2.5,0-3.9-1.3-3.9-3.8V7.6c0-2.4,1.2-3.8,3.5-3.8
		c0.9,0,1.6,0.3,2,0.8h0V0.5c0-0.3,0.2-0.5,0.5-0.5H93.4z M91.7,7.7c0-1.4-0.6-2.1-1.7-2.1s-1.7,0.7-1.7,2.1v1.9
		c0,1.4,0.6,2.1,1.7,2.1s1.7-0.7,1.7-2.1V7.7z"/>
	<path id="XMLID_103_" class="st0" d="M104.9,7.5c0-2.5,1.1-3.7,3.4-3.7c0.9,0,1.6,0.2,2.2,0.6c0.2,0.1,0.3,0.4,0.2,0.6l-0.5,0.8
		c-0.1,0.3-0.3,0.3-0.6,0.2c-0.3-0.2-0.7-0.3-1.1-0.3c-1,0-1.5,0.6-1.5,1.8v5.4c0,0.3-0.2,0.5-0.5,0.5h-1.2c-0.3,0-0.5-0.2-0.5-0.5
		V7.5z"/>
	<path id="XMLID_102_" class="st0" d="M109.8,12.8c0-0.3,0.3-0.6,0.6-0.6c0.3,0,0.6,0.3,0.6,0.6c0,0.4-0.3,0.6-0.6,0.6
		C110.1,13.4,109.8,13.1,109.8,12.8z"/>
	<path id="XMLID_101_" class="st0" d="M114.7,12.7c0.1,0.1,0.1,0.2,0,0.3c-0.3,0.3-0.7,0.4-1.2,0.4c-1.1,0-1.8-0.6-1.8-1.8v-0.8
		c0-1.1,0.6-1.7,1.7-1.7c0.5,0,0.9,0.1,1.1,0.3c0.1,0.1,0.1,0.2,0,0.3l-0.2,0.3c-0.1,0.1-0.2,0.1-0.3,0c-0.2-0.1-0.4-0.2-0.6-0.2
		c-0.5,0-0.8,0.3-0.8,1v0.7c0,0.7,0.3,1,0.9,1c0.2,0,0.4-0.1,0.6-0.2c0.1-0.1,0.2-0.1,0.3,0L114.7,12.7z"/>
	<path class="st0" d="M118.5,10.7v1c0,1.1-0.6,1.7-1.7,1.7c-1.1,0-1.7-0.6-1.7-1.7v-1c0-1.1,0.6-1.7,1.7-1.7
		C117.9,9,118.5,9.6,118.5,10.7z M117.5,10.8c0-0.6-0.2-0.9-0.8-0.9c-0.5,0-0.8,0.3-0.8,0.9v0.8c0,0.6,0.3,0.9,0.8,0.9
		c0.5,0,0.8-0.3,0.8-0.9V10.8z"/>
	<path id="XMLID_98_" class="st0" d="M124.8,10.7v2.4c0,0.1-0.1,0.2-0.2,0.2h-0.6c-0.1,0-0.2-0.1-0.2-0.2v-2.3
		c0-0.6-0.2-0.9-0.7-0.9c-0.5,0-0.7,0.3-0.7,0.9v2.3c0,0.1-0.1,0.2-0.2,0.2h-0.6c-0.1,0-0.2-0.1-0.2-0.2v-2.3c0-0.6-0.2-0.9-0.7-0.9
		c-0.5,0-0.7,0.3-0.7,0.9v2.3c0,0.1-0.1,0.2-0.2,0.2h-0.6c-0.1,0-0.2-0.1-0.2-0.2v-2.4c0-1.1,0.6-1.7,1.6-1.7c0.5,0,1,0.2,1.2,0.5h0
		c0.3-0.3,0.7-0.5,1.2-0.5C124.3,9,124.8,9.6,124.8,10.7z"/>
	<path id="XMLID_97_" class="st0" d="M32.8,16L32.8,16c0.5,0.4,1.1,0.3,1.5-0.2l0.9-1.2c0.4-0.5,0.3-1.1-0.2-1.5
		c-0.5-0.4-1.1-0.3-1.5,0.2l-0.9,1.2C32.2,15,32.3,15.7,32.8,16z"/>
	<path class="st0" d="M33.6,9.2c0.3,2.7,2.8,4.6,5.5,4.3c2.7-0.3,4.6-2.8,4.3-5.5c-0.3-2.7-2.8-4.6-5.5-4.3
		C35.2,4,33.3,6.5,33.6,9.2z M35.8,8.9c-0.2-1.5,0.9-2.8,2.4-3c1.5-0.2,2.8,0.9,3,2.4s-0.9,2.8-2.4,3C37.3,11.5,36,10.4,35.8,8.9z"
		/>
	<path id="XMLID_94_" class="st0" d="M64.4,11.4c0.3,0,0.5,0.2,0.5,0.5v1c0,0.3-0.2,0.5-0.5,0.5H64c-2.1,0-3.1-1.1-3.1-3.3V0.6
		c0-0.3,0.2-0.5,0.5-0.5h1.3c0.3,0,0.5,0.2,0.5,0.5v9.5C63.2,11,63.5,11.4,64.4,11.4z"/>
	<path id="XMLID_93_" class="st0" d="M50.2,12.7l-0.3-0.9c-0.1-0.3-0.3-0.4-0.6-0.3c-0.3,0.1-0.6,0.2-0.8,0.2c-1,0-1.4-0.5-1.4-1.5
		V5.7h1.8c0.3,0,0.5-0.2,0.5-0.5V4.3c0-0.3-0.2-0.5-0.5-0.5h-1.8V1.9c0-0.3-0.2-0.5-0.5-0.5h-1.2c-0.3,0-0.5,0.2-0.5,0.5V3v0.8v1.9
		v0.7v3.9c0,2.2,1.1,3.3,3.3,3.3c0.7,0,1.2-0.1,1.7-0.3C50.2,13.2,50.3,13,50.2,12.7z"/>
	<path id="XMLID_92_" class="st0" d="M71.7,0.4c-0.6-0.2-1.2-0.4-2-0.4c-2.2,0-3.4,1.3-3.4,3.6v0.4v1.9v0.9v6.1
		c0,0.3,0.2,0.5,0.5,0.5H68c0.3,0,0.5-0.2,0.5-0.5V5.8h2.4c0.3,0,0.5-0.2,0.5-0.5v-1c0-0.3-0.2-0.5-0.5-0.5h-2.4V3.6
		c0-1.1,0.5-1.7,1.4-1.7c0.4,0,0.7,0.1,1,0.2c0.3,0.1,0.5,0.1,0.6-0.2L71.9,1C72.1,0.7,72,0.5,71.7,0.4z"/>
</g>
</svg>
