<?xml version="1.0" encoding="utf-8"?>
<!-- Generator: Adobe Illustrator 19.0.0, SVG Export Plug-In . SVG Version: 6.00 Build 0)  -->
<svg version="1.1" id="Layer_1" xmlns="http://www.w3.org/2000/svg" xmlns:xlink="http://www.w3.org/1999/xlink" x="0px" y="0px"
	 viewBox="0 0 174 20" style="enable-background:new 0 0 174 20;" xml:space="preserve">
<style type="text/css">
	.st0{fill:#909295;}
</style>
<g>
	<g>
		<path class="st0" d="M34.1,3.1c-2.1,0-3.7,0.6-4.8,1.8c-1.1,1.2-1.7,2.9-1.7,5.1c0,1,0.1,2,0.4,2.8c0.3,0.9,0.7,1.6,1.2,2.2
			c0.5,0.6,1.2,1.1,1.9,1.4c0.8,0.3,1.7,0.5,2.7,0.5c0.6,0,1.2,0,1.7-0.1c0.5,0,0.8-0.1,1.1-0.2V9.8h3.7V19
			c-0.5,0.2-1.4,0.4-2.6,0.6c-1.2,0.2-2.6,0.3-4.2,0.3c-1.5,0-2.8-0.2-4-0.7c-1.2-0.4-2.2-1.1-3.1-1.9c-0.9-0.8-1.5-1.9-2-3.1
			C24,13,23.8,11.6,23.8,10c0-1.6,0.3-3,0.8-4.2c0.5-1.2,1.2-2.3,2.1-3.1c0.9-0.9,2-1.5,3.2-1.9c1.2-0.4,2.5-0.7,3.9-0.7
			c0.9,0,1.8,0.1,2.5,0.2c0.7,0.1,1.4,0.3,1.9,0.4c0.5,0.1,1,0.3,1.3,0.5c0.3,0.2,0.6,0.3,0.7,0.4l-1.1,2.8
			c-0.6-0.3-1.3-0.6-2.2-0.8C36,3.2,35.1,3.1,34.1,3.1z"/>
		<path id="XMLID_71_" class="st0" d="M17.4,0.5H17c-0.4,0.7-0.9,1.5-1.4,2.6c-0.5,1-1.1,2.1-1.6,3.2c-0.5,1.1-1.1,2.2-1.6,3.4
			c-0.5,1.1-1,2.2-1.5,3.2c-0.5-1-0.9-2-1.5-3.2C8.8,8.5,8.2,7.3,7.7,6.2C7.1,5.1,6.6,4.1,6.1,3.1c-0.5-1-1-1.9-1.4-2.6H4H0.4v19.1
			H4V6.3c0-0.2,0-0.3,0-0.5c0.2,0.4,0.5,0.9,0.8,1.5C5.1,8,5.4,8.6,5.8,9.3c0.3,0.7,0.7,1.4,1,2.1c0.3,0.7,0.7,1.4,1,2.1
			c0.3,0.7,0.6,1.3,0.9,1.9c0.3,0.6,0.5,1.1,0.7,1.5h2.8c0.2-0.4,0.4-0.9,0.7-1.5c0.3-0.6,0.6-1.2,0.9-1.9c0.3-0.7,0.7-1.4,1-2.1
			c0.3-0.7,0.7-1.4,1-2.1c0.3-0.7,0.6-1.3,0.9-1.9c0.3-0.5,0.5-1,0.7-1.4v13.5H21V0.5H17.4z"/>
	</g>
	<g>
		<path class="st0" d="M57.5,1.6l2.3-0.4v17.9c-0.5,0.1-1.2,0.3-2.1,0.4c-0.8,0.1-1.8,0.2-2.9,0.2c-1,0-1.9-0.2-2.7-0.4
			c-0.8-0.3-1.5-0.7-2.1-1.3c-0.6-0.6-1-1.2-1.3-2c-0.3-0.8-0.5-1.7-0.5-2.7c0-0.9,0.1-1.8,0.4-2.6c0.3-0.8,0.6-1.5,1.1-2
			c0.5-0.6,1.1-1,1.9-1.3C52.4,7.2,53.3,7,54.2,7c0.8,0,1.4,0.1,2,0.3c0.6,0.2,1,0.4,1.3,0.5V1.6z M57.5,9.9
			c-0.3-0.2-0.7-0.4-1.2-0.6c-0.5-0.2-1.1-0.3-1.8-0.3c-0.7,0-1.2,0.1-1.7,0.3c-0.5,0.2-0.9,0.5-1.2,0.9c-0.3,0.4-0.5,0.9-0.7,1.4
			c-0.1,0.5-0.2,1.1-0.2,1.8c0,1.4,0.4,2.5,1.1,3.3c0.8,0.8,1.8,1.2,3,1.2c0.6,0,1.2,0,1.6-0.1c0.4-0.1,0.8-0.1,1-0.2V9.9z"/>
		<path class="st0" d="M61.9,13.4c0-1.1,0.2-2,0.5-2.8c0.3-0.8,0.8-1.5,1.3-2c0.6-0.5,1.2-0.9,1.9-1.2C66.4,7.1,67.1,7,67.9,7
			c1.8,0,3.1,0.5,4.1,1.5c0.9,1,1.4,2.6,1.4,4.7c0,0.1,0,0.2,0,0.4c0,0.2,0,0.3,0,0.4h-9c0.1,1.3,0.5,2.2,1.2,2.9
			c0.7,0.7,1.8,1,3.2,1c0.8,0,1.5-0.1,2.1-0.2c0.6-0.1,1-0.3,1.3-0.4l0.3,1.8c-0.3,0.1-0.8,0.3-1.5,0.4c-0.7,0.2-1.5,0.2-2.4,0.2
			c-1.1,0-2.1-0.2-3-0.5C64.7,19,64,18.6,63.5,18c-0.5-0.6-0.9-1.2-1.2-2C62,15.2,61.9,14.4,61.9,13.4z M70.9,12.2
			c0-1-0.2-1.8-0.8-2.4c-0.5-0.6-1.3-1-2.3-1c-0.5,0-1,0.1-1.4,0.3c-0.4,0.2-0.8,0.5-1,0.8c-0.3,0.3-0.5,0.7-0.7,1.1
			c-0.2,0.4-0.3,0.8-0.3,1.2H70.9z"/>
		<path class="st0" d="M78.5,18c1,0,1.7-0.1,2.1-0.4c0.5-0.2,0.7-0.6,0.7-1.1c0-0.5-0.2-1-0.7-1.3c-0.5-0.3-1.2-0.7-2.2-1.1
			c-0.5-0.2-1-0.4-1.4-0.6c-0.5-0.2-0.9-0.4-1.2-0.7c-0.3-0.3-0.6-0.6-0.8-1c-0.2-0.4-0.3-0.8-0.3-1.4c0-1.1,0.4-1.9,1.3-2.6
			c0.9-0.6,2-1,3.5-1c0.4,0,0.7,0,1.1,0.1c0.4,0,0.7,0.1,1,0.1c0.3,0.1,0.6,0.1,0.8,0.2c0.2,0.1,0.4,0.1,0.6,0.2l-0.4,1.9
			c-0.3-0.1-0.6-0.3-1.2-0.4c-0.5-0.1-1.2-0.2-1.9-0.2c-0.7,0-1.2,0.1-1.7,0.4C77.3,9.4,77,9.8,77,10.3c0,0.3,0.1,0.5,0.2,0.7
			c0.1,0.2,0.3,0.4,0.5,0.6c0.2,0.2,0.5,0.3,0.8,0.5c0.3,0.1,0.7,0.3,1.2,0.4c0.6,0.2,1.2,0.4,1.7,0.6c0.5,0.2,0.9,0.5,1.2,0.7
			c0.3,0.3,0.6,0.6,0.8,1c0.2,0.4,0.3,0.9,0.3,1.5c0,1.1-0.4,2-1.3,2.6c-0.9,0.6-2.2,0.9-3.8,0.9c-1.2,0-2.1-0.1-2.7-0.3
			c-0.7-0.2-1.1-0.3-1.3-0.4l0.4-1.9c0.3,0.1,0.7,0.2,1.3,0.4C76.8,17.9,77.5,18,78.5,18z"/>
		<path class="st0" d="M87.7,7.3h5v1.8h-5v5.7c0,0.6,0,1.1,0.2,1.5c0.1,0.4,0.3,0.7,0.5,0.9c0.2,0.2,0.5,0.4,0.8,0.5
			c0.3,0.1,0.7,0.1,1.1,0.1c0.7,0,1.3-0.1,1.7-0.2c0.4-0.1,0.7-0.3,0.9-0.3l0.5,1.8c-0.2,0.1-0.6,0.2-1.2,0.4
			c-0.6,0.2-1.3,0.2-2,0.2c-0.9,0-1.6-0.1-2.2-0.3c-0.6-0.2-1-0.5-1.4-1c-0.4-0.4-0.6-0.9-0.7-1.6c-0.1-0.6-0.2-1.3-0.2-2.2V3.9
			l2.3-0.4V7.3z"/>
		<path class="st0" d="M95.5,5.1c-0.4,0-0.8-0.1-1.1-0.4c-0.3-0.3-0.4-0.6-0.4-1c0-0.4,0.1-0.8,0.4-1c0.3-0.3,0.7-0.4,1.1-0.4
			c0.4,0,0.8,0.1,1.1,0.4c0.3,0.3,0.4,0.6,0.4,1c0,0.4-0.1,0.8-0.4,1C96.3,4.9,95.9,5.1,95.5,5.1z M96.7,19.6h-2.3V7.3h2.3V19.6z"/>
		<path class="st0" d="M99.5,7.6c0.5-0.1,1.3-0.3,2.1-0.4c0.9-0.1,1.9-0.2,3.1-0.2c1,0,1.9,0.1,2.6,0.4c0.7,0.3,1.2,0.7,1.7,1.2
			s0.7,1.1,0.9,1.8c0.2,0.7,0.3,1.5,0.3,2.3v6.9h-2.3v-6.4c0-0.8-0.1-1.4-0.2-1.9c-0.1-0.5-0.3-1-0.5-1.3c-0.3-0.3-0.6-0.6-1-0.7
			C105.6,9,105,9,104.4,9c-0.3,0-0.5,0-0.8,0c-0.3,0-0.5,0-0.8,0.1c-0.2,0-0.5,0.1-0.7,0.1c-0.2,0-0.3,0.1-0.4,0.1v10.4h-2.3V7.6z"
			/>
		<path class="st0" d="M116.9,7c0.9,0,1.7,0.1,2.4,0.3c0.6,0.2,1.2,0.5,1.6,1c0.4,0.4,0.7,0.9,0.8,1.5c0.2,0.6,0.3,1.2,0.3,1.9v7.7
			c-0.2,0-0.5,0.1-0.8,0.1c-0.4,0.1-0.8,0.1-1.2,0.2c-0.5,0-0.9,0.1-1.5,0.1c-0.5,0-1.1,0.1-1.6,0.1c-0.7,0-1.4-0.1-2-0.2
			c-0.6-0.1-1.2-0.4-1.6-0.7c-0.5-0.3-0.8-0.7-1.1-1.2c-0.2-0.5-0.4-1.1-0.4-1.8c0-0.7,0.1-1.3,0.4-1.7c0.3-0.5,0.7-0.9,1.2-1.2
			c0.5-0.3,1.1-0.5,1.8-0.7c0.7-0.1,1.4-0.2,2.1-0.2c0.2,0,0.5,0,0.7,0c0.3,0,0.5,0.1,0.7,0.1c0.2,0,0.4,0.1,0.6,0.1
			c0.2,0,0.3,0.1,0.4,0.1v-0.6c0-0.4,0-0.7-0.1-1.1c-0.1-0.4-0.2-0.7-0.5-0.9c-0.2-0.3-0.5-0.5-0.9-0.7c-0.4-0.2-0.9-0.2-1.5-0.2
			c-0.8,0-1.5,0.1-2,0.2c-0.6,0.1-1,0.2-1.3,0.3l-0.3-1.8c0.3-0.1,0.8-0.2,1.5-0.4C115.3,7,116.1,7,116.9,7z M117.1,18
			c0.6,0,1,0,1.5,0c0.4,0,0.8-0.1,1.1-0.1v-3.7c-0.2-0.1-0.4-0.1-0.8-0.2c-0.4-0.1-0.8-0.1-1.4-0.1c-0.4,0-0.7,0-1.1,0.1
			c-0.4,0-0.8,0.1-1.1,0.3c-0.3,0.2-0.6,0.4-0.8,0.6c-0.2,0.3-0.3,0.6-0.3,1c0,0.8,0.3,1.3,0.8,1.6C115.4,17.8,116.2,18,117.1,18z"
			/>
		<path class="st0" d="M126.8,7.3h5v1.8h-5v5.7c0,0.6,0,1.1,0.2,1.5c0.1,0.4,0.3,0.7,0.5,0.9c0.2,0.2,0.5,0.4,0.8,0.5
			c0.3,0.1,0.7,0.1,1.1,0.1c0.7,0,1.3-0.1,1.7-0.2c0.4-0.1,0.7-0.3,0.9-0.3l0.5,1.8c-0.2,0.1-0.6,0.2-1.2,0.4
			c-0.6,0.2-1.3,0.2-2,0.2c-0.9,0-1.6-0.1-2.2-0.3c-0.6-0.2-1-0.5-1.4-1c-0.4-0.4-0.6-0.9-0.7-1.6c-0.1-0.6-0.2-1.3-0.2-2.2V3.9
			l2.3-0.4V7.3z"/>
		<path class="st0" d="M134.6,5.1c-0.4,0-0.8-0.1-1.1-0.4c-0.3-0.3-0.4-0.6-0.4-1c0-0.4,0.1-0.8,0.4-1c0.3-0.3,0.7-0.4,1.1-0.4
			c0.4,0,0.8,0.1,1.1,0.4c0.3,0.3,0.4,0.6,0.4,1c0,0.4-0.1,0.8-0.4,1C135.4,4.9,135,5.1,134.6,5.1z M135.8,19.6h-2.3V7.3h2.3V19.6z"
			/>
		<path class="st0" d="M150.1,13.4c0,1-0.2,1.9-0.5,2.6c-0.3,0.8-0.7,1.5-1.3,2c-0.5,0.6-1.2,1-2,1.3c-0.8,0.3-1.6,0.5-2.5,0.5
			c-0.9,0-1.7-0.2-2.5-0.5c-0.8-0.3-1.4-0.7-2-1.3c-0.5-0.6-1-1.2-1.3-2c-0.3-0.8-0.5-1.7-0.5-2.6c0-1,0.2-1.8,0.5-2.6
			c0.3-0.8,0.7-1.5,1.3-2c0.5-0.6,1.2-1,2-1.3c0.8-0.3,1.6-0.5,2.5-0.5c0.9,0,1.7,0.2,2.5,0.5c0.8,0.3,1.4,0.7,2,1.3
			c0.5,0.6,1,1.2,1.3,2C150,11.6,150.1,12.5,150.1,13.4z M147.7,13.4c0-1.4-0.3-2.5-1-3.3c-0.7-0.8-1.6-1.2-2.7-1.2
			c-1.1,0-2,0.4-2.7,1.2c-0.7,0.8-1,1.9-1,3.3c0,1.4,0.3,2.5,1,3.3c0.7,0.8,1.6,1.2,2.7,1.2c1.1,0,2-0.4,2.7-1.2
			C147.4,15.9,147.7,14.8,147.7,13.4z"/>
		<path class="st0" d="M152.2,7.6c0.5-0.1,1.3-0.3,2.1-0.4c0.9-0.1,1.9-0.2,3.1-0.2c1,0,1.9,0.1,2.6,0.4c0.7,0.3,1.2,0.7,1.7,1.2
			c0.4,0.5,0.7,1.1,0.9,1.8c0.2,0.7,0.3,1.5,0.3,2.3v6.9h-2.3v-6.4c0-0.8-0.1-1.4-0.2-1.9c-0.1-0.5-0.3-1-0.5-1.3
			c-0.3-0.3-0.6-0.6-1-0.7C158.3,9,157.8,9,157.1,9c-0.3,0-0.5,0-0.8,0c-0.3,0-0.5,0-0.8,0.1c-0.2,0-0.5,0.1-0.7,0.1
			c-0.2,0-0.3,0.1-0.4,0.1v10.4h-2.3V7.6z"/>
		<path class="st0" d="M168.4,18c1,0,1.7-0.1,2.1-0.4c0.5-0.2,0.7-0.6,0.7-1.1c0-0.5-0.2-1-0.7-1.3c-0.5-0.3-1.2-0.7-2.2-1.1
			c-0.5-0.2-1-0.4-1.5-0.6c-0.5-0.2-0.9-0.4-1.2-0.7c-0.3-0.3-0.6-0.6-0.8-1c-0.2-0.4-0.3-0.8-0.3-1.4c0-1.1,0.4-1.9,1.3-2.6
			c0.9-0.6,2-1,3.5-1c0.4,0,0.7,0,1.1,0.1c0.4,0,0.7,0.1,1,0.1c0.3,0.1,0.6,0.1,0.8,0.2c0.2,0.1,0.4,0.1,0.6,0.2l-0.4,1.9
			c-0.2-0.1-0.6-0.3-1.2-0.4c-0.5-0.1-1.2-0.2-1.9-0.2c-0.7,0-1.2,0.1-1.7,0.4c-0.5,0.2-0.7,0.6-0.7,1.1c0,0.3,0.1,0.5,0.2,0.7
			c0.1,0.2,0.3,0.4,0.5,0.6c0.2,0.2,0.5,0.3,0.8,0.5c0.3,0.1,0.7,0.3,1.2,0.4c0.6,0.2,1.2,0.4,1.7,0.6c0.5,0.2,0.9,0.5,1.2,0.7
			c0.3,0.3,0.6,0.6,0.8,1c0.2,0.4,0.3,0.9,0.3,1.5c0,1.1-0.5,2-1.3,2.6c-0.9,0.6-2.2,0.9-3.8,0.9c-1.2,0-2.1-0.1-2.7-0.3
			c-0.7-0.2-1.1-0.3-1.3-0.4l0.4-1.9c0.3,0.1,0.7,0.2,1.3,0.4C166.7,17.9,167.5,18,168.4,18z"/>
	</g>
</g>
</svg>
