<?xml version="1.0" encoding="utf-8"?>
<!-- Generator: Adobe Illustrator 19.0.0, SVG Export Plug-In . SVG Version: 6.00 Build 0)  -->
<svg version="1.1" id="Layer_1" xmlns="http://www.w3.org/2000/svg" xmlns:xlink="http://www.w3.org/1999/xlink" x="0px" y="0px"
	 viewBox="0 0 334 55" style="enable-background:new 0 0 334 55;" xml:space="preserve">
<style type="text/css">
	.st0{fill:#909295;}
</style>
<g>
	<path id="XMLID_76_" class="st0" d="M34.2,24.9v14.4c0,0.8-0.4,1.2-1.2,1.2h-3.3c-0.8,0-1.2-0.4-1.2-1.2V25.2
		c0-3.5-1.4-5.2-4.1-5.2c-2.7,0-4.1,1.7-4.1,5.2v14.1c0,0.8-0.4,1.2-1.2,1.2h-3.3c-0.8,0-1.2-0.4-1.2-1.2V25.2
		c0-3.5-1.4-5.2-4.2-5.2c-2.7,0-4,1.7-4,5.2v14.1c0,0.8-0.4,1.2-1.2,1.2H1.7c-0.8,0-1.2-0.4-1.2-1.2V24.9c0-6.4,3.3-9.9,9.5-9.9
		c3.3,0,5.7,1,7.3,3h0.1c1.6-2,4-3,7.2-3C30.8,15,34.2,18.5,34.2,24.9z"/>
	<path id="XMLID_75_" class="st0" d="M58.4,15.6c0.8,0,1.2,0.4,1.2,1.2v23.6c0,6-3.9,9.6-10.4,9.6c-3.5,0-6.4-0.9-8.6-2.8
		c-0.6-0.5-0.6-1-0.2-1.7l1.4-2.1c0.4-0.7,1-0.8,1.7-0.3c1.6,1.2,3.5,1.9,5.4,1.9c3.3,0,4.9-1.6,4.9-4.9v-1.6h-0.1
		c-1.3,1.4-3.1,2.1-5.5,2.1c-5.7,0-8.8-3.5-8.8-9.9v-14c0-0.8,0.4-1.2,1.2-1.2H44c0.8,0,1.2,0.4,1.2,1.2v13.5c0,3.5,1.4,5.3,4.3,5.3
		c2.9,0,4.3-1.8,4.3-5.3V16.8c0-0.8,0.4-1.2,1.2-1.2H58.4z"/>
	<path id="XMLID_74_" class="st0" d="M85.1,24.9v14.4c0,0.8-0.4,1.2-1.2,1.2h-3.3c-0.8,0-1.2-0.4-1.2-1.2v-14c0-3.5-1.4-5.3-4.3-5.3
		c-2.9,0-4.3,1.7-4.3,5.3v14c0,0.8-0.4,1.2-1.2,1.2h-3.3c-0.8,0-1.2-0.4-1.2-1.2V6.1c0-0.8,0.4-1.2,1.2-1.2h3.3
		c0.8,0,1.2,0.4,1.2,1.2V17h0.1c1.2-1.3,3.1-2,5.5-2C82,15,85.1,18.5,85.1,24.9z"/>
	<path class="st0" d="M157.4,29.4c0,0.8-0.4,1.2-1.2,1.2H143v-0.4c0,4.2,1.7,5.9,5.5,5.9c1.7,0,3.3-0.6,4.8-1.8
		c0.7-0.6,1.2-0.5,1.7,0.2l1.4,2.1c0.4,0.6,0.4,1.2-0.2,1.7c-2.1,1.9-4.8,2.9-7.9,2.9c-7.4,0-11.1-3.5-11.1-10.5v-5.6
		c0-6.5,3.6-10.1,10.1-10.1c6.5,0,10.1,3.5,10.1,10.1V29.4z M151.9,26.3v-0.8c0-3.7-1.5-5.5-4.5-5.5c-3,0-4.5,1.9-4.5,5.5v0.8H151.9
		z"/>
	<path class="st0" d="M275.7,29.4c0,0.8-0.4,1.2-1.2,1.2h-13.2v-0.4c0,4.2,1.7,5.9,5.5,5.9c1.7,0,3.3-0.6,4.8-1.8
		c0.7-0.6,1.2-0.5,1.7,0.2l1.4,2.1c0.4,0.6,0.4,1.2-0.2,1.7c-2.1,1.9-4.8,2.9-7.9,2.9c-7.4,0-11.1-3.5-11.1-10.5v-5.6
		c0-6.5,3.6-10.1,10.1-10.1c6.5,0,10.1,3.5,10.1,10.1V29.4z M270.2,26.3v-0.8c0-3.7-1.5-5.5-4.4-5.5c-3,0-4.5,1.9-4.5,5.5v0.8H270.2
		z"/>
	<path id="XMLID_69_" class="st0" d="M197.8,5.8c1.7,0,2.9,1.2,2.9,2.9c0,1.8-1.2,2.9-2.9,2.9c-1.8,0-2.9-1.2-2.9-2.9
		C194.9,7.1,196.1,5.8,197.8,5.8z"/>
	<path id="XMLID_68_" class="st0" d="M196.1,40.5c-0.8,0-1.2-0.4-1.2-1.2V16.2c0-0.8,0.4-1.2,1.2-1.2h3.3c0.8,0,1.2,0.4,1.2,1.2
		v23.1c0,0.8-0.4,1.2-1.2,1.2H196.1z"/>
	<path id="XMLID_67_" class="st0" d="M219.9,25.3c0-3.5-1.4-5.3-4.3-5.3c-2.9,0-4.3,1.7-4.3,5.3v14c0,0.8-0.4,1.2-1.2,1.2h-3.3
		c-0.8,0-1.2-0.4-1.2-1.2V24.9c0-6.4,3.5-9.9,10.1-9.9c6.5,0,10.1,3.5,10.1,9.9v14.4c0,0.8-0.4,1.2-1.2,1.2h-3.3
		c-0.8,0-1.2-0.4-1.2-1.2V25.3z"/>
	<path class="st0" d="M249.6,4.9c0.8,0,1.2,0.4,1.2,1.2v25c0,6.5-3.7,10.1-10.3,10.1c-6.6,0-10.3-3.5-10.3-10.1v-6
		c0-6.5,3.3-10.1,9.3-10.1c2.4,0,4.2,0.7,5.5,2.1h0.1v-11c0-0.8,0.4-1.2,1.2-1.2H249.6z M245,25.5c0-3.7-1.5-5.5-4.5-5.5
		c-3,0-4.5,1.9-4.5,5.5v5.1c0,3.7,1.5,5.6,4.5,5.6c3,0,4.5-1.8,4.5-5.6V25.5z"/>
	<path id="XMLID_64_" class="st0" d="M280.3,25c0-6.6,3.1-9.9,9.2-9.9c2.3,0,4.3,0.5,5.9,1.5c0.6,0.4,0.8,1,0.4,1.6l-1.2,2.2
		c-0.3,0.7-0.8,0.8-1.6,0.4c-0.9-0.5-1.9-0.7-2.9-0.7c-2.7,0-4,1.6-4,4.8v14.5c0,0.8-0.4,1.2-1.2,1.2h-3.3c-0.8,0-1.2-0.4-1.2-1.2
		V25z"/>
	<path id="XMLID_63_" class="st0" d="M293.3,38.9c0-0.9,0.7-1.6,1.6-1.6c0.9,0,1.6,0.7,1.6,1.6c0,0.9-0.7,1.6-1.6,1.6
		C294,40.5,293.3,39.8,293.3,38.9z"/>
	<path id="XMLID_62_" class="st0" d="M306.3,38.6c0.2,0.3,0.2,0.5-0.1,0.8c-0.9,0.8-2,1.1-3.2,1.1c-3,0-4.7-1.6-4.7-4.7v-2.3
		c0-3,1.7-4.7,4.6-4.7c1.3,0,2.3,0.3,3.1,0.9c0.3,0.2,0.3,0.4,0.1,0.8l-0.7,0.9c-0.2,0.3-0.5,0.3-0.8,0.1c-0.4-0.3-0.9-0.4-1.5-0.4
		c-1.5,0-2.2,0.9-2.2,2.6v1.9c0,1.8,0.8,2.7,2.3,2.7c0.6,0,1.2-0.2,1.7-0.6c0.3-0.3,0.5-0.2,0.8,0.1L306.3,38.6z"/>
	<path class="st0" d="M316.6,33.4V36c0,2.9-1.6,4.5-4.6,4.5c-3,0-4.6-1.6-4.6-4.5v-2.6c0-2.9,1.6-4.5,4.6-4.5
		C314.9,28.9,316.6,30.5,316.6,33.4z M314,33.6c0-1.6-0.7-2.5-2-2.5c-1.3,0-2,0.8-2,2.5v2.2c0,1.6,0.7,2.5,2,2.5c1.3,0,2-0.8,2-2.5
		V33.6z"/>
	<path id="XMLID_59_" class="st0" d="M333.5,33.3v6.4c0,0.4-0.2,0.5-0.5,0.5h-1.5c-0.4,0-0.5-0.2-0.5-0.5v-6.2
		c0-1.6-0.6-2.3-1.8-2.3c-1.2,0-1.8,0.8-1.8,2.3v6.2c0,0.4-0.2,0.5-0.5,0.5h-1.5c-0.4,0-0.5-0.2-0.5-0.5v-6.2c0-1.6-0.6-2.3-1.9-2.3
		c-1.2,0-1.8,0.8-1.8,2.3v6.2c0,0.4-0.2,0.5-0.5,0.5H319c-0.4,0-0.5-0.2-0.5-0.5v-6.4c0-2.9,1.5-4.4,4.2-4.4c1.5,0,2.5,0.4,3.3,1.3
		h0c0.7-0.9,1.8-1.3,3.2-1.3C332,28.9,333.5,30.5,333.5,33.3z"/>
	<path id="XMLID_58_" class="st0" d="M87.6,47.7L87.6,47.7c1.2,1,3,0.7,3.9-0.5l2.5-3.2c1-1.2,0.7-3-0.5-4c-1.2-1-3-0.7-4,0.5
		l-2.5,3.2C86.2,44.9,86.4,46.7,87.6,47.7z"/>
	<path class="st0" d="M89.9,29.3c0.9,7.2,7.4,12.2,14.6,11.4c7.2-0.9,12.2-7.4,11.4-14.6c-0.9-7.2-7.4-12.2-14.6-11.4
		C94.1,15.6,89,22.1,89.9,29.3z M95.7,28.6c-0.5-4,2.3-7.6,6.3-8.1c4-0.5,7.6,2.3,8.1,6.3c0.5,4-2.3,7.6-6.3,8.1
		C99.8,35.4,96.1,32.5,95.7,28.6z"/>
	<path id="XMLID_55_" class="st0" d="M172.1,35.3c0.8,0,1.3,0.4,1.3,1.3v2.7c0,0.8-0.5,1.3-1.3,1.3H171c-5.6,0-8.3-2.9-8.3-8.9V6.3
		c0-0.8,0.5-1.3,1.3-1.3h3.6c0.8,0,1.3,0.5,1.3,1.3v25.5C168.8,34.2,169.8,35.3,172.1,35.3z"/>
	<path id="XMLID_54_" class="st0" d="M134.1,38.8l-0.7-2.3c-0.2-0.7-0.7-1-1.5-0.7c-0.7,0.3-1.5,0.4-2.2,0.4c-2.5,0-3.8-1.3-3.8-4
		V20h4.9c0.8,0,1.2-0.4,1.2-1.2v-2.5c0-0.8-0.4-1.2-1.2-1.2h-4.9v-5c0-0.8-0.4-1.2-1.2-1.2h-3.3c-0.8,0-1.2,0.4-1.2,1.2v2.8V15v5
		v1.9v10.3c0,6,3,8.9,8.9,8.9c1.8,0,3.3-0.3,4.4-0.8C134.1,40,134.3,39.5,134.1,38.8z"/>
	<path id="XMLID_53_" class="st0" d="M191.6,5.9c-1.5-0.6-3.2-1-5.3-1c-5.9,0-9.1,3.4-9.1,9.6v1.1v5V23v16.3c0,0.8,0.4,1.2,1.2,1.2
		h3.3c0.8,0,1.2-0.4,1.2-1.2V20.2h6.4c0.8,0,1.2-0.4,1.2-1.2v-2.5c0-0.8-0.4-1.2-1.2-1.2H183v-0.8c0-2.9,1.4-4.5,3.9-4.5
		c1,0,1.9,0.2,2.8,0.6c0.7,0.4,1.2,0.2,1.5-0.6l1.1-2.4C192.5,6.7,192.3,6.2,191.6,5.9z"/>
</g>
</svg>
