<?xml version="1.0" encoding="utf-8"?>
<!-- Generator: Adobe Illustrator 19.0.0, SVG Export Plug-In . SVG Version: 6.00 Build 0)  -->
<svg version="1.1" id="Layer_1" xmlns="http://www.w3.org/2000/svg" xmlns:xlink="http://www.w3.org/1999/xlink" x="0px" y="0px"
	 viewBox="-314 292.3 212 12" style="enable-background:new -314 292.3 212 12;" xml:space="preserve">
<style type="text/css">
	.st0{fill:#FFFFFF;}
</style>
<g>
	<path class="st0" d="M-313.9,298.3L-313.9,298.3c0-2.8,2.1-5.1,5.1-5.1c1.8,0,2.9,0.6,3.9,1.5l-1.2,1.3c-0.8-0.7-1.6-1.2-2.7-1.2
		c-1.9,0-3.3,1.5-3.3,3.5l0,0c0,1.9,1.4,3.5,3.3,3.5c1.2,0,2-0.5,2.8-1.3l1.1,1.1c-1,1.1-2.2,1.7-4,1.7
		C-311.8,303.4-313.9,301.2-313.9,298.3z"/>
	<path class="st0" d="M-302.4,298.3L-302.4,298.3c0-2.8,2.1-5.1,5.2-5.1c3,0,5.2,2.3,5.2,5.1l0,0c0,2.8-2.1,5.1-5.2,5.1
		C-300.3,303.4-302.4,301.1-302.4,298.3z M-293.9,298.3L-293.9,298.3c0-1.9-1.4-3.5-3.4-3.5s-3.3,1.6-3.3,3.5l0,0
		c0,1.9,1.4,3.5,3.4,3.5S-293.9,300.2-293.9,298.3z"/>
	<path class="st0" d="M-288.5,293.4h4.4c1.2,0,2.2,0.4,2.9,1c0.5,0.5,0.8,1.3,0.8,2.1l0,0c0,1.6-1,2.6-2.3,3l2.7,3.7h-2.1l-2.4-3.4
		h-2.2v3.4h-1.7v-9.8H-288.5z M-284.2,298.3c1.2,0,2-0.6,2-1.7l0,0c0-1.1-0.8-1.6-2-1.6h-2.5v3.3H-284.2z"/>
	<path class="st0" d="M-276.9,293.4h3.9c2.3,0,3.8,1.3,3.8,3.3l0,0c0,2.2-1.8,3.4-4,3.4h-2v3.2h-1.7V293.4z M-273.2,298.5
		c1.3,0,2.1-0.7,2.1-1.8l0,0c0-1.2-0.8-1.8-2.1-1.8h-2v3.6H-273.2z"/>
	<path class="st0" d="M-266.5,298.3L-266.5,298.3c0-2.8,2.1-5.1,5.2-5.1c3,0,5.2,2.3,5.2,5.1l0,0c0,2.8-2.1,5.1-5.2,5.1
		C-264.4,303.4-266.5,301.1-266.5,298.3z M-258,298.3L-258,298.3c0-1.9-1.4-3.5-3.4-3.5s-3.3,1.6-3.3,3.5l0,0c0,1.9,1.4,3.5,3.4,3.5
		C-259.4,301.8-258,300.2-258,298.3z"/>
	<path class="st0" d="M-252.7,293.4h4.4c1.2,0,2.2,0.4,2.8,1c0.5,0.5,0.8,1.3,0.8,2.1l0,0c0,1.6-1,2.6-2.3,3l2.7,3.7h-2.1l-2.4-3.4
		h-2.2v3.4h-1.7C-252.7,303.2-252.7,293.4-252.7,293.4z M-248.4,298.3c1.2,0,2-0.6,2-1.7l0,0c0-1.1-0.8-1.6-2-1.6h-2.5v3.3H-248.4z"
		/>
	<path class="st0" d="M-237.6,293.3h1.6l4.3,9.9h-1.8l-1-2.4h-4.7l-1,2.4h-1.8L-237.6,293.3z M-235.1,299.3l-1.7-4l-1.7,4H-235.1z"
		/>
	<path class="st0" d="M-227.3,295h-3.1v-1.6h8v1.6h-3.1v8.3h-1.8V295z"/>
	<path class="st0" d="M-219.2,293.4h7.3v1.5h-5.6v2.6h5v1.6h-5v2.7h5.7v1.5h-7.4V293.4z"/>
	<path class="st0" d="M-202.7,293.4h4.4c1.2,0,2.2,0.4,2.9,1c0.5,0.5,0.8,1.3,0.8,2.1l0,0c0,1.6-1,2.6-2.3,3l2.7,3.7h-2.1l-2.4-3.4
		h-2.3v3.4h-1.7V293.4z M-198.4,298.3c1.2,0,2-0.6,2-1.7l0,0c0-1.1-0.8-1.6-2-1.6h-2.6v3.3H-198.4z"/>
	<path class="st0" d="M-191.5,298.3L-191.5,298.3c0-2.8,2.1-5.1,5.2-5.1s5.2,2.3,5.2,5.1l0,0c0,2.8-2.1,5.1-5.2,5.1
		S-191.5,301.1-191.5,298.3z M-183,298.3L-183,298.3c0-1.9-1.4-3.5-3.4-3.5s-3.3,1.6-3.3,3.5l0,0c0,1.9,1.4,3.5,3.4,3.5
		C-184.4,301.8-183,300.2-183,298.3z"/>
	<path class="st0" d="M-178.1,298.3L-178.1,298.3c0-2.8,2.1-5.1,5.2-5.1c3,0,5.2,2.3,5.2,5.1l0,0c0,2.8-2.1,5.1-5.2,5.1
		S-178.1,301.1-178.1,298.3z M-169.6,298.3L-169.6,298.3c0-1.9-1.4-3.5-3.4-3.5s-3.3,1.6-3.3,3.5l0,0c0,1.9,1.4,3.5,3.4,3.5
		C-171,301.8-169.6,300.2-169.6,298.3z"/>
	<path class="st0" d="M-164.3,293.4h1.8l3,4.7l3-4.7h1.9v9.9h-1.7v-7.1l-3.1,4.7h-0.1l-3.1-4.6v7.1h-1.7L-164.3,293.4L-164.3,293.4z
		"/>
	<path class="st0" d="M-145.1,293.4h3.9c3.1,0,5.2,2.1,5.2,4.9l0,0c0,2.8-2.1,4.9-5.2,4.9h-3.9V293.4z M-142.9,295.3v6h1.7
		c1.8,0,3-1.2,3-3l0,0c0-1.8-1.2-3-3-3H-142.9z"/>
	<path class="st0" d="M-132.6,293.4h7.5v1.9h-5.3v2h4.7v1.9h-4.7v2.1h5.4v1.9h-7.5L-132.6,293.4L-132.6,293.4z"/>
	<path class="st0" d="M-118.4,293.3h2l4.2,9.9h-2.3l-0.9-2.2h-4.2l-0.9,2.2h-2.2L-118.4,293.3z M-116.1,299.1l-1.3-3.2l-1.3,3.2
		H-116.1z"/>
	<path class="st0" d="M-109.2,293.4h2.2v7.9h4.9v2h-7.1L-109.2,293.4L-109.2,293.4z"/>
</g>
</svg>
