<?xml version="1.0" encoding="utf-8"?>
<!-- Generator: Adobe Illustrator 19.0.0, SVG Export Plug-In . SVG Version: 6.00 Build 0)  -->
<svg version="1.1" xmlns="http://www.w3.org/2000/svg" xmlns:xlink="http://www.w3.org/1999/xlink" x="0px" y="0px"
	 viewBox="0 0 31 31" style="enable-background:new 0 0 31 31;" xml:space="preserve">
<style type="text/css">
	.st0{fill:#FFFFFF;}
	.st1{display:none;}
	.st2{display:inline;}
	.st3{fill-rule:evenodd;clip-rule:evenodd;fill:#FFFFFF;}
</style>
<g id="Layer_1">
	<g>
		<g>
			<path class="st0" d="M25.5,10.3c0,0.5,0,1.1,0,1.6c0,0.1,0,0.1,0,0.2c-0.1,1.3-0.4,2.5-1.1,3.6c-0.3,0.5-0.6,1-0.8,1.4
				c-2.4,4.1-5,8.1-7.6,12.1c-0.1,0.2-0.3,0.4-0.4,0.7c-0.2-0.3-0.4-0.6-0.6-1c-2.5-3.9-5-7.8-7.4-11.8c-0.4-0.7-0.9-1.4-1.2-2.2
				c-0.6-1.4-0.9-2.9-0.8-4.4c0.1-1.5,0.5-3,1.2-4.3c1.7-2.9,4.1-4.6,7.4-5.1c0.3,0,0.6-0.1,0.9-0.1c0.3,0,0.5,0,0.8,0
				c0.1,0,0.1,0,0.2,0c0.8,0,1.6,0.2,2.3,0.4c3.7,1.2,6.1,3.8,6.9,7.7C25.4,9.5,25.4,9.9,25.5,10.3z M15.5,15.5c2.4,0,4.4-2,4.4-4.4
				c0-2.4-2-4.4-4.4-4.4c-2.4,0-4.4,2-4.4,4.4C11.1,13.5,13.1,15.5,15.5,15.5z"/>
		</g>
	</g>
</g>
<g id="Layer_2" class="st1">
	<g class="st2">
		<g>
			<path id="XMLID_7_" class="st3" d="M29.6,27.2c-0.5,0.4-1.1,0.6-1.7,0.6c-8.2,0-16.5,0-24.7,0c-0.6,0-1.1-0.2-1.7-0.6
				c0.4-0.3,0.9-0.7,1.3-1c2-1.5,3.9-3,5.9-4.4c0.2-0.1,0.3-0.3,0.3-0.5c-0.1-0.3-0.4-0.4-0.7-0.1c-0.9,0.7-1.9,1.4-2.8,2.1
				c-1.5,1.1-2.9,2.2-4.4,3.3c0,0-0.1,0.1-0.2,0.1c-0.3-0.5-0.5-0.9-0.5-1.5c0-3.9,0-7.8,0-11.6c0-0.4,0.1-0.7,0.2-1.2
				c0.5,0.4,1,0.7,1.4,1.1c3.7,2.8,7.4,5.5,11,8.3c1,0.8,2.2,1.1,3.4,0.7c0.5-0.1,0.9-0.4,1.3-0.7c4-3,8.1-6,12.1-9.1
				c0.1-0.1,0.2-0.1,0.3-0.2c0.1,0.4,0.2,0.8,0.2,1.1c0,2.2,0,4.4,0,6.6c0,1.7,0,3.5,0,5.2c0,0.5-0.2,0.9-0.4,1.3
				c-0.2-0.2-0.5-0.3-0.7-0.5c-2.1-1.6-4.3-3.2-6.4-4.8c-0.1-0.1-0.2-0.1-0.3-0.2c-0.2-0.1-0.4-0.1-0.5,0.1
				c-0.1,0.2-0.1,0.4,0.1,0.5c0.1,0.1,0.1,0.1,0.2,0.2c2.3,1.7,4.7,3.5,7,5.2C29.5,27.1,29.5,27.1,29.6,27.2z"/>
			<path id="XMLID_6_" class="st3" d="M29.2,11.3c-1.3,1-2.5,1.9-3.8,2.9c0-0.1,0-0.2,0-0.3c0-0.4,0-0.8,0-1.2
				c0-1.4-0.8-2.2-2.2-2.2c-1.7,0-3.3,0-5,0c-3.5,0-6.9,0-10.4,0c-0.6,0-1.2,0.1-1.7,0.6c-0.3,0.4-0.5,0.8-0.5,1.3
				c0,0.6,0,1.1,0,1.8c-1.3-1-2.6-1.9-3.9-2.9c0.7-0.4,1.3-0.9,2-1.3c3.2-2,6.4-4,9.6-6.1c1.5-0.9,2.9-0.9,4.4,0
				c3.7,2.4,7.5,4.8,11.2,7.1C29,11.2,29.1,11.2,29.2,11.3z"/>
			<path id="XMLID_5_" class="st3" d="M15.5,15.5c-1,0-2,0-2.9,0c0,0-0.1,0-0.1,0c-0.3,0-0.5-0.2-0.5-0.4c0-0.3,0.2-0.4,0.5-0.4
				c0.3,0,0.6,0,0.9,0c1.7,0,3.3,0,5,0c0.1,0,0.2,0,0.3,0c0.1,0.1,0.3,0.3,0.3,0.4c0,0.1-0.2,0.3-0.3,0.4c-0.1,0.1-0.2,0-0.3,0
				C17.4,15.5,16.4,15.5,15.5,15.5L15.5,15.5z"/>
			<path id="XMLID_4_" class="st3" d="M15.5,16.8c1,0,1.9,0,2.9,0c0.1,0,0.3,0,0.3,0c0.1,0.1,0.2,0.2,0.2,0.4c0,0.1-0.1,0.3-0.3,0.3
				c-0.1,0.1-0.3,0-0.4,0c-1.9,0-3.9,0-5.8,0c-0.1,0-0.1,0-0.2,0c-0.2,0-0.4-0.1-0.4-0.4c0-0.3,0.2-0.4,0.4-0.4c0.6,0,1.2,0,1.9,0
				C14.7,16.8,15.1,16.8,15.5,16.8z"/>
			<path id="XMLID_3_" class="st3" d="M15.5,13.5c-1,0-2,0-3,0c-0.1,0-0.2,0-0.3,0c-0.1-0.1-0.3-0.2-0.2-0.4c0-0.1,0.2-0.3,0.3-0.4
				c0.1-0.1,0.2,0,0.3,0c2,0,3.9,0,5.9,0c0.1,0,0.1,0,0.2,0c0.2,0,0.4,0.2,0.3,0.4c0,0.1-0.2,0.3-0.3,0.4c-0.1,0.1-0.3,0-0.5,0
				C17.2,13.5,16.4,13.5,15.5,13.5L15.5,13.5z"/>
		</g>
	</g>
</g>
<g id="Layer_3" class="st1">
	<g class="st2">
		<g>
			<path class="st3" d="M1.1,26.3c0.1,0.1,0.2,0.2,0.3,0.3c0.7,0.6,1.4,0.9,2.3,0.9c0.9,0,1.7,0,2.6,0c2.2,0,3.7-1.5,3.7-3.7
				c0-6.7,0-13.4,0-20.1c0-1.4,0.8-2.2,2.2-2.2c3.3,0,6.6,0,9.9,0c0.5,0,1,0.2,1.4,0.6c1.3,1.3,2.6,2.6,3.9,3.9
				C27.8,6.4,28,6.8,28,7.3c0,0.8,0,1.7,0,2.5c0,0.2,0.1,0.3,0.2,0.5c1.2,0.8,1.8,1.9,1.8,3.3c0,3.9,0,7.8,0,11.8
				c0,2.4-1.7,4.1-4.1,4.1c-6.9,0-13.8,0-20.7,0c-1.9,0-3.4-1.2-3.9-2.9C1.2,26.5,1.2,26.4,1.1,26.3z M22,3.5c-0.1,0-0.2,0-0.3,0
				c-3,0-6.1,0-9.1,0c-0.5,0-0.5,0.1-0.5,0.5c0,2.7,0,5.4,0,8.1c0,0.1,0,0.2,0,0.3c4.7,0,9.3,0,14,0c0-1.7,0-3.3,0-5
				c-0.1,0-0.1,0-0.1,0c-0.7,0-1.5,0-2.2,0c-1.1,0-1.7-0.6-1.7-1.7C22,5.1,22,4.3,22,3.5z M23,23.5L23,23.5c-0.2,0-0.5,0-0.7,0
				c-0.2,0-0.3,0.1-0.3,0.3c0,0.5,0,1,0,1.4c0,0.2,0.1,0.3,0.3,0.3c0.5,0,1,0,1.4,0c0.2,0,0.3-0.1,0.3-0.3c0-0.5,0-1,0-1.4
				c0-0.2-0.1-0.3-0.3-0.3C23.5,23.5,23.2,23.5,23,23.5z M20,24.5c0-0.2,0-0.5,0-0.7c0-0.2-0.1-0.3-0.3-0.3c-0.5,0-0.9,0-1.4,0
				c-0.2,0-0.3,0.1-0.3,0.3c0,0.5,0,1,0,1.4c0,0.2,0.1,0.3,0.3,0.3c0.5,0,0.9,0,1.4,0c0.2,0,0.3-0.1,0.3-0.3
				C20,24.9,20,24.7,20,24.5z M14,24.5c0,0.2,0,0.5,0,0.7c0,0.2,0.1,0.3,0.3,0.3c0.5,0,0.9,0,1.4,0c0.2,0,0.3-0.1,0.3-0.3
				c0-0.5,0-1,0-1.4c0-0.2-0.1-0.3-0.3-0.3c-0.5,0-0.9,0-1.4,0c-0.2,0-0.3,0.1-0.3,0.3C14,24,14,24.2,14,24.5z M24,20.5
				c0-0.2,0-0.5,0-0.7c0-0.2-0.1-0.3-0.3-0.3c-0.5,0-1,0-1.4,0c-0.2,0-0.3,0.1-0.3,0.3c0,0.5,0,1,0,1.4c0,0.2,0.1,0.3,0.3,0.3
				c0.5,0,1,0,1.4,0c0.2,0,0.3-0.1,0.3-0.3C24,21,24,20.7,24,20.5z M19,19.5c-0.2,0-0.5,0-0.7,0c-0.2,0-0.3,0.1-0.3,0.3
				c0,0.5,0,0.9,0,1.4c0,0.2,0.1,0.3,0.3,0.3c0.5,0,1,0,1.4,0c0.2,0,0.3-0.1,0.3-0.3c0-0.5,0-1,0-1.4c0-0.2-0.1-0.3-0.3-0.3
				C19.5,19.5,19.2,19.5,19,19.5z M14,20.5c0,0.2,0,0.4,0,0.7c0,0.2,0.1,0.4,0.3,0.4c0.4,0,0.9,0,1.3,0c0.3,0,0.4-0.1,0.3-0.4
				c0-0.4,0-0.9,0-1.3c0-0.2-0.1-0.3-0.3-0.3c-0.5,0-0.9,0-1.4,0c-0.2,0-0.3,0.1-0.3,0.3C14,20,14,20.3,14,20.5z M23,17.5
				c0.2,0,0.5,0,0.7,0c0.2,0,0.3-0.1,0.3-0.3c0-0.5,0-1,0-1.5c0-0.1-0.2-0.3-0.3-0.3c-0.5,0-1,0-1.5,0c-0.2,0-0.3,0.1-0.3,0.3
				c0,0.5,0,1,0,1.4c0,0.2,0.1,0.3,0.3,0.3C22.5,17.5,22.8,17.5,23,17.5z M20,16.5c0-0.2,0-0.5,0-0.7c0-0.2-0.1-0.3-0.3-0.3
				c-0.5,0-0.9,0-1.4,0c-0.2,0-0.3,0.1-0.3,0.3c0,0.5,0,1,0,1.4c0,0.2,0.1,0.3,0.3,0.3c0.5,0,0.9,0,1.4,0c0.2,0,0.3-0.1,0.3-0.3
				C20,17,20,16.7,20,16.5z M16,16.5c0-0.2,0-0.5,0-0.7c0-0.2-0.1-0.3-0.3-0.3c-0.5,0-0.9,0-1.4,0c-0.2,0-0.3,0.1-0.3,0.3
				c0,0.5,0,0.9,0,1.4c0,0.2,0.1,0.3,0.3,0.3c0.5,0,0.9,0,1.4,0c0.2,0,0.3-0.1,0.3-0.3C16,17,16,16.7,16,16.5z"/>
			<path id="XMLID_11_" class="st3" d="M9,16c0,2.5,0,5,0,7.5c0,1.1-0.5,2-1.4,2.5c-0.4,0.2-0.8,0.4-1.3,0.4c-0.9,0.1-1.8,0.1-2.7,0
				C2.1,26.2,1,25,1,23.5c0-3.7,0-7.4,0-11.1c0-1.3,0-2.6,0-3.8C1.1,7.1,2,6,3.3,5.6c0.1,0,0.3-0.1,0.4-0.1c0.9,0,1.8-0.1,2.7,0
				C8,5.8,9,7,9,8.6C9,11,9,13.5,9,16z"/>
			<path id="XMLID_10_" class="st3" d="M24,8.5c0,0.3,0,0.6,0,0.9c-3.3,0-6.6,0-9.9,0c0-0.3,0-0.6,0-0.9C17.3,8.5,20.6,8.5,24,8.5z"
				/>
			<path id="XMLID_9_" class="st3" d="M24,10.5c0,0.3,0,0.6,0,0.9c-3.3,0-6.6,0-9.9,0c0-0.3,0-0.6,0-0.9
				C17.3,10.5,20.6,10.5,24,10.5z"/>
			<path id="XMLID_8_" class="st3" d="M14,6.5c0-0.3,0-0.6,0-0.9c2,0,3.9,0,5.9,0c0,0.3,0,0.6,0,0.9C18,6.5,16,6.5,14,6.5z"/>
		</g>
	</g>
</g>
</svg>
