<?xml version="1.0" encoding="utf-8"?>
<!-- Generator: Adobe Illustrator 19.0.0, SVG Export Plug-In . SVG Version: 6.00 Build 0)  -->
<svg version="1.1" id="Layer_1" xmlns="http://www.w3.org/2000/svg" xmlns:xlink="http://www.w3.org/1999/xlink" x="0px" y="0px"
	 viewBox="50 31 300 40" style="enable-background:new 50 31 300 40;" xml:space="preserve">
<style type="text/css">
	.st0{fill:#FAD933;}
	.st1{fill:#276834;}
</style>
<g>
	<g>
		<path class="st0" d="M82,43.9c-0.7,0-1.3-0.3-1.8-0.8c-1-1-1-2.7,0-3.7l7.4-7.4l7.2,7.2c1,1,1,2.7,0,3.7c-1,1-2.6,1-3.7,0
			l-3.6-3.6l-3.8,3.8C83.3,43.6,82.6,43.9,82,43.9"/>
		<path class="st1" d="M83.6,58.5c0.1-0.3,0.2-0.5,0.2-0.8c0.1-0.2,0.3-1.8,0.3-1.8c-0.2-0.2-0.4-0.3-0.5-0.3c-0.1,0-0.2,0-0.3,0
			c-0.1,0-0.2,0.1-0.4,0.1c-0.1,0.1-0.3,0.1-0.6,0.1c-0.2,0-0.4,0-0.6-0.1c-0.2-0.1-0.2-0.2-0.2-0.5v-1.1l1.4-7.9
			c-0.1-0.1-0.2-0.2-0.4-0.3c-0.2-0.1-0.4-0.1-0.6-0.1h-0.8c-0.2,0-0.5,0-0.7,0c-0.2,0-0.5,0-0.7,0c-0.2,0-0.5,0-0.8,0
			c-0.1,0.2-0.2,0.3-0.2,0.4c0,0.1-0.1,0.1-0.2,0.1c-0.1,0-0.3,0-0.5-0.1c-0.2-0.1-0.4-0.2-0.7-0.3c-0.2-0.1-0.5-0.2-0.8-0.3
			c-0.3-0.1-0.6-0.1-1-0.1c-0.9,0-1.8,0.2-2.7,0.7c-0.9,0.5-1.6,1.1-2.3,1.9c-0.7,0.8-1.2,1.8-1.7,2.8c-0.4,1.1-0.6,2.2-0.6,3.4
			c0,0.9,0.2,1.8,0.5,2.4c0.3,0.7,0.7,1.2,1.2,1.6c0.5,0.4,1,0.7,1.5,0.9c0.5,0.2,0.9,0.3,1.3,0.3h1c0.4,0,0.8-0.1,1.3-0.3
			c0.4-0.2,0.9-0.4,1.2-0.6c0.4-0.2,0.8-0.5,1.3-0.8c0.1,0,0.2,0.1,0.3,0.3c0.1,0.2,0.3,0.4,0.5,0.6c0.2,0.2,0.6,0.5,0.9,0.6
			c0.4,0.2,0.9,0.3,1.5,0.3c0.6,0,1-0.1,1.4-0.2c0.4-0.1,0.7-0.3,0.9-0.5C83.3,59,83.5,58.8,83.6,58.5z M77.3,52.6
			c-0.2,0.5-0.4,1-0.6,1.5c-0.3,0.5-0.6,0.9-1,1.3c-0.4,0.4-0.9,0.5-1.4,0.5c-0.3,0-0.5-0.1-0.7-0.2c-0.2-0.1-0.3-0.3-0.5-0.4
			c-0.1-0.2-0.2-0.4-0.3-0.6c-0.1-0.2-0.1-0.4-0.1-0.7c0-0.4,0.1-0.8,0.3-1.3c0.2-0.5,0.4-1,0.7-1.4c0.3-0.5,0.7-0.8,1.1-1.2
			c0.4-0.3,0.8-0.5,1.3-0.5c0.4,0,0.8,0.2,1,0.5c0.3,0.4,0.4,0.8,0.4,1.3C77.5,51.7,77.5,52.1,77.3,52.6z M185.4,55.7
			c-0.2,0.1-0.3,0.2-0.5,0.2c-0.2,0.1-0.3,0.1-0.5,0.1c-0.4,0-0.7-0.1-0.8-0.3c-0.1-0.2-0.1-0.4-0.1-0.7l1.1-7.9v-0.4h-0.6
			c0,0-0.2,0-0.3,0.1c-0.2,0-0.4,0.1-0.6,0.1c-0.2,0-0.4,0.1-0.6,0.1c-0.2,0-0.3,0-0.3,0h-3c-0.2,0-0.3,0-0.4-0.1
			c-0.1-0.1-0.1-0.2-0.1-0.3c0-0.1,0-0.3-0.1-0.4c0-0.1-0.1-0.3-0.1-0.4c-0.1-0.1-0.2-0.2-0.4-0.3c-0.2-0.1-0.4-0.1-0.8-0.1
			c-0.3,0-0.7,0-1,0c-0.3,0-0.6,0.1-0.9,0.3c-0.2,0.2-0.4,0.5-0.6,0.9c-0.1,0.4-0.2,1-0.2,1.8c0,0.3,0,0.5,0.1,0.7
			c0.1,0.2,0.1,0.4,0.2,0.6c0.1,0.2,0.2,0.3,0.2,0.4c0.1,0.1,0.1,0.3,0.1,0.4c0,0.1,0,0.3-0.1,0.6c-0.1,0.3-0.1,0.6-0.2,1
			c-0.1,0.4-0.2,0.8-0.3,1.2c-0.1,0.4-0.2,0.9-0.3,1.2c-0.1,0.4-0.2,0.7-0.3,1c0,0,0,0,0,0c-0.1,0-0.3,0.1-0.5,0.1
			c-0.2,0-0.4,0-0.6-0.1c-0.2-0.1-0.2-0.2-0.2-0.5v-1.1l1.4-7.9c-0.1-0.1-0.2-0.2-0.4-0.3c-0.2-0.1-0.4-0.1-0.6-0.1h-0.8
			c-0.2,0-0.5,0-0.7,0c-0.2,0-0.5,0-0.7,0c-0.2,0-0.5,0-0.8,0c-0.1,0.2-0.2,0.3-0.2,0.4c0,0.1-0.1,0.1-0.2,0.1c-0.1,0-0.3,0-0.5-0.1
			c-0.2-0.1-0.4-0.2-0.7-0.3c-0.2-0.1-0.5-0.2-0.8-0.3c-0.3-0.1-0.6-0.1-1-0.1c-0.9,0-1.8,0.2-2.7,0.7c-0.9,0.5-1.6,1.1-2.3,1.9
			c-0.7,0.8-1.2,1.8-1.7,2.8c-0.4,1.1-0.6,2.2-0.6,3.4c0,0.3,0,0.7,0.1,1h-0.1c-0.3,0.2-0.5,0.3-0.6,0.3c-0.2,0.1-0.3,0.1-0.5,0.1
			c-0.4,0-0.6-0.1-0.7-0.3c-0.1-0.2-0.1-0.5-0.1-0.9c0-0.2,0-0.4,0-0.5c0-0.1,0-0.2,0-0.3v-0.3c0-0.1,0-0.4,0-0.6
			c0-0.5,0.1-0.9,0.1-1.2c0.1-0.3,0.1-0.6,0.2-1.3c0-0.2,0-0.6,0-1.2c0-0.6-0.1-1.1-0.2-1.5c-0.1-0.4-0.3-0.7-0.5-1
			c-0.2-0.3-0.4-0.5-0.7-0.7c-0.2-0.2-0.5-0.3-0.7-0.4c-0.2-0.1-0.4-0.1-0.5-0.2c-0.1,0-0.2,0-0.2,0h-1.2c-0.5,0-1,0.1-1.4,0.3
			c-0.4,0.2-0.8,0.5-1.1,0.8c-0.3,0.3-0.6,0.6-0.9,0.9c-0.3,0.3-0.6,0.5-0.9,0.6c-0.1-0.2-0.3-0.4-0.4-0.7c-0.2-0.3-0.4-0.6-0.6-0.8
			c-0.3-0.3-0.6-0.5-1-0.7c-0.4-0.2-0.9-0.3-1.5-0.3c-0.6,0-1.2,0.1-1.7,0.3c-0.5,0.2-0.9,0.5-1.3,0.8s-0.7,0.6-0.9,0.9
			c-0.3,0.3-0.5,0.5-0.7,0.6v-2.2h-3.3c-0.3,0-0.5,0.1-0.6,0.4c-0.1,0.3-0.2,0.6-0.2,1.2c0,0.5-0.1,1.2-0.1,1.9
			c0,0.8-0.1,1.7-0.3,2.7c-0.1,0.9-0.2,1.7-0.3,2.4c0,0.4-0.1,0.8-0.1,1.1c-0.1,0-0.1-0.1-0.2-0.1c-0.1,0-0.2,0-0.3,0
			c-0.1,0-0.2,0.1-0.4,0.1c-0.1,0.1-0.3,0.1-0.6,0.1c-0.2,0-0.4,0-0.6-0.1c-0.2-0.1-0.2-0.2-0.2-0.5v-1.1l1.4-7.9
			c-0.1-0.1-0.2-0.2-0.4-0.3c-0.2-0.1-0.4-0.1-0.6-0.1H134c-0.2,0-0.5,0-0.7,0c-0.2,0-0.5,0-0.7,0c-0.2,0-0.5,0-0.8,0
			c-0.1,0.2-0.2,0.3-0.2,0.4c0,0.1-0.1,0.1-0.2,0.1c-0.1,0-0.3,0-0.5-0.1c-0.2-0.1-0.4-0.2-0.7-0.3c-0.2-0.1-0.5-0.2-0.8-0.3
			c-0.3-0.1-0.6-0.1-1-0.1c-0.9,0-1.8,0.2-2.7,0.7c-0.9,0.5-1.6,1.1-2.3,1.9c-0.7,0.8-1.2,1.8-1.7,2.8c-0.4,1.1-0.6,2.2-0.6,3.4
			c0,0.6,0.1,1.1,0.2,1.6c-0.1,0-0.2,0-0.3,0c-0.2,0-0.3-0.1-0.5-0.2c-0.2-0.1-0.4-0.3-0.7-0.7c-0.3-0.4-0.6-0.8-1-1.2
			c-0.4-0.5-0.7-1-1.1-1.5c-0.4-0.5-0.7-1-1-1.5c-0.3-0.5-0.6-0.8-0.8-1.2c-0.2-0.3-0.3-0.5-0.4-0.6L125,38h-4.4
			c-0.2,0-0.4,0.1-0.6,0.3c-0.3,0.2-0.5,0.5-0.8,0.7c-0.2,0.3-0.5,0.5-0.7,0.8c-0.2,0.3-0.3,0.4-0.4,0.5c0,0-0.2,0.2-0.5,0.5
			c-0.3,0.3-0.7,0.8-1.1,1.3c-0.5,0.5-1,1.1-1.5,1.7c-0.5,0.6-1,1.1-1.5,1.7c-0.5,0.5-0.9,1-1.3,1.3c-0.4,0.4-0.6,0.6-0.6,0.6
			l-0.1-0.2v-0.4l0.9-8.1c0-0.1-0.1-0.2-0.1-0.3c0-0.1-0.1-0.1-0.1-0.1c-0.1,0-0.1,0-0.2,0c-0.1,0-0.2,0-0.4,0h-3.3l-1.9,17.6
			c-0.1-0.1-0.2-0.1-0.2-0.1c-0.1,0-0.2,0-0.3,0c-0.1,0-0.2,0.1-0.4,0.1c-0.1,0.1-0.3,0.1-0.6,0.1c-0.2,0-0.4,0-0.6-0.1
			c-0.2-0.1-0.2-0.2-0.2-0.5v-1.1l1.4-7.9c-0.1-0.1-0.2-0.2-0.4-0.3c-0.2-0.1-0.4-0.1-0.6-0.1h-0.8c-0.2,0-0.5,0-0.7,0
			c-0.2,0-0.5,0-0.7,0c-0.2,0-0.5,0-0.8,0c-0.1,0.2-0.2,0.3-0.2,0.4c0,0.1-0.1,0.1-0.2,0.1c-0.1,0-0.3,0-0.5-0.1
			c-0.2-0.1-0.4-0.2-0.7-0.3c-0.2-0.1-0.5-0.2-0.8-0.3c-0.3-0.1-0.6-0.1-1-0.1c-0.9,0-1.8,0.2-2.7,0.7c-0.9,0.5-1.6,1.1-2.3,1.9
			c-0.7,0.8-1.2,1.8-1.7,2.8c-0.4,1.1-0.6,2.2-0.6,3.4c0,0.1,0,0.2,0,0.3h0c-0.4,0.2-0.7,0.3-1,0.4c-0.3,0.1-0.6,0.2-0.9,0.2v-1
			c0-0.5,0.8-8.9,0.8-8.9h-3.8c0,0,0,0,0,0l-0.8,0c0,0-0.6,0.4-0.4,0.8c0.1,0.3,1,0.6,1.1,1c0,0,0,0.1,0,0.1c0,0.2,0,0.3-0.1,0.5
			c-0.2,1.4-0.4,3.3-0.6,5.8c-0.1,1.3-0.8,6.5-0.9,7.4c-0.2,0.8-0.3,2-0.5,2.5c-0.2,0.5-0.3,0.9-0.5,1.2c-0.2,0.3-0.3,0.5-0.4,0.7
			c-0.1,0.2-0.2,0.4-0.3,0.6c-0.1,0.2-0.1,0.5-0.1,0.8v1.6c0,0.3,0.1,0.7,0.2,1c0.1,0.3,0.3,0.5,0.6,0.5h2.9
			c0.3-0.3,0.5-0.7,0.7-1.1c0.2-0.4,0.3-0.8,0.5-1.2c0.1-0.4,0.2-0.8,0.3-1.1c0.1-0.4,0.6-5.5,0.6-5.7c0-0.3,0.1-0.6,0.3-0.8
			c0.2-0.2,0.3-0.3,0.5-0.4c0.2-0.1,0.4-0.2,0.7-0.3c0.3-0.1,0.5-0.2,0.7-0.3c0.2-0.1,0.4-0.3,0.6-0.6c0.2-0.2,0.3-0.6,0.3-1v-0.8
			c0,0.1,0.1,0.2,0.1,0.3c0.3,0.7,0.7,1.2,1.2,1.6c0.5,0.4,1,0.7,1.5,0.9c0.5,0.2,0.9,0.3,1.3,0.3h1c0.4,0,0.8-0.1,1.3-0.3
			c0.4-0.2,0.9-0.4,1.2-0.6c0.4-0.2,0.8-0.5,1.3-0.8c0.1,0,0.2,0.1,0.3,0.3c0.1,0.2,0.3,0.4,0.5,0.6c0.2,0.2,0.6,0.5,0.9,0.6
			c0.4,0.2,0.9,0.3,1.5,0.3c0.6,0,1-0.1,1.4-0.2c0.4-0.1,0.7-0.3,0.9-0.5c0.2-0.2,0.4-0.5,0.5-0.7c0-0.1,0-0.1,0.1-0.2l-0.1,1.1
			c0,0,0,0.1,0,0.1c0,0,0,0.1,0,0.1c0,0,0.1,0.1,0.2,0.1c0.1,0,0.3,0,0.5,0h3.6l0.8-8.7h0.3c0.4,0.5,0.8,1.1,1.3,1.7
			c0.4,0.6,0.9,1.3,1.4,2c0.5,0.7,1,1.3,1.5,2c0.5,0.7,1.1,1.2,1.6,1.7c0.5,0.5,1.1,0.9,1.7,1.2c0.6,0.3,1.1,0.5,1.7,0.5h1
			c0.2,0,0.4,0,0.6-0.1c0.2-0.1,0.4-0.1,0.6-0.2c0.2-0.1,0.3-0.2,0.4-0.2c0.1-0.1,0.2-0.1,0.2-0.2c-0.1-0.3-0.1-0.5-0.2-0.7
			c0.4,0.3,0.8,0.6,1.2,0.7c0.5,0.2,0.9,0.3,1.3,0.3h1c0.4,0,0.8-0.1,1.3-0.3c0.4-0.2,0.9-0.4,1.2-0.6c0.4-0.2,0.8-0.5,1.3-0.8
			c0.1,0,0.2,0.1,0.3,0.3c0.1,0.2,0.3,0.4,0.5,0.6c0.2,0.2,0.6,0.5,0.9,0.6c0.4,0.2,0.9,0.3,1.5,0.3c0.6,0,1-0.1,1.4-0.2
			c0.4-0.1,0.7-0.3,0.9-0.5c0.2-0.2,0.4-0.5,0.5-0.7c0-0.1,0.1-0.2,0.1-0.2c0,0.2-0.1,0.4-0.1,0.6v1h3.3c0.2,0,0.4,0,0.5-0.1
			c0.1-0.1,0.1-0.2,0.2-0.4c0-0.2,0.1-0.4,0.1-0.7c0-0.3,0.1-0.7,0.1-1.1c0.2-1,0.4-1.9,0.6-2.6c0.3-0.7,0.5-1.4,0.8-1.9
			c0.3-0.5,0.6-0.9,0.9-1.3c0.3-0.3,0.6-0.6,0.8-0.7c0.2-0.2,0.4-0.3,0.6-0.4c0.2-0.1,0.2-0.1,0.3-0.1c0.3,0,0.5,0.1,0.7,0.2
			c0.2,0.2,0.3,0.4,0.3,0.8c0,0.4,0,1-0.1,1.6c-0.1,0.6-0.2,1.3-0.3,1.9c-0.1,0.6-0.2,1.3-0.4,2.2v2.4h3.2c0.2,0,0.3-0.2,0.5-0.7
			c0.2-0.5,0.3-1,0.5-1.7c0.2-0.7,0.4-1.4,0.6-2.3c0.2-0.8,0.5-1.6,0.8-2.3c0.3-0.7,0.7-1.3,1.1-1.7c0.4-0.5,0.9-0.7,1.5-0.7
			c0.3,0,0.5,0.1,0.6,0.3c0.1,0.2,0.2,0.5,0.2,0.9c0,0.2,0,0.5-0.1,0.9c0,0.4-0.1,0.9-0.2,1.3c-0.1,0.4-0.1,1-0.2,1.7v1.4
			c0,0.3,0.1,0.7,0.3,1.1c0.2,0.4,0.4,0.7,0.7,1c0.3,0.3,0.6,0.6,1,0.8c0.4,0.2,0.7,0.3,1.1,0.3h1c0.8,0,1.3-0.1,1.7-0.4
			c0.3-0.3,0.5-0.6,0.6-1c0.1-0.4,0.2-0.8,0.2-1.2c0-0.3,0-0.6,0.1-0.8c0.1,0.1,0.1,0.3,0.2,0.4c0.3,0.7,0.7,1.2,1.2,1.6
			c0.5,0.4,1,0.7,1.5,0.9c0.5,0.2,0.9,0.3,1.3,0.3h1c0.4,0,0.8-0.1,1.3-0.3c0.4-0.2,0.9-0.4,1.2-0.6c0.4-0.2,0.8-0.5,1.3-0.8
			c0.1,0,0.2,0.1,0.3,0.3c0.1,0.2,0.3,0.4,0.5,0.6c0.2,0.2,0.6,0.5,0.9,0.6c0.4,0.2,0.9,0.3,1.5,0.3c0.4,0,0.7,0,1-0.1c0,0,0,0,0,0
			c0.2,0,0.9,0,1.7-0.5c1.7-1,1.9-1.5,2.1-2c0.1-0.3,0.2-0.7,0.3-1.4c0.1-0.4,0.3-1.1,0.4-1.5c0.1-0.4,0.2-0.9,0.3-1.4
			c0.1-0.5,0.2-0.9,0.3-1.3c0.1-0.4,0.2-0.7,0.4-0.9c0.2-0.2,0.3-0.3,0.6-0.3h0.4c0.1,0,0.3,0,0.4,0.1c0.1,0,0.2,0.1,0.3,0.2
			c0.1,0.1,0.1,0.2,0.2,0.4l-0.6,4.3V57c0,0.3,0.1,0.6,0.2,0.9c0.1,0.3,0.3,0.6,0.6,0.9c0.3,0.3,0.6,0.5,1,0.7
			c0.4,0.2,0.8,0.3,1.3,0.3c0.6,0,1.1,0,1.4-0.1c0.4-0.1,0.6-0.2,0.8-0.4c0.2-0.2,0.3-0.4,0.4-0.6c0.1-0.2,0.1-0.5,0.1-0.8
			c0-0.3,0.1-0.6,0.1-0.9c0-0.3,0.1-0.6,0.2-1v-0.4H185.4z M99.8,52.6c-0.2,0.5-0.4,1-0.6,1.5c-0.3,0.5-0.6,0.9-1,1.3
			c-0.4,0.4-0.9,0.5-1.4,0.5c-0.3,0-0.5-0.1-0.7-0.2c-0.2-0.1-0.3-0.3-0.5-0.4c-0.1-0.2-0.2-0.4-0.3-0.6c-0.1-0.2-0.1-0.4-0.1-0.7
			c0-0.4,0.1-0.8,0.3-1.3c0.2-0.5,0.4-1,0.7-1.4c0.3-0.5,0.7-0.8,1.1-1.2c0.4-0.3,0.8-0.5,1.3-0.5c0.4,0,0.8,0.2,1,0.5
			c0.3,0.4,0.4,0.8,0.4,1.3C100,51.7,99.9,52.1,99.8,52.6z M130.1,52.6c-0.2,0.5-0.4,1-0.6,1.5c-0.3,0.5-0.6,0.9-1,1.3
			c-0.4,0.4-0.9,0.5-1.4,0.5c-0.3,0-0.5-0.1-0.7-0.2c-0.2-0.1-0.3-0.3-0.5-0.4c-0.1-0.2-0.2-0.4-0.3-0.6c-0.1-0.2-0.1-0.4-0.1-0.7
			c0-0.4,0.1-0.8,0.3-1.3c0.2-0.5,0.4-1,0.7-1.4c0.3-0.5,0.7-0.8,1.1-1.2c0.4-0.3,0.8-0.5,1.3-0.5c0.4,0,0.8,0.2,1,0.5
			c0.3,0.4,0.4,0.8,0.4,1.3C130.3,51.7,130.3,52.1,130.1,52.6z M168.5,52.6c-0.2,0.5-0.4,1-0.6,1.5c-0.3,0.5-0.6,0.9-1,1.3
			c-0.4,0.4-0.9,0.5-1.4,0.5c-0.3,0-0.5-0.1-0.7-0.2c-0.2-0.1-0.3-0.3-0.5-0.4c-0.1-0.2-0.2-0.4-0.3-0.6c-0.1-0.2-0.1-0.4-0.1-0.7
			c0-0.4,0.1-0.8,0.3-1.3c0.2-0.5,0.4-1,0.7-1.4c0.3-0.5,0.7-0.8,1.1-1.2c0.4-0.3,0.8-0.5,1.3-0.5c0.4,0,0.8,0.2,1,0.5
			c0.3,0.4,0.4,0.8,0.4,1.3C168.8,51.7,168.7,52.1,168.5,52.6z M67.6,55.6c-0.1,0-0.2,0-0.4,0.1c-0.2,0-0.5,0-0.8,0
			c-0.3,0-0.6-0.1-1-0.3c-0.3-0.2-0.6-0.4-0.9-0.7c-0.3-0.3-0.6-0.6-0.8-0.9c-0.3-0.3-0.5-0.6-0.7-0.9c-0.2-0.3-0.3-0.5-0.4-0.7
			c-0.1-0.2-0.2-0.3-0.2-0.3c0-0.1,0.1-0.3,0.3-0.4c0.2-0.2,0.5-0.4,0.8-0.6c0.3-0.2,0.7-0.5,1.1-0.8c0.4-0.3,0.7-0.7,1.1-1.1
			c0.3-0.4,0.6-0.9,0.8-1.4c0.2-0.5,0.3-1.1,0.3-1.7v-1.5c0-0.6-0.1-1.2-0.4-1.8c-0.2-0.5-0.6-1-1-1.5c-0.4-0.4-0.9-0.8-1.4-1.2
			c-0.5-0.3-1.1-0.6-1.7-0.9c-0.6-0.2-1.1-0.4-1.7-0.6c-0.6-0.1-1.1-0.2-1.6-0.2c-0.5,0-0.9,0-1.3,0c-0.4,0-0.8,0-1.3,0
			c-1.3,0-2.4,0-3.2,0.2c-0.8,0.1-1.5,0.3-1.9,0.6c-0.5,0.3-0.8,0.5-1,0.9c-0.2,0.3-0.3,0.6-0.3,1c-0.1,0.3-0.1,0.7-0.1,1
			c0,0.3,0,0.6-0.1,0.9V44c0.2,0,0.6-0.2,1.2-0.3c0.6-0.2,1.2-0.4,1.9-0.6c0.7-0.2,1.4-0.4,2.1-0.5c0.7-0.2,1.2-0.2,1.5-0.2h2.2
			c0.5,0,0.9,0.1,1.4,0.2c0.4,0.2,0.8,0.3,1.2,0.6c0.3,0.2,0.6,0.5,0.8,0.8c0.2,0.3,0.3,0.6,0.3,1c0,0.3-0.1,0.6-0.3,1
			c-0.2,0.4-0.4,0.7-0.8,1c-0.3,0.3-0.7,0.6-1.1,0.8C59.9,47.9,59.5,48,59,48h-1.1v-4.2h-3.8c0,0-0.1,0.2-0.3,0.6
			c-0.1,0.4-0.9,7.1-0.9,7.1l-0.8,7.8c0,0.1,0.1,0.2,0.1,0.3c0,0.1,0.1,0.1,0.1,0.1c0.1,0,0.1,0,0.2,0c0.1,0,0.2,0,0.4,0h3.2
			c0,0,0.8-6.5,0.9-7.1c0.3,0.2,0.7,0.6,1.1,1c0.4,0.5,0.8,1,1.2,1.5c0.4,0.6,0.9,1.1,1.3,1.7c0.5,0.6,0.9,1.1,1.4,1.6
			c0.5,0.5,1,0.9,1.5,1.2c0.5,0.3,1.1,0.5,1.6,0.5c0.6,0,1.1-0.1,1.5-0.2c0.4-0.1,0.6-0.3,0.8-0.5c0.2-0.2,0.3-0.4,0.4-0.7
			C68,58.6,68,58.3,68,58c0-0.3,0-0.6,0-0.9c0-0.3,0.1-0.6,0.2-0.9v-0.5c-0.2-0.1-0.3-0.1-0.4-0.1C67.8,55.6,67.7,55.6,67.6,55.6z"
			/>
	</g>
	<g>
		<path class="st1" d="M187.2,58.1c0-1.2,0.8-2.2,2.1-2.2c1,0,1.8,0.7,1.8,1.8c0,1.3-0.9,2.1-2.1,2.1
			C187.8,59.9,187.2,59.1,187.2,58.1z"/>
		<path class="st1" d="M199.2,59.3c-0.7,0.3-1.7,0.5-2.9,0.5c-2.6,0-4.4-1.5-4.4-4.2c0-3.7,2.8-6.6,6.8-6.6c0.9,0,1.7,0.2,2.1,0.4
			l-0.7,2.3c-0.4-0.1-0.8-0.3-1.4-0.3c-2.2,0-3.5,1.8-3.5,3.8c0,1.4,0.9,2.1,2,2.1c0.9,0,1.5-0.2,2.1-0.4L199.2,59.3z"/>
		<path class="st1" d="M210.4,53.3c0,3.8-2.6,6.6-6.2,6.6c-2.6,0-4.4-1.7-4.4-4.3c0-3.6,2.5-6.5,6.2-6.5
			C208.8,49.1,210.4,51,210.4,53.3z M203,55.6c0,1.2,0.6,2,1.7,2c1.7,0,2.6-2.4,2.6-4.2c0-1-0.4-2-1.6-2
			C203.8,51.4,203,53.9,203,55.6z"/>
		<path class="st1" d="M210.2,59.7l1.3-7c0.2-1.3,0.4-2.5,0.5-3.4h2.6l-0.2,1.7h0c0.9-1.3,2.2-1.9,3.5-1.9c1.7,0,2.4,1,2.5,1.9
			c0.9-1.3,2.2-1.9,3.6-1.9c1.6,0,2.5,1,2.5,2.8c0,0.4-0.1,1.3-0.2,1.8l-1.1,6h-2.9l1-5.7c0.1-0.4,0.1-0.9,0.1-1.3
			c0-0.7-0.3-1.2-1-1.2c-1,0-2,1.4-2.4,3.5l-0.9,4.7h-2.9l1.1-5.7c0.1-0.4,0.1-0.8,0.1-1.2c0-0.7-0.2-1.3-1-1.3
			c-1,0-2.1,1.5-2.5,3.5l-0.8,4.7H210.2z"/>
	</g>
</g>
</svg>
