<?xml version="1.0" encoding="utf-8"?>
<!-- Generator: Adobe Illustrator 19.0.0, SVG Export Plug-In . SVG Version: 6.00 Build 0)  -->
<svg version="1.1" id="Layer_1" xmlns="http://www.w3.org/2000/svg" xmlns:xlink="http://www.w3.org/1999/xlink" x="0px" y="0px"
	 viewBox="0 0 200 40" style="enable-background:new 0 0 200 40;" xml:space="preserve">
<style type="text/css">
	.st0{fill:#004268;}
	.st1{fill:#939598;}
	.st2{fill:#0A8393;}
	.st3{fill:#231F20;}
	.st4{fill:#333333;}
	.st5{fill:#7B1233;}
	.st6{fill:#FBDA33;}
	.st7{fill:#296834;}
</style>
<g id="XMLID_131_">
	<path id="XMLID_168_" class="st0" d="M45.5,11c-2.8,0-5,0.8-6.5,2.4c-1.5,1.6-2.2,3.9-2.2,6.7c0,1.4,0.2,2.6,0.5,3.7
		c0.4,1.1,0.9,2.1,1.6,2.9c0.7,0.8,1.6,1.4,2.6,1.9c1,0.5,2.3,0.7,3.7,0.7c0.9,0,1.6,0,2.3-0.1c0.6-0.1,1.1-0.1,1.5-0.2v-9.1h5v12.1
		c-0.7,0.2-1.9,0.5-3.5,0.8c-1.6,0.3-3.5,0.4-5.7,0.4c-2,0-3.8-0.3-5.4-0.9c-1.6-0.6-3-1.4-4.2-2.6c-1.1-1.1-2-2.5-2.7-4.1
		c-0.6-1.6-1-3.5-1-5.6c0-2.1,0.3-4,1.1-5.6c0.7-1.6,1.7-3,2.9-4.1c1.2-1.1,2.6-2,4.3-2.6c1.6-0.6,3.4-0.9,5.2-0.9
		c1.3,0,2.4,0.1,3.4,0.2c1,0.2,1.8,0.3,2.6,0.5c0.7,0.2,1.3,0.4,1.8,0.6c0.5,0.2,0.8,0.4,1,0.5l-1.5,3.8c-0.8-0.4-1.8-0.8-3-1.1
		C48,11.1,46.8,11,45.5,11z"/>
	<path id="XMLID_162_" class="st1" d="M64.8,16.3c0.4-0.2,1-0.5,1.8-0.8c0.8-0.3,1.7-0.4,2.8-0.4c1.3,0,2.5,0.2,3.5,0.7
		c1,0.4,1.9,1,2.6,1.8c0.7,0.8,1.2,1.7,1.6,2.8c0.4,1.1,0.5,2.3,0.5,3.6c0,1.4-0.2,2.6-0.6,3.7c-0.4,1.1-1,2-1.8,2.8
		c-0.8,0.8-1.7,1.4-2.9,1.8c-1.1,0.4-2.4,0.6-3.8,0.6c-1.5,0-2.8-0.1-4-0.3c-1.2-0.2-2.1-0.4-2.9-0.6V7.7l3.2-0.5V16.3z M64.8,29.9
		c0.3,0.1,0.8,0.2,1.4,0.2c0.6,0.1,1.3,0.1,2.2,0.1c1.7,0,3.1-0.5,4.2-1.6c1.1-1.1,1.6-2.6,1.6-4.6c0-0.9-0.1-1.7-0.3-2.5
		c-0.2-0.8-0.5-1.4-0.9-2c-0.4-0.6-1-1-1.6-1.3c-0.7-0.3-1.5-0.5-2.4-0.5c-0.9,0-1.7,0.1-2.4,0.4c-0.7,0.3-1.3,0.6-1.7,0.9V29.9z"/>
	<path id="XMLID_158_" class="st1" d="M80.3,24.1c0-1.5,0.2-2.8,0.7-3.9c0.5-1.1,1.1-2.1,1.8-2.8c0.8-0.7,1.7-1.3,2.7-1.7
		c1-0.4,2-0.6,3.1-0.6c2.4,0,4.3,0.7,5.6,2.1c1.3,1.4,2,3.6,2,6.5c0,0.1,0,0.3,0,0.5c0,0.2,0,0.4,0,0.6H83.7c0.1,1.8,0.7,3.1,1.6,4
		c1,0.9,2.4,1.4,4.5,1.4c1.1,0,2.1-0.1,2.9-0.3c0.8-0.2,1.4-0.4,1.8-0.5l0.5,2.6c-0.4,0.2-1.1,0.4-2.1,0.6c-1,0.2-2.1,0.3-3.4,0.3
		c-1.6,0-2.9-0.2-4.1-0.7c-1.2-0.5-2.1-1.1-2.8-1.9c-0.7-0.8-1.3-1.7-1.7-2.8C80.5,26.6,80.3,25.4,80.3,24.1z M92.7,22.4
		c0-1.4-0.3-2.5-1.1-3.4c-0.8-0.9-1.8-1.3-3.1-1.3c-0.7,0-1.4,0.1-2,0.4c-0.6,0.3-1.1,0.6-1.4,1.1c-0.4,0.4-0.7,0.9-0.9,1.5
		c-0.2,0.6-0.4,1.1-0.4,1.7H92.7z"/>
	<path id="XMLID_153_" class="st1" d="M111.5,7.7l3.2-0.5v24.9c-0.7,0.2-1.7,0.4-2.9,0.6c-1.2,0.2-2.5,0.3-4,0.3
		c-1.4,0-2.7-0.2-3.8-0.6c-1.1-0.4-2.1-1-2.9-1.8c-0.8-0.8-1.4-1.7-1.8-2.8c-0.4-1.1-0.6-2.3-0.6-3.7c0-1.3,0.2-2.5,0.5-3.6
		c0.4-1.1,0.9-2,1.6-2.8c0.7-0.8,1.6-1.4,2.6-1.8c1-0.4,2.2-0.7,3.5-0.7c1,0,2,0.1,2.8,0.4c0.8,0.3,1.4,0.5,1.8,0.8V7.7z
		 M111.5,19.1c-0.4-0.3-1-0.6-1.7-0.9c-0.7-0.3-1.6-0.4-2.4-0.4c-0.9,0-1.7,0.2-2.4,0.5c-0.7,0.3-1.2,0.8-1.6,1.3
		c-0.4,0.6-0.7,1.2-0.9,2c-0.2,0.8-0.3,1.6-0.3,2.5c0,2,0.5,3.5,1.6,4.6c1.1,1.1,2.4,1.6,4.2,1.6c0.9,0,1.6,0,2.2-0.1
		c0.6-0.1,1-0.2,1.4-0.2V19.1z"/>
	<path id="XMLID_148_" class="st1" d="M122.6,16.3c0.4-0.2,1-0.5,1.8-0.8c0.8-0.3,1.7-0.4,2.8-0.4c1.3,0,2.5,0.2,3.5,0.7
		c1,0.4,1.9,1,2.6,1.8c0.7,0.8,1.2,1.7,1.6,2.8c0.4,1.1,0.5,2.3,0.5,3.6c0,1.4-0.2,2.6-0.6,3.7c-0.4,1.1-1,2-1.8,2.8
		c-0.8,0.8-1.7,1.4-2.9,1.8c-1.1,0.4-2.4,0.6-3.8,0.6c-1.5,0-2.8-0.1-4-0.3c-1.2-0.2-2.1-0.4-2.9-0.6V7.7l3.2-0.5V16.3z M122.6,29.9
		c0.3,0.1,0.8,0.2,1.4,0.2c0.6,0.1,1.3,0.1,2.2,0.1c1.7,0,3.1-0.5,4.2-1.6c1-1.1,1.6-2.6,1.6-4.6c0-0.9-0.1-1.7-0.3-2.5
		c-0.2-0.8-0.5-1.4-0.9-2c-0.4-0.6-1-1-1.6-1.3c-0.7-0.3-1.5-0.5-2.4-0.5c-0.9,0-1.7,0.1-2.4,0.4c-0.7,0.3-1.3,0.6-1.7,0.9V29.9z"/>
	<path id="XMLID_142_" class="st1" d="M145,15.1c1.3,0,2.4,0.2,3.3,0.5c0.9,0.3,1.6,0.8,2.2,1.3c0.5,0.6,0.9,1.3,1.2,2.1
		c0.2,0.8,0.3,1.7,0.3,2.6v10.7c-0.3,0-0.7,0.1-1.2,0.2c-0.5,0.1-1.1,0.2-1.7,0.2c-0.6,0.1-1.3,0.1-2,0.2c-0.7,0.1-1.5,0.1-2.2,0.1
		c-1,0-2-0.1-2.8-0.3c-0.9-0.2-1.6-0.5-2.2-0.9c-0.6-0.4-1.1-1-1.5-1.7c-0.4-0.7-0.5-1.5-0.5-2.5c0-0.9,0.2-1.7,0.6-2.4
		c0.4-0.7,1-1.2,1.7-1.6c0.7-0.4,1.5-0.7,2.4-0.9c0.9-0.2,1.9-0.3,2.9-0.3c0.3,0,0.7,0,1,0c0.4,0,0.7,0.1,1,0.1
		c0.3,0.1,0.6,0.1,0.8,0.1c0.2,0,0.4,0.1,0.5,0.1v-0.9c0-0.5-0.1-1-0.2-1.5c-0.1-0.5-0.3-0.9-0.6-1.3c-0.3-0.4-0.7-0.7-1.2-0.9
		c-0.5-0.2-1.2-0.3-2-0.3c-1.1,0-2,0.1-2.8,0.2c-0.8,0.1-1.4,0.3-1.8,0.4l-0.4-2.5c0.4-0.2,1.1-0.3,2.1-0.5
		C142.8,15.2,143.9,15.1,145,15.1z M145.3,30.4c0.8,0,1.4,0,2,0c0.6,0,1.1-0.1,1.5-0.2v-5.1c-0.2-0.1-0.6-0.2-1.1-0.3
		c-0.5-0.1-1.2-0.1-1.9-0.1c-0.5,0-1,0-1.6,0.1c-0.5,0.1-1,0.2-1.5,0.4c-0.5,0.2-0.8,0.5-1.1,0.9c-0.3,0.4-0.5,0.8-0.5,1.4
		c0,1.1,0.4,1.9,1.1,2.3C143,30.2,144,30.4,145.3,30.4z"/>
	<path id="XMLID_138_" class="st1" d="M155.8,16c0.7-0.2,1.7-0.4,3-0.6c1.2-0.2,2.7-0.3,4.3-0.3c1.4,0,2.6,0.2,3.6,0.6
		c1,0.4,1.7,0.9,2.3,1.6c0.6,0.7,1,1.5,1.2,2.5c0.2,1,0.4,2,0.4,3.2v9.6h-3.2v-8.9c0-1-0.1-1.9-0.2-2.7c-0.1-0.7-0.4-1.3-0.7-1.8
		c-0.3-0.5-0.8-0.8-1.4-1c-0.6-0.2-1.3-0.3-2.2-0.3c-0.3,0-0.7,0-1.1,0c-0.4,0-0.7,0-1.1,0.1c-0.3,0-0.6,0.1-0.9,0.1
		c-0.3,0-0.5,0.1-0.6,0.1v14.4h-3.2V16z"/>
	<path id="XMLID_135_" class="st1" d="M181.6,23.2c0.7,0.5,1.4,1.1,2.2,1.9c0.8,0.7,1.5,1.5,2.3,2.4c0.8,0.9,1.5,1.7,2.1,2.6
		c0.7,0.9,1.2,1.7,1.7,2.5h-3.8c-0.5-0.8-1.1-1.5-1.7-2.3c-0.6-0.8-1.3-1.6-2-2.3c-0.7-0.7-1.4-1.4-2.1-2c-0.7-0.6-1.4-1.1-2.1-1.5
		v8.2h-3.2V7.7l3.2-0.5v15.5c0.6-0.5,1.2-1.1,1.8-1.7c0.7-0.6,1.3-1.3,2-1.9c0.6-0.7,1.3-1.3,1.8-1.9c0.6-0.6,1.1-1.1,1.5-1.6h3.8
		c-0.5,0.5-1.1,1.1-1.7,1.8c-0.6,0.7-1.3,1.3-2,2c-0.7,0.7-1.4,1.3-2,2C182.9,22,182.2,22.6,181.6,23.2z"/>
	<path id="XMLID_1_" class="st0" d="M23,7.1h-0.6c-0.6,0.9-1.2,2.1-1.9,3.4c-0.7,1.3-1.4,2.7-2.2,4.2c-0.7,1.5-1.5,3-2.2,4.5
		c-0.7,1.5-1.4,2.9-2,4.2c-0.6-1.3-1.3-2.7-2-4.2c-0.7-1.5-1.5-3-2.2-4.5c-0.7-1.5-1.5-2.9-2.2-4.2C7,9.2,6.3,8,5.8,7.1H4.9H0v25.7
		h4.9V14.9c0-0.2,0-0.4,0.1-0.6c0.3,0.5,0.6,1.2,1,2c0.4,0.8,0.8,1.6,1.3,2.5c0.4,0.9,0.9,1.8,1.4,2.8c0.5,1,0.9,1.9,1.3,2.8
		c0.4,0.9,0.8,1.8,1.2,2.6c0.4,0.8,0.7,1.5,1,2h3.7c0.3-0.6,0.6-1.2,1-2c0.4-0.8,0.8-1.6,1.2-2.6c0.4-0.9,0.9-1.9,1.3-2.8
		c0.5-1,0.9-1.9,1.4-2.8c0.4-0.9,0.9-1.8,1.3-2.5c0.4-0.7,0.7-1.3,0.9-1.8v18.4h4.9V7.1H23z"/>
</g>
<g id="XMLID_212_">
	<path id="XMLID_240_" class="st2" d="M382.7-24.9c-1.5,0-2.7-0.2-3.7-0.5c-0.9-0.3-1.7-0.7-2.2-1.3c-0.5-0.5-0.9-1.2-1.1-2
		c-0.2-0.8-0.3-1.6-0.3-2.6v-23l5.2-0.8v22.8c0,0.5,0,0.9,0.1,1.3c0.1,0.4,0.2,0.7,0.4,0.9c0.2,0.3,0.5,0.5,0.8,0.6
		c0.4,0.2,0.9,0.3,1.5,0.3L382.7-24.9z"/>
	<path id="XMLID_237_" class="st2" d="M404-30.8c0,1,0.3,1.8,1.2,1.8c0.7,0,1.2-0.2,1.8-0.6l0.2,3.9c-0.9,0.4-2.4,0.8-4,0.8
		c-2,0-3.3-0.8-3.9-2.6c-1.2,1.5-3.3,2.6-5.8,2.6c-5.1,0-8.5-3.9-8.5-9.3c0-5.5,3.4-9.4,8.5-9.4c2.4,0,4.2,0.7,5.4,1.9v-1.6h4.9
		V-30.8z M399.1-37.8c-0.8-0.9-2.4-1.6-4.1-1.6c-3,0-4.9,2.1-4.9,5.2c0,3.1,1.9,5.1,4.9,5.1c1.6,0,3.1-0.7,4.1-1.6V-37.8z"/>
	<path id="XMLID_235_" class="st2" d="M347.8-24.9c-1.5,0-2.7-0.2-3.7-0.5c-0.9-0.3-1.7-0.7-2.2-1.3c-0.5-0.5-0.9-1.2-1.1-2
		c-0.2-0.8-0.3-1.6-0.3-2.6v-23l5.2-0.8v22.8c0,0.5,0,0.9,0.1,1.3c0.1,0.4,0.2,0.7,0.4,0.9c0.2,0.3,0.5,0.5,0.9,0.6
		c0.4,0.2,0.9,0.3,1.5,0.3L347.8-24.9z"/>
	<path id="XMLID_232_" class="st2" d="M369.1-30.8c0,1,0.3,1.8,1.3,1.8c0.7,0,1.3-0.2,1.8-0.6l0.2,3.9c-0.9,0.4-2.4,0.8-4,0.8
		c-2,0-3.3-0.8-3.9-2.6c-1.2,1.5-3.3,2.6-5.8,2.6c-5.1,0-8.5-3.9-8.5-9.3c0-5.5,3.4-9.4,8.5-9.4c2.4,0,4.2,0.7,5.4,1.9v-1.6h4.9
		V-30.8z M364.3-37.8c-0.8-0.9-2.4-1.6-4.1-1.6c-3,0-4.9,2.1-4.9,5.2c0,3.1,1.9,5.1,4.9,5.1c1.6,0,3.1-0.7,4.1-1.6V-37.8z"/>
	<path id="XMLID_230_" class="st2" d="M313.3-24.9c-1.5,0-2.7-0.2-3.7-0.5c-0.9-0.3-1.7-0.7-2.2-1.3c-0.5-0.5-0.9-1.2-1.1-2
		c-0.2-0.8-0.3-1.6-0.3-2.6v-23l5.2-0.8v22.8c0,0.5,0,0.9,0.1,1.3c0.1,0.4,0.2,0.7,0.4,0.9c0.2,0.3,0.5,0.5,0.9,0.6
		c0.4,0.2,0.9,0.3,1.5,0.3L313.3-24.9z"/>
	<path id="XMLID_227_" class="st2" d="M334.6-30.8c0,1,0.3,1.8,1.2,1.8c0.7,0,1.3-0.2,1.8-0.6l0.2,3.9c-0.9,0.4-2.4,0.8-4,0.8
		c-2.1,0-3.3-0.8-3.9-2.6c-1.3,1.5-3.3,2.6-5.8,2.6c-5.1,0-8.5-3.9-8.5-9.3c0-5.5,3.4-9.4,8.5-9.4c2.4,0,4.2,0.7,5.4,1.9v-1.6h4.9
		V-30.8z M329.7-37.8c-0.8-0.9-2.4-1.6-4.1-1.6c-3,0-4.9,2.1-4.9,5.2c0,3.1,1.9,5.1,4.9,5.1c1.6,0,3.1-0.7,4.1-1.6V-37.8z"/>
	<path id="XMLID_225_" class="st2" d="M420.5-35.7c-0.5,1.8-1,3.5-1.5,5.2c-0.5,1.7-1.1,3.5-1.6,5.2h-4c-0.4-1-0.9-2.1-1.4-3.5
		c-0.5-1.3-1-2.8-1.5-4.4c-0.5-1.6-1.1-3.3-1.6-5c-0.5-1.8-1.1-3.6-1.6-5.4h5.5c0.2,0.8,0.4,1.8,0.6,2.7c0.2,1,0.5,2,0.7,3
		c0.2,1,0.5,2.1,0.8,3.1c0.3,1.1,0.5,2.1,0.8,3c0.3-1,0.6-2.1,0.9-3.1c0.3-1.1,0.6-2.1,0.8-3.1c0.3-1,0.5-2,0.8-3
		c0.2-1,0.5-1.9,0.6-2.7h3.8c0.2,0.8,0.4,1.7,0.6,2.7c0.2,1,0.5,2,0.7,3c0.3,1,0.5,2.1,0.8,3.1c0.3,1.1,0.6,2.1,0.9,3.1
		c0.3-1,0.6-2,0.8-3c0.3-1.1,0.5-2.1,0.8-3.1c0.2-1,0.5-2.1,0.7-3c0.2-1,0.4-1.9,0.6-2.7h5.4c-0.5,1.8-1,3.6-1.6,5.4
		c-0.5,1.8-1.1,3.4-1.6,5c-0.5,1.6-1,3.1-1.5,4.4c-0.5,1.3-1,2.5-1.4,3.5h-4c-0.6-1.8-1.1-3.5-1.7-5.2C421.5-32.2,421-34,420.5-35.7
		z"/>
	<path id="XMLID_222_" class="st2" d="M453.2-30.8c0,1,0.3,1.8,1.2,1.8c0.7,0,1.3-0.2,1.8-0.6l0.2,3.9c-0.9,0.4-2.4,0.8-4,0.8
		c-2.1,0-3.3-0.8-3.9-2.6c-1.2,1.5-3.3,2.6-5.8,2.6c-5.1,0-8.5-3.9-8.5-9.3c0-5.5,3.4-9.4,8.5-9.4c2.4,0,4.2,0.7,5.4,1.9v-1.6h4.9
		V-30.8z M448.4-37.8c-0.8-0.9-2.4-1.6-4.1-1.6c-3,0-4.9,2.1-4.9,5.2c0,3.1,1.9,5.1,4.9,5.1c1.6,0,3.1-0.7,4.1-1.6V-37.8z"/>
	<path id="XMLID_220_" class="st2" d="M461.9-43.4l5,12.9l4.8-12.9h4.9l-7.5,18.3c-1.8,4.5-3.6,6.7-7.7,6.7c-1.7,0-3.3-0.6-4.2-1.2
		l0.7-3.9c0.9,0.5,2.1,1,3.4,1c1.6,0,2.3-0.8,3-2.3l0.4-0.9l-8.3-17.7H461.9z"/>
	<g id="XMLID_213_">
		<path id="XMLID_94_" class="st2" d="M436.6-19.4c-0.3,0-0.5,0.2-0.5,0.5c0,0.3,0.2,0.5,0.5,0.5c0.3,0,0.6-0.1,0.6-0.5
			C437.1-19.2,436.9-19.4,436.6-19.4z"/>
		<path id="XMLID_93_" class="st2" d="M439.6-21c0.4,0,0.6,0.2,0.7,0.6l0.8-0.2c-0.1-0.8-0.6-1.2-1.5-1.2c-1,0-1.7,0.7-1.7,1.7
			c0,1.1,0.6,1.7,1.8,1.7c0.5,0,1-0.1,1.3-0.4l-0.3-0.7c-0.2,0.2-0.6,0.3-0.9,0.3c-0.6,0-1-0.4-1-1C438.8-20.6,439.1-21,439.6-21z"
			/>
		<path id="XMLID_215_" class="st2" d="M443.6-21.7c-1,0-1.7,0.7-1.7,1.7c0,1,0.7,1.7,1.7,1.7c1,0,1.7-0.7,1.7-1.7
			C445.3-21,444.6-21.7,443.6-21.7z M443.6-19.1c-0.5,0-0.9-0.4-0.9-0.9c0-0.5,0.4-0.9,0.9-0.9c0.5,0,0.9,0.4,0.9,0.9
			C444.5-19.5,444.1-19.1,443.6-19.1z"/>
		<path id="XMLID_90_" class="st2" d="M451.6-20.4c0-0.5-0.2-1.3-1.1-1.3c-0.5,0-0.8,0.2-1.1,0.5l-0.1,0.1l-0.1-0.1
			c-0.2-0.4-0.5-0.5-1-0.5c-0.4,0-0.7,0.1-1,0.4l-0.2,0.2v-0.5h-0.9v3.2h0.9l0-2c0.1-0.3,0.4-0.4,0.7-0.4c0.4,0,0.7,0.3,0.7,0.8v1.7
			h0.9l0-2c0.1-0.3,0.4-0.4,0.7-0.4c0.4,0,0.6,0.2,0.7,0.6v1.8h0.9L451.6-20.4L451.6-20.4z"/>
	</g>
</g>
<g id="XMLID_209_">
	<defs>
		<rect id="XMLID_88_" x="303.8" y="7.2" width="190" height="26.2"/>
	</defs>
	<clipPath id="XMLID_133_">
		<use xlink:href="#XMLID_88_"  style="overflow:visible;"/>
	</clipPath>
	<g transform="matrix(1 0 0 1 0 4.768372e-07)" style="clip-path:url(#XMLID_133_);">
		
			<image style="overflow:visible;" width="464" height="64" id="XMLID_89_" xlink:href="DB79621D3299D144.png"  transform="matrix(0.4095 0 0 0.4095 303.8074 7.1862)">
		</image>
	</g>
</g>
<g id="XMLID_163_">
	<path id="XMLID_207_" class="st3" d="M306,62.4L306,62.4c0-2.5,1.9-4.6,4.5-4.6c1.6,0,2.6,0.6,3.4,1.4l-1,1.1
		c-0.7-0.7-1.5-1.1-2.5-1.1c-1.7,0-2.9,1.4-2.9,3.1v0c0,1.7,1.2,3.1,2.9,3.1c1.1,0,1.8-0.4,2.5-1.1l1,1c-0.9,0.9-1.9,1.5-3.6,1.5
		C307.9,66.9,306,65,306,62.4z"/>
	<path id="XMLID_204_" class="st3" d="M316.2,62.4L316.2,62.4c0-2.5,1.9-4.6,4.6-4.6c2.7,0,4.6,2,4.6,4.5v0c0,2.5-1.9,4.5-4.6,4.5
		C318.1,66.9,316.2,64.9,316.2,62.4z M323.7,62.4L323.7,62.4c0-1.7-1.2-3.1-3-3.1c-1.7,0-3,1.4-3,3.1v0c0,1.7,1.2,3.1,3,3.1
		C322.5,65.5,323.7,64.1,323.7,62.4z"/>
	<path id="XMLID_201_" class="st3" d="M328.5,58h3.9c1.1,0,2,0.3,2.5,0.9c0.5,0.5,0.7,1.1,0.7,1.9v0c0,1.4-0.9,2.3-2.1,2.7l2.4,3.3
		h-1.8l-2.2-3.1H330v3.1h-1.5V58z M332.3,62.4c1.1,0,1.8-0.6,1.8-1.5v0c0-0.9-0.7-1.5-1.8-1.5H330v2.9H332.3z"/>
	<path id="XMLID_198_" class="st3" d="M338.8,58h3.5c2.1,0,3.3,1.2,3.3,2.9v0c0,2-1.6,3-3.5,3h-1.7v2.8h-1.5V58z M342.1,62.6
		c1.2,0,1.9-0.7,1.9-1.6v0c0-1-0.7-1.6-1.9-1.6h-1.8v3.2H342.1z"/>
	<path id="XMLID_195_" class="st3" d="M348,62.4L348,62.4c0-2.5,1.9-4.6,4.6-4.6c2.7,0,4.6,2,4.6,4.5v0c0,2.5-1.9,4.5-4.6,4.5
		C349.9,66.9,348,64.9,348,62.4z M355.5,62.4L355.5,62.4c0-1.7-1.2-3.1-3-3.1c-1.7,0-3,1.4-3,3.1v0c0,1.7,1.2,3.1,3,3.1
		C354.3,65.5,355.5,64.1,355.5,62.4z"/>
	<path id="XMLID_192_" class="st3" d="M360.3,58h3.9c1.1,0,2,0.3,2.5,0.9c0.5,0.5,0.7,1.1,0.7,1.9v0c0,1.4-0.9,2.3-2.1,2.7l2.4,3.3
		h-1.8l-2.2-3.1h-1.9v3.1h-1.5V58z M364.1,62.4c1.1,0,1.8-0.6,1.8-1.5v0c0-0.9-0.7-1.5-1.8-1.5h-2.2v2.9H364.1z"/>
	<path id="XMLID_189_" class="st3" d="M373.7,58h1.4l3.9,8.8h-1.6l-0.9-2.1h-4.1l-0.9,2.1h-1.6L373.7,58z M375.9,63.3l-1.5-3.5
		l-1.5,3.5H375.9z"/>
	<path id="XMLID_187_" class="st3" d="M382.7,59.5H380V58h7.1v1.4h-2.8v7.3h-1.6V59.5z"/>
	<path id="XMLID_185_" class="st3" d="M389.9,58h6.5v1.4h-5v2.3h4.4v1.4h-4.4v2.4h5v1.4h-6.6V58z"/>
	<path id="XMLID_182_" class="st3" d="M404.6,58h3.9c1.1,0,2,0.3,2.5,0.9c0.5,0.5,0.7,1.1,0.7,1.9v0c0,1.4-0.9,2.3-2.1,2.7l2.4,3.3
		h-1.8l-2.2-3.1h-1.9v3.1h-1.5V58z M408.4,62.4c1.1,0,1.8-0.6,1.8-1.5v0c0-0.9-0.7-1.5-1.8-1.5h-2.2v2.9H408.4z"/>
	<path id="XMLID_179_" class="st3" d="M414.5,62.4L414.5,62.4c0-2.5,1.9-4.6,4.6-4.6c2.7,0,4.6,2,4.6,4.5v0c0,2.5-1.9,4.5-4.6,4.5
		C416.4,66.9,414.5,64.9,414.5,62.4z M422,62.4L422,62.4c0-1.7-1.2-3.1-3-3.1c-1.7,0-3,1.4-3,3.1v0c0,1.7,1.2,3.1,3,3.1
		C420.8,65.5,422,64.1,422,62.4z"/>
	<path id="XMLID_176_" class="st3" d="M426.4,62.4L426.4,62.4c0-2.5,1.9-4.6,4.6-4.6c2.7,0,4.6,2,4.6,4.5v0c0,2.5-1.9,4.5-4.6,4.5
		C428.3,66.9,426.4,64.9,426.4,62.4z M433.9,62.4L433.9,62.4c0-1.7-1.2-3.1-3-3.1c-1.7,0-3,1.4-3,3.1v0c0,1.7,1.2,3.1,3,3.1
		C432.7,65.5,433.9,64.1,433.9,62.4z"/>
	<path id="XMLID_174_" class="st3" d="M438.7,58h1.6l2.7,4.1l2.7-4.1h1.6v8.8h-1.5v-6.3l-2.8,4.1h-0.1l-2.7-4.1v6.3h-1.5V58z"/>
	<path id="XMLID_171_" class="st3" d="M455.7,58h3.4c2.8,0,4.7,1.9,4.7,4.4v0c0,2.5-1.9,4.4-4.7,4.4h-3.4V58z M457.6,59.8v5.3h1.5
		c1.6,0,2.6-1.1,2.6-2.6v0c0-1.6-1.1-2.6-2.6-2.6H457.6z"/>
	<path id="XMLID_169_" class="st3" d="M466.7,58h6.6v1.7h-4.7v1.8h4.1v1.7h-4.1v1.8h4.8v1.7h-6.7V58z"/>
	<path id="XMLID_166_" class="st3" d="M479.4,58h1.8l3.8,8.8h-2l-0.8-2h-3.7l-0.8,2h-2L479.4,58z M481.4,63.1l-1.2-2.8l-1.2,2.8
		H481.4z"/>
	<path id="XMLID_164_" class="st3" d="M487.5,58h1.9v7h4.4v1.8h-6.3V58z"/>
</g>
<g id="XMLID_123_">
	<g id="XMLID_125_">
		<g id="XMLID_144_">
			<path id="XMLID_160_" class="st4" d="M362.8,96.2h7c1.9,0,3.4,0.5,4.5,1.6c0.9,0.9,1.3,2,1.3,3.5v0c0,1.2-0.3,2.3-0.9,3
				c-0.6,0.8-1.4,1.4-2.4,1.7l3.7,5.5h-3.9l-3.3-4.9h0h-2.6v4.9h-3.4V96.2z M369.6,103.6c0.8,0,1.5-0.2,1.9-0.6
				c0.4-0.4,0.7-0.9,0.7-1.6v0c0-0.7-0.2-1.3-0.7-1.6c-0.5-0.4-1.1-0.5-2-0.5h-3.4v4.4H369.6z"/>
			<path id="XMLID_157_" class="st4" d="M397.8,111.8c-1.2,0-2.3-0.2-3.3-0.6c-1-0.4-1.9-1-2.6-1.7c-0.7-0.7-1.3-1.5-1.7-2.5
				c-0.4-1-0.6-2-0.6-3.1v0c0-1.1,0.2-2.1,0.6-3.1c0.4-1,1-1.8,1.7-2.5c0.7-0.7,1.6-1.3,2.6-1.7c1-0.4,2.1-0.6,3.3-0.6
				c1.2,0,2.3,0.2,3.3,0.6c1,0.4,1.8,1,2.6,1.7c0.7,0.7,1.3,1.5,1.7,2.5c0.4,1,0.6,2,0.6,3.1v0c0,1.1-0.2,2.1-0.6,3.1
				c-0.4,1-1,1.8-1.7,2.5c-0.7,0.7-1.6,1.3-2.6,1.7C400,111.6,398.9,111.8,397.8,111.8z M397.8,108.6c0.7,0,1.3-0.1,1.9-0.4
				c0.6-0.2,1.1-0.6,1.5-1c0.4-0.4,0.7-0.9,0.9-1.5c0.2-0.6,0.3-1.2,0.3-1.9v0c0-0.7-0.1-1.3-0.3-1.9c-0.2-0.6-0.5-1.1-1-1.5
				c-0.4-0.4-0.9-0.8-1.5-1c-0.6-0.3-1.2-0.4-1.9-0.4c-0.7,0-1.3,0.1-1.9,0.4c-0.6,0.3-1,0.6-1.4,1c-0.4,0.4-0.7,0.9-0.9,1.5
				c-0.2,0.6-0.3,1.2-0.3,1.9v0c0,0.7,0.1,1.3,0.3,1.9c0.2,0.6,0.5,1.1,1,1.5c0.4,0.4,0.9,0.8,1.5,1
				C396.5,108.5,397.1,108.6,397.8,108.6z"/>
			<path id="XMLID_155_" class="st4" d="M408.2,96.2h3.6l4,6.5l4-6.5h3.6v15.3h-3.3v-10l-4.3,6.6h-0.1l-4.3-6.5v10h-3.3V96.2z"/>
			<path id="XMLID_152_" class="st4" d="M431.6,96.2h6c1.2,0,2.3,0.2,3.3,0.6c1,0.4,1.9,0.9,2.6,1.6c0.7,0.7,1.3,1.5,1.7,2.4
				c0.4,0.9,0.6,1.9,0.6,3v0c0,1.1-0.2,2.1-0.6,3c-0.4,0.9-1,1.7-1.7,2.4c-0.7,0.7-1.6,1.2-2.6,1.6c-1,0.4-2.1,0.6-3.3,0.6h-6V96.2z
				 M437.6,108.5c0.7,0,1.3-0.1,1.9-0.3c0.6-0.2,1.1-0.5,1.5-0.9c0.4-0.4,0.7-0.9,0.9-1.4c0.2-0.6,0.3-1.2,0.3-1.9v0
				c0-0.7-0.1-1.3-0.3-1.9c-0.2-0.6-0.5-1.1-0.9-1.5c-0.4-0.4-0.9-0.7-1.5-1c-0.6-0.2-1.2-0.3-1.9-0.3H435v9.3H437.6z"/>
			<path id="XMLID_150_" class="st4" d="M447.7,96.2h11.5v3H451v3.1h7.2v3H451v3.2h8.3v3h-11.7V96.2z"/>
			<path id="XMLID_147_" class="st4" d="M466.5,96h3.1l6.6,15.5h-3.5l-1.4-3.4h-6.5l-1.4,3.4H460L466.5,96z M470.1,105.1l-2-5l-2,5
				H470.1z"/>
			<path id="XMLID_145_" class="st4" d="M477.5,96.2h3.4v12.3h7.7v3h-11V96.2z"/>
		</g>
		<g id="XMLID_128_">
			<path id="XMLID_141_" class="st4" d="M363.2,123.6v-6.4h2.1c0.8,0,1.3,0,1.5,0.1c0.4,0.1,0.7,0.3,0.9,0.6
				c0.2,0.3,0.4,0.7,0.4,1.2c0,0.4-0.1,0.7-0.2,1c-0.1,0.3-0.3,0.5-0.5,0.6c-0.2,0.2-0.4,0.3-0.7,0.3c-0.3,0.1-0.7,0.1-1.3,0.1h-0.8
				v2.4H363.2z M364.5,118.3v1.8h0.7c0.5,0,0.8,0,1-0.1c0.2-0.1,0.3-0.2,0.4-0.3c0.1-0.1,0.1-0.3,0.1-0.5c0-0.2-0.1-0.4-0.2-0.6
				c-0.1-0.1-0.3-0.2-0.5-0.3c-0.2,0-0.5,0-0.9,0H364.5z"/>
			<path id="XMLID_139_" class="st4" d="M371.7,119v1h-0.8v1.9c0,0.4,0,0.6,0,0.7c0,0.1,0.1,0.1,0.1,0.2c0.1,0,0.1,0.1,0.2,0.1
				c0.1,0,0.3,0,0.5-0.1l0.1,0.9c-0.3,0.1-0.6,0.2-1,0.2c-0.2,0-0.4,0-0.6-0.1c-0.2-0.1-0.3-0.2-0.4-0.3c-0.1-0.1-0.1-0.3-0.2-0.5
				c0-0.1,0-0.4,0-0.9v-2h-0.6v-1h0.6v-0.9l1.2-0.7v1.6H371.7z"/>
			<path id="XMLID_136_" class="st4" d="M375.7,122.1l1.2,0.2c-0.2,0.4-0.4,0.8-0.7,1c-0.3,0.2-0.8,0.4-1.3,0.4
				c-0.8,0-1.4-0.3-1.8-0.8c-0.3-0.4-0.5-1-0.5-1.6c0-0.8,0.2-1.4,0.6-1.8c0.4-0.4,0.9-0.6,1.5-0.6c0.7,0,1.2,0.2,1.6,0.7
				c0.4,0.5,0.6,1.1,0.6,2.1h-3.1c0,0.4,0.1,0.6,0.3,0.8c0.2,0.2,0.4,0.3,0.7,0.3c0.2,0,0.4-0.1,0.5-0.2
				C375.5,122.5,375.6,122.4,375.7,122.1z M375.7,120.9c0-0.4-0.1-0.6-0.3-0.8c-0.2-0.2-0.4-0.3-0.6-0.3c-0.3,0-0.5,0.1-0.7,0.3
				c-0.2,0.2-0.3,0.5-0.3,0.8H375.7z"/>
			<path id="XMLID_134_" class="st4" d="M378.4,123.6v-6.3h1.3v5.2h3.2v1.1H378.4z"/>
			<path id="XMLID_132_" class="st4" d="M385.1,123.6v-5.3h-1.9v-1.1h5.1v1.1h-1.9v5.3H385.1z"/>
			<path id="XMLID_129_" class="st4" d="M389.5,117.3h2.4c0.5,0,0.9,0,1.2,0.1c0.4,0.1,0.7,0.3,1,0.6c0.3,0.3,0.5,0.6,0.6,1
				c0.1,0.4,0.2,0.9,0.2,1.5c0,0.5-0.1,1-0.2,1.4c-0.2,0.5-0.4,0.8-0.7,1.1c-0.2,0.2-0.5,0.4-0.9,0.5c-0.3,0.1-0.7,0.1-1.1,0.1h-2.4
				V117.3z M390.8,118.3v4.2h1c0.4,0,0.6,0,0.8-0.1c0.2-0.1,0.4-0.1,0.5-0.3c0.1-0.1,0.2-0.3,0.3-0.6c0.1-0.3,0.1-0.7,0.1-1.2
				c0-0.5,0-0.9-0.1-1.1c-0.1-0.3-0.2-0.5-0.4-0.6c-0.2-0.1-0.4-0.2-0.6-0.3c-0.2,0-0.5-0.1-1.1-0.1H390.8z"/>
		</g>
		<path id="XMLID_39_" class="st5" d="M332.2,89.6l-21.8,21.8c-3.8,3.8-3.8,9.8,0,13.6c3.8,3.8,9.8,3.8,13.6,0l21.8-21.8L332.2,89.6
			z"/>
		<path id="XMLID_38_" class="st5" d="M318.6,103.2l21.8,21.8c3.8,3.8,9.8,3.8,13.6,0c3.8-3.8,3.8-9.8,0-13.6l-21.8-21.8
			L318.6,103.2z"/>
	</g>
	<path id="XMLID_37_" class="st4" d="M392.5,103.2L392.5,103.2L392.5,103.2l-2.9,0c0,0.2,0,0.4,0,0.6v0c0,0.7-0.1,1.3-0.3,1.9
		c-0.2,0.6-0.5,1.1-0.9,1.5c-0.4,0.4-0.9,0.8-1.5,1c-0.6,0.2-1.2,0.4-1.9,0.4c-0.7,0-1.3-0.1-1.9-0.4c-0.6-0.3-1.1-0.6-1.5-1
		c-0.4-0.4-0.7-0.9-1-1.5c-0.2-0.6-0.3-1.2-0.3-1.9v0c0-0.7,0.1-1.3,0.3-1.9c0.2-0.6,0.5-1.1,0.9-1.5c0.4-0.4,0.9-0.8,1.4-1
		c0.6-0.2,1.2-0.4,1.9-0.4c0.7,0,1.3,0.1,1.9,0.4c0.6,0.3,1.1,0.6,1.5,1c0.3,0.3,0.6,0.7,0.8,1.2c0.1-0.5,0.3-1,0.5-1.5
		c0.3-0.7,0.7-1.4,1.2-2c-0.7-0.7-1.5-1.2-2.5-1.6c-1-0.4-2.1-0.6-3.3-0.6c-1.2,0-2.3,0.2-3.3,0.6c-1,0.4-1.9,1-2.6,1.7
		c-0.7,0.7-1.3,1.6-1.7,2.5c-0.4,1-0.6,2-0.6,3.1v0c0,1.1,0.2,2.1,0.6,3.1c0.4,1,1,1.8,1.7,2.5c0.7,0.7,1.6,1.3,2.6,1.7
		c1,0.4,2.1,0.6,3.3,0.6c1.2,0,2.3-0.2,3.3-0.6c1-0.4,1.9-1,2.6-1.7c0.7-0.7,1.3-1.6,1.7-2.5c0.4-1,0.6-2,0.6-3.1v0
		c0-0.9-0.1-1.7-0.4-2.4C392.6,101.9,392.5,102.5,392.5,103.2z"/>
</g>
<g id="XMLID_109_">
	<g id="XMLID_111_">
		<path id="XMLID_36_" class="st6" d="M341.2,170.2c-0.7,0-1.4-0.3-1.9-0.8c-1.1-1.1-1.1-2.8,0-3.8l7.8-7.8l7.5,7.5
			c1.1,1.1,1.1,2.8,0,3.8c-1.1,1.1-2.8,1.1-3.8,0l-3.7-3.7l-3.9,3.9C342.6,169.9,341.9,170.2,341.2,170.2"/>
		<path id="XMLID_112_" class="st7" d="M342.8,185.5c0.1-0.3,0.2-0.5,0.3-0.8c0.1-0.2,0.4-1.9,0.4-1.9c-0.2-0.2-0.4-0.3-0.5-0.4
			c-0.1,0-0.2,0-0.3,0c-0.1,0-0.2,0.1-0.4,0.1c-0.1,0.1-0.3,0.1-0.6,0.1c-0.2,0-0.4,0-0.6-0.1c-0.2-0.1-0.3-0.3-0.3-0.5V181l1.4-8.3
			c-0.1-0.1-0.2-0.2-0.4-0.3c-0.2-0.1-0.4-0.1-0.6-0.1h-0.9c-0.3,0-0.5,0-0.8,0c-0.2,0-0.5,0-0.8,0c-0.3,0-0.5,0-0.9,0
			c-0.1,0.2-0.2,0.3-0.2,0.4c0,0.1-0.1,0.1-0.2,0.1c-0.1,0-0.3,0-0.5-0.1c-0.2-0.1-0.4-0.2-0.7-0.3c-0.3-0.1-0.5-0.2-0.8-0.3
			c-0.3-0.1-0.6-0.1-1-0.1c-1,0-1.9,0.3-2.8,0.8c-0.9,0.5-1.7,1.2-2.4,2c-0.7,0.8-1.3,1.8-1.7,3c-0.4,1.1-0.7,2.3-0.7,3.6
			c0,1,0.2,1.8,0.5,2.5c0.3,0.7,0.8,1.3,1.3,1.7c0.5,0.4,1,0.8,1.5,1c0.5,0.2,1,0.3,1.4,0.3h1c0.4,0,0.9-0.1,1.3-0.3
			c0.5-0.2,0.9-0.4,1.3-0.6c0.4-0.2,0.8-0.5,1.3-0.9c0.1,0,0.2,0.1,0.3,0.3c0.1,0.2,0.3,0.4,0.6,0.7c0.2,0.2,0.6,0.5,1,0.7
			c0.4,0.2,0.9,0.3,1.6,0.3c0.6,0,1.1-0.1,1.5-0.2c0.4-0.2,0.7-0.3,0.9-0.6C342.5,186,342.7,185.8,342.8,185.5z M336.3,179.3
			c-0.2,0.5-0.4,1-0.7,1.5c-0.3,0.5-0.7,0.9-1.1,1.3c-0.4,0.4-0.9,0.6-1.5,0.6c-0.3,0-0.5-0.1-0.7-0.2c-0.2-0.1-0.3-0.3-0.5-0.5
			c-0.1-0.2-0.2-0.4-0.3-0.6c-0.1-0.2-0.1-0.5-0.1-0.7c0-0.4,0.1-0.8,0.3-1.4c0.2-0.5,0.4-1,0.8-1.5c0.3-0.5,0.7-0.9,1.1-1.2
			c0.4-0.3,0.9-0.5,1.3-0.5c0.4,0,0.8,0.2,1.1,0.6c0.3,0.4,0.4,0.8,0.4,1.4C336.5,178.4,336.5,178.8,336.3,179.3z M449.2,182.5
			c-0.2,0.1-0.3,0.2-0.5,0.2c-0.2,0.1-0.3,0.1-0.5,0.1c-0.4,0-0.7-0.1-0.8-0.3c-0.1-0.2-0.1-0.4-0.1-0.7l1.1-8.2v-0.4h-0.6
			c0,0-0.2,0-0.3,0.1c-0.2,0-0.4,0.1-0.6,0.1c-0.2,0-0.4,0.1-0.6,0.1c-0.2,0-0.3,0-0.3,0h-3.2c-0.2,0-0.3,0-0.4-0.1
			c-0.1-0.1-0.1-0.2-0.1-0.3c0-0.1,0-0.3-0.1-0.4c0-0.2-0.1-0.3-0.1-0.4c-0.1-0.1-0.2-0.2-0.4-0.3c-0.2-0.1-0.5-0.1-0.8-0.1
			c-0.4,0-0.7,0-1,0c-0.3,0-0.6,0.1-0.9,0.3c-0.3,0.2-0.5,0.5-0.6,1c-0.2,0.5-0.2,1.1-0.2,1.9c0,0.3,0,0.6,0.1,0.8
			c0.1,0.2,0.2,0.4,0.2,0.6c0.1,0.2,0.2,0.3,0.2,0.5c0.1,0.1,0.1,0.3,0.1,0.4c0,0.1,0,0.3-0.1,0.6c-0.1,0.3-0.1,0.7-0.2,1.1
			c-0.1,0.4-0.2,0.8-0.3,1.3c-0.1,0.5-0.2,0.9-0.3,1.3c-0.1,0.4-0.2,0.8-0.3,1.1c0,0,0,0,0,0c-0.1,0-0.3,0.1-0.5,0.1
			c-0.2,0-0.4,0-0.6-0.1c-0.2-0.1-0.3-0.3-0.3-0.5V181l1.4-8.3c-0.1-0.1-0.2-0.2-0.4-0.3c-0.2-0.1-0.4-0.1-0.6-0.1h-0.9
			c-0.3,0-0.5,0-0.8,0c-0.2,0-0.5,0-0.8,0c-0.3,0-0.5,0-0.9,0c-0.1,0.2-0.2,0.3-0.2,0.4c0,0.1-0.1,0.1-0.2,0.1c-0.1,0-0.3,0-0.5-0.1
			c-0.2-0.1-0.4-0.2-0.7-0.3c-0.3-0.1-0.5-0.2-0.8-0.3c-0.3-0.1-0.6-0.1-1-0.1c-1,0-1.9,0.3-2.8,0.8c-0.9,0.5-1.7,1.2-2.4,2
			c-0.7,0.8-1.3,1.8-1.7,3c-0.4,1.1-0.7,2.3-0.7,3.6c0,0.4,0,0.7,0.1,1h-0.1c-0.3,0.2-0.5,0.3-0.7,0.3c-0.2,0.1-0.3,0.1-0.5,0.1
			c-0.4,0-0.6-0.1-0.7-0.3c-0.1-0.2-0.1-0.5-0.1-0.9c0-0.2,0-0.4,0-0.5c0-0.1,0-0.2,0-0.3v-0.4c0-0.2,0-0.4,0-0.7
			c0-0.5,0.1-1,0.1-1.2c0.1-0.3,0.1-0.6,0.2-1.4c0-0.3,0-0.7,0-1.2c0-0.6-0.1-1.1-0.2-1.5c-0.1-0.4-0.3-0.8-0.5-1.1
			c-0.2-0.3-0.5-0.5-0.7-0.7c-0.3-0.2-0.5-0.3-0.7-0.4c-0.2-0.1-0.4-0.1-0.6-0.2c-0.1,0-0.2,0-0.2,0h-1.2c-0.5,0-1,0.1-1.4,0.4
			c-0.4,0.2-0.8,0.5-1.1,0.8c-0.3,0.3-0.7,0.6-1,0.9c-0.3,0.3-0.6,0.5-0.9,0.6c-0.1-0.2-0.3-0.4-0.4-0.8c-0.2-0.3-0.4-0.6-0.7-0.9
			c-0.3-0.3-0.6-0.5-1-0.7c-0.4-0.2-0.9-0.3-1.5-0.3c-0.7,0-1.2,0.1-1.7,0.4c-0.5,0.2-0.9,0.5-1.3,0.8c-0.4,0.3-0.7,0.6-1,0.9
			c-0.3,0.3-0.5,0.5-0.8,0.7v-2.3h-3.4c-0.3,0-0.5,0.1-0.6,0.4c-0.1,0.3-0.2,0.7-0.2,1.2c0,0.5-0.1,1.2-0.1,2c0,0.8-0.1,1.7-0.3,2.8
			c-0.2,0.9-0.3,1.7-0.3,2.5c0,0.4-0.1,0.8-0.1,1.2c-0.1,0-0.1-0.1-0.2-0.1c-0.1,0-0.2,0-0.3,0c-0.1,0-0.2,0.1-0.4,0.1
			c-0.1,0.1-0.3,0.1-0.6,0.1c-0.2,0-0.4,0-0.6-0.1c-0.2-0.1-0.3-0.3-0.3-0.5V181l1.4-8.3c-0.1-0.1-0.2-0.2-0.4-0.3
			c-0.2-0.1-0.4-0.1-0.6-0.1h-0.9c-0.3,0-0.5,0-0.8,0c-0.2,0-0.5,0-0.8,0c-0.3,0-0.5,0-0.9,0c-0.1,0.2-0.2,0.3-0.2,0.4
			c0,0.1-0.1,0.1-0.2,0.1c-0.1,0-0.3,0-0.5-0.1c-0.2-0.1-0.4-0.2-0.7-0.3c-0.3-0.1-0.5-0.2-0.8-0.3c-0.3-0.1-0.6-0.1-1-0.1
			c-1,0-1.9,0.3-2.8,0.8c-0.9,0.5-1.7,1.2-2.4,2c-0.7,0.8-1.3,1.8-1.7,3c-0.4,1.1-0.7,2.3-0.7,3.6c0,0.6,0.1,1.1,0.2,1.6
			c-0.1,0-0.2,0-0.3,0c-0.2,0-0.3-0.1-0.5-0.2c-0.2-0.1-0.4-0.4-0.7-0.7c-0.3-0.4-0.6-0.8-1-1.3c-0.4-0.5-0.7-1-1.1-1.6
			c-0.4-0.5-0.7-1.1-1.1-1.5c-0.3-0.5-0.6-0.9-0.8-1.2c-0.2-0.3-0.3-0.5-0.4-0.6l9.9-11.7h-4.6c-0.2,0-0.4,0.1-0.7,0.3
			c-0.3,0.2-0.5,0.5-0.8,0.8c-0.3,0.3-0.5,0.6-0.7,0.8c-0.2,0.3-0.4,0.5-0.4,0.5c0,0-0.2,0.2-0.5,0.5c-0.3,0.3-0.7,0.8-1.2,1.3
			c-0.5,0.5-1,1.1-1.6,1.7c-0.6,0.6-1.1,1.2-1.6,1.7c-0.5,0.5-0.9,1-1.3,1.4c-0.4,0.4-0.6,0.6-0.7,0.6l-0.1-0.2v-0.5l0.9-8.5
			c0-0.1-0.1-0.2-0.1-0.3c0-0.1-0.1-0.1-0.1-0.1c-0.1,0-0.1,0-0.2,0c-0.1,0-0.3,0-0.5,0h-3.4l-1.9,18.3c-0.1-0.1-0.2-0.1-0.2-0.1
			c-0.1,0-0.2,0-0.3,0c-0.1,0-0.2,0.1-0.4,0.1c-0.1,0.1-0.3,0.1-0.6,0.1c-0.2,0-0.4,0-0.6-0.1c-0.2-0.1-0.3-0.3-0.3-0.5V181l1.4-8.3
			c-0.1-0.1-0.2-0.2-0.4-0.3c-0.2-0.1-0.4-0.1-0.6-0.1h-0.9c-0.3,0-0.5,0-0.8,0c-0.2,0-0.5,0-0.8,0c-0.3,0-0.5,0-0.9,0
			c-0.1,0.2-0.2,0.3-0.2,0.4c0,0.1-0.1,0.1-0.2,0.1c-0.1,0-0.3,0-0.5-0.1c-0.2-0.1-0.4-0.2-0.7-0.3c-0.3-0.1-0.5-0.2-0.8-0.3
			c-0.3-0.1-0.6-0.1-1-0.1c-1,0-1.9,0.3-2.8,0.8c-0.9,0.5-1.7,1.2-2.4,2c-0.7,0.8-1.3,1.8-1.7,3c-0.4,1.1-0.7,2.3-0.7,3.6
			c0,0.1,0,0.2,0,0.3h0c-0.4,0.2-0.7,0.3-1.1,0.4c-0.3,0.1-0.6,0.2-0.9,0.2v-1.1c0-0.5,0.9-9.2,0.9-9.2h-4c0,0,0,0,0,0l-0.9,0
			c0,0-0.6,0.4-0.4,0.9c0.1,0.3,1,0.6,1.1,1.1c0,0,0,0.1,0,0.1c0,0.2,0,0.3-0.1,0.5c-0.2,1.5-0.4,3.5-0.6,6.1
			c-0.1,1.3-0.8,6.8-1,7.7c-0.2,0.8-0.4,2.1-0.5,2.6c-0.2,0.5-0.3,0.9-0.5,1.2c-0.2,0.3-0.3,0.5-0.4,0.7c-0.1,0.2-0.2,0.4-0.3,0.6
			c-0.1,0.2-0.1,0.5-0.1,0.9v1.6c0,0.4,0.1,0.7,0.2,1c0.1,0.3,0.3,0.5,0.6,0.5h3c0.3-0.4,0.5-0.8,0.7-1.2c0.2-0.4,0.4-0.9,0.5-1.3
			c0.1-0.4,0.2-0.8,0.3-1.2c0.1-0.4,0.7-5.7,0.7-6c0-0.3,0.1-0.6,0.3-0.8c0.2-0.2,0.3-0.3,0.6-0.4c0.2-0.1,0.5-0.2,0.7-0.3
			c0.3-0.1,0.5-0.2,0.7-0.3c0.2-0.1,0.4-0.3,0.6-0.6c0.2-0.2,0.3-0.6,0.3-1v-0.9c0,0.1,0.1,0.2,0.1,0.3c0.3,0.7,0.8,1.3,1.3,1.7
			c0.5,0.4,1,0.8,1.5,1c0.5,0.2,1,0.3,1.4,0.3h1c0.4,0,0.9-0.1,1.3-0.3c0.5-0.2,0.9-0.4,1.3-0.6c0.4-0.2,0.8-0.5,1.3-0.9
			c0.1,0,0.2,0.1,0.3,0.3c0.1,0.2,0.3,0.4,0.6,0.7c0.2,0.2,0.6,0.5,1,0.7c0.4,0.2,0.9,0.3,1.6,0.3c0.6,0,1.1-0.1,1.5-0.2
			c0.4-0.2,0.7-0.3,0.9-0.6c0.2-0.2,0.4-0.5,0.5-0.8c0-0.1,0-0.1,0.1-0.2l-0.1,1.2c0,0,0,0.1,0,0.1c0,0,0,0.1,0,0.1
			c0,0,0.1,0.1,0.2,0.1c0.1,0,0.3,0,0.5,0h3.8l0.9-9.1h0.3c0.4,0.5,0.8,1.1,1.3,1.8c0.5,0.7,1,1.4,1.5,2.1c0.5,0.7,1,1.4,1.6,2.1
			c0.5,0.7,1.1,1.3,1.7,1.8c0.6,0.5,1.1,1,1.7,1.3c0.6,0.3,1.2,0.5,1.7,0.5h1c0.2,0,0.4,0,0.6-0.1c0.2-0.1,0.4-0.1,0.6-0.2
			c0.2-0.1,0.3-0.2,0.4-0.3c0.1-0.1,0.2-0.1,0.2-0.2c-0.1-0.3-0.1-0.5-0.2-0.7c0.4,0.3,0.8,0.6,1.3,0.8c0.5,0.2,1,0.3,1.4,0.3h1
			c0.4,0,0.9-0.1,1.3-0.3c0.5-0.2,0.9-0.4,1.3-0.6c0.4-0.2,0.8-0.5,1.3-0.9c0.1,0,0.2,0.1,0.3,0.3c0.1,0.2,0.3,0.4,0.6,0.7
			c0.2,0.2,0.6,0.5,1,0.7c0.4,0.2,0.9,0.3,1.6,0.3c0.6,0,1.1-0.1,1.5-0.2c0.4-0.2,0.7-0.3,0.9-0.6c0.2-0.2,0.4-0.5,0.5-0.8
			c0-0.1,0.1-0.2,0.1-0.3c0,0.2-0.1,0.4-0.1,0.6v1h3.4c0.2,0,0.4,0,0.5-0.1c0.1-0.1,0.1-0.2,0.2-0.4c0-0.2,0.1-0.4,0.1-0.7
			c0-0.3,0.1-0.7,0.1-1.2c0.2-1.1,0.4-2,0.7-2.8c0.3-0.8,0.6-1.4,0.9-2c0.3-0.5,0.6-1,0.9-1.3c0.3-0.3,0.6-0.6,0.8-0.8
			c0.2-0.2,0.5-0.3,0.6-0.4c0.2-0.1,0.3-0.1,0.3-0.1c0.3,0,0.5,0.1,0.7,0.3c0.2,0.2,0.3,0.5,0.3,0.8c0,0.5,0,1-0.1,1.7
			c-0.1,0.7-0.2,1.3-0.3,2c-0.1,0.6-0.2,1.4-0.4,2.3v2.5h3.3c0.2,0,0.4-0.2,0.5-0.7c0.2-0.5,0.3-1.1,0.5-1.8
			c0.2-0.7,0.4-1.5,0.6-2.4c0.2-0.9,0.5-1.6,0.8-2.4c0.3-0.7,0.7-1.3,1.1-1.8c0.4-0.5,0.9-0.7,1.5-0.7c0.3,0,0.5,0.1,0.7,0.3
			c0.1,0.2,0.2,0.5,0.2,0.9c0,0.2,0,0.5-0.1,1c0,0.5-0.1,0.9-0.2,1.4c-0.1,0.5-0.1,1-0.2,1.7v1.4c0,0.3,0.1,0.7,0.3,1.1
			c0.2,0.4,0.4,0.7,0.8,1.1c0.3,0.3,0.6,0.6,1,0.8c0.4,0.2,0.8,0.3,1.1,0.3h1c0.8,0,1.4-0.1,1.7-0.4c0.3-0.3,0.6-0.6,0.7-1
			c0.1-0.4,0.2-0.8,0.2-1.3c0-0.3,0-0.6,0.1-0.9c0.1,0.1,0.1,0.3,0.2,0.4c0.3,0.7,0.8,1.3,1.3,1.7c0.5,0.4,1,0.8,1.5,1
			c0.5,0.2,1,0.3,1.4,0.3h1c0.4,0,0.9-0.1,1.3-0.3c0.5-0.2,0.9-0.4,1.3-0.6c0.4-0.2,0.8-0.5,1.3-0.9c0.1,0,0.2,0.1,0.3,0.3
			c0.1,0.2,0.3,0.4,0.6,0.7c0.2,0.2,0.6,0.5,1,0.7c0.4,0.2,0.9,0.3,1.6,0.3c0.4,0,0.7,0,1-0.1c0,0,0,0,0,0c0.2,0,1,0,1.8-0.5
			c1.8-1,1.9-1.5,2.2-2.1c0.1-0.3,0.2-0.7,0.3-1.5c0.1-0.4,0.3-1.1,0.4-1.6c0.1-0.5,0.2-0.9,0.3-1.4c0.1-0.5,0.2-0.9,0.3-1.3
			c0.1-0.4,0.2-0.7,0.4-0.9c0.2-0.2,0.3-0.4,0.6-0.4h0.4c0.1,0,0.3,0,0.4,0.1c0.1,0,0.2,0.1,0.3,0.2c0.1,0.1,0.2,0.2,0.2,0.4
			l-0.6,4.5v1.4c0,0.3,0.1,0.6,0.2,1c0.1,0.4,0.4,0.7,0.6,1c0.3,0.3,0.6,0.5,1,0.7c0.4,0.2,0.8,0.3,1.3,0.3c0.6,0,1.1,0,1.5-0.1
			c0.4-0.1,0.7-0.2,0.9-0.4c0.2-0.2,0.3-0.4,0.4-0.6c0.1-0.2,0.1-0.5,0.1-0.8c0-0.3,0.1-0.6,0.1-0.9c0-0.3,0.1-0.7,0.2-1v-0.4H449.2
			z M359.8,179.3c-0.2,0.5-0.4,1-0.7,1.5c-0.3,0.5-0.7,0.9-1.1,1.3c-0.4,0.4-0.9,0.6-1.5,0.6c-0.3,0-0.5-0.1-0.7-0.2
			c-0.2-0.1-0.3-0.3-0.5-0.5c-0.1-0.2-0.2-0.4-0.3-0.6c-0.1-0.2-0.1-0.5-0.1-0.7c0-0.4,0.1-0.8,0.3-1.4c0.2-0.5,0.4-1,0.8-1.5
			c0.3-0.5,0.7-0.9,1.1-1.2c0.4-0.3,0.9-0.5,1.3-0.5c0.4,0,0.8,0.2,1.1,0.6c0.3,0.4,0.4,0.8,0.4,1.4
			C360,178.4,359.9,178.8,359.8,179.3z M391.4,179.3c-0.2,0.5-0.4,1-0.7,1.5c-0.3,0.5-0.7,0.9-1.1,1.3c-0.4,0.4-0.9,0.6-1.5,0.6
			c-0.3,0-0.5-0.1-0.7-0.2c-0.2-0.1-0.3-0.3-0.5-0.5c-0.1-0.2-0.2-0.4-0.3-0.6c-0.1-0.2-0.1-0.5-0.1-0.7c0-0.4,0.1-0.8,0.3-1.4
			c0.2-0.5,0.4-1,0.8-1.5c0.3-0.5,0.7-0.9,1.1-1.2c0.4-0.3,0.9-0.5,1.3-0.5c0.4,0,0.8,0.2,1.1,0.6c0.3,0.4,0.4,0.8,0.4,1.4
			C391.7,178.4,391.6,178.8,391.4,179.3z M431.5,179.3c-0.2,0.5-0.4,1-0.7,1.5c-0.3,0.5-0.7,0.9-1.1,1.3c-0.4,0.4-0.9,0.6-1.5,0.6
			c-0.3,0-0.5-0.1-0.7-0.2c-0.2-0.1-0.3-0.3-0.5-0.5c-0.1-0.2-0.2-0.4-0.3-0.6c-0.1-0.2-0.1-0.5-0.1-0.7c0-0.4,0.1-0.8,0.3-1.4
			c0.2-0.5,0.4-1,0.8-1.5c0.3-0.5,0.7-0.9,1.1-1.2c0.4-0.3,0.9-0.5,1.3-0.5c0.4,0,0.8,0.2,1.1,0.6c0.3,0.4,0.4,0.8,0.4,1.4
			C431.7,178.4,431.7,178.8,431.5,179.3z M326.2,182.4c-0.1,0-0.2,0-0.4,0.1c-0.2,0-0.5,0-0.9,0c-0.3,0-0.7-0.1-1-0.3
			c-0.3-0.2-0.7-0.5-1-0.8c-0.3-0.3-0.6-0.6-0.9-1c-0.3-0.3-0.5-0.7-0.7-0.9c-0.2-0.3-0.3-0.5-0.5-0.7c-0.1-0.2-0.2-0.3-0.2-0.3
			c0-0.1,0.1-0.3,0.3-0.5c0.2-0.2,0.5-0.4,0.9-0.6c0.3-0.2,0.7-0.5,1.1-0.9c0.4-0.3,0.8-0.7,1.1-1.1c0.3-0.4,0.6-0.9,0.9-1.4
			c0.2-0.5,0.3-1.1,0.3-1.8v-1.5c0-0.7-0.1-1.3-0.4-1.8c-0.3-0.6-0.6-1.1-1-1.5c-0.4-0.5-0.9-0.9-1.5-1.2c-0.6-0.4-1.1-0.7-1.7-0.9
			c-0.6-0.2-1.2-0.4-1.8-0.6c-0.6-0.1-1.1-0.2-1.6-0.2c-0.5,0-1,0-1.4,0c-0.4,0-0.8,0-1.4,0c-1.4,0-2.5,0-3.3,0.2
			c-0.8,0.1-1.5,0.3-2,0.6c-0.5,0.3-0.8,0.6-1,0.9c-0.2,0.3-0.3,0.7-0.4,1c-0.1,0.4-0.1,0.7-0.1,1c0,0.3,0,0.6-0.1,0.9v1.3
			c0.2,0,0.6-0.2,1.2-0.4c0.6-0.2,1.3-0.4,2-0.6c0.7-0.2,1.5-0.4,2.2-0.6c0.7-0.2,1.2-0.2,1.6-0.2h2.3c0.5,0,1,0.1,1.4,0.2
			c0.5,0.2,0.9,0.4,1.2,0.6c0.4,0.3,0.6,0.5,0.8,0.9c0.2,0.3,0.3,0.7,0.3,1c0,0.3-0.1,0.7-0.3,1c-0.2,0.4-0.5,0.7-0.8,1.1
			c-0.3,0.3-0.7,0.6-1.2,0.8c-0.5,0.2-0.9,0.3-1.4,0.3H316v-4.3H312c0,0-0.1,0.2-0.3,0.7c-0.1,0.4-0.9,7.4-0.9,7.4l-0.9,8.2
			c0,0.1,0.1,0.2,0.1,0.3c0,0.1,0.1,0.1,0.1,0.1c0.1,0,0.1,0,0.2,0c0.1,0,0.2,0,0.4,0h3.4c0,0,0.8-6.8,1-7.4
			c0.3,0.2,0.7,0.6,1.1,1.1c0.4,0.5,0.8,1,1.3,1.6c0.4,0.6,0.9,1.2,1.4,1.8c0.5,0.6,1,1.2,1.5,1.7c0.5,0.5,1,0.9,1.6,1.2
			c0.5,0.3,1.1,0.5,1.7,0.5c0.6,0,1.2-0.1,1.5-0.2c0.4-0.1,0.7-0.3,0.9-0.5c0.2-0.2,0.3-0.5,0.4-0.7c0.1-0.3,0.1-0.6,0.1-0.9
			c0-0.3,0-0.6,0-1c0-0.3,0.1-0.6,0.2-0.9v-0.5c-0.2-0.1-0.3-0.1-0.4-0.1C326.4,182.4,326.3,182.4,326.2,182.4z"/>
	</g>
	
		<text id="XMLID_28_" transform="matrix(1 0 0 1 450.5583 186.6904)" class="st7" style="font-family:'MyriadPro-BoldIt'; font-size:22.1231px; letter-spacing:-1;">.com</text>
</g>
</svg>
