<?xml version="1.0" encoding="utf-8"?>
<!-- Generator: Adobe Illustrator 19.0.0, SVG Export Plug-In . SVG Version: 6.00 Build 0)  -->
<svg version="1.1" id="Layer_1" xmlns="http://www.w3.org/2000/svg" xmlns:xlink="http://www.w3.org/1999/xlink" x="0px" y="0px"
	 viewBox="0 0 300 40" style="enable-background:new 0 0 300 40;" xml:space="preserve">
<style type="text/css">
	.st0{fill:#004268;}
	.st1{fill:#939598;}
	.st2{fill:#0A8393;}
	.st3{fill:#231F20;}
	.st4{fill:#333333;}
	.st5{fill:#7B1233;}
	.st6{fill:#FBDA33;}
	.st7{fill:#296834;}
</style>
<g id="XMLID_131_">
	<path id="XMLID_168_" class="st0" d="M45.5,86.8c-2.8,0-5,0.8-6.5,2.4c-1.5,1.6-2.2,3.9-2.2,6.7c0,1.4,0.2,2.6,0.5,3.7
		c0.4,1.1,0.9,2.1,1.6,2.9c0.7,0.8,1.6,1.4,2.6,1.9c1,0.5,2.3,0.7,3.7,0.7c0.9,0,1.6,0,2.3-0.1c0.6-0.1,1.1-0.1,1.5-0.2v-9.1h5v12.1
		c-0.7,0.2-1.9,0.5-3.5,0.8c-1.6,0.3-3.5,0.4-5.7,0.4c-2,0-3.8-0.3-5.4-0.9c-1.6-0.6-3-1.4-4.2-2.6c-1.1-1.1-2-2.5-2.7-4.1
		c-0.6-1.6-1-3.5-1-5.6c0-2.1,0.3-4,1.1-5.6c0.7-1.6,1.7-3,2.9-4.1c1.2-1.1,2.6-2,4.3-2.6c1.6-0.6,3.4-0.9,5.2-0.9
		c1.3,0,2.4,0.1,3.4,0.2c1,0.2,1.8,0.3,2.6,0.5c0.7,0.2,1.3,0.4,1.8,0.6c0.5,0.2,0.8,0.4,1,0.5l-1.5,3.8c-0.8-0.4-1.8-0.8-3-1.1
		C48,86.9,46.8,86.8,45.5,86.8z"/>
	<path id="XMLID_162_" class="st1" d="M64.8,92c0.4-0.2,1-0.5,1.8-0.8c0.8-0.3,1.7-0.4,2.8-0.4c1.3,0,2.5,0.2,3.5,0.7
		c1,0.4,1.9,1,2.6,1.8c0.7,0.8,1.2,1.7,1.6,2.8c0.4,1.1,0.5,2.3,0.5,3.6c0,1.4-0.2,2.6-0.6,3.7c-0.4,1.1-1,2-1.8,2.8
		c-0.8,0.8-1.7,1.4-2.9,1.8c-1.1,0.4-2.4,0.6-3.8,0.6c-1.5,0-2.8-0.1-4-0.3c-1.2-0.2-2.1-0.4-2.9-0.6V83.4l3.2-0.5V92z M64.8,105.7
		c0.3,0.1,0.8,0.2,1.4,0.2c0.6,0.1,1.3,0.1,2.2,0.1c1.7,0,3.1-0.5,4.2-1.6c1.1-1.1,1.6-2.6,1.6-4.6c0-0.9-0.1-1.7-0.3-2.5
		c-0.2-0.8-0.5-1.4-0.9-2c-0.4-0.6-1-1-1.6-1.3c-0.7-0.3-1.5-0.5-2.4-0.5c-0.9,0-1.7,0.1-2.4,0.4c-0.7,0.3-1.3,0.6-1.7,0.9V105.7z"
		/>
	<path id="XMLID_158_" class="st1" d="M80.3,99.8c0-1.5,0.2-2.8,0.7-3.9c0.5-1.1,1.1-2.1,1.8-2.8c0.8-0.7,1.7-1.3,2.7-1.7
		c1-0.4,2-0.6,3.1-0.6c2.4,0,4.3,0.7,5.6,2.1c1.3,1.4,2,3.6,2,6.5c0,0.1,0,0.3,0,0.5c0,0.2,0,0.4,0,0.6H83.7c0.1,1.8,0.7,3.1,1.6,4
		c1,0.9,2.4,1.4,4.5,1.4c1.1,0,2.1-0.1,2.9-0.3c0.8-0.2,1.4-0.4,1.8-0.5l0.5,2.6c-0.4,0.2-1.1,0.4-2.1,0.6c-1,0.2-2.1,0.3-3.4,0.3
		c-1.6,0-2.9-0.2-4.1-0.7c-1.2-0.5-2.1-1.1-2.8-1.9c-0.7-0.8-1.3-1.7-1.7-2.8C80.5,102.3,80.3,101.1,80.3,99.8z M92.7,98.2
		c0-1.4-0.3-2.5-1.1-3.4c-0.8-0.9-1.8-1.3-3.1-1.3c-0.7,0-1.4,0.1-2,0.4c-0.6,0.3-1.1,0.6-1.4,1.1c-0.4,0.4-0.7,0.9-0.9,1.5
		c-0.2,0.6-0.4,1.1-0.4,1.7H92.7z"/>
	<path id="XMLID_153_" class="st1" d="M111.5,83.4l3.2-0.5v24.9c-0.7,0.2-1.7,0.4-2.9,0.6c-1.2,0.2-2.5,0.3-4,0.3
		c-1.4,0-2.7-0.2-3.8-0.6c-1.1-0.4-2.1-1-2.9-1.8c-0.8-0.8-1.4-1.7-1.8-2.8c-0.4-1.1-0.6-2.3-0.6-3.7c0-1.3,0.2-2.5,0.5-3.6
		c0.4-1.1,0.9-2,1.6-2.8c0.7-0.8,1.6-1.4,2.6-1.8c1-0.4,2.2-0.7,3.5-0.7c1,0,2,0.1,2.8,0.4c0.8,0.3,1.4,0.5,1.8,0.8V83.4z
		 M111.5,94.9c-0.4-0.3-1-0.6-1.7-0.9c-0.7-0.3-1.6-0.4-2.4-0.4c-0.9,0-1.7,0.2-2.4,0.5c-0.7,0.3-1.2,0.8-1.6,1.3
		c-0.4,0.6-0.7,1.2-0.9,2c-0.2,0.8-0.3,1.6-0.3,2.5c0,2,0.5,3.5,1.6,4.6c1.1,1.1,2.4,1.6,4.2,1.6c0.9,0,1.6,0,2.2-0.1
		c0.6-0.1,1-0.2,1.4-0.2V94.9z"/>
	<path id="XMLID_148_" class="st1" d="M122.6,92c0.4-0.2,1-0.5,1.8-0.8c0.8-0.3,1.7-0.4,2.8-0.4c1.3,0,2.5,0.2,3.5,0.7
		c1,0.4,1.9,1,2.6,1.8c0.7,0.8,1.2,1.7,1.6,2.8c0.4,1.1,0.5,2.3,0.5,3.6c0,1.4-0.2,2.6-0.6,3.7c-0.4,1.1-1,2-1.8,2.8
		c-0.8,0.8-1.7,1.4-2.9,1.8c-1.1,0.4-2.4,0.6-3.8,0.6c-1.5,0-2.8-0.1-4-0.3c-1.2-0.2-2.1-0.4-2.9-0.6V83.4l3.2-0.5V92z M122.6,105.7
		c0.3,0.1,0.8,0.2,1.4,0.2c0.6,0.1,1.3,0.1,2.2,0.1c1.7,0,3.1-0.5,4.2-1.6c1-1.1,1.6-2.6,1.6-4.6c0-0.9-0.1-1.7-0.3-2.5
		c-0.2-0.8-0.5-1.4-0.9-2c-0.4-0.6-1-1-1.6-1.3c-0.7-0.3-1.5-0.5-2.4-0.5c-0.9,0-1.7,0.1-2.4,0.4c-0.7,0.3-1.3,0.6-1.7,0.9V105.7z"
		/>
	<path id="XMLID_142_" class="st1" d="M145,90.9c1.3,0,2.4,0.2,3.3,0.5c0.9,0.3,1.6,0.8,2.2,1.3c0.5,0.6,0.9,1.3,1.2,2.1
		c0.2,0.8,0.3,1.7,0.3,2.6V108c-0.3,0-0.7,0.1-1.2,0.2c-0.5,0.1-1.1,0.2-1.7,0.2c-0.6,0.1-1.3,0.1-2,0.2c-0.7,0.1-1.5,0.1-2.2,0.1
		c-1,0-2-0.1-2.8-0.3c-0.9-0.2-1.6-0.5-2.2-0.9c-0.6-0.4-1.1-1-1.5-1.7c-0.4-0.7-0.5-1.5-0.5-2.5c0-0.9,0.2-1.7,0.6-2.4
		c0.4-0.7,1-1.2,1.7-1.6c0.7-0.4,1.5-0.7,2.4-0.9c0.9-0.2,1.9-0.3,2.9-0.3c0.3,0,0.7,0,1,0c0.4,0,0.7,0.1,1,0.1
		c0.3,0.1,0.6,0.1,0.8,0.1c0.2,0,0.4,0.1,0.5,0.1v-0.9c0-0.5-0.1-1-0.2-1.5c-0.1-0.5-0.3-0.9-0.6-1.3c-0.3-0.4-0.7-0.7-1.2-0.9
		c-0.5-0.2-1.2-0.3-2-0.3c-1.1,0-2,0.1-2.8,0.2c-0.8,0.1-1.4,0.3-1.8,0.4l-0.4-2.5c0.4-0.2,1.1-0.3,2.1-0.5
		C142.8,91,143.9,90.9,145,90.9z M145.3,106.1c0.8,0,1.4,0,2,0c0.6,0,1.1-0.1,1.5-0.2v-5.1c-0.2-0.1-0.6-0.2-1.1-0.3
		c-0.5-0.1-1.2-0.1-1.9-0.1c-0.5,0-1,0-1.6,0.1c-0.5,0.1-1,0.2-1.5,0.4c-0.5,0.2-0.8,0.5-1.1,0.9c-0.3,0.4-0.5,0.8-0.5,1.4
		c0,1.1,0.4,1.9,1.1,2.3C143,105.9,144,106.1,145.3,106.1z"/>
	<path id="XMLID_138_" class="st1" d="M155.8,91.8c0.7-0.2,1.7-0.4,3-0.6c1.2-0.2,2.7-0.3,4.3-0.3c1.4,0,2.6,0.2,3.6,0.6
		c1,0.4,1.7,0.9,2.3,1.6c0.6,0.7,1,1.5,1.2,2.5c0.2,1,0.4,2,0.4,3.2v9.6h-3.2v-8.9c0-1-0.1-1.9-0.2-2.7c-0.1-0.7-0.4-1.3-0.7-1.8
		c-0.3-0.5-0.8-0.8-1.4-1c-0.6-0.2-1.3-0.3-2.2-0.3c-0.3,0-0.7,0-1.1,0c-0.4,0-0.7,0-1.1,0.1c-0.3,0-0.6,0.1-0.9,0.1
		c-0.3,0-0.5,0.1-0.6,0.1v14.4h-3.2V91.8z"/>
	<path id="XMLID_135_" class="st1" d="M181.6,99c0.7,0.5,1.4,1.1,2.2,1.9c0.8,0.7,1.5,1.5,2.3,2.4c0.8,0.9,1.5,1.7,2.1,2.6
		c0.7,0.9,1.2,1.7,1.7,2.5h-3.8c-0.5-0.8-1.1-1.5-1.7-2.3c-0.6-0.8-1.3-1.6-2-2.3c-0.7-0.7-1.4-1.4-2.1-2c-0.7-0.6-1.4-1.1-2.1-1.5
		v8.2h-3.2V83.4l3.2-0.5v15.5c0.6-0.5,1.2-1.1,1.8-1.7c0.7-0.6,1.3-1.3,2-1.9c0.6-0.7,1.3-1.3,1.8-1.9c0.6-0.6,1.1-1.1,1.5-1.6h3.8
		c-0.5,0.5-1.1,1.1-1.7,1.8c-0.6,0.7-1.3,1.3-2,2c-0.7,0.7-1.4,1.3-2,2C182.9,97.8,182.2,98.4,181.6,99z"/>
	<path id="XMLID_1_" class="st0" d="M23,82.9h-0.6c-0.6,0.9-1.2,2.1-1.9,3.4c-0.7,1.3-1.4,2.7-2.2,4.2c-0.7,1.5-1.5,3-2.2,4.5
		c-0.7,1.5-1.4,2.9-2,4.2c-0.6-1.3-1.3-2.7-2-4.2c-0.7-1.5-1.5-3-2.2-4.5c-0.7-1.5-1.5-2.9-2.2-4.2c-0.7-1.3-1.4-2.5-1.9-3.4H4.9H0
		v25.7h4.9V90.6c0-0.2,0-0.4,0.1-0.6c0.3,0.5,0.6,1.2,1,2c0.4,0.8,0.8,1.6,1.3,2.5c0.4,0.9,0.9,1.8,1.4,2.8c0.5,1,0.9,1.9,1.3,2.8
		c0.4,0.9,0.8,1.8,1.2,2.6c0.4,0.8,0.7,1.5,1,2h3.7c0.3-0.6,0.6-1.2,1-2c0.4-0.8,0.8-1.6,1.2-2.6c0.4-0.9,0.9-1.9,1.3-2.8
		c0.5-1,0.9-1.9,1.4-2.8c0.4-0.9,0.9-1.8,1.3-2.5c0.4-0.7,0.7-1.3,0.9-1.8v18.4h4.9V82.9H23z"/>
</g>
<g id="XMLID_212_">
	<path id="XMLID_240_" class="st2" d="M76.7,150.3c-1.5,0-2.7-0.2-3.7-0.5c-0.9-0.3-1.7-0.7-2.2-1.3c-0.5-0.5-0.9-1.2-1.1-2
		c-0.2-0.8-0.3-1.6-0.3-2.6v-23l5.2-0.8v22.8c0,0.5,0,0.9,0.1,1.3c0.1,0.4,0.2,0.7,0.4,0.9c0.2,0.3,0.5,0.5,0.8,0.6
		c0.4,0.2,0.9,0.3,1.5,0.3L76.7,150.3z"/>
	<path id="XMLID_237_" class="st2" d="M98,144.4c0,1,0.3,1.8,1.2,1.8c0.7,0,1.2-0.2,1.8-0.6l0.2,3.9c-0.9,0.4-2.4,0.8-4,0.8
		c-2,0-3.3-0.8-3.9-2.6c-1.2,1.5-3.3,2.6-5.8,2.6c-5.1,0-8.5-3.9-8.5-9.3c0-5.5,3.4-9.4,8.5-9.4c2.4,0,4.2,0.7,5.4,1.9v-1.6H98
		V144.4z M93.2,137.4c-0.8-0.9-2.4-1.6-4.1-1.6c-3,0-4.9,2.1-4.9,5.2c0,3.1,1.9,5.1,4.9,5.1c1.6,0,3.1-0.7,4.1-1.6V137.4z"/>
	<path id="XMLID_235_" class="st2" d="M41.8,150.3c-1.5,0-2.7-0.2-3.7-0.5c-0.9-0.3-1.7-0.7-2.2-1.3c-0.5-0.5-0.9-1.2-1.1-2
		c-0.2-0.8-0.3-1.6-0.3-2.6v-23l5.2-0.8v22.8c0,0.5,0,0.9,0.1,1.3c0.1,0.4,0.2,0.7,0.4,0.9c0.2,0.3,0.5,0.5,0.9,0.6
		c0.4,0.2,0.9,0.3,1.5,0.3L41.8,150.3z"/>
	<path id="XMLID_232_" class="st2" d="M63.2,144.4c0,1,0.3,1.8,1.3,1.8c0.7,0,1.3-0.2,1.8-0.6l0.2,3.9c-0.9,0.4-2.4,0.8-4,0.8
		c-2,0-3.3-0.8-3.9-2.6c-1.2,1.5-3.3,2.6-5.8,2.6c-5.1,0-8.5-3.9-8.5-9.3c0-5.5,3.4-9.4,8.5-9.4c2.4,0,4.2,0.7,5.4,1.9v-1.6h4.9
		V144.4z M58.3,137.4c-0.8-0.9-2.4-1.6-4.1-1.6c-3,0-4.9,2.1-4.9,5.2c0,3.1,1.9,5.1,4.9,5.1c1.6,0,3.1-0.7,4.1-1.6V137.4z"/>
	<path id="XMLID_230_" class="st2" d="M7.3,150.3c-1.5,0-2.7-0.2-3.7-0.5c-0.9-0.3-1.7-0.7-2.2-1.3c-0.5-0.5-0.9-1.2-1.1-2
		C0.1,145.8,0,144.9,0,144v-23l5.2-0.8v22.8c0,0.5,0,0.9,0.1,1.3c0.1,0.4,0.2,0.7,0.4,0.9c0.2,0.3,0.5,0.5,0.9,0.6
		c0.4,0.2,0.9,0.3,1.5,0.3L7.3,150.3z"/>
	<path id="XMLID_227_" class="st2" d="M28.6,144.4c0,1,0.3,1.8,1.2,1.8c0.7,0,1.3-0.2,1.8-0.6l0.2,3.9c-0.9,0.4-2.4,0.8-4,0.8
		c-2.1,0-3.3-0.8-3.9-2.6c-1.3,1.5-3.3,2.6-5.8,2.6c-5.1,0-8.5-3.9-8.5-9.3c0-5.5,3.4-9.4,8.5-9.4c2.4,0,4.2,0.7,5.4,1.9v-1.6h4.9
		V144.4z M23.7,137.4c-0.8-0.9-2.4-1.6-4.1-1.6c-3,0-4.9,2.1-4.9,5.2c0,3.1,1.9,5.1,4.9,5.1c1.6,0,3.1-0.7,4.1-1.6V137.4z"/>
	<path id="XMLID_225_" class="st2" d="M114.6,139.5c-0.5,1.8-1,3.5-1.5,5.2c-0.5,1.7-1.1,3.5-1.6,5.2h-4c-0.4-1-0.9-2.1-1.4-3.5
		c-0.5-1.3-1-2.8-1.5-4.4c-0.5-1.6-1.1-3.3-1.6-5c-0.5-1.8-1.1-3.6-1.6-5.4h5.5c0.2,0.8,0.4,1.8,0.6,2.7c0.2,1,0.5,2,0.7,3
		c0.2,1,0.5,2.1,0.8,3.1c0.3,1.1,0.5,2.1,0.8,3c0.3-1,0.6-2.1,0.9-3.1c0.3-1.1,0.6-2.1,0.8-3.1c0.3-1,0.5-2,0.8-3
		c0.2-1,0.5-1.9,0.6-2.7h3.8c0.2,0.8,0.4,1.7,0.6,2.7c0.2,1,0.5,2,0.7,3c0.3,1,0.5,2.1,0.8,3.1c0.3,1.1,0.6,2.1,0.9,3.1
		c0.3-1,0.6-2,0.8-3c0.3-1.1,0.5-2.1,0.8-3.1c0.2-1,0.5-2.1,0.7-3c0.2-1,0.4-1.9,0.6-2.7h5.4c-0.5,1.8-1,3.6-1.6,5.4
		c-0.5,1.8-1.1,3.4-1.6,5c-0.5,1.6-1,3.1-1.5,4.4c-0.5,1.3-1,2.5-1.4,3.5h-4c-0.6-1.8-1.1-3.5-1.7-5.2
		C115.5,143,115,141.3,114.6,139.5z"/>
	<path id="XMLID_222_" class="st2" d="M147.3,144.4c0,1,0.3,1.8,1.2,1.8c0.7,0,1.3-0.2,1.8-0.6l0.2,3.9c-0.9,0.4-2.4,0.8-4,0.8
		c-2.1,0-3.3-0.8-3.9-2.6c-1.2,1.5-3.3,2.6-5.8,2.6c-5.1,0-8.5-3.9-8.5-9.3c0-5.5,3.4-9.4,8.5-9.4c2.4,0,4.2,0.7,5.4,1.9v-1.6h4.9
		V144.4z M142.4,137.4c-0.8-0.9-2.4-1.6-4.1-1.6c-3,0-4.9,2.1-4.9,5.2c0,3.1,1.9,5.1,4.9,5.1c1.6,0,3.1-0.7,4.1-1.6V137.4z"/>
	<path id="XMLID_220_" class="st2" d="M155.9,131.8l5,12.9l4.8-12.9h4.9l-7.5,18.3c-1.8,4.5-3.6,6.7-7.7,6.7c-1.7,0-3.3-0.6-4.2-1.2
		l0.7-3.9c0.9,0.5,2.1,1,3.4,1c1.6,0,2.3-0.8,3-2.3l0.4-0.9l-8.3-17.7H155.9z"/>
	<g id="XMLID_213_">
		<path id="XMLID_94_" class="st2" d="M130.6,155.8c-0.3,0-0.5,0.2-0.5,0.5c0,0.3,0.2,0.5,0.5,0.5c0.3,0,0.6-0.1,0.6-0.5
			C131.1,156,130.9,155.8,130.6,155.8z"/>
		<path id="XMLID_93_" class="st2" d="M133.6,154.2c0.4,0,0.6,0.2,0.7,0.6l0.8-0.2c-0.1-0.8-0.6-1.2-1.5-1.2c-1,0-1.7,0.7-1.7,1.7
			c0,1.1,0.6,1.7,1.8,1.7c0.5,0,1-0.1,1.3-0.4l-0.3-0.7c-0.2,0.2-0.6,0.3-0.9,0.3c-0.6,0-1-0.4-1-1
			C132.8,154.6,133.2,154.2,133.6,154.2z"/>
		<path id="XMLID_215_" class="st2" d="M137.6,153.5c-1,0-1.7,0.7-1.7,1.7c0,1,0.7,1.7,1.7,1.7c1,0,1.7-0.7,1.7-1.7
			C139.4,154.2,138.6,153.5,137.6,153.5z M137.6,156.1c-0.5,0-0.9-0.4-0.9-0.9c0-0.5,0.4-0.9,0.9-0.9c0.5,0,0.9,0.4,0.9,0.9
			C138.5,155.7,138.1,156.1,137.6,156.1z"/>
		<path id="XMLID_90_" class="st2" d="M145.6,154.8c0-0.5-0.2-1.3-1.1-1.3c-0.5,0-0.8,0.2-1.1,0.5l-0.1,0.1l-0.1-0.1
			c-0.2-0.4-0.5-0.5-1-0.5c-0.4,0-0.7,0.1-1,0.4l-0.2,0.2v-0.5h-0.9v3.2h0.9l0-2c0.1-0.3,0.4-0.4,0.7-0.4c0.4,0,0.7,0.3,0.7,0.8v1.7
			h0.9l0-2c0.1-0.3,0.4-0.4,0.7-0.4c0.4,0,0.6,0.2,0.7,0.6v1.8h0.9L145.6,154.8L145.6,154.8z"/>
	</g>
</g>
<g id="XMLID_209_">
	<defs>
		<rect id="XMLID_88_" x="353.8" y="7.2" width="190" height="26.2"/>
	</defs>
	<clipPath id="XMLID_170_">
		<use xlink:href="#XMLID_88_"  style="overflow:visible;"/>
	</clipPath>
	<g transform="matrix(1 0 0 1 0 4.768372e-07)" style="clip-path:url(#XMLID_170_);">
		
			<image style="overflow:visible;" width="464" height="64" id="XMLID_89_" xlink:href="8B768E651DE30777.png"  transform="matrix(0.4095 0 0 0.4095 353.8074 7.1862)">
		</image>
	</g>
</g>
<g id="XMLID_163_">
	<path id="XMLID_207_" class="st3" d="M0,66.4L0,66.4c0-3.9,2.9-7.2,7.1-7.2c2.5,0,4.1,0.9,5.4,2.1l-1.6,1.8c-1.1-1-2.3-1.7-3.9-1.7
		c-2.6,0-4.5,2.2-4.5,4.9v0c0,2.7,1.9,4.9,4.5,4.9c1.7,0,2.8-0.7,3.9-1.8l1.6,1.6c-1.4,1.5-3,2.4-5.6,2.4C3,73.4,0,70.3,0,66.4z"/>
	<path id="XMLID_204_" class="st3" d="M16.1,66.4L16.1,66.4c0-3.9,3-7.2,7.2-7.2c4.2,0,7.2,3.2,7.2,7.1v0c0,3.9-3,7.1-7.2,7.1
		C19,73.4,16.1,70.2,16.1,66.4z M27.9,66.4L27.9,66.4c0-2.7-1.9-4.9-4.7-4.9c-2.7,0-4.6,2.2-4.6,4.9v0c0,2.7,1.9,4.9,4.7,4.9
		C26,71.2,27.9,69,27.9,66.4z"/>
	<path id="XMLID_201_" class="st3" d="M35.4,59.5h6.1c1.7,0,3.1,0.5,4,1.4c0.7,0.7,1.1,1.8,1.1,3v0c0,2.3-1.4,3.6-3.3,4.2l3.7,5.2
		h-2.9l-3.4-4.8h-3v4.8h-2.4V59.5z M41.3,66.3c1.7,0,2.8-0.9,2.8-2.3v0c0-1.5-1.1-2.3-2.8-2.3h-3.5v4.6H41.3z"/>
	<path id="XMLID_198_" class="st3" d="M51.5,59.5h5.4c3.2,0,5.2,1.8,5.2,4.6v0c0,3.1-2.5,4.7-5.5,4.7h-2.7v4.4h-2.4V59.5z
		 M56.8,66.6c1.8,0,3-1,3-2.5v0c0-1.6-1.2-2.5-3-2.5h-2.8v4.9H56.8z"/>
	<path id="XMLID_195_" class="st3" d="M66,66.4L66,66.4c0-3.9,3-7.2,7.2-7.2c4.2,0,7.2,3.2,7.2,7.1v0c0,3.9-3,7.1-7.2,7.1
		C69,73.4,66,70.2,66,66.4z M77.9,66.4L77.9,66.4c0-2.7-1.9-4.9-4.7-4.9c-2.7,0-4.6,2.2-4.6,4.9v0c0,2.7,1.9,4.9,4.7,4.9
		C76,71.2,77.9,69,77.9,66.4z"/>
	<path id="XMLID_192_" class="st3" d="M85.3,59.5h6.1c1.7,0,3.1,0.5,4,1.4c0.7,0.7,1.1,1.8,1.1,3v0c0,2.3-1.4,3.6-3.3,4.2l3.7,5.2
		h-2.9l-3.4-4.8h-3v4.8h-2.4V59.5z M91.2,66.3c1.7,0,2.8-0.9,2.8-2.3v0c0-1.5-1.1-2.3-2.9-2.3h-3.5v4.6H91.2z"/>
	<path id="XMLID_189_" class="st3" d="M106.3,59.4h2.2l6.1,13.9h-2.6l-1.4-3.3h-6.5l-1.4,3.3h-2.5L106.3,59.4z M109.8,67.7l-2.4-5.5
		l-2.4,5.5H109.8z"/>
	<path id="XMLID_187_" class="st3" d="M120.6,61.7h-4.4v-2.2h11.2v2.2H123v11.5h-2.4V61.7z"/>
	<path id="XMLID_185_" class="st3" d="M131.9,59.5h10.2v2.2h-7.8v3.6h6.9v2.2h-6.9V71h7.9v2.2h-10.3V59.5z"/>
	<path id="XMLID_182_" class="st3" d="M154.9,59.5h6.1c1.7,0,3.1,0.5,4,1.4c0.7,0.7,1.1,1.8,1.1,3v0c0,2.3-1.4,3.6-3.3,4.2l3.7,5.2
		h-2.9l-3.4-4.8h-3v4.8h-2.4V59.5z M160.8,66.3c1.7,0,2.8-0.9,2.8-2.3v0c0-1.5-1.1-2.3-2.8-2.3h-3.5v4.6H160.8z"/>
	<path id="XMLID_179_" class="st3" d="M170.4,66.4L170.4,66.4c0-3.9,3-7.2,7.2-7.2c4.2,0,7.2,3.2,7.2,7.1v0c0,3.9-3,7.1-7.2,7.1
		C173.4,73.4,170.4,70.2,170.4,66.4z M182.3,66.4L182.3,66.4c0-2.7-1.9-4.9-4.7-4.9c-2.7,0-4.6,2.2-4.6,4.9v0c0,2.7,2,4.9,4.7,4.9
		C180.4,71.2,182.3,69,182.3,66.4z"/>
	<path id="XMLID_176_" class="st3" d="M189.1,66.4L189.1,66.4c0-3.9,3-7.2,7.2-7.2c4.2,0,7.2,3.2,7.2,7.1v0c0,3.9-3,7.1-7.2,7.1
		C192.1,73.4,189.1,70.2,189.1,66.4z M201,66.4L201,66.4c0-2.7-1.9-4.9-4.7-4.9c-2.7,0-4.6,2.2-4.6,4.9v0c0,2.7,1.9,4.9,4.7,4.9
		C199.1,71.2,201,69,201,66.4z"/>
	<path id="XMLID_174_" class="st3" d="M208.4,59.5h2.6l4.2,6.5l4.2-6.5h2.6v13.8h-2.4v-9.9l-4.3,6.5h-0.1l-4.3-6.4v9.8h-2.4V59.5z"
		/>
	<path id="XMLID_171_" class="st3" d="M235.2,59.5h5.4c4.3,0,7.3,3,7.3,6.8v0c0,3.9-3,6.9-7.3,6.9h-5.4V59.5z M238.2,62.2v8.3h2.3
		c2.5,0,4.1-1.7,4.1-4.1v0c0-2.4-1.7-4.2-4.1-4.2H238.2z"/>
	<path id="XMLID_169_" class="st3" d="M252.5,59.5h10.4v2.7h-7.4v2.8h6.5v2.7h-6.5v2.9h7.5v2.7h-10.5V59.5z"/>
	<path id="XMLID_166_" class="st3" d="M272.3,59.4h2.8l5.9,13.9h-3.2l-1.3-3.1h-5.8l-1.3,3.1h-3.1L272.3,59.4z M275.5,67.4l-1.8-4.5
		l-1.8,4.5H275.5z"/>
	<path id="XMLID_164_" class="st3" d="M285.1,59.5h3v11h6.9v2.7h-9.9V59.5z"/>
</g>
<g id="XMLID_123_">
	<g id="XMLID_125_">
		<g id="XMLID_144_">
			<path id="XMLID_160_" class="st4" d="M55.3,7.4h7c1.9,0,3.4,0.5,4.5,1.6c0.9,0.9,1.3,2,1.3,3.5v0c0,1.2-0.3,2.3-0.9,3
				c-0.6,0.8-1.4,1.4-2.4,1.7l3.7,5.5h-3.9l-3.3-4.9h0h-2.6v4.9h-3.4V7.4z M62.1,14.8c0.8,0,1.5-0.2,1.9-0.6
				c0.4-0.4,0.7-0.9,0.7-1.6v0c0-0.7-0.2-1.3-0.7-1.6c-0.5-0.4-1.1-0.5-2-0.5h-3.4v4.4H62.1z"/>
			<path id="XMLID_157_" class="st4" d="M90.2,23c-1.2,0-2.3-0.2-3.3-0.6c-1-0.4-1.9-1-2.6-1.7c-0.7-0.7-1.3-1.5-1.7-2.5
				c-0.4-1-0.6-2-0.6-3.1v0c0-1.1,0.2-2.1,0.6-3.1c0.4-1,1-1.8,1.7-2.5C85.1,8.7,86,8.2,87,7.7c1-0.4,2.1-0.6,3.3-0.6
				c1.2,0,2.3,0.2,3.3,0.6c1,0.4,1.8,1,2.6,1.7c0.7,0.7,1.3,1.5,1.7,2.5c0.4,1,0.6,2,0.6,3.1v0c0,1.1-0.2,2.1-0.6,3.1
				c-0.4,1-1,1.8-1.7,2.5c-0.7,0.7-1.6,1.3-2.6,1.7C92.5,22.8,91.4,23,90.2,23z M90.2,19.9c0.7,0,1.3-0.1,1.9-0.4
				c0.6-0.2,1.1-0.6,1.5-1c0.4-0.4,0.7-0.9,0.9-1.5c0.2-0.6,0.3-1.2,0.3-1.9v0c0-0.7-0.1-1.3-0.3-1.9c-0.2-0.6-0.5-1.1-1-1.5
				c-0.4-0.4-0.9-0.8-1.5-1c-0.6-0.3-1.2-0.4-1.9-0.4c-0.7,0-1.3,0.1-1.9,0.4c-0.6,0.3-1,0.6-1.4,1c-0.4,0.4-0.7,0.9-0.9,1.5
				c-0.2,0.6-0.3,1.2-0.3,1.9v0c0,0.7,0.1,1.3,0.3,1.9c0.2,0.6,0.5,1.1,1,1.5c0.4,0.4,0.9,0.8,1.5,1C88.9,19.8,89.6,19.9,90.2,19.9z
				"/>
			<path id="XMLID_155_" class="st4" d="M100.7,7.4h3.6l4,6.5l4-6.5h3.6v15.3h-3.3v-10l-4.3,6.6h-0.1l-4.3-6.5v10h-3.3V7.4z"/>
			<path id="XMLID_152_" class="st4" d="M124.1,7.4h6c1.2,0,2.3,0.2,3.3,0.6c1,0.4,1.9,0.9,2.6,1.6c0.7,0.7,1.3,1.5,1.7,2.4
				c0.4,0.9,0.6,1.9,0.6,3v0c0,1.1-0.2,2.1-0.6,3c-0.4,0.9-1,1.7-1.7,2.4c-0.7,0.7-1.6,1.2-2.6,1.6c-1,0.4-2.1,0.6-3.3,0.6h-6V7.4z
				 M130.1,19.7c0.7,0,1.3-0.1,1.9-0.3c0.6-0.2,1.1-0.5,1.5-0.9c0.4-0.4,0.7-0.9,0.9-1.4c0.2-0.6,0.3-1.2,0.3-1.9v0
				c0-0.7-0.1-1.3-0.3-1.9c-0.2-0.6-0.5-1.1-0.9-1.5c-0.4-0.4-0.9-0.7-1.5-1c-0.6-0.2-1.2-0.3-1.9-0.3h-2.6v9.3H130.1z"/>
			<path id="XMLID_150_" class="st4" d="M140.1,7.4h11.5v3h-8.2v3.1h7.2v3h-7.2v3.2h8.3v3h-11.7V7.4z"/>
			<path id="XMLID_147_" class="st4" d="M159,7.3h3.1l6.6,15.5h-3.5l-1.4-3.4h-6.5l-1.4,3.4h-3.4L159,7.3z M162.5,16.3l-2-5l-2,5
				H162.5z"/>
			<path id="XMLID_145_" class="st4" d="M169.9,7.4h3.4v12.3h7.7v3h-11V7.4z"/>
		</g>
		<g id="XMLID_128_">
			<path id="XMLID_141_" class="st4" d="M55.7,34.8v-6.4h2.1c0.8,0,1.3,0,1.5,0.1c0.4,0.1,0.7,0.3,0.9,0.6c0.2,0.3,0.4,0.7,0.4,1.2
				c0,0.4-0.1,0.7-0.2,1c-0.1,0.3-0.3,0.5-0.5,0.6c-0.2,0.2-0.4,0.3-0.7,0.3c-0.3,0.1-0.7,0.1-1.3,0.1H57v2.4H55.7z M57,29.6v1.8
				h0.7c0.5,0,0.8,0,1-0.1c0.2-0.1,0.3-0.2,0.4-0.3c0.1-0.1,0.1-0.3,0.1-0.5c0-0.2-0.1-0.4-0.2-0.6c-0.1-0.1-0.3-0.2-0.5-0.3
				c-0.2,0-0.5,0-0.9,0H57z"/>
			<path id="XMLID_139_" class="st4" d="M64.2,30.2v1h-0.8v1.9c0,0.4,0,0.6,0,0.7c0,0.1,0.1,0.1,0.1,0.2c0.1,0,0.1,0.1,0.2,0.1
				c0.1,0,0.3,0,0.5-0.1l0.1,0.9c-0.3,0.1-0.6,0.2-1,0.2c-0.2,0-0.4,0-0.6-0.1c-0.2-0.1-0.3-0.2-0.4-0.3c-0.1-0.1-0.1-0.3-0.2-0.5
				c0-0.1,0-0.4,0-0.9v-2h-0.6v-1h0.6v-0.9l1.2-0.7v1.6H64.2z"/>
			<path id="XMLID_136_" class="st4" d="M68.1,33.4l1.2,0.2c-0.2,0.4-0.4,0.8-0.7,1c-0.3,0.2-0.8,0.4-1.3,0.4
				c-0.8,0-1.4-0.3-1.8-0.8c-0.3-0.4-0.5-1-0.5-1.6c0-0.8,0.2-1.4,0.6-1.8c0.4-0.4,0.9-0.6,1.5-0.6c0.7,0,1.2,0.2,1.6,0.7
				c0.4,0.5,0.6,1.1,0.6,2.1h-3.1c0,0.4,0.1,0.6,0.3,0.8c0.2,0.2,0.4,0.3,0.7,0.3c0.2,0,0.4-0.1,0.5-0.2C68,33.8,68,33.6,68.1,33.4z
				 M68.2,32.1c0-0.4-0.1-0.6-0.3-0.8c-0.2-0.2-0.4-0.3-0.6-0.3c-0.3,0-0.5,0.1-0.7,0.3c-0.2,0.2-0.3,0.5-0.3,0.8H68.2z"/>
			<path id="XMLID_134_" class="st4" d="M70.9,34.8v-6.3h1.3v5.2h3.2v1.1H70.9z"/>
			<path id="XMLID_132_" class="st4" d="M77.5,34.8v-5.3h-1.9v-1.1h5.1v1.1h-1.9v5.3H77.5z"/>
			<path id="XMLID_129_" class="st4" d="M81.9,28.5h2.4c0.5,0,0.9,0,1.2,0.1c0.4,0.1,0.7,0.3,1,0.6c0.3,0.3,0.5,0.6,0.6,1
				c0.1,0.4,0.2,0.9,0.2,1.5c0,0.5-0.1,1-0.2,1.4c-0.2,0.5-0.4,0.8-0.7,1.1c-0.2,0.2-0.5,0.4-0.9,0.5c-0.3,0.1-0.7,0.1-1.1,0.1h-2.4
				V28.5z M83.2,29.6v4.2h1c0.4,0,0.6,0,0.8-0.1c0.2-0.1,0.4-0.1,0.5-0.3c0.1-0.1,0.2-0.3,0.3-0.6c0.1-0.3,0.1-0.7,0.1-1.2
				c0-0.5,0-0.9-0.1-1.1c-0.1-0.3-0.2-0.5-0.4-0.6c-0.2-0.1-0.4-0.2-0.6-0.3c-0.2,0-0.5-0.1-1.1-0.1H83.2z"/>
		</g>
		<path id="XMLID_39_" class="st5" d="M24.7,0.9L2.8,22.7c-3.8,3.8-3.8,9.8,0,13.6c3.8,3.8,9.8,3.8,13.6,0l21.8-21.8L24.7,0.9z"/>
		<path id="XMLID_38_" class="st5" d="M11.1,14.5l21.8,21.8c3.8,3.8,9.8,3.8,13.6,0c3.8-3.8,3.8-9.8,0-13.6L24.7,0.9L11.1,14.5z"/>
	</g>
	<path id="XMLID_37_" class="st4" d="M85,14.4L85,14.4L85,14.4l-2.9,0c0,0.2,0,0.4,0,0.6v0c0,0.7-0.1,1.3-0.3,1.9
		c-0.2,0.6-0.5,1.1-0.9,1.5c-0.4,0.4-0.9,0.8-1.5,1c-0.6,0.2-1.2,0.4-1.9,0.4c-0.7,0-1.3-0.1-1.9-0.4c-0.6-0.3-1.1-0.6-1.5-1
		c-0.4-0.4-0.7-0.9-1-1.5c-0.2-0.6-0.3-1.2-0.3-1.9v0c0-0.7,0.1-1.3,0.3-1.9c0.2-0.6,0.5-1.1,0.9-1.5c0.4-0.4,0.9-0.8,1.4-1
		c0.6-0.2,1.2-0.4,1.9-0.4c0.7,0,1.3,0.1,1.9,0.4c0.6,0.3,1.1,0.6,1.5,1c0.3,0.3,0.6,0.7,0.8,1.2c0.1-0.5,0.3-1,0.5-1.5
		c0.3-0.7,0.7-1.4,1.2-2c-0.7-0.7-1.5-1.2-2.5-1.6c-1-0.4-2.1-0.6-3.3-0.6c-1.2,0-2.3,0.2-3.3,0.6c-1,0.4-1.9,1-2.6,1.7
		c-0.7,0.7-1.3,1.6-1.7,2.5c-0.4,1-0.6,2-0.6,3.1v0c0,1.1,0.2,2.1,0.6,3.1c0.4,1,1,1.8,1.7,2.5c0.7,0.7,1.6,1.3,2.6,1.7
		c1,0.4,2.1,0.6,3.3,0.6c1.2,0,2.3-0.2,3.3-0.6c1-0.4,1.9-1,2.6-1.7c0.7-0.7,1.3-1.6,1.7-2.5c0.4-1,0.6-2,0.6-3.1v0
		c0-0.9-0.1-1.7-0.4-2.4C85.1,13.2,85,13.7,85,14.4z"/>
</g>
<g id="XMLID_109_">
	<g id="XMLID_111_">
		<path id="XMLID_36_" class="st6" d="M391.2,170.2c-0.7,0-1.4-0.3-1.9-0.8c-1.1-1.1-1.1-2.8,0-3.8l7.8-7.8l7.5,7.5
			c1.1,1.1,1.1,2.8,0,3.8c-1.1,1.1-2.8,1.1-3.8,0l-3.7-3.7l-3.9,3.9C392.6,169.9,391.9,170.2,391.2,170.2"/>
		<path id="XMLID_112_" class="st7" d="M392.8,185.5c0.1-0.3,0.2-0.5,0.3-0.8c0.1-0.2,0.4-1.9,0.4-1.9c-0.2-0.2-0.4-0.3-0.5-0.4
			c-0.1,0-0.2,0-0.3,0c-0.1,0-0.2,0.1-0.4,0.1c-0.1,0.1-0.3,0.1-0.6,0.1c-0.2,0-0.4,0-0.6-0.1c-0.2-0.1-0.3-0.3-0.3-0.5V181l1.4-8.3
			c-0.1-0.1-0.2-0.2-0.4-0.3c-0.2-0.1-0.4-0.1-0.6-0.1h-0.9c-0.3,0-0.5,0-0.8,0c-0.2,0-0.5,0-0.8,0c-0.3,0-0.5,0-0.9,0
			c-0.1,0.2-0.2,0.3-0.2,0.4c0,0.1-0.1,0.1-0.2,0.1c-0.1,0-0.3,0-0.5-0.1c-0.2-0.1-0.4-0.2-0.7-0.3c-0.3-0.1-0.5-0.2-0.8-0.3
			c-0.3-0.1-0.6-0.1-1-0.1c-1,0-1.9,0.3-2.8,0.8c-0.9,0.5-1.7,1.2-2.4,2c-0.7,0.8-1.3,1.8-1.7,3c-0.4,1.1-0.7,2.3-0.7,3.6
			c0,1,0.2,1.8,0.5,2.5c0.3,0.7,0.8,1.3,1.3,1.7c0.5,0.4,1,0.8,1.5,1c0.5,0.2,1,0.3,1.4,0.3h1c0.4,0,0.9-0.1,1.3-0.3
			c0.5-0.2,0.9-0.4,1.3-0.6c0.4-0.2,0.8-0.5,1.3-0.9c0.1,0,0.2,0.1,0.3,0.3c0.1,0.2,0.3,0.4,0.6,0.7c0.2,0.2,0.6,0.5,1,0.7
			c0.4,0.2,0.9,0.3,1.6,0.3c0.6,0,1.1-0.1,1.5-0.2c0.4-0.2,0.7-0.3,0.9-0.6C392.5,186,392.7,185.8,392.8,185.5z M386.3,179.3
			c-0.2,0.5-0.4,1-0.7,1.5c-0.3,0.5-0.7,0.9-1.1,1.3c-0.4,0.4-0.9,0.6-1.5,0.6c-0.3,0-0.5-0.1-0.7-0.2c-0.2-0.1-0.3-0.3-0.5-0.5
			c-0.1-0.2-0.2-0.4-0.3-0.6c-0.1-0.2-0.1-0.5-0.1-0.7c0-0.4,0.1-0.8,0.3-1.4c0.2-0.5,0.4-1,0.8-1.5c0.3-0.5,0.7-0.9,1.1-1.2
			c0.4-0.3,0.9-0.5,1.3-0.5c0.4,0,0.8,0.2,1.1,0.6c0.3,0.4,0.4,0.8,0.4,1.4C386.5,178.4,386.5,178.8,386.3,179.3z M499.2,182.5
			c-0.2,0.1-0.3,0.2-0.5,0.2c-0.2,0.1-0.3,0.1-0.5,0.1c-0.4,0-0.7-0.1-0.8-0.3c-0.1-0.2-0.1-0.4-0.1-0.7l1.1-8.2v-0.4h-0.6
			c0,0-0.2,0-0.3,0.1c-0.2,0-0.4,0.1-0.6,0.1c-0.2,0-0.4,0.1-0.6,0.1c-0.2,0-0.3,0-0.3,0h-3.2c-0.2,0-0.3,0-0.4-0.1
			c-0.1-0.1-0.1-0.2-0.1-0.3c0-0.1,0-0.3-0.1-0.4c0-0.2-0.1-0.3-0.1-0.4c-0.1-0.1-0.2-0.2-0.4-0.3c-0.2-0.1-0.5-0.1-0.8-0.1
			c-0.4,0-0.7,0-1,0c-0.3,0-0.6,0.1-0.9,0.3c-0.3,0.2-0.5,0.5-0.6,1c-0.2,0.5-0.2,1.1-0.2,1.9c0,0.3,0,0.6,0.1,0.8
			c0.1,0.2,0.2,0.4,0.2,0.6c0.1,0.2,0.2,0.3,0.2,0.5c0.1,0.1,0.1,0.3,0.1,0.4c0,0.1,0,0.3-0.1,0.6c-0.1,0.3-0.1,0.7-0.2,1.1
			c-0.1,0.4-0.2,0.8-0.3,1.3c-0.1,0.5-0.2,0.9-0.3,1.3c-0.1,0.4-0.2,0.8-0.3,1.1c0,0,0,0,0,0c-0.1,0-0.3,0.1-0.5,0.1
			c-0.2,0-0.4,0-0.6-0.1c-0.2-0.1-0.3-0.3-0.3-0.5V181l1.4-8.3c-0.1-0.1-0.2-0.2-0.4-0.3c-0.2-0.1-0.4-0.1-0.6-0.1h-0.9
			c-0.3,0-0.5,0-0.8,0c-0.2,0-0.5,0-0.8,0c-0.3,0-0.5,0-0.9,0c-0.1,0.2-0.2,0.3-0.2,0.4c0,0.1-0.1,0.1-0.2,0.1c-0.1,0-0.3,0-0.5-0.1
			c-0.2-0.1-0.4-0.2-0.7-0.3c-0.3-0.1-0.5-0.2-0.8-0.3c-0.3-0.1-0.6-0.1-1-0.1c-1,0-1.9,0.3-2.8,0.8c-0.9,0.5-1.7,1.2-2.4,2
			c-0.7,0.8-1.3,1.8-1.7,3c-0.4,1.1-0.7,2.3-0.7,3.6c0,0.4,0,0.7,0.1,1h-0.1c-0.3,0.2-0.5,0.3-0.7,0.3c-0.2,0.1-0.3,0.1-0.5,0.1
			c-0.4,0-0.6-0.1-0.7-0.3c-0.1-0.2-0.1-0.5-0.1-0.9c0-0.2,0-0.4,0-0.5c0-0.1,0-0.2,0-0.3v-0.4c0-0.2,0-0.4,0-0.7
			c0-0.5,0.1-1,0.1-1.2c0.1-0.3,0.1-0.6,0.2-1.4c0-0.3,0-0.7,0-1.2c0-0.6-0.1-1.1-0.2-1.5c-0.1-0.4-0.3-0.8-0.5-1.1
			c-0.2-0.3-0.5-0.5-0.7-0.7c-0.3-0.2-0.5-0.3-0.7-0.4c-0.2-0.1-0.4-0.1-0.6-0.2c-0.1,0-0.2,0-0.2,0h-1.2c-0.5,0-1,0.1-1.4,0.4
			c-0.4,0.2-0.8,0.5-1.1,0.8c-0.3,0.3-0.7,0.6-1,0.9c-0.3,0.3-0.6,0.5-0.9,0.6c-0.1-0.2-0.3-0.4-0.4-0.8c-0.2-0.3-0.4-0.6-0.7-0.9
			c-0.3-0.3-0.6-0.5-1-0.7c-0.4-0.2-0.9-0.3-1.5-0.3c-0.7,0-1.2,0.1-1.7,0.4c-0.5,0.2-0.9,0.5-1.3,0.8c-0.4,0.3-0.7,0.6-1,0.9
			c-0.3,0.3-0.5,0.5-0.8,0.7v-2.3h-3.4c-0.3,0-0.5,0.1-0.6,0.4c-0.1,0.3-0.2,0.7-0.2,1.2c0,0.5-0.1,1.2-0.1,2c0,0.8-0.1,1.7-0.3,2.8
			c-0.2,0.9-0.3,1.7-0.3,2.5c0,0.4-0.1,0.8-0.1,1.2c-0.1,0-0.1-0.1-0.2-0.1c-0.1,0-0.2,0-0.3,0c-0.1,0-0.2,0.1-0.4,0.1
			c-0.1,0.1-0.3,0.1-0.6,0.1c-0.2,0-0.4,0-0.6-0.1c-0.2-0.1-0.3-0.3-0.3-0.5V181l1.4-8.3c-0.1-0.1-0.2-0.2-0.4-0.3
			c-0.2-0.1-0.4-0.1-0.6-0.1h-0.9c-0.3,0-0.5,0-0.8,0c-0.2,0-0.5,0-0.8,0c-0.3,0-0.5,0-0.9,0c-0.1,0.2-0.2,0.3-0.2,0.4
			c0,0.1-0.1,0.1-0.2,0.1c-0.1,0-0.3,0-0.5-0.1c-0.2-0.1-0.4-0.2-0.7-0.3c-0.3-0.1-0.5-0.2-0.8-0.3c-0.3-0.1-0.6-0.1-1-0.1
			c-1,0-1.9,0.3-2.8,0.8c-0.9,0.5-1.7,1.2-2.4,2c-0.7,0.8-1.3,1.8-1.7,3c-0.4,1.1-0.7,2.3-0.7,3.6c0,0.6,0.1,1.1,0.2,1.6
			c-0.1,0-0.2,0-0.3,0c-0.2,0-0.3-0.1-0.5-0.2c-0.2-0.1-0.4-0.4-0.7-0.7c-0.3-0.4-0.6-0.8-1-1.3c-0.4-0.5-0.7-1-1.1-1.6
			c-0.4-0.5-0.7-1.1-1.1-1.5c-0.3-0.5-0.6-0.9-0.8-1.2c-0.2-0.3-0.3-0.5-0.4-0.6l9.9-11.7h-4.6c-0.2,0-0.4,0.1-0.7,0.3
			c-0.3,0.2-0.5,0.5-0.8,0.8c-0.3,0.3-0.5,0.6-0.7,0.8c-0.2,0.3-0.4,0.5-0.4,0.5c0,0-0.2,0.2-0.5,0.5c-0.3,0.3-0.7,0.8-1.2,1.3
			c-0.5,0.5-1,1.1-1.6,1.7c-0.6,0.6-1.1,1.2-1.6,1.7c-0.5,0.5-0.9,1-1.3,1.4c-0.4,0.4-0.6,0.6-0.7,0.6l-0.1-0.2v-0.5l0.9-8.5
			c0-0.1-0.1-0.2-0.1-0.3c0-0.1-0.1-0.1-0.1-0.1c-0.1,0-0.1,0-0.2,0c-0.1,0-0.3,0-0.5,0h-3.4l-1.9,18.3c-0.1-0.1-0.2-0.1-0.2-0.1
			c-0.1,0-0.2,0-0.3,0c-0.1,0-0.2,0.1-0.4,0.1c-0.1,0.1-0.3,0.1-0.6,0.1c-0.2,0-0.4,0-0.6-0.1c-0.2-0.1-0.3-0.3-0.3-0.5V181l1.4-8.3
			c-0.1-0.1-0.2-0.2-0.4-0.3c-0.2-0.1-0.4-0.1-0.6-0.1h-0.9c-0.3,0-0.5,0-0.8,0c-0.2,0-0.5,0-0.8,0c-0.3,0-0.5,0-0.9,0
			c-0.1,0.2-0.2,0.3-0.2,0.4c0,0.1-0.1,0.1-0.2,0.1c-0.1,0-0.3,0-0.5-0.1c-0.2-0.1-0.4-0.2-0.7-0.3c-0.3-0.1-0.5-0.2-0.8-0.3
			c-0.3-0.1-0.6-0.1-1-0.1c-1,0-1.9,0.3-2.8,0.8c-0.9,0.5-1.7,1.2-2.4,2c-0.7,0.8-1.3,1.8-1.7,3c-0.4,1.1-0.7,2.3-0.7,3.6
			c0,0.1,0,0.2,0,0.3h0c-0.4,0.2-0.7,0.3-1.1,0.4c-0.3,0.1-0.6,0.2-0.9,0.2v-1.1c0-0.5,0.9-9.2,0.9-9.2h-4c0,0,0,0,0,0l-0.9,0
			c0,0-0.6,0.4-0.4,0.9c0.1,0.3,1,0.6,1.1,1.1c0,0,0,0.1,0,0.1c0,0.2,0,0.3-0.1,0.5c-0.2,1.5-0.4,3.5-0.6,6.1
			c-0.1,1.3-0.8,6.8-1,7.7c-0.2,0.8-0.4,2.1-0.5,2.6c-0.2,0.5-0.3,0.9-0.5,1.2c-0.2,0.3-0.3,0.5-0.4,0.7c-0.1,0.2-0.2,0.4-0.3,0.6
			c-0.1,0.2-0.1,0.5-0.1,0.9v1.6c0,0.4,0.1,0.7,0.2,1c0.1,0.3,0.3,0.5,0.6,0.5h3c0.3-0.4,0.5-0.8,0.7-1.2c0.2-0.4,0.4-0.9,0.5-1.3
			c0.1-0.4,0.2-0.8,0.3-1.2c0.1-0.4,0.7-5.7,0.7-6c0-0.3,0.1-0.6,0.3-0.8c0.2-0.2,0.3-0.3,0.6-0.4c0.2-0.1,0.5-0.2,0.7-0.3
			c0.3-0.1,0.5-0.2,0.7-0.3c0.2-0.1,0.4-0.3,0.6-0.6c0.2-0.2,0.3-0.6,0.3-1v-0.9c0,0.1,0.1,0.2,0.1,0.3c0.3,0.7,0.8,1.3,1.3,1.7
			c0.5,0.4,1,0.8,1.5,1c0.5,0.2,1,0.3,1.4,0.3h1c0.4,0,0.9-0.1,1.3-0.3c0.5-0.2,0.9-0.4,1.3-0.6c0.4-0.2,0.8-0.5,1.3-0.9
			c0.1,0,0.2,0.1,0.3,0.3c0.1,0.2,0.3,0.4,0.6,0.7c0.2,0.2,0.6,0.5,1,0.7c0.4,0.2,0.9,0.3,1.6,0.3c0.6,0,1.1-0.1,1.5-0.2
			c0.4-0.2,0.7-0.3,0.9-0.6c0.2-0.2,0.4-0.5,0.5-0.8c0-0.1,0-0.1,0.1-0.2l-0.1,1.2c0,0,0,0.1,0,0.1c0,0,0,0.1,0,0.1
			c0,0,0.1,0.1,0.2,0.1c0.1,0,0.3,0,0.5,0h3.8l0.9-9.1h0.3c0.4,0.5,0.8,1.1,1.3,1.8c0.5,0.7,1,1.4,1.5,2.1c0.5,0.7,1,1.4,1.6,2.1
			c0.5,0.7,1.1,1.3,1.7,1.8c0.6,0.5,1.1,1,1.7,1.3c0.6,0.3,1.2,0.5,1.7,0.5h1c0.2,0,0.4,0,0.6-0.1c0.2-0.1,0.4-0.1,0.6-0.2
			c0.2-0.1,0.3-0.2,0.4-0.3c0.1-0.1,0.2-0.1,0.2-0.2c-0.1-0.3-0.1-0.5-0.2-0.7c0.4,0.3,0.8,0.6,1.3,0.8c0.5,0.2,1,0.3,1.4,0.3h1
			c0.4,0,0.9-0.1,1.3-0.3c0.5-0.2,0.9-0.4,1.3-0.6c0.4-0.2,0.8-0.5,1.3-0.9c0.1,0,0.2,0.1,0.3,0.3c0.1,0.2,0.3,0.4,0.6,0.7
			c0.2,0.2,0.6,0.5,1,0.7c0.4,0.2,0.9,0.3,1.6,0.3c0.6,0,1.1-0.1,1.5-0.2c0.4-0.2,0.7-0.3,0.9-0.6c0.2-0.2,0.4-0.5,0.5-0.8
			c0-0.1,0.1-0.2,0.1-0.3c0,0.2-0.1,0.4-0.1,0.6v1h3.4c0.2,0,0.4,0,0.5-0.1c0.1-0.1,0.1-0.2,0.2-0.4c0-0.2,0.1-0.4,0.1-0.7
			c0-0.3,0.1-0.7,0.1-1.2c0.2-1.1,0.4-2,0.7-2.8c0.3-0.8,0.6-1.4,0.9-2c0.3-0.5,0.6-1,0.9-1.3c0.3-0.3,0.6-0.6,0.8-0.8
			c0.2-0.2,0.5-0.3,0.6-0.4c0.2-0.1,0.3-0.1,0.3-0.1c0.3,0,0.5,0.1,0.7,0.3c0.2,0.2,0.3,0.5,0.3,0.8c0,0.5,0,1-0.1,1.7
			c-0.1,0.7-0.2,1.3-0.3,2c-0.1,0.6-0.2,1.4-0.4,2.3v2.5h3.3c0.2,0,0.4-0.2,0.5-0.7c0.2-0.5,0.3-1.1,0.5-1.8
			c0.2-0.7,0.4-1.5,0.6-2.4c0.2-0.9,0.5-1.6,0.8-2.4c0.3-0.7,0.7-1.3,1.1-1.8c0.4-0.5,0.9-0.7,1.5-0.7c0.3,0,0.5,0.1,0.7,0.3
			c0.1,0.2,0.2,0.5,0.2,0.9c0,0.2,0,0.5-0.1,1c0,0.5-0.1,0.9-0.2,1.4c-0.1,0.5-0.1,1-0.2,1.7v1.4c0,0.3,0.1,0.7,0.3,1.1
			c0.2,0.4,0.4,0.7,0.8,1.1c0.3,0.3,0.6,0.6,1,0.8c0.4,0.2,0.8,0.3,1.1,0.3h1c0.8,0,1.4-0.1,1.7-0.4c0.3-0.3,0.6-0.6,0.7-1
			c0.1-0.4,0.2-0.8,0.2-1.3c0-0.3,0-0.6,0.1-0.9c0.1,0.1,0.1,0.3,0.2,0.4c0.3,0.7,0.8,1.3,1.3,1.7c0.5,0.4,1,0.8,1.5,1
			c0.5,0.2,1,0.3,1.4,0.3h1c0.4,0,0.9-0.1,1.3-0.3c0.5-0.2,0.9-0.4,1.3-0.6c0.4-0.2,0.8-0.5,1.3-0.9c0.1,0,0.2,0.1,0.3,0.3
			c0.1,0.2,0.3,0.4,0.6,0.7c0.2,0.2,0.6,0.5,1,0.7c0.4,0.2,0.9,0.3,1.6,0.3c0.4,0,0.7,0,1-0.1c0,0,0,0,0,0c0.2,0,1,0,1.8-0.5
			c1.8-1,1.9-1.5,2.2-2.1c0.1-0.3,0.2-0.7,0.3-1.5c0.1-0.4,0.3-1.1,0.4-1.6c0.1-0.5,0.2-0.9,0.3-1.4c0.1-0.5,0.2-0.9,0.3-1.3
			c0.1-0.4,0.2-0.7,0.4-0.9c0.2-0.2,0.3-0.4,0.6-0.4h0.4c0.1,0,0.3,0,0.4,0.1c0.1,0,0.2,0.1,0.3,0.2c0.1,0.1,0.2,0.2,0.2,0.4
			l-0.6,4.5v1.4c0,0.3,0.1,0.6,0.2,1c0.1,0.4,0.4,0.7,0.6,1c0.3,0.3,0.6,0.5,1,0.7c0.4,0.2,0.8,0.3,1.3,0.3c0.6,0,1.1,0,1.5-0.1
			c0.4-0.1,0.7-0.2,0.9-0.4c0.2-0.2,0.3-0.4,0.4-0.6c0.1-0.2,0.1-0.5,0.1-0.8c0-0.3,0.1-0.6,0.1-0.9c0-0.3,0.1-0.7,0.2-1v-0.4H499.2
			z M409.8,179.3c-0.2,0.5-0.4,1-0.7,1.5c-0.3,0.5-0.7,0.9-1.1,1.3c-0.4,0.4-0.9,0.6-1.5,0.6c-0.3,0-0.5-0.1-0.7-0.2
			c-0.2-0.1-0.3-0.3-0.5-0.5c-0.1-0.2-0.2-0.4-0.3-0.6c-0.1-0.2-0.1-0.5-0.1-0.7c0-0.4,0.1-0.8,0.3-1.4c0.2-0.5,0.4-1,0.8-1.5
			c0.3-0.5,0.7-0.9,1.1-1.2c0.4-0.3,0.9-0.5,1.3-0.5c0.4,0,0.8,0.2,1.1,0.6c0.3,0.4,0.4,0.8,0.4,1.4
			C410,178.4,409.9,178.8,409.8,179.3z M441.4,179.3c-0.2,0.5-0.4,1-0.7,1.5c-0.3,0.5-0.7,0.9-1.1,1.3c-0.4,0.4-0.9,0.6-1.5,0.6
			c-0.3,0-0.5-0.1-0.7-0.2c-0.2-0.1-0.3-0.3-0.5-0.5c-0.1-0.2-0.2-0.4-0.3-0.6c-0.1-0.2-0.1-0.5-0.1-0.7c0-0.4,0.1-0.8,0.3-1.4
			c0.2-0.5,0.4-1,0.8-1.5c0.3-0.5,0.7-0.9,1.1-1.2c0.4-0.3,0.9-0.5,1.3-0.5c0.4,0,0.8,0.2,1.1,0.6c0.3,0.4,0.4,0.8,0.4,1.4
			C441.7,178.4,441.6,178.8,441.4,179.3z M481.5,179.3c-0.2,0.5-0.4,1-0.7,1.5c-0.3,0.5-0.7,0.9-1.1,1.3c-0.4,0.4-0.9,0.6-1.5,0.6
			c-0.3,0-0.5-0.1-0.7-0.2c-0.2-0.1-0.3-0.3-0.5-0.5c-0.1-0.2-0.2-0.4-0.3-0.6c-0.1-0.2-0.1-0.5-0.1-0.7c0-0.4,0.1-0.8,0.3-1.4
			c0.2-0.5,0.4-1,0.8-1.5c0.3-0.5,0.7-0.9,1.1-1.2c0.4-0.3,0.9-0.5,1.3-0.5c0.4,0,0.8,0.2,1.1,0.6c0.3,0.4,0.4,0.8,0.4,1.4
			C481.7,178.4,481.7,178.8,481.5,179.3z M376.2,182.4c-0.1,0-0.2,0-0.4,0.1c-0.2,0-0.5,0-0.9,0c-0.3,0-0.7-0.1-1-0.3
			c-0.3-0.2-0.7-0.5-1-0.8c-0.3-0.3-0.6-0.6-0.9-1c-0.3-0.3-0.5-0.7-0.7-0.9c-0.2-0.3-0.3-0.5-0.5-0.7c-0.1-0.2-0.2-0.3-0.2-0.3
			c0-0.1,0.1-0.3,0.3-0.5c0.2-0.2,0.5-0.4,0.9-0.6c0.3-0.2,0.7-0.5,1.1-0.9c0.4-0.3,0.8-0.7,1.1-1.1c0.3-0.4,0.6-0.9,0.9-1.4
			c0.2-0.5,0.3-1.1,0.3-1.8v-1.5c0-0.7-0.1-1.3-0.4-1.8c-0.3-0.6-0.6-1.1-1-1.5c-0.4-0.5-0.9-0.9-1.5-1.2c-0.6-0.4-1.1-0.7-1.7-0.9
			c-0.6-0.2-1.2-0.4-1.8-0.6c-0.6-0.1-1.1-0.2-1.6-0.2c-0.5,0-1,0-1.4,0c-0.4,0-0.8,0-1.4,0c-1.4,0-2.5,0-3.3,0.2
			c-0.8,0.1-1.5,0.3-2,0.6c-0.5,0.3-0.8,0.6-1,0.9c-0.2,0.3-0.3,0.7-0.4,1c-0.1,0.4-0.1,0.7-0.1,1c0,0.3,0,0.6-0.1,0.9v1.3
			c0.2,0,0.6-0.2,1.2-0.4c0.6-0.2,1.3-0.4,2-0.6c0.7-0.2,1.5-0.4,2.2-0.6c0.7-0.2,1.2-0.2,1.6-0.2h2.3c0.5,0,1,0.1,1.4,0.2
			c0.5,0.2,0.9,0.4,1.2,0.6c0.4,0.3,0.6,0.5,0.8,0.9c0.2,0.3,0.3,0.7,0.3,1c0,0.3-0.1,0.7-0.3,1c-0.2,0.4-0.5,0.7-0.8,1.1
			c-0.3,0.3-0.7,0.6-1.2,0.8c-0.5,0.2-0.9,0.3-1.4,0.3H366v-4.3H362c0,0-0.1,0.2-0.3,0.7c-0.1,0.4-0.9,7.4-0.9,7.4l-0.9,8.2
			c0,0.1,0.1,0.2,0.1,0.3c0,0.1,0.1,0.1,0.1,0.1c0.1,0,0.1,0,0.2,0c0.1,0,0.2,0,0.4,0h3.4c0,0,0.8-6.8,1-7.4
			c0.3,0.2,0.7,0.6,1.1,1.1c0.4,0.5,0.8,1,1.3,1.6c0.4,0.6,0.9,1.2,1.4,1.8c0.5,0.6,1,1.2,1.5,1.7c0.5,0.5,1,0.9,1.6,1.2
			c0.5,0.3,1.1,0.5,1.7,0.5c0.6,0,1.2-0.1,1.5-0.2c0.4-0.1,0.7-0.3,0.9-0.5c0.2-0.2,0.3-0.5,0.4-0.7c0.1-0.3,0.1-0.6,0.1-0.9
			c0-0.3,0-0.6,0-1c0-0.3,0.1-0.6,0.2-0.9v-0.5c-0.2-0.1-0.3-0.1-0.4-0.1C376.4,182.4,376.3,182.4,376.2,182.4z"/>
	</g>
	
		<text id="XMLID_28_" transform="matrix(1 0 0 1 500.5583 186.6904)" class="st7" style="font-family:'MyriadPro-BoldIt'; font-size:22.1231px; letter-spacing:-1;">.com</text>
</g>
</svg>
