<?xml version="1.0" encoding="utf-8"?>
<!-- Generator: Adobe Illustrator 19.0.0, SVG Export Plug-In . SVG Version: 6.00 Build 0)  -->
<svg version="1.1" id="Layer_1" xmlns="http://www.w3.org/2000/svg" xmlns:xlink="http://www.w3.org/1999/xlink" x="0px" y="0px"
	 viewBox="0 0 300 40" style="enable-background:new 0 0 300 40;" xml:space="preserve">
<style type="text/css">
	.st0{fill:#004268;}
	.st1{fill:#939598;}
	.st2{fill:#0A8393;}
	.st3{fill:#231F20;}
	.st4{fill:#333333;}
	.st5{fill:#7B1233;}
	.st6{fill:#FBDA33;}
	.st7{fill:#296834;}
</style>
<g id="XMLID_131_">
	<path id="XMLID_168_" class="st0" d="M95.5,108.1c-2.8,0-5,0.8-6.5,2.4c-1.5,1.6-2.2,3.9-2.2,6.7c0,1.4,0.2,2.6,0.5,3.7
		c0.4,1.1,0.9,2.1,1.6,2.9c0.7,0.8,1.6,1.4,2.6,1.9c1,0.5,2.3,0.7,3.7,0.7c0.9,0,1.6,0,2.3-0.1c0.6-0.1,1.1-0.1,1.5-0.2V117h5v12.1
		c-0.7,0.2-1.9,0.5-3.5,0.8c-1.6,0.3-3.5,0.4-5.7,0.4c-2,0-3.8-0.3-5.4-0.9c-1.6-0.6-3-1.4-4.2-2.6c-1.1-1.1-2-2.5-2.7-4.1
		c-0.6-1.6-1-3.5-1-5.6c0-2.1,0.3-4,1.1-5.6c0.7-1.6,1.7-3,2.9-4.1c1.2-1.1,2.6-2,4.3-2.6c1.6-0.6,3.4-0.9,5.2-0.9
		c1.3,0,2.4,0.1,3.4,0.2c1,0.2,1.8,0.3,2.6,0.5c0.7,0.2,1.3,0.4,1.8,0.6c0.5,0.2,0.8,0.4,1,0.5l-1.5,3.8c-0.8-0.4-1.8-0.8-3-1.1
		C98,108.3,96.8,108.1,95.5,108.1z"/>
	<path id="XMLID_162_" class="st1" d="M114.8,113.4c0.4-0.2,1-0.5,1.8-0.8c0.8-0.3,1.7-0.4,2.8-0.4c1.3,0,2.5,0.2,3.5,0.7
		c1,0.4,1.9,1,2.6,1.8c0.7,0.8,1.2,1.7,1.6,2.8c0.4,1.1,0.5,2.3,0.5,3.6c0,1.4-0.2,2.6-0.6,3.7c-0.4,1.1-1,2-1.8,2.8
		c-0.8,0.8-1.7,1.4-2.9,1.8c-1.1,0.4-2.4,0.6-3.8,0.6c-1.5,0-2.8-0.1-4-0.3c-1.2-0.2-2.1-0.4-2.9-0.6v-24.4l3.2-0.5V113.4z
		 M114.8,127c0.3,0.1,0.8,0.2,1.4,0.2c0.6,0.1,1.3,0.1,2.2,0.1c1.7,0,3.1-0.5,4.2-1.6c1.1-1.1,1.6-2.6,1.6-4.6
		c0-0.9-0.1-1.7-0.3-2.5c-0.2-0.8-0.5-1.4-0.9-2c-0.4-0.6-1-1-1.6-1.3c-0.7-0.3-1.5-0.5-2.4-0.5c-0.9,0-1.7,0.1-2.4,0.4
		c-0.7,0.3-1.3,0.6-1.7,0.9V127z"/>
	<path id="XMLID_158_" class="st1" d="M130.3,121.2c0-1.5,0.2-2.8,0.7-3.9c0.5-1.1,1.1-2.1,1.8-2.8c0.8-0.7,1.7-1.3,2.7-1.7
		c1-0.4,2-0.6,3.1-0.6c2.4,0,4.3,0.7,5.6,2.1c1.3,1.4,2,3.6,2,6.5c0,0.1,0,0.3,0,0.5c0,0.2,0,0.4,0,0.6h-12.4c0.1,1.8,0.7,3.1,1.6,4
		c1,0.9,2.4,1.4,4.5,1.4c1.1,0,2.1-0.1,2.9-0.3c0.8-0.2,1.4-0.4,1.8-0.5l0.5,2.6c-0.4,0.2-1.1,0.4-2.1,0.6c-1,0.2-2.1,0.3-3.4,0.3
		c-1.6,0-2.9-0.2-4.1-0.7c-1.2-0.5-2.1-1.1-2.8-1.9c-0.7-0.8-1.3-1.7-1.7-2.8C130.5,123.7,130.3,122.5,130.3,121.2z M142.7,119.5
		c0-1.4-0.3-2.5-1.1-3.4c-0.8-0.9-1.8-1.3-3.1-1.3c-0.7,0-1.4,0.1-2,0.4c-0.6,0.3-1.1,0.6-1.4,1.1c-0.4,0.4-0.7,0.9-0.9,1.5
		c-0.2,0.6-0.4,1.1-0.4,1.7H142.7z"/>
	<path id="XMLID_153_" class="st1" d="M161.5,104.8l3.2-0.5v24.9c-0.7,0.2-1.7,0.4-2.9,0.6c-1.2,0.2-2.5,0.3-4,0.3
		c-1.4,0-2.7-0.2-3.8-0.6c-1.1-0.4-2.1-1-2.9-1.8c-0.8-0.8-1.4-1.7-1.8-2.8c-0.4-1.1-0.6-2.3-0.6-3.7c0-1.3,0.2-2.5,0.5-3.6
		c0.4-1.1,0.9-2,1.6-2.8c0.7-0.8,1.6-1.4,2.6-1.8c1-0.4,2.2-0.7,3.5-0.7c1,0,2,0.1,2.8,0.4c0.8,0.3,1.4,0.5,1.8,0.8V104.8z
		 M161.5,116.3c-0.4-0.3-1-0.6-1.7-0.9c-0.7-0.3-1.6-0.4-2.4-0.4c-0.9,0-1.7,0.2-2.4,0.5c-0.7,0.3-1.2,0.8-1.6,1.3
		c-0.4,0.6-0.7,1.2-0.9,2c-0.2,0.8-0.3,1.6-0.3,2.5c0,2,0.5,3.5,1.6,4.6c1.1,1.1,2.4,1.6,4.2,1.6c0.9,0,1.6,0,2.2-0.1
		c0.6-0.1,1-0.2,1.4-0.2V116.3z"/>
	<path id="XMLID_148_" class="st1" d="M172.6,113.4c0.4-0.2,1-0.5,1.8-0.8c0.8-0.3,1.7-0.4,2.8-0.4c1.3,0,2.5,0.2,3.5,0.7
		c1,0.4,1.9,1,2.6,1.8c0.7,0.8,1.2,1.7,1.6,2.8c0.4,1.1,0.5,2.3,0.5,3.6c0,1.4-0.2,2.6-0.6,3.7c-0.4,1.1-1,2-1.8,2.8
		c-0.8,0.8-1.7,1.4-2.9,1.8c-1.1,0.4-2.4,0.6-3.8,0.6c-1.5,0-2.8-0.1-4-0.3c-1.2-0.2-2.1-0.4-2.9-0.6v-24.4l3.2-0.5V113.4z
		 M172.6,127c0.3,0.1,0.8,0.2,1.4,0.2c0.6,0.1,1.3,0.1,2.2,0.1c1.7,0,3.1-0.5,4.2-1.6c1-1.1,1.6-2.6,1.6-4.6c0-0.9-0.1-1.7-0.3-2.5
		c-0.2-0.8-0.5-1.4-0.9-2c-0.4-0.6-1-1-1.6-1.3c-0.7-0.3-1.5-0.5-2.4-0.5c-0.9,0-1.7,0.1-2.4,0.4c-0.7,0.3-1.3,0.6-1.7,0.9V127z"/>
	<path id="XMLID_142_" class="st1" d="M195,112.2c1.3,0,2.4,0.2,3.3,0.5c0.9,0.3,1.6,0.8,2.2,1.3c0.5,0.6,0.9,1.3,1.2,2.1
		c0.2,0.8,0.3,1.7,0.3,2.6v10.7c-0.3,0-0.7,0.1-1.2,0.2c-0.5,0.1-1.1,0.2-1.7,0.2c-0.6,0.1-1.3,0.1-2,0.2c-0.7,0.1-1.5,0.1-2.2,0.1
		c-1,0-2-0.1-2.8-0.3c-0.9-0.2-1.6-0.5-2.2-0.9c-0.6-0.4-1.1-1-1.5-1.7c-0.4-0.7-0.5-1.5-0.5-2.5c0-0.9,0.2-1.7,0.6-2.4
		c0.4-0.7,1-1.2,1.7-1.6c0.7-0.4,1.5-0.7,2.4-0.9c0.9-0.2,1.9-0.3,2.9-0.3c0.3,0,0.7,0,1,0c0.4,0,0.7,0.1,1,0.1
		c0.3,0.1,0.6,0.1,0.8,0.1c0.2,0,0.4,0.1,0.5,0.1v-0.9c0-0.5-0.1-1-0.2-1.5c-0.1-0.5-0.3-0.9-0.6-1.3c-0.3-0.4-0.7-0.7-1.2-0.9
		c-0.5-0.2-1.2-0.3-2-0.3c-1.1,0-2,0.1-2.8,0.2c-0.8,0.1-1.4,0.3-1.8,0.4l-0.4-2.5c0.4-0.2,1.1-0.3,2.1-0.5
		C192.8,112.3,193.9,112.2,195,112.2z M195.3,127.5c0.8,0,1.4,0,2,0c0.6,0,1.1-0.1,1.5-0.2v-5.1c-0.2-0.1-0.6-0.2-1.1-0.3
		c-0.5-0.1-1.2-0.1-1.9-0.1c-0.5,0-1,0-1.6,0.1c-0.5,0.1-1,0.2-1.5,0.4c-0.5,0.2-0.8,0.5-1.1,0.9c-0.3,0.4-0.5,0.8-0.5,1.4
		c0,1.1,0.4,1.9,1.1,2.3C193,127.3,194,127.5,195.3,127.5z"/>
	<path id="XMLID_138_" class="st1" d="M205.8,113.1c0.7-0.2,1.7-0.4,3-0.6c1.2-0.2,2.7-0.3,4.3-0.3c1.4,0,2.6,0.2,3.6,0.6
		c1,0.4,1.7,0.9,2.3,1.6c0.6,0.7,1,1.5,1.2,2.5c0.2,1,0.4,2,0.4,3.2v9.6h-3.2v-8.9c0-1-0.1-1.9-0.2-2.7c-0.1-0.7-0.4-1.3-0.7-1.8
		c-0.3-0.5-0.8-0.8-1.4-1c-0.6-0.2-1.3-0.3-2.2-0.3c-0.3,0-0.7,0-1.1,0c-0.4,0-0.7,0-1.1,0.1c-0.3,0-0.6,0.1-0.9,0.1
		c-0.3,0-0.5,0.1-0.6,0.1v14.4h-3.2V113.1z"/>
	<path id="XMLID_135_" class="st1" d="M231.6,120.3c0.7,0.5,1.4,1.1,2.2,1.9c0.8,0.7,1.5,1.5,2.3,2.4c0.8,0.9,1.5,1.7,2.1,2.6
		c0.7,0.9,1.2,1.7,1.7,2.5h-3.8c-0.5-0.8-1.1-1.5-1.7-2.3c-0.6-0.8-1.3-1.6-2-2.3c-0.7-0.7-1.4-1.4-2.1-2c-0.7-0.6-1.4-1.1-2.1-1.5
		v8.2h-3.2v-24.9l3.2-0.5v15.5c0.6-0.5,1.2-1.1,1.8-1.7c0.7-0.6,1.3-1.3,2-1.9c0.6-0.7,1.3-1.3,1.8-1.9c0.6-0.6,1.1-1.1,1.5-1.6h3.8
		c-0.5,0.5-1.1,1.1-1.7,1.8c-0.6,0.7-1.3,1.3-2,2c-0.7,0.7-1.4,1.3-2,2C232.9,119.1,232.2,119.7,231.6,120.3z"/>
	<path id="XMLID_1_" class="st0" d="M73,104.2h-0.6c-0.6,0.9-1.2,2.1-1.9,3.4c-0.7,1.3-1.4,2.7-2.2,4.2c-0.7,1.5-1.5,3-2.2,4.5
		c-0.7,1.5-1.4,2.9-2,4.2c-0.6-1.3-1.3-2.7-2-4.2c-0.7-1.5-1.5-3-2.2-4.5c-0.7-1.5-1.5-2.9-2.2-4.2c-0.7-1.3-1.4-2.5-1.9-3.4h-0.9
		H50v25.7h4.9V112c0-0.2,0-0.4,0.1-0.6c0.3,0.5,0.6,1.2,1,2c0.4,0.8,0.8,1.6,1.3,2.5c0.4,0.9,0.9,1.8,1.4,2.8c0.5,1,0.9,1.9,1.3,2.8
		c0.4,0.9,0.8,1.8,1.2,2.6c0.4,0.8,0.7,1.5,1,2h3.7c0.3-0.6,0.6-1.2,1-2c0.4-0.8,0.8-1.6,1.2-2.6c0.4-0.9,0.9-1.9,1.3-2.8
		c0.5-1,0.9-1.9,1.4-2.8c0.4-0.9,0.9-1.8,1.3-2.5c0.4-0.7,0.7-1.3,0.9-1.8v18.4h4.9v-25.7H73z"/>
</g>
<g id="XMLID_212_">
	<path id="XMLID_240_" class="st2" d="M432.7-24.9c-1.5,0-2.7-0.2-3.7-0.5c-0.9-0.3-1.7-0.7-2.2-1.3c-0.5-0.5-0.9-1.2-1.1-2
		c-0.2-0.8-0.3-1.6-0.3-2.6v-23l5.2-0.8v22.8c0,0.5,0,0.9,0.1,1.3c0.1,0.4,0.2,0.7,0.4,0.9c0.2,0.3,0.5,0.5,0.8,0.6
		c0.4,0.2,0.9,0.3,1.5,0.3L432.7-24.9z"/>
	<path id="XMLID_237_" class="st2" d="M454-30.8c0,1,0.3,1.8,1.2,1.8c0.7,0,1.2-0.2,1.8-0.6l0.2,3.9c-0.9,0.4-2.4,0.8-4,0.8
		c-2,0-3.3-0.8-3.9-2.6c-1.2,1.5-3.3,2.6-5.8,2.6c-5.1,0-8.5-3.9-8.5-9.3c0-5.5,3.4-9.4,8.5-9.4c2.4,0,4.2,0.7,5.4,1.9v-1.6h4.9
		V-30.8z M449.1-37.8c-0.8-0.9-2.4-1.6-4.1-1.6c-3,0-4.9,2.1-4.9,5.2c0,3.1,1.9,5.1,4.9,5.1c1.6,0,3.1-0.7,4.1-1.6V-37.8z"/>
	<path id="XMLID_235_" class="st2" d="M397.8-24.9c-1.5,0-2.7-0.2-3.7-0.5c-0.9-0.3-1.7-0.7-2.2-1.3c-0.5-0.5-0.9-1.2-1.1-2
		c-0.2-0.8-0.3-1.6-0.3-2.6v-23l5.2-0.8v22.8c0,0.5,0,0.9,0.1,1.3c0.1,0.4,0.2,0.7,0.4,0.9c0.2,0.3,0.5,0.5,0.9,0.6
		c0.4,0.2,0.9,0.3,1.5,0.3L397.8-24.9z"/>
	<path id="XMLID_232_" class="st2" d="M419.1-30.8c0,1,0.3,1.8,1.3,1.8c0.7,0,1.3-0.2,1.8-0.6l0.2,3.9c-0.9,0.4-2.4,0.8-4,0.8
		c-2,0-3.3-0.8-3.9-2.6c-1.2,1.5-3.3,2.6-5.8,2.6c-5.1,0-8.5-3.9-8.5-9.3c0-5.5,3.4-9.4,8.5-9.4c2.4,0,4.2,0.7,5.4,1.9v-1.6h4.9
		V-30.8z M414.3-37.8c-0.8-0.9-2.4-1.6-4.1-1.6c-3,0-4.9,2.1-4.9,5.2c0,3.1,1.9,5.1,4.9,5.1c1.6,0,3.1-0.7,4.1-1.6V-37.8z"/>
	<path id="XMLID_230_" class="st2" d="M363.3-24.9c-1.5,0-2.7-0.2-3.7-0.5c-0.9-0.3-1.7-0.7-2.2-1.3c-0.5-0.5-0.9-1.2-1.1-2
		c-0.2-0.8-0.3-1.6-0.3-2.6v-23l5.2-0.8v22.8c0,0.5,0,0.9,0.1,1.3c0.1,0.4,0.2,0.7,0.4,0.9c0.2,0.3,0.5,0.5,0.9,0.6
		c0.4,0.2,0.9,0.3,1.5,0.3L363.3-24.9z"/>
	<path id="XMLID_227_" class="st2" d="M384.6-30.8c0,1,0.3,1.8,1.2,1.8c0.7,0,1.3-0.2,1.8-0.6l0.2,3.9c-0.9,0.4-2.4,0.8-4,0.8
		c-2.1,0-3.3-0.8-3.9-2.6c-1.3,1.5-3.3,2.6-5.8,2.6c-5.1,0-8.5-3.9-8.5-9.3c0-5.5,3.4-9.4,8.5-9.4c2.4,0,4.2,0.7,5.4,1.9v-1.6h4.9
		V-30.8z M379.7-37.8c-0.8-0.9-2.4-1.6-4.1-1.6c-3,0-4.9,2.1-4.9,5.2c0,3.1,1.9,5.1,4.9,5.1c1.6,0,3.1-0.7,4.1-1.6V-37.8z"/>
	<path id="XMLID_225_" class="st2" d="M470.5-35.7c-0.5,1.8-1,3.5-1.5,5.2c-0.5,1.7-1.1,3.5-1.6,5.2h-4c-0.4-1-0.9-2.1-1.4-3.5
		c-0.5-1.3-1-2.8-1.5-4.4c-0.5-1.6-1.1-3.3-1.6-5c-0.5-1.8-1.1-3.6-1.6-5.4h5.5c0.2,0.8,0.4,1.8,0.6,2.7c0.2,1,0.5,2,0.7,3
		c0.2,1,0.5,2.1,0.8,3.1c0.3,1.1,0.5,2.1,0.8,3c0.3-1,0.6-2.1,0.9-3.1c0.3-1.1,0.6-2.1,0.8-3.1c0.3-1,0.5-2,0.8-3
		c0.2-1,0.5-1.9,0.6-2.7h3.8c0.2,0.8,0.4,1.7,0.6,2.7c0.2,1,0.5,2,0.7,3c0.3,1,0.5,2.1,0.8,3.1c0.3,1.1,0.6,2.1,0.9,3.1
		c0.3-1,0.6-2,0.8-3c0.3-1.1,0.5-2.1,0.8-3.1c0.2-1,0.5-2.1,0.7-3c0.2-1,0.4-1.9,0.6-2.7h5.4c-0.5,1.8-1,3.6-1.6,5.4
		c-0.5,1.8-1.1,3.4-1.6,5c-0.5,1.6-1,3.1-1.5,4.4c-0.5,1.3-1,2.5-1.4,3.5h-4c-0.6-1.8-1.1-3.5-1.7-5.2C471.5-32.2,471-34,470.5-35.7
		z"/>
	<path id="XMLID_222_" class="st2" d="M503.2-30.8c0,1,0.3,1.8,1.2,1.8c0.7,0,1.3-0.2,1.8-0.6l0.2,3.9c-0.9,0.4-2.4,0.8-4,0.8
		c-2.1,0-3.3-0.8-3.9-2.6c-1.2,1.5-3.3,2.6-5.8,2.6c-5.1,0-8.5-3.9-8.5-9.3c0-5.5,3.4-9.4,8.5-9.4c2.4,0,4.2,0.7,5.4,1.9v-1.6h4.9
		V-30.8z M498.4-37.8c-0.8-0.9-2.4-1.6-4.1-1.6c-3,0-4.9,2.1-4.9,5.2c0,3.1,1.9,5.1,4.9,5.1c1.6,0,3.1-0.7,4.1-1.6V-37.8z"/>
	<path id="XMLID_220_" class="st2" d="M511.9-43.4l5,12.9l4.8-12.9h4.9l-7.5,18.3c-1.8,4.5-3.6,6.7-7.7,6.7c-1.7,0-3.3-0.6-4.2-1.2
		l0.7-3.9c0.9,0.5,2.1,1,3.4,1c1.6,0,2.3-0.8,3-2.3l0.4-0.9l-8.3-17.7H511.9z"/>
	<g id="XMLID_213_">
		<path id="XMLID_94_" class="st2" d="M486.6-19.4c-0.3,0-0.5,0.2-0.5,0.5c0,0.3,0.2,0.5,0.5,0.5c0.3,0,0.6-0.1,0.6-0.5
			C487.1-19.2,486.9-19.4,486.6-19.4z"/>
		<path id="XMLID_93_" class="st2" d="M489.6-21c0.4,0,0.6,0.2,0.7,0.6l0.8-0.2c-0.1-0.8-0.6-1.2-1.5-1.2c-1,0-1.7,0.7-1.7,1.7
			c0,1.1,0.6,1.7,1.8,1.7c0.5,0,1-0.1,1.3-0.4l-0.3-0.7c-0.2,0.2-0.6,0.3-0.9,0.3c-0.6,0-1-0.4-1-1C488.8-20.6,489.1-21,489.6-21z"
			/>
		<path id="XMLID_215_" class="st2" d="M493.6-21.7c-1,0-1.7,0.7-1.7,1.7c0,1,0.7,1.7,1.7,1.7c1,0,1.7-0.7,1.7-1.7
			C495.3-21,494.6-21.7,493.6-21.7z M493.6-19.1c-0.5,0-0.9-0.4-0.9-0.9c0-0.5,0.4-0.9,0.9-0.9c0.5,0,0.9,0.4,0.9,0.9
			C494.5-19.5,494.1-19.1,493.6-19.1z"/>
		<path id="XMLID_90_" class="st2" d="M501.6-20.4c0-0.5-0.2-1.3-1.1-1.3c-0.5,0-0.8,0.2-1.1,0.5l-0.1,0.1l-0.1-0.1
			c-0.2-0.4-0.5-0.5-1-0.5c-0.4,0-0.7,0.1-1,0.4l-0.2,0.2v-0.5h-0.9v3.2h0.9l0-2c0.1-0.3,0.4-0.4,0.7-0.4c0.4,0,0.7,0.3,0.7,0.8v1.7
			h0.9l0-2c0.1-0.3,0.4-0.4,0.7-0.4c0.4,0,0.6,0.2,0.7,0.6v1.8h0.9L501.6-20.4L501.6-20.4z"/>
	</g>
</g>
<g id="XMLID_209_">
	<defs>
		<rect id="XMLID_88_" x="353.8" y="7.2" width="190" height="26.2"/>
	</defs>
	<clipPath id="XMLID_170_">
		<use xlink:href="#XMLID_88_"  style="overflow:visible;"/>
	</clipPath>
	<g transform="matrix(1 0 0 1 0 4.768372e-07)" style="clip-path:url(#XMLID_170_);">
		
			<image style="overflow:visible;" width="464" height="64" id="XMLID_89_" xlink:href="BF5AFDA7FD74C447.png"  transform="matrix(0.4095 0 0 0.4095 353.8074 7.1862)">
		</image>
	</g>
</g>
<g id="XMLID_163_">
	<path id="XMLID_207_" class="st3" d="M0,20L0,20c0-3.9,2.9-7.2,7.1-7.2c2.5,0,4.1,0.9,5.4,2.1l-1.6,1.8c-1.1-1-2.3-1.7-3.9-1.7
		c-2.6,0-4.5,2.2-4.5,4.9v0c0,2.7,1.9,4.9,4.5,4.9c1.7,0,2.8-0.7,3.9-1.8l1.6,1.6c-1.4,1.5-3,2.4-5.6,2.4C3,27.1,0,24,0,20z"/>
	<path id="XMLID_204_" class="st3" d="M16.1,20L16.1,20c0-3.9,3-7.2,7.2-7.2c4.2,0,7.2,3.2,7.2,7.1v0c0,3.9-3,7.1-7.2,7.1
		C19,27.1,16.1,23.9,16.1,20z M27.9,20L27.9,20c0-2.7-1.9-4.9-4.7-4.9c-2.7,0-4.6,2.2-4.6,4.9v0c0,2.7,1.9,4.9,4.7,4.9
		C26,24.9,27.9,22.7,27.9,20z"/>
	<path id="XMLID_201_" class="st3" d="M35.4,13.1h6.1c1.7,0,3.1,0.5,4,1.4c0.7,0.7,1.1,1.8,1.1,3v0c0,2.3-1.4,3.6-3.3,4.2l3.7,5.2
		h-2.9l-3.4-4.8h-3v4.8h-2.4V13.1z M41.3,19.9c1.7,0,2.8-0.9,2.8-2.3v0c0-1.5-1.1-2.3-2.8-2.3h-3.5v4.6H41.3z"/>
	<path id="XMLID_198_" class="st3" d="M51.5,13.1h5.4c3.2,0,5.2,1.8,5.2,4.6v0c0,3.1-2.5,4.7-5.5,4.7h-2.7v4.4h-2.4V13.1z
		 M56.8,20.3c1.8,0,3-1,3-2.5v0c0-1.6-1.2-2.5-3-2.5h-2.8v4.9H56.8z"/>
	<path id="XMLID_195_" class="st3" d="M66,20L66,20c0-3.9,3-7.2,7.2-7.2c4.2,0,7.2,3.2,7.2,7.1v0c0,3.9-3,7.1-7.2,7.1
		C69,27.1,66,23.9,66,20z M77.9,20L77.9,20c0-2.7-1.9-4.9-4.7-4.9c-2.7,0-4.6,2.2-4.6,4.9v0c0,2.7,1.9,4.9,4.7,4.9
		C76,24.9,77.9,22.7,77.9,20z"/>
	<path id="XMLID_192_" class="st3" d="M85.3,13.1h6.1c1.7,0,3.1,0.5,4,1.4c0.7,0.7,1.1,1.8,1.1,3v0c0,2.3-1.4,3.6-3.3,4.2l3.7,5.2
		h-2.9l-3.4-4.8h-3v4.8h-2.4V13.1z M91.2,19.9c1.7,0,2.8-0.9,2.8-2.3v0c0-1.5-1.1-2.3-2.9-2.3h-3.5v4.6H91.2z"/>
	<path id="XMLID_189_" class="st3" d="M106.3,13h2.2l6.1,13.9h-2.6l-1.4-3.3h-6.5l-1.4,3.3h-2.5L106.3,13z M109.8,21.4l-2.4-5.5
		l-2.4,5.5H109.8z"/>
	<path id="XMLID_187_" class="st3" d="M120.6,15.4h-4.4v-2.2h11.2v2.2H123v11.5h-2.4V15.4z"/>
	<path id="XMLID_185_" class="st3" d="M131.9,13.1h10.2v2.2h-7.8v3.6h6.9V21h-6.9v3.7h7.9v2.2h-10.3V13.1z"/>
	<path id="XMLID_182_" class="st3" d="M154.9,13.1h6.1c1.7,0,3.1,0.5,4,1.4c0.7,0.7,1.1,1.8,1.1,3v0c0,2.3-1.4,3.6-3.3,4.2l3.7,5.2
		h-2.9l-3.4-4.8h-3v4.8h-2.4V13.1z M160.8,19.9c1.7,0,2.8-0.9,2.8-2.3v0c0-1.5-1.1-2.3-2.8-2.3h-3.5v4.6H160.8z"/>
	<path id="XMLID_179_" class="st3" d="M170.4,20L170.4,20c0-3.9,3-7.2,7.2-7.2c4.2,0,7.2,3.2,7.2,7.1v0c0,3.9-3,7.1-7.2,7.1
		C173.4,27.1,170.4,23.9,170.4,20z M182.3,20L182.3,20c0-2.7-1.9-4.9-4.7-4.9c-2.7,0-4.6,2.2-4.6,4.9v0c0,2.7,2,4.9,4.7,4.9
		C180.4,24.9,182.3,22.7,182.3,20z"/>
	<path id="XMLID_176_" class="st3" d="M189.1,20L189.1,20c0-3.9,3-7.2,7.2-7.2c4.2,0,7.2,3.2,7.2,7.1v0c0,3.9-3,7.1-7.2,7.1
		C192.1,27.1,189.1,23.9,189.1,20z M201,20L201,20c0-2.7-1.9-4.9-4.7-4.9c-2.7,0-4.6,2.2-4.6,4.9v0c0,2.7,1.9,4.9,4.7,4.9
		C199.1,24.9,201,22.7,201,20z"/>
	<path id="XMLID_174_" class="st3" d="M208.4,13.1h2.6l4.2,6.5l4.2-6.5h2.6v13.8h-2.4V17l-4.3,6.5h-0.1l-4.3-6.4v9.8h-2.4V13.1z"/>
	<path id="XMLID_171_" class="st3" d="M235.2,13.1h5.4c4.3,0,7.3,3,7.3,6.8v0c0,3.9-3,6.9-7.3,6.9h-5.4V13.1z M238.2,15.9v8.3h2.3
		c2.5,0,4.1-1.7,4.1-4.1v0c0-2.4-1.7-4.2-4.1-4.2H238.2z"/>
	<path id="XMLID_169_" class="st3" d="M252.5,13.1h10.4v2.7h-7.4v2.8h6.5v2.7h-6.5v2.9h7.5v2.7h-10.5V13.1z"/>
	<path id="XMLID_166_" class="st3" d="M272.3,13h2.8l5.9,13.9h-3.2l-1.3-3.1h-5.8l-1.3,3.1h-3.1L272.3,13z M275.5,21.1l-1.8-4.5
		l-1.8,4.5H275.5z"/>
	<path id="XMLID_164_" class="st3" d="M285.1,13.1h3v11h6.9v2.7h-9.9V13.1z"/>
</g>
<g id="XMLID_123_">
	<g id="XMLID_125_">
		<g id="XMLID_144_">
			<path id="XMLID_160_" class="st4" d="M412.8,96.2h7c1.9,0,3.4,0.5,4.5,1.6c0.9,0.9,1.3,2,1.3,3.5v0c0,1.2-0.3,2.3-0.9,3
				c-0.6,0.8-1.4,1.4-2.4,1.7l3.7,5.5h-3.9l-3.3-4.9h0h-2.6v4.9h-3.4V96.2z M419.6,103.6c0.8,0,1.5-0.2,1.9-0.6
				c0.4-0.4,0.7-0.9,0.7-1.6v0c0-0.7-0.2-1.3-0.7-1.6c-0.5-0.4-1.1-0.5-2-0.5h-3.4v4.4H419.6z"/>
			<path id="XMLID_157_" class="st4" d="M447.8,111.8c-1.2,0-2.3-0.2-3.3-0.6c-1-0.4-1.9-1-2.6-1.7c-0.7-0.7-1.3-1.5-1.7-2.5
				c-0.4-1-0.6-2-0.6-3.1v0c0-1.1,0.2-2.1,0.6-3.1c0.4-1,1-1.8,1.7-2.5c0.7-0.7,1.6-1.3,2.6-1.7c1-0.4,2.1-0.6,3.3-0.6
				c1.2,0,2.3,0.2,3.3,0.6c1,0.4,1.8,1,2.6,1.7c0.7,0.7,1.3,1.5,1.7,2.5c0.4,1,0.6,2,0.6,3.1v0c0,1.1-0.2,2.1-0.6,3.1
				c-0.4,1-1,1.8-1.7,2.5c-0.7,0.7-1.6,1.3-2.6,1.7C450,111.6,448.9,111.8,447.8,111.8z M447.8,108.6c0.7,0,1.3-0.1,1.9-0.4
				c0.6-0.2,1.1-0.6,1.5-1c0.4-0.4,0.7-0.9,0.9-1.5c0.2-0.6,0.3-1.2,0.3-1.9v0c0-0.7-0.1-1.3-0.3-1.9c-0.2-0.6-0.5-1.1-1-1.5
				c-0.4-0.4-0.9-0.8-1.5-1c-0.6-0.3-1.2-0.4-1.9-0.4c-0.7,0-1.3,0.1-1.9,0.4c-0.6,0.3-1,0.6-1.4,1c-0.4,0.4-0.7,0.9-0.9,1.5
				c-0.2,0.6-0.3,1.2-0.3,1.9v0c0,0.7,0.1,1.3,0.3,1.9c0.2,0.6,0.5,1.1,1,1.5c0.4,0.4,0.9,0.8,1.5,1
				C446.5,108.5,447.1,108.6,447.8,108.6z"/>
			<path id="XMLID_155_" class="st4" d="M458.2,96.2h3.6l4,6.5l4-6.5h3.6v15.3h-3.3v-10l-4.3,6.6h-0.1l-4.3-6.5v10h-3.3V96.2z"/>
			<path id="XMLID_152_" class="st4" d="M481.6,96.2h6c1.2,0,2.3,0.2,3.3,0.6c1,0.4,1.9,0.9,2.6,1.6c0.7,0.7,1.3,1.5,1.7,2.4
				c0.4,0.9,0.6,1.9,0.6,3v0c0,1.1-0.2,2.1-0.6,3c-0.4,0.9-1,1.7-1.7,2.4c-0.7,0.7-1.6,1.2-2.6,1.6c-1,0.4-2.1,0.6-3.3,0.6h-6V96.2z
				 M487.6,108.5c0.7,0,1.3-0.1,1.9-0.3c0.6-0.2,1.1-0.5,1.5-0.9c0.4-0.4,0.7-0.9,0.9-1.4c0.2-0.6,0.3-1.2,0.3-1.9v0
				c0-0.7-0.1-1.3-0.3-1.9c-0.2-0.6-0.5-1.1-0.9-1.5c-0.4-0.4-0.9-0.7-1.5-1c-0.6-0.2-1.2-0.3-1.9-0.3H485v9.3H487.6z"/>
			<path id="XMLID_150_" class="st4" d="M497.7,96.2h11.5v3H501v3.1h7.2v3H501v3.2h8.3v3h-11.7V96.2z"/>
			<path id="XMLID_147_" class="st4" d="M516.5,96h3.1l6.6,15.5h-3.5l-1.4-3.4h-6.5l-1.4,3.4H510L516.5,96z M520.1,105.1l-2-5l-2,5
				H520.1z"/>
			<path id="XMLID_145_" class="st4" d="M527.5,96.2h3.4v12.3h7.7v3h-11V96.2z"/>
		</g>
		<g id="XMLID_128_">
			<path id="XMLID_141_" class="st4" d="M413.2,123.6v-6.4h2.1c0.8,0,1.3,0,1.5,0.1c0.4,0.1,0.7,0.3,0.9,0.6
				c0.2,0.3,0.4,0.7,0.4,1.2c0,0.4-0.1,0.7-0.2,1c-0.1,0.3-0.3,0.5-0.5,0.6c-0.2,0.2-0.4,0.3-0.7,0.3c-0.3,0.1-0.7,0.1-1.3,0.1h-0.8
				v2.4H413.2z M414.5,118.3v1.8h0.7c0.5,0,0.8,0,1-0.1c0.2-0.1,0.3-0.2,0.4-0.3c0.1-0.1,0.1-0.3,0.1-0.5c0-0.2-0.1-0.4-0.2-0.6
				c-0.1-0.1-0.3-0.2-0.5-0.3c-0.2,0-0.5,0-0.9,0H414.5z"/>
			<path id="XMLID_139_" class="st4" d="M421.7,119v1h-0.8v1.9c0,0.4,0,0.6,0,0.7c0,0.1,0.1,0.1,0.1,0.2c0.1,0,0.1,0.1,0.2,0.1
				c0.1,0,0.3,0,0.5-0.1l0.1,0.9c-0.3,0.1-0.6,0.2-1,0.2c-0.2,0-0.4,0-0.6-0.1c-0.2-0.1-0.3-0.2-0.4-0.3c-0.1-0.1-0.1-0.3-0.2-0.5
				c0-0.1,0-0.4,0-0.9v-2h-0.6v-1h0.6v-0.9l1.2-0.7v1.6H421.7z"/>
			<path id="XMLID_136_" class="st4" d="M425.7,122.1l1.2,0.2c-0.2,0.4-0.4,0.8-0.7,1c-0.3,0.2-0.8,0.4-1.3,0.4
				c-0.8,0-1.4-0.3-1.8-0.8c-0.3-0.4-0.5-1-0.5-1.6c0-0.8,0.2-1.4,0.6-1.8c0.4-0.4,0.9-0.6,1.5-0.6c0.7,0,1.2,0.2,1.6,0.7
				c0.4,0.5,0.6,1.1,0.6,2.1h-3.1c0,0.4,0.1,0.6,0.3,0.8c0.2,0.2,0.4,0.3,0.7,0.3c0.2,0,0.4-0.1,0.5-0.2
				C425.5,122.5,425.6,122.4,425.7,122.1z M425.7,120.9c0-0.4-0.1-0.6-0.3-0.8c-0.2-0.2-0.4-0.3-0.6-0.3c-0.3,0-0.5,0.1-0.7,0.3
				c-0.2,0.2-0.3,0.5-0.3,0.8H425.7z"/>
			<path id="XMLID_134_" class="st4" d="M428.4,123.6v-6.3h1.3v5.2h3.2v1.1H428.4z"/>
			<path id="XMLID_132_" class="st4" d="M435.1,123.6v-5.3h-1.9v-1.1h5.1v1.1h-1.9v5.3H435.1z"/>
			<path id="XMLID_129_" class="st4" d="M439.5,117.3h2.4c0.5,0,0.9,0,1.2,0.1c0.4,0.1,0.7,0.3,1,0.6c0.3,0.3,0.5,0.6,0.6,1
				c0.1,0.4,0.2,0.9,0.2,1.5c0,0.5-0.1,1-0.2,1.4c-0.2,0.5-0.4,0.8-0.7,1.1c-0.2,0.2-0.5,0.4-0.9,0.5c-0.3,0.1-0.7,0.1-1.1,0.1h-2.4
				V117.3z M440.8,118.3v4.2h1c0.4,0,0.6,0,0.8-0.1c0.2-0.1,0.4-0.1,0.5-0.3c0.1-0.1,0.2-0.3,0.3-0.6c0.1-0.3,0.1-0.7,0.1-1.2
				c0-0.5,0-0.9-0.1-1.1c-0.1-0.3-0.2-0.5-0.4-0.6c-0.2-0.1-0.4-0.2-0.6-0.3c-0.2,0-0.5-0.1-1.1-0.1H440.8z"/>
		</g>
		<path id="XMLID_39_" class="st5" d="M382.2,89.6l-21.8,21.8c-3.8,3.8-3.8,9.8,0,13.6c3.8,3.8,9.8,3.8,13.6,0l21.8-21.8L382.2,89.6
			z"/>
		<path id="XMLID_38_" class="st5" d="M368.6,103.2l21.8,21.8c3.8,3.8,9.8,3.8,13.6,0c3.8-3.8,3.8-9.8,0-13.6l-21.8-21.8
			L368.6,103.2z"/>
	</g>
	<path id="XMLID_37_" class="st4" d="M442.5,103.2L442.5,103.2L442.5,103.2l-2.9,0c0,0.2,0,0.4,0,0.6v0c0,0.7-0.1,1.3-0.3,1.9
		c-0.2,0.6-0.5,1.1-0.9,1.5c-0.4,0.4-0.9,0.8-1.5,1c-0.6,0.2-1.2,0.4-1.9,0.4c-0.7,0-1.3-0.1-1.9-0.4c-0.6-0.3-1.1-0.6-1.5-1
		c-0.4-0.4-0.7-0.9-1-1.5c-0.2-0.6-0.3-1.2-0.3-1.9v0c0-0.7,0.1-1.3,0.3-1.9c0.2-0.6,0.5-1.1,0.9-1.5c0.4-0.4,0.9-0.8,1.4-1
		c0.6-0.2,1.2-0.4,1.9-0.4c0.7,0,1.3,0.1,1.9,0.4c0.6,0.3,1.1,0.6,1.5,1c0.3,0.3,0.6,0.7,0.8,1.2c0.1-0.5,0.3-1,0.5-1.5
		c0.3-0.7,0.7-1.4,1.2-2c-0.7-0.7-1.5-1.2-2.5-1.6c-1-0.4-2.1-0.6-3.3-0.6c-1.2,0-2.3,0.2-3.3,0.6c-1,0.4-1.9,1-2.6,1.7
		c-0.7,0.7-1.3,1.6-1.7,2.5c-0.4,1-0.6,2-0.6,3.1v0c0,1.1,0.2,2.1,0.6,3.1c0.4,1,1,1.8,1.7,2.5c0.7,0.7,1.6,1.3,2.6,1.7
		c1,0.4,2.1,0.6,3.3,0.6c1.2,0,2.3-0.2,3.3-0.6c1-0.4,1.9-1,2.6-1.7c0.7-0.7,1.3-1.6,1.7-2.5c0.4-1,0.6-2,0.6-3.1v0
		c0-0.9-0.1-1.7-0.4-2.4C442.6,101.9,442.5,102.5,442.5,103.2z"/>
</g>
<g id="XMLID_109_">
	<g id="XMLID_111_">
		<path id="XMLID_36_" class="st6" d="M391.2,170.2c-0.7,0-1.4-0.3-1.9-0.8c-1.1-1.1-1.1-2.8,0-3.8l7.8-7.8l7.5,7.5
			c1.1,1.1,1.1,2.8,0,3.8c-1.1,1.1-2.8,1.1-3.8,0l-3.7-3.7l-3.9,3.9C392.6,169.9,391.9,170.2,391.2,170.2"/>
		<path id="XMLID_112_" class="st7" d="M392.8,185.5c0.1-0.3,0.2-0.5,0.3-0.8c0.1-0.2,0.4-1.9,0.4-1.9c-0.2-0.2-0.4-0.3-0.5-0.4
			c-0.1,0-0.2,0-0.3,0c-0.1,0-0.2,0.1-0.4,0.1c-0.1,0.1-0.3,0.1-0.6,0.1c-0.2,0-0.4,0-0.6-0.1c-0.2-0.1-0.3-0.3-0.3-0.5V181l1.4-8.3
			c-0.1-0.1-0.2-0.2-0.4-0.3c-0.2-0.1-0.4-0.1-0.6-0.1h-0.9c-0.3,0-0.5,0-0.8,0c-0.2,0-0.5,0-0.8,0c-0.3,0-0.5,0-0.9,0
			c-0.1,0.2-0.2,0.3-0.2,0.4c0,0.1-0.1,0.1-0.2,0.1c-0.1,0-0.3,0-0.5-0.1c-0.2-0.1-0.4-0.2-0.7-0.3c-0.3-0.1-0.5-0.2-0.8-0.3
			c-0.3-0.1-0.6-0.1-1-0.1c-1,0-1.9,0.3-2.8,0.8c-0.9,0.5-1.7,1.2-2.4,2c-0.7,0.8-1.3,1.8-1.7,3c-0.4,1.1-0.7,2.3-0.7,3.6
			c0,1,0.2,1.8,0.5,2.5c0.3,0.7,0.8,1.3,1.3,1.7c0.5,0.4,1,0.8,1.5,1c0.5,0.2,1,0.3,1.4,0.3h1c0.4,0,0.9-0.1,1.3-0.3
			c0.5-0.2,0.9-0.4,1.3-0.6c0.4-0.2,0.8-0.5,1.3-0.9c0.1,0,0.2,0.1,0.3,0.3c0.1,0.2,0.3,0.4,0.6,0.7c0.2,0.2,0.6,0.5,1,0.7
			c0.4,0.2,0.9,0.3,1.6,0.3c0.6,0,1.1-0.1,1.5-0.2c0.4-0.2,0.7-0.3,0.9-0.6C392.5,186,392.7,185.8,392.8,185.5z M386.3,179.3
			c-0.2,0.5-0.4,1-0.7,1.5c-0.3,0.5-0.7,0.9-1.1,1.3c-0.4,0.4-0.9,0.6-1.5,0.6c-0.3,0-0.5-0.1-0.7-0.2c-0.2-0.1-0.3-0.3-0.5-0.5
			c-0.1-0.2-0.2-0.4-0.3-0.6c-0.1-0.2-0.1-0.5-0.1-0.7c0-0.4,0.1-0.8,0.3-1.4c0.2-0.5,0.4-1,0.8-1.5c0.3-0.5,0.7-0.9,1.1-1.2
			c0.4-0.3,0.9-0.5,1.3-0.5c0.4,0,0.8,0.2,1.1,0.6c0.3,0.4,0.4,0.8,0.4,1.4C386.5,178.4,386.5,178.8,386.3,179.3z M499.2,182.5
			c-0.2,0.1-0.3,0.2-0.5,0.2c-0.2,0.1-0.3,0.1-0.5,0.1c-0.4,0-0.7-0.1-0.8-0.3c-0.1-0.2-0.1-0.4-0.1-0.7l1.1-8.2v-0.4h-0.6
			c0,0-0.2,0-0.3,0.1c-0.2,0-0.4,0.1-0.6,0.1c-0.2,0-0.4,0.1-0.6,0.1c-0.2,0-0.3,0-0.3,0h-3.2c-0.2,0-0.3,0-0.4-0.1
			c-0.1-0.1-0.1-0.2-0.1-0.3c0-0.1,0-0.3-0.1-0.4c0-0.2-0.1-0.3-0.1-0.4c-0.1-0.1-0.2-0.2-0.4-0.3c-0.2-0.1-0.5-0.1-0.8-0.1
			c-0.4,0-0.7,0-1,0c-0.3,0-0.6,0.1-0.9,0.3c-0.3,0.2-0.5,0.5-0.6,1c-0.2,0.5-0.2,1.1-0.2,1.9c0,0.3,0,0.6,0.1,0.8
			c0.1,0.2,0.2,0.4,0.2,0.6c0.1,0.2,0.2,0.3,0.2,0.5c0.1,0.1,0.1,0.3,0.1,0.4c0,0.1,0,0.3-0.1,0.6c-0.1,0.3-0.1,0.7-0.2,1.1
			c-0.1,0.4-0.2,0.8-0.3,1.3c-0.1,0.5-0.2,0.9-0.3,1.3c-0.1,0.4-0.2,0.8-0.3,1.1c0,0,0,0,0,0c-0.1,0-0.3,0.1-0.5,0.1
			c-0.2,0-0.4,0-0.6-0.1c-0.2-0.1-0.3-0.3-0.3-0.5V181l1.4-8.3c-0.1-0.1-0.2-0.2-0.4-0.3c-0.2-0.1-0.4-0.1-0.6-0.1h-0.9
			c-0.3,0-0.5,0-0.8,0c-0.2,0-0.5,0-0.8,0c-0.3,0-0.5,0-0.9,0c-0.1,0.2-0.2,0.3-0.2,0.4c0,0.1-0.1,0.1-0.2,0.1c-0.1,0-0.3,0-0.5-0.1
			c-0.2-0.1-0.4-0.2-0.7-0.3c-0.3-0.1-0.5-0.2-0.8-0.3c-0.3-0.1-0.6-0.1-1-0.1c-1,0-1.9,0.3-2.8,0.8c-0.9,0.5-1.7,1.2-2.4,2
			c-0.7,0.8-1.3,1.8-1.7,3c-0.4,1.1-0.7,2.3-0.7,3.6c0,0.4,0,0.7,0.1,1h-0.1c-0.3,0.2-0.5,0.3-0.7,0.3c-0.2,0.1-0.3,0.1-0.5,0.1
			c-0.4,0-0.6-0.1-0.7-0.3c-0.1-0.2-0.1-0.5-0.1-0.9c0-0.2,0-0.4,0-0.5c0-0.1,0-0.2,0-0.3v-0.4c0-0.2,0-0.4,0-0.7
			c0-0.5,0.1-1,0.1-1.2c0.1-0.3,0.1-0.6,0.2-1.4c0-0.3,0-0.7,0-1.2c0-0.6-0.1-1.1-0.2-1.5c-0.1-0.4-0.3-0.8-0.5-1.1
			c-0.2-0.3-0.5-0.5-0.7-0.7c-0.3-0.2-0.5-0.3-0.7-0.4c-0.2-0.1-0.4-0.1-0.6-0.2c-0.1,0-0.2,0-0.2,0h-1.2c-0.5,0-1,0.1-1.4,0.4
			c-0.4,0.2-0.8,0.5-1.1,0.8c-0.3,0.3-0.7,0.6-1,0.9c-0.3,0.3-0.6,0.5-0.9,0.6c-0.1-0.2-0.3-0.4-0.4-0.8c-0.2-0.3-0.4-0.6-0.7-0.9
			c-0.3-0.3-0.6-0.5-1-0.7c-0.4-0.2-0.9-0.3-1.5-0.3c-0.7,0-1.2,0.1-1.7,0.4c-0.5,0.2-0.9,0.5-1.3,0.8c-0.4,0.3-0.7,0.6-1,0.9
			c-0.3,0.3-0.5,0.5-0.8,0.7v-2.3h-3.4c-0.3,0-0.5,0.1-0.6,0.4c-0.1,0.3-0.2,0.7-0.2,1.2c0,0.5-0.1,1.2-0.1,2c0,0.8-0.1,1.7-0.3,2.8
			c-0.2,0.9-0.3,1.7-0.3,2.5c0,0.4-0.1,0.8-0.1,1.2c-0.1,0-0.1-0.1-0.2-0.1c-0.1,0-0.2,0-0.3,0c-0.1,0-0.2,0.1-0.4,0.1
			c-0.1,0.1-0.3,0.1-0.6,0.1c-0.2,0-0.4,0-0.6-0.1c-0.2-0.1-0.3-0.3-0.3-0.5V181l1.4-8.3c-0.1-0.1-0.2-0.2-0.4-0.3
			c-0.2-0.1-0.4-0.1-0.6-0.1h-0.9c-0.3,0-0.5,0-0.8,0c-0.2,0-0.5,0-0.8,0c-0.3,0-0.5,0-0.9,0c-0.1,0.2-0.2,0.3-0.2,0.4
			c0,0.1-0.1,0.1-0.2,0.1c-0.1,0-0.3,0-0.5-0.1c-0.2-0.1-0.4-0.2-0.7-0.3c-0.3-0.1-0.5-0.2-0.8-0.3c-0.3-0.1-0.6-0.1-1-0.1
			c-1,0-1.9,0.3-2.8,0.8c-0.9,0.5-1.7,1.2-2.4,2c-0.7,0.8-1.3,1.8-1.7,3c-0.4,1.1-0.7,2.3-0.7,3.6c0,0.6,0.1,1.1,0.2,1.6
			c-0.1,0-0.2,0-0.3,0c-0.2,0-0.3-0.1-0.5-0.2c-0.2-0.1-0.4-0.4-0.7-0.7c-0.3-0.4-0.6-0.8-1-1.3c-0.4-0.5-0.7-1-1.1-1.6
			c-0.4-0.5-0.7-1.1-1.1-1.5c-0.3-0.5-0.6-0.9-0.8-1.2c-0.2-0.3-0.3-0.5-0.4-0.6l9.9-11.7h-4.6c-0.2,0-0.4,0.1-0.7,0.3
			c-0.3,0.2-0.5,0.5-0.8,0.8c-0.3,0.3-0.5,0.6-0.7,0.8c-0.2,0.3-0.4,0.5-0.4,0.5c0,0-0.2,0.2-0.5,0.5c-0.3,0.3-0.7,0.8-1.2,1.3
			c-0.5,0.5-1,1.1-1.6,1.7c-0.6,0.6-1.1,1.2-1.6,1.7c-0.5,0.5-0.9,1-1.3,1.4c-0.4,0.4-0.6,0.6-0.7,0.6l-0.1-0.2v-0.5l0.9-8.5
			c0-0.1-0.1-0.2-0.1-0.3c0-0.1-0.1-0.1-0.1-0.1c-0.1,0-0.1,0-0.2,0c-0.1,0-0.3,0-0.5,0h-3.4l-1.9,18.3c-0.1-0.1-0.2-0.1-0.2-0.1
			c-0.1,0-0.2,0-0.3,0c-0.1,0-0.2,0.1-0.4,0.1c-0.1,0.1-0.3,0.1-0.6,0.1c-0.2,0-0.4,0-0.6-0.1c-0.2-0.1-0.3-0.3-0.3-0.5V181l1.4-8.3
			c-0.1-0.1-0.2-0.2-0.4-0.3c-0.2-0.1-0.4-0.1-0.6-0.1h-0.9c-0.3,0-0.5,0-0.8,0c-0.2,0-0.5,0-0.8,0c-0.3,0-0.5,0-0.9,0
			c-0.1,0.2-0.2,0.3-0.2,0.4c0,0.1-0.1,0.1-0.2,0.1c-0.1,0-0.3,0-0.5-0.1c-0.2-0.1-0.4-0.2-0.7-0.3c-0.3-0.1-0.5-0.2-0.8-0.3
			c-0.3-0.1-0.6-0.1-1-0.1c-1,0-1.9,0.3-2.8,0.8c-0.9,0.5-1.7,1.2-2.4,2c-0.7,0.8-1.3,1.8-1.7,3c-0.4,1.1-0.7,2.3-0.7,3.6
			c0,0.1,0,0.2,0,0.3h0c-0.4,0.2-0.7,0.3-1.1,0.4c-0.3,0.1-0.6,0.2-0.9,0.2v-1.1c0-0.5,0.9-9.2,0.9-9.2h-4c0,0,0,0,0,0l-0.9,0
			c0,0-0.6,0.4-0.4,0.9c0.1,0.3,1,0.6,1.1,1.1c0,0,0,0.1,0,0.1c0,0.2,0,0.3-0.1,0.5c-0.2,1.5-0.4,3.5-0.6,6.1
			c-0.1,1.3-0.8,6.8-1,7.7c-0.2,0.8-0.4,2.1-0.5,2.6c-0.2,0.5-0.3,0.9-0.5,1.2c-0.2,0.3-0.3,0.5-0.4,0.7c-0.1,0.2-0.2,0.4-0.3,0.6
			c-0.1,0.2-0.1,0.5-0.1,0.9v1.6c0,0.4,0.1,0.7,0.2,1c0.1,0.3,0.3,0.5,0.6,0.5h3c0.3-0.4,0.5-0.8,0.7-1.2c0.2-0.4,0.4-0.9,0.5-1.3
			c0.1-0.4,0.2-0.8,0.3-1.2c0.1-0.4,0.7-5.7,0.7-6c0-0.3,0.1-0.6,0.3-0.8c0.2-0.2,0.3-0.3,0.6-0.4c0.2-0.1,0.5-0.2,0.7-0.3
			c0.3-0.1,0.5-0.2,0.7-0.3c0.2-0.1,0.4-0.3,0.6-0.6c0.2-0.2,0.3-0.6,0.3-1v-0.9c0,0.1,0.1,0.2,0.1,0.3c0.3,0.7,0.8,1.3,1.3,1.7
			c0.5,0.4,1,0.8,1.5,1c0.5,0.2,1,0.3,1.4,0.3h1c0.4,0,0.9-0.1,1.3-0.3c0.5-0.2,0.9-0.4,1.3-0.6c0.4-0.2,0.8-0.5,1.3-0.9
			c0.1,0,0.2,0.1,0.3,0.3c0.1,0.2,0.3,0.4,0.6,0.7c0.2,0.2,0.6,0.5,1,0.7c0.4,0.2,0.9,0.3,1.6,0.3c0.6,0,1.1-0.1,1.5-0.2
			c0.4-0.2,0.7-0.3,0.9-0.6c0.2-0.2,0.4-0.5,0.5-0.8c0-0.1,0-0.1,0.1-0.2l-0.1,1.2c0,0,0,0.1,0,0.1c0,0,0,0.1,0,0.1
			c0,0,0.1,0.1,0.2,0.1c0.1,0,0.3,0,0.5,0h3.8l0.9-9.1h0.3c0.4,0.5,0.8,1.1,1.3,1.8c0.5,0.7,1,1.4,1.5,2.1c0.5,0.7,1,1.4,1.6,2.1
			c0.5,0.7,1.1,1.3,1.7,1.8c0.6,0.5,1.1,1,1.7,1.3c0.6,0.3,1.2,0.5,1.7,0.5h1c0.2,0,0.4,0,0.6-0.1c0.2-0.1,0.4-0.1,0.6-0.2
			c0.2-0.1,0.3-0.2,0.4-0.3c0.1-0.1,0.2-0.1,0.2-0.2c-0.1-0.3-0.1-0.5-0.2-0.7c0.4,0.3,0.8,0.6,1.3,0.8c0.5,0.2,1,0.3,1.4,0.3h1
			c0.4,0,0.9-0.1,1.3-0.3c0.5-0.2,0.9-0.4,1.3-0.6c0.4-0.2,0.8-0.5,1.3-0.9c0.1,0,0.2,0.1,0.3,0.3c0.1,0.2,0.3,0.4,0.6,0.7
			c0.2,0.2,0.6,0.5,1,0.7c0.4,0.2,0.9,0.3,1.6,0.3c0.6,0,1.1-0.1,1.5-0.2c0.4-0.2,0.7-0.3,0.9-0.6c0.2-0.2,0.4-0.5,0.5-0.8
			c0-0.1,0.1-0.2,0.1-0.3c0,0.2-0.1,0.4-0.1,0.6v1h3.4c0.2,0,0.4,0,0.5-0.1c0.1-0.1,0.1-0.2,0.2-0.4c0-0.2,0.1-0.4,0.1-0.7
			c0-0.3,0.1-0.7,0.1-1.2c0.2-1.1,0.4-2,0.7-2.8c0.3-0.8,0.6-1.4,0.9-2c0.3-0.5,0.6-1,0.9-1.3c0.3-0.3,0.6-0.6,0.8-0.8
			c0.2-0.2,0.5-0.3,0.6-0.4c0.2-0.1,0.3-0.1,0.3-0.1c0.3,0,0.5,0.1,0.7,0.3c0.2,0.2,0.3,0.5,0.3,0.8c0,0.5,0,1-0.1,1.7
			c-0.1,0.7-0.2,1.3-0.3,2c-0.1,0.6-0.2,1.4-0.4,2.3v2.5h3.3c0.2,0,0.4-0.2,0.5-0.7c0.2-0.5,0.3-1.1,0.5-1.8
			c0.2-0.7,0.4-1.5,0.6-2.4c0.2-0.9,0.5-1.6,0.8-2.4c0.3-0.7,0.7-1.3,1.1-1.8c0.4-0.5,0.9-0.7,1.5-0.7c0.3,0,0.5,0.1,0.7,0.3
			c0.1,0.2,0.2,0.5,0.2,0.9c0,0.2,0,0.5-0.1,1c0,0.5-0.1,0.9-0.2,1.4c-0.1,0.5-0.1,1-0.2,1.7v1.4c0,0.3,0.1,0.7,0.3,1.1
			c0.2,0.4,0.4,0.7,0.8,1.1c0.3,0.3,0.6,0.6,1,0.8c0.4,0.2,0.8,0.3,1.1,0.3h1c0.8,0,1.4-0.1,1.7-0.4c0.3-0.3,0.6-0.6,0.7-1
			c0.1-0.4,0.2-0.8,0.2-1.3c0-0.3,0-0.6,0.1-0.9c0.1,0.1,0.1,0.3,0.2,0.4c0.3,0.7,0.8,1.3,1.3,1.7c0.5,0.4,1,0.8,1.5,1
			c0.5,0.2,1,0.3,1.4,0.3h1c0.4,0,0.9-0.1,1.3-0.3c0.5-0.2,0.9-0.4,1.3-0.6c0.4-0.2,0.8-0.5,1.3-0.9c0.1,0,0.2,0.1,0.3,0.3
			c0.1,0.2,0.3,0.4,0.6,0.7c0.2,0.2,0.6,0.5,1,0.7c0.4,0.2,0.9,0.3,1.6,0.3c0.4,0,0.7,0,1-0.1c0,0,0,0,0,0c0.2,0,1,0,1.8-0.5
			c1.8-1,1.9-1.5,2.2-2.1c0.1-0.3,0.2-0.7,0.3-1.5c0.1-0.4,0.3-1.1,0.4-1.6c0.1-0.5,0.2-0.9,0.3-1.4c0.1-0.5,0.2-0.9,0.3-1.3
			c0.1-0.4,0.2-0.7,0.4-0.9c0.2-0.2,0.3-0.4,0.6-0.4h0.4c0.1,0,0.3,0,0.4,0.1c0.1,0,0.2,0.1,0.3,0.2c0.1,0.1,0.2,0.2,0.2,0.4
			l-0.6,4.5v1.4c0,0.3,0.1,0.6,0.2,1c0.1,0.4,0.4,0.7,0.6,1c0.3,0.3,0.6,0.5,1,0.7c0.4,0.2,0.8,0.3,1.3,0.3c0.6,0,1.1,0,1.5-0.1
			c0.4-0.1,0.7-0.2,0.9-0.4c0.2-0.2,0.3-0.4,0.4-0.6c0.1-0.2,0.1-0.5,0.1-0.8c0-0.3,0.1-0.6,0.1-0.9c0-0.3,0.1-0.7,0.2-1v-0.4H499.2
			z M409.8,179.3c-0.2,0.5-0.4,1-0.7,1.5c-0.3,0.5-0.7,0.9-1.1,1.3c-0.4,0.4-0.9,0.6-1.5,0.6c-0.3,0-0.5-0.1-0.7-0.2
			c-0.2-0.1-0.3-0.3-0.5-0.5c-0.1-0.2-0.2-0.4-0.3-0.6c-0.1-0.2-0.1-0.5-0.1-0.7c0-0.4,0.1-0.8,0.3-1.4c0.2-0.5,0.4-1,0.8-1.5
			c0.3-0.5,0.7-0.9,1.1-1.2c0.4-0.3,0.9-0.5,1.3-0.5c0.4,0,0.8,0.2,1.1,0.6c0.3,0.4,0.4,0.8,0.4,1.4
			C410,178.4,409.9,178.8,409.8,179.3z M441.4,179.3c-0.2,0.5-0.4,1-0.7,1.5c-0.3,0.5-0.7,0.9-1.1,1.3c-0.4,0.4-0.9,0.6-1.5,0.6
			c-0.3,0-0.5-0.1-0.7-0.2c-0.2-0.1-0.3-0.3-0.5-0.5c-0.1-0.2-0.2-0.4-0.3-0.6c-0.1-0.2-0.1-0.5-0.1-0.7c0-0.4,0.1-0.8,0.3-1.4
			c0.2-0.5,0.4-1,0.8-1.5c0.3-0.5,0.7-0.9,1.1-1.2c0.4-0.3,0.9-0.5,1.3-0.5c0.4,0,0.8,0.2,1.1,0.6c0.3,0.4,0.4,0.8,0.4,1.4
			C441.7,178.4,441.6,178.8,441.4,179.3z M481.5,179.3c-0.2,0.5-0.4,1-0.7,1.5c-0.3,0.5-0.7,0.9-1.1,1.3c-0.4,0.4-0.9,0.6-1.5,0.6
			c-0.3,0-0.5-0.1-0.7-0.2c-0.2-0.1-0.3-0.3-0.5-0.5c-0.1-0.2-0.2-0.4-0.3-0.6c-0.1-0.2-0.1-0.5-0.1-0.7c0-0.4,0.1-0.8,0.3-1.4
			c0.2-0.5,0.4-1,0.8-1.5c0.3-0.5,0.7-0.9,1.1-1.2c0.4-0.3,0.9-0.5,1.3-0.5c0.4,0,0.8,0.2,1.1,0.6c0.3,0.4,0.4,0.8,0.4,1.4
			C481.7,178.4,481.7,178.8,481.5,179.3z M376.2,182.4c-0.1,0-0.2,0-0.4,0.1c-0.2,0-0.5,0-0.9,0c-0.3,0-0.7-0.1-1-0.3
			c-0.3-0.2-0.7-0.5-1-0.8c-0.3-0.3-0.6-0.6-0.9-1c-0.3-0.3-0.5-0.7-0.7-0.9c-0.2-0.3-0.3-0.5-0.5-0.7c-0.1-0.2-0.2-0.3-0.2-0.3
			c0-0.1,0.1-0.3,0.3-0.5c0.2-0.2,0.5-0.4,0.9-0.6c0.3-0.2,0.7-0.5,1.1-0.9c0.4-0.3,0.8-0.7,1.1-1.1c0.3-0.4,0.6-0.9,0.9-1.4
			c0.2-0.5,0.3-1.1,0.3-1.8v-1.5c0-0.7-0.1-1.3-0.4-1.8c-0.3-0.6-0.6-1.1-1-1.5c-0.4-0.5-0.9-0.9-1.5-1.2c-0.6-0.4-1.1-0.7-1.7-0.9
			c-0.6-0.2-1.2-0.4-1.8-0.6c-0.6-0.1-1.1-0.2-1.6-0.2c-0.5,0-1,0-1.4,0c-0.4,0-0.8,0-1.4,0c-1.4,0-2.5,0-3.3,0.2
			c-0.8,0.1-1.5,0.3-2,0.6c-0.5,0.3-0.8,0.6-1,0.9c-0.2,0.3-0.3,0.7-0.4,1c-0.1,0.4-0.1,0.7-0.1,1c0,0.3,0,0.6-0.1,0.9v1.3
			c0.2,0,0.6-0.2,1.2-0.4c0.6-0.2,1.3-0.4,2-0.6c0.7-0.2,1.5-0.4,2.2-0.6c0.7-0.2,1.2-0.2,1.6-0.2h2.3c0.5,0,1,0.1,1.4,0.2
			c0.5,0.2,0.9,0.4,1.2,0.6c0.4,0.3,0.6,0.5,0.8,0.9c0.2,0.3,0.3,0.7,0.3,1c0,0.3-0.1,0.7-0.3,1c-0.2,0.4-0.5,0.7-0.8,1.1
			c-0.3,0.3-0.7,0.6-1.2,0.8c-0.5,0.2-0.9,0.3-1.4,0.3H366v-4.3H362c0,0-0.1,0.2-0.3,0.7c-0.1,0.4-0.9,7.4-0.9,7.4l-0.9,8.2
			c0,0.1,0.1,0.2,0.1,0.3c0,0.1,0.1,0.1,0.1,0.1c0.1,0,0.1,0,0.2,0c0.1,0,0.2,0,0.4,0h3.4c0,0,0.8-6.8,1-7.4
			c0.3,0.2,0.7,0.6,1.1,1.1c0.4,0.5,0.8,1,1.3,1.6c0.4,0.6,0.9,1.2,1.4,1.8c0.5,0.6,1,1.2,1.5,1.7c0.5,0.5,1,0.9,1.6,1.2
			c0.5,0.3,1.1,0.5,1.7,0.5c0.6,0,1.2-0.1,1.5-0.2c0.4-0.1,0.7-0.3,0.9-0.5c0.2-0.2,0.3-0.5,0.4-0.7c0.1-0.3,0.1-0.6,0.1-0.9
			c0-0.3,0-0.6,0-1c0-0.3,0.1-0.6,0.2-0.9v-0.5c-0.2-0.1-0.3-0.1-0.4-0.1C376.4,182.4,376.3,182.4,376.2,182.4z"/>
	</g>
	
		<text id="XMLID_28_" transform="matrix(1 0 0 1 500.5583 186.6904)" class="st7" style="font-family:'MyriadPro-BoldIt'; font-size:22.1231px; letter-spacing:-1;">.com</text>
</g>
</svg>
